<?xml version="1.0" encoding="UTF-8" standalone="no"?>
<!-- Created with Inkscape (http://www.inkscape.org/) -->

<svg
   version="1.1"
   id="svg1"
   width="14.682861"
   height="17.025894"
   viewBox="0 0 14.682862 17.025894"
   xml:space="preserve"
   xmlns="http://www.w3.org/2000/svg"
   xmlns:svg="http://www.w3.org/2000/svg"><defs
     id="defs1"><linearGradient
       id="swatch337"><stop
         style="stop-color:#000000;stop-opacity:0.6;"
         offset="0"
         id="stop337" /></linearGradient></defs><g
     id="g61"
     transform="translate(-1047.3208,675.14934)"><path
       id="path108-9-1-5-7"
       d="m 1061.5742,-662.59512 -6.9113,4.04222 -6.9125,-4.04256 -10e-5,-8.08277 6.9123,-4.04163 6.9111,4.04129 z"
       style="fill:#4ba7bc;fill-opacity:1;fill-rule:nonzero;stroke:#ffffff;stroke-width:0.858948;stroke-linecap:butt;stroke-linejoin:round;stroke-miterlimit:4;stroke-dasharray:none;stroke-opacity:1" /><path
       id="path109-0-9-6-2"
       d="m 1058.5133,-668.8883 c 0.4436,0.78044 0.4439,3.72514 0,4.50944 -0.447,0.77918 -2.9599,2.25152 -3.8505,2.25195 -0.8906,2e-5 -3.4047,-1.4723 -3.8516,-2.25156 -0.4436,-0.78437 -0.4438,-3.72899 0,-4.50934 0.447,-0.78319 2.961,-2.25568 3.8515,-2.25596 0.8908,0 3.4038,1.47248 3.8507,2.25565 z"
       style="fill:#ffffff;fill-opacity:1;fill-rule:evenodd;stroke:#ffffff;stroke-width:1.01333" /><path
       style="fill:none;fill-opacity:0.315989;stroke:#ffffff;stroke-width:1.16;stroke-linecap:round;stroke-dasharray:none;stroke-opacity:1"
       d="m 1058.0363,-672.3777 -3.6595,6.09527"
       id="path33-1-6-7" /></g></svg>
