<?xml version="1.0" encoding="UTF-8" standalone="no"?>
<!-- Created with Inkscape (http://www.inkscape.org/) -->

<svg
   version="1.1"
   id="svg1"
   width="14.85968"
   height="16.871872"
   viewBox="0 0 14.859681 16.871872"
   xml:space="preserve"
   xmlns="http://www.w3.org/2000/svg"
   xmlns:svg="http://www.w3.org/2000/svg"><defs
     id="defs1"><linearGradient
       id="swatch337"><stop
         style="stop-color:#000000;stop-opacity:0.6;"
         offset="0"
         id="stop337" /></linearGradient></defs><g
     id="g61"
     transform="translate(-1047.2317,675.07244)"><g
       id="g5"
       transform="rotate(-60,1054.6606,-666.63673)"><path
         id="path108-9-1-5-7"
         d="m 1061.5722,-662.59524 -6.9111,4.0426 -6.9125,-4.0426 v -8.0827 l 6.9125,-4.0413 6.9111,4.0413 z"
         style="fill:#4ba7bc;fill-opacity:1;fill-rule:nonzero;stroke:#ffffff;stroke-width:0.858948;stroke-linecap:butt;stroke-linejoin:round;stroke-miterlimit:4;stroke-dasharray:none;stroke-opacity:1" /><path
         id="path109-0-9-6-2"
         d="m 1059.4743,-669.45172 c 0.5548,0.97536 0.5548,4.65631 0,5.63671 -0.5587,0.97403 -3.6999,2.81446 -4.8134,2.81446 -1.1133,0 -4.2559,-1.84043 -4.8145,-2.81446 -0.5548,-0.9804 -0.5548,-4.66135 0,-5.63671 0.5586,-0.97907 3.7012,-2.8196 4.8145,-2.8196 1.1135,0 4.2547,1.84053 4.8134,2.8196 z"
         style="fill:#ffffff;fill-opacity:1;fill-rule:evenodd;stroke:#ffffff;stroke-width:1.26666" /><path
         style="fill:none;fill-opacity:0.315989;stroke:#ffffff;stroke-width:0.897;stroke-linecap:round;stroke-opacity:1"
         d="m 1054.6604,-666.63593 3.4555,-6.06201"
         id="path47" /></g></g></svg>
