<?xml version="1.0" encoding="UTF-8" standalone="no"?>
<!-- Created with Inkscape (http://www.inkscape.org/) -->

<svg
   version="1.1"
   id="svg1"
   width="16.153503"
   height="18.393967"
   viewBox="0 0 16.153504 18.393967"
   xml:space="preserve"
   xmlns="http://www.w3.org/2000/svg"
   xmlns:svg="http://www.w3.org/2000/svg"><defs
     id="defs1"><linearGradient
       id="swatch337"><stop
         style="stop-color:#000000;stop-opacity:0.6;"
         offset="0"
         id="stop337" /></linearGradient></defs><g
     id="g61"
     transform="translate(-1016.9392,676.09365)"><g
       id="g3"
       transform="rotate(-60,1025.0159,-666.89695)"><path
         id="path105-1-1-4-7"
         d="m 1032.7073,-671.29002 0.045,8.86107 -7.693,4.38606 -7.7399,-4.46865 -0.042,-8.85206 7.6905,-4.39507 z"
         style="fill:#f53600;fill-opacity:1;fill-rule:evenodd;stroke:#ffffff;stroke-width:0.678424;stroke-linecap:butt;stroke-linejoin:round;stroke-miterlimit:4;stroke-dasharray:none;stroke-opacity:1" /><path
         id="path106-6-2-7-1"
         d="m 1031.6056,-670.65442 0.042,7.58417 -6.5855,3.75046 -6.6303,-3.828 -0.045,-7.57846 6.5888,-3.75617 z"
         style="fill:#f53600;fill-opacity:1;fill-rule:evenodd;stroke:#ffffff;stroke-width:0.678424;stroke-linecap:butt;stroke-linejoin:round;stroke-miterlimit:4;stroke-dasharray:none;stroke-opacity:1" /><path
         id="path107-9-9-6-7"
         d="m 1024.9841,-672.47682 c 1.1222,0.008 4.3099,1.84765 4.8805,2.81772 0.5679,0.96706 0.5886,4.61216 0.032,5.5764 -0.5543,0.95986 -3.722,2.76561 -4.8434,2.75731 -1.1279,-0.005 -4.3156,-1.84518 -4.8804,-2.81772 -0.5713,-0.96897 -0.5913,-4.61517 -0.037,-5.57503 0.5567,-0.96424 3.7239,-2.76889 4.8486,-2.75868 z"
         style="fill:#ffffff;fill-opacity:1;fill-rule:evenodd;stroke:#ffffff;stroke-width:1.26667" /><path
         style="fill:none;fill-opacity:0.315989;stroke:#ffffff;stroke-width:0.897;stroke-linecap:round;stroke-opacity:1"
         d="m 1024.7565,-666.64242 3.8255,-6.62357"
         id="path45" /></g></g></svg>
