<?xml version="1.0" encoding="UTF-8" standalone="no"?>
<!-- Created with Inkscape (http://www.inkscape.org/) -->

<svg
   version="1.1"
   id="svg1"
   width="14.856445"
   height="16.8759"
   viewBox="0 0 14.856446 16.875901"
   xml:space="preserve"
   xmlns="http://www.w3.org/2000/svg"
   xmlns:svg="http://www.w3.org/2000/svg"><defs
     id="defs1"><linearGradient
       id="swatch337"><stop
         style="stop-color:#000000;stop-opacity:0.6;"
         offset="0"
         id="stop337" /></linearGradient></defs><g
     id="g61"
     transform="translate(-1072.4628,675.78988)"><g
       id="g7"
       transform="rotate(-60,1079.8921,-667.34982)"><path
         id="path115-2-7-9-6"
         d="m 1086.8077,-663.30885 -6.9163,4.0414 -6.9112,-4.0414 v -8.084 l 6.9112,-4.0413 6.9163,4.0413 z"
         style="fill:#efd135;fill-opacity:1;fill-rule:nonzero;stroke:#ffffff;stroke-width:0.858947;stroke-linecap:butt;stroke-linejoin:round;stroke-miterlimit:4;stroke-dasharray:0.858947, 0.858947;stroke-dashoffset:0;stroke-opacity:1" /><path
         id="path116-0-8-3-1"
         d="m 1084.7074,-670.18269 c 0.5548,0.97406 0.5548,4.66142 0,5.63558 -0.5535,0.9753 -3.7013,2.82092 -4.8148,2.82092 -1.107,0 -4.2548,-1.84562 -4.8083,-2.82092 -0.5599,-0.97416 -0.5599,-4.66152 0,-5.63558 0.5535,-0.9754 3.7013,-2.81589 4.8083,-2.81589 1.1135,0 4.2613,1.84049 4.8148,2.81589 z"
         style="fill:#ffffff;fill-opacity:1;fill-rule:evenodd;stroke:#ffffff;stroke-width:1.2667" /><path
         style="fill:none;fill-opacity:0.315989;stroke:#ffffff;stroke-width:0.897;stroke-linecap:round;stroke-opacity:1"
         d="m 1079.894,-667.36239 3.4581,-6.05106"
         id="path53" /></g></g></svg>
