<?xml version="1.0" encoding="UTF-8"?>
<svg xmlns="http://www.w3.org/2000/svg" xmlns:xlink="http://www.w3.org/1999/xlink" width="195" height="195" viewBox="0 0 195 195">
<path fill-rule="evenodd" fill="rgb(62.7%, 12.5%, 94.1%)" fill-opacity="1" stroke-width="0.4" stroke-linecap="butt" stroke-linejoin="round" stroke="rgb(0%, 0%, 0%)" stroke-opacity="1" stroke-miterlimit="10" d="M 64 672 L 64 656 L 80 656 L 80 672 Z M 64 672 " transform="matrix(1, 0, 0, -1, -15, 833)"/>
<path fill-rule="evenodd" fill="rgb(62.7%, 12.5%, 94.1%)" fill-opacity="1" stroke-width="0.4" stroke-linecap="butt" stroke-linejoin="round" stroke="rgb(0%, 0%, 0%)" stroke-opacity="1" stroke-miterlimit="10" d="M 64 688 L 64 672 L 80 672 L 80 688 Z M 64 688 " transform="matrix(1, 0, 0, -1, -15, 833)"/>
<path fill-rule="evenodd" fill="rgb(62.7%, 12.5%, 94.1%)" fill-opacity="1" stroke-width="0.4" stroke-linecap="butt" stroke-linejoin="round" stroke="rgb(0%, 0%, 0%)" stroke-opacity="1" stroke-miterlimit="10" d="M 64 704 L 64 688 L 80 688 L 80 704 Z M 64 704 " transform="matrix(1, 0, 0, -1, -15, 833)"/>
<path fill-rule="evenodd" fill="rgb(100%, 75.3%, 79.6%)" fill-opacity="1" stroke-width="0.4" stroke-linecap="butt" stroke-linejoin="round" stroke="rgb(0%, 0%, 0%)" stroke-opacity="1" stroke-miterlimit="10" d="M 32 720 L 32 704 L 48 704 L 48 720 Z M 32 720 " transform="matrix(1, 0, 0, -1, -15, 833)"/>
<path fill-rule="evenodd" fill="rgb(62.7%, 12.5%, 94.1%)" fill-opacity="1" stroke-width="0.4" stroke-linecap="butt" stroke-linejoin="round" stroke="rgb(0%, 0%, 0%)" stroke-opacity="1" stroke-miterlimit="10" d="M 48 688 L 48 672 L 64 672 L 64 688 Z M 48 688 " transform="matrix(1, 0, 0, -1, -15, 833)"/>
<path fill-rule="evenodd" fill="rgb(62.7%, 12.5%, 94.1%)" fill-opacity="1" stroke-width="0.4" stroke-linecap="butt" stroke-linejoin="round" stroke="rgb(0%, 0%, 0%)" stroke-opacity="1" stroke-miterlimit="10" d="M 48 672 L 48 656 L 64 656 L 64 672 Z M 48 672 " transform="matrix(1, 0, 0, -1, -15, 833)"/>
<path fill-rule="evenodd" fill="rgb(62.7%, 12.5%, 94.1%)" fill-opacity="1" stroke-width="0.4" stroke-linecap="butt" stroke-linejoin="round" stroke="rgb(0%, 0%, 0%)" stroke-opacity="1" stroke-miterlimit="10" d="M 48 704 L 48 688 L 64 688 L 64 704 Z M 48 704 " transform="matrix(1, 0, 0, -1, -15, 833)"/>
<path fill-rule="evenodd" fill="rgb(62.7%, 12.5%, 94.1%)" fill-opacity="1" stroke-width="0.4" stroke-linecap="butt" stroke-linejoin="round" stroke="rgb(0%, 0%, 0%)" stroke-opacity="1" stroke-miterlimit="10" d="M 64 720 L 64 704 L 80 704 L 80 720 Z M 64 720 " transform="matrix(1, 0, 0, -1, -15, 833)"/>
<path fill-rule="evenodd" fill="rgb(100%, 75.3%, 79.6%)" fill-opacity="1" stroke-width="0.4" stroke-linecap="butt" stroke-linejoin="round" stroke="rgb(0%, 0%, 0%)" stroke-opacity="1" stroke-miterlimit="10" d="M 32 704 L 32 688 L 48 688 L 48 704 Z M 32 704 " transform="matrix(1, 0, 0, -1, -15, 833)"/>
<path fill-rule="evenodd" fill="rgb(100%, 75.3%, 79.6%)" fill-opacity="1" stroke-width="0.4" stroke-linecap="butt" stroke-linejoin="round" stroke="rgb(0%, 0%, 0%)" stroke-opacity="1" stroke-miterlimit="10" d="M 32 688 L 32 672 L 48 672 L 48 688 Z M 32 688 " transform="matrix(1, 0, 0, -1, -15, 833)"/>
<path fill-rule="evenodd" fill="rgb(100%, 75.3%, 79.6%)" fill-opacity="1" stroke-width="0.4" stroke-linecap="butt" stroke-linejoin="round" stroke="rgb(0%, 0%, 0%)" stroke-opacity="1" stroke-miterlimit="10" d="M 32 672 L 32 656 L 48 656 L 48 672 Z M 32 672 " transform="matrix(1, 0, 0, -1, -15, 833)"/>
<path fill-rule="evenodd" fill="rgb(100%, 75.3%, 79.6%)" fill-opacity="1" stroke-width="0.4" stroke-linecap="butt" stroke-linejoin="round" stroke="rgb(0%, 0%, 0%)" stroke-opacity="1" stroke-miterlimit="10" d="M 16 720 L 16 704 L 32 704 L 32 720 Z M 16 720 " transform="matrix(1, 0, 0, -1, -15, 833)"/>
<path fill-rule="evenodd" fill="rgb(100%, 75.3%, 79.6%)" fill-opacity="1" stroke-width="0.4" stroke-linecap="butt" stroke-linejoin="round" stroke="rgb(0%, 0%, 0%)" stroke-opacity="1" stroke-miterlimit="10" d="M 16 704 L 16 688 L 32 688 L 32 704 Z M 16 704 " transform="matrix(1, 0, 0, -1, -15, 833)"/>
<path fill-rule="evenodd" fill="rgb(100%, 75.3%, 79.6%)" fill-opacity="1" stroke-width="0.4" stroke-linecap="butt" stroke-linejoin="round" stroke="rgb(0%, 0%, 0%)" stroke-opacity="1" stroke-miterlimit="10" d="M 16 688 L 16 672 L 32 672 L 32 688 Z M 16 688 " transform="matrix(1, 0, 0, -1, -15, 833)"/>
<path fill-rule="evenodd" fill="rgb(100%, 75.3%, 79.6%)" fill-opacity="1" stroke-width="0.4" stroke-linecap="butt" stroke-linejoin="round" stroke="rgb(0%, 0%, 0%)" stroke-opacity="1" stroke-miterlimit="10" d="M 16 672 L 16 656 L 32 656 L 32 672 Z M 16 672 " transform="matrix(1, 0, 0, -1, -15, 833)"/>
<path fill-rule="evenodd" fill="rgb(62.7%, 12.5%, 94.1%)" fill-opacity="1" stroke-width="0.4" stroke-linecap="butt" stroke-linejoin="round" stroke="rgb(0%, 0%, 0%)" stroke-opacity="1" stroke-miterlimit="10" d="M 48 720 L 48 704 L 64 704 L 64 720 Z M 48 720 " transform="matrix(1, 0, 0, -1, -15, 833)"/>
<path fill-rule="evenodd" fill="rgb(62.7%, 12.5%, 94.1%)" fill-opacity="1" stroke-width="0.4" stroke-linecap="butt" stroke-linejoin="round" stroke="rgb(0%, 0%, 0%)" stroke-opacity="1" stroke-miterlimit="10" d="M 80 672 L 80 656 L 96 656 L 96 672 Z M 80 672 " transform="matrix(1, 0, 0, -1, -15, 833)"/>
<path fill-rule="evenodd" fill="rgb(62.7%, 12.5%, 94.1%)" fill-opacity="1" stroke-width="0.4" stroke-linecap="butt" stroke-linejoin="round" stroke="rgb(0%, 0%, 0%)" stroke-opacity="1" stroke-miterlimit="10" d="M 80 688 L 80 672 L 96 672 L 96 688 Z M 80 688 " transform="matrix(1, 0, 0, -1, -15, 833)"/>
<path fill-rule="evenodd" fill="rgb(62.7%, 12.5%, 94.1%)" fill-opacity="1" stroke-width="0.4" stroke-linecap="butt" stroke-linejoin="round" stroke="rgb(0%, 0%, 0%)" stroke-opacity="1" stroke-miterlimit="10" d="M 80 704 L 80 688 L 96 688 L 96 704 Z M 80 704 " transform="matrix(1, 0, 0, -1, -15, 833)"/>
<path fill-rule="evenodd" fill="rgb(62.7%, 12.5%, 94.1%)" fill-opacity="1" stroke-width="0.4" stroke-linecap="butt" stroke-linejoin="round" stroke="rgb(0%, 0%, 0%)" stroke-opacity="1" stroke-miterlimit="10" d="M 80 720 L 80 704 L 96 704 L 96 720 Z M 80 720 " transform="matrix(1, 0, 0, -1, -15, 833)"/>
<path fill-rule="evenodd" fill="rgb(62.7%, 12.5%, 94.1%)" fill-opacity="1" stroke-width="0.4" stroke-linecap="butt" stroke-linejoin="round" stroke="rgb(0%, 0%, 0%)" stroke-opacity="1" stroke-miterlimit="10" d="M 64 656 L 64 640 L 80 640 L 80 656 Z M 64 656 " transform="matrix(1, 0, 0, -1, -15, 833)"/>
<path fill-rule="evenodd" fill="rgb(62.7%, 12.5%, 94.1%)" fill-opacity="1" stroke-width="0.4" stroke-linecap="butt" stroke-linejoin="round" stroke="rgb(0%, 0%, 0%)" stroke-opacity="1" stroke-miterlimit="10" d="M 48 656 L 48 640 L 64 640 L 64 656 Z M 48 656 " transform="matrix(1, 0, 0, -1, -15, 833)"/>
<path fill-rule="evenodd" fill="rgb(100%, 75.3%, 79.6%)" fill-opacity="1" stroke-width="0.4" stroke-linecap="butt" stroke-linejoin="round" stroke="rgb(0%, 0%, 0%)" stroke-opacity="1" stroke-miterlimit="10" d="M 32 656 L 32 640 L 48 640 L 48 656 Z M 32 656 " transform="matrix(1, 0, 0, -1, -15, 833)"/>
<path fill-rule="evenodd" fill="rgb(100%, 75.3%, 79.6%)" fill-opacity="1" stroke-width="0.4" stroke-linecap="butt" stroke-linejoin="round" stroke="rgb(0%, 0%, 0%)" stroke-opacity="1" stroke-miterlimit="10" d="M 16 656 L 16 640 L 32 640 L 32 656 Z M 16 656 " transform="matrix(1, 0, 0, -1, -15, 833)"/>
<path fill-rule="evenodd" fill="rgb(62.7%, 12.5%, 94.1%)" fill-opacity="1" stroke-width="0.4" stroke-linecap="butt" stroke-linejoin="round" stroke="rgb(0%, 0%, 0%)" stroke-opacity="1" stroke-miterlimit="10" d="M 80 656 L 80 640 L 96 640 L 96 656 Z M 80 656 " transform="matrix(1, 0, 0, -1, -15, 833)"/>
<path fill-rule="evenodd" fill="rgb(62.7%, 12.5%, 94.1%)" fill-opacity="1" stroke-width="0.4" stroke-linecap="butt" stroke-linejoin="round" stroke="rgb(0%, 0%, 0%)" stroke-opacity="1" stroke-miterlimit="10" d="M 176 672 L 176 656 L 192 656 L 192 672 Z M 176 672 " transform="matrix(1, 0, 0, -1, -15, 833)"/>
<path fill-rule="evenodd" fill="rgb(62.7%, 12.5%, 94.1%)" fill-opacity="1" stroke-width="0.4" stroke-linecap="butt" stroke-linejoin="round" stroke="rgb(0%, 0%, 0%)" stroke-opacity="1" stroke-miterlimit="10" d="M 176 688 L 176 672 L 192 672 L 192 688 Z M 176 688 " transform="matrix(1, 0, 0, -1, -15, 833)"/>
<path fill-rule="evenodd" fill="rgb(62.7%, 12.5%, 94.1%)" fill-opacity="1" stroke-width="0.4" stroke-linecap="butt" stroke-linejoin="round" stroke="rgb(0%, 0%, 0%)" stroke-opacity="1" stroke-miterlimit="10" d="M 176 704 L 176 688 L 192 688 L 192 704 Z M 176 704 " transform="matrix(1, 0, 0, -1, -15, 833)"/>
<path fill-rule="evenodd" fill="rgb(100%, 75.3%, 79.6%)" fill-opacity="1" stroke-width="0.4" stroke-linecap="butt" stroke-linejoin="round" stroke="rgb(0%, 0%, 0%)" stroke-opacity="1" stroke-miterlimit="10" d="M 144 720 L 144 704 L 160 704 L 160 720 Z M 144 720 " transform="matrix(1, 0, 0, -1, -15, 833)"/>
<path fill-rule="evenodd" fill="rgb(62.7%, 12.5%, 94.1%)" fill-opacity="1" stroke-width="0.4" stroke-linecap="butt" stroke-linejoin="round" stroke="rgb(0%, 0%, 0%)" stroke-opacity="1" stroke-miterlimit="10" d="M 160 688 L 160 672 L 176 672 L 176 688 Z M 160 688 " transform="matrix(1, 0, 0, -1, -15, 833)"/>
<path fill-rule="evenodd" fill="rgb(62.7%, 12.5%, 94.1%)" fill-opacity="1" stroke-width="0.4" stroke-linecap="butt" stroke-linejoin="round" stroke="rgb(0%, 0%, 0%)" stroke-opacity="1" stroke-miterlimit="10" d="M 160 672 L 160 656 L 176 656 L 176 672 Z M 160 672 " transform="matrix(1, 0, 0, -1, -15, 833)"/>
<path fill-rule="evenodd" fill="rgb(62.7%, 12.5%, 94.1%)" fill-opacity="1" stroke-width="0.4" stroke-linecap="butt" stroke-linejoin="round" stroke="rgb(0%, 0%, 0%)" stroke-opacity="1" stroke-miterlimit="10" d="M 160 704 L 160 688 L 176 688 L 176 704 Z M 160 704 " transform="matrix(1, 0, 0, -1, -15, 833)"/>
<path fill-rule="evenodd" fill="rgb(62.7%, 12.5%, 94.1%)" fill-opacity="1" stroke-width="0.4" stroke-linecap="butt" stroke-linejoin="round" stroke="rgb(0%, 0%, 0%)" stroke-opacity="1" stroke-miterlimit="10" d="M 176 720 L 176 704 L 192 704 L 192 720 Z M 176 720 " transform="matrix(1, 0, 0, -1, -15, 833)"/>
<path fill-rule="evenodd" fill="rgb(100%, 75.3%, 79.6%)" fill-opacity="1" stroke-width="0.4" stroke-linecap="butt" stroke-linejoin="round" stroke="rgb(0%, 0%, 0%)" stroke-opacity="1" stroke-miterlimit="10" d="M 144 704 L 144 688 L 160 688 L 160 704 Z M 144 704 " transform="matrix(1, 0, 0, -1, -15, 833)"/>
<path fill-rule="evenodd" fill="rgb(100%, 75.3%, 79.6%)" fill-opacity="1" stroke-width="0.4" stroke-linecap="butt" stroke-linejoin="round" stroke="rgb(0%, 0%, 0%)" stroke-opacity="1" stroke-miterlimit="10" d="M 144 688 L 144 672 L 160 672 L 160 688 Z M 144 688 " transform="matrix(1, 0, 0, -1, -15, 833)"/>
<path fill-rule="evenodd" fill="rgb(100%, 75.3%, 79.6%)" fill-opacity="1" stroke-width="0.4" stroke-linecap="butt" stroke-linejoin="round" stroke="rgb(0%, 0%, 0%)" stroke-opacity="1" stroke-miterlimit="10" d="M 144 672 L 144 656 L 160 656 L 160 672 Z M 144 672 " transform="matrix(1, 0, 0, -1, -15, 833)"/>
<path fill-rule="evenodd" fill="rgb(100%, 75.3%, 79.6%)" fill-opacity="1" stroke-width="0.4" stroke-linecap="butt" stroke-linejoin="round" stroke="rgb(0%, 0%, 0%)" stroke-opacity="1" stroke-miterlimit="10" d="M 128 720 L 128 704 L 144 704 L 144 720 Z M 128 720 " transform="matrix(1, 0, 0, -1, -15, 833)"/>
<path fill-rule="evenodd" fill="rgb(100%, 75.3%, 79.6%)" fill-opacity="1" stroke-width="0.4" stroke-linecap="butt" stroke-linejoin="round" stroke="rgb(0%, 0%, 0%)" stroke-opacity="1" stroke-miterlimit="10" d="M 128 704 L 128 688 L 144 688 L 144 704 Z M 128 704 " transform="matrix(1, 0, 0, -1, -15, 833)"/>
<path fill-rule="evenodd" fill="rgb(100%, 75.3%, 79.6%)" fill-opacity="1" stroke-width="0.4" stroke-linecap="butt" stroke-linejoin="round" stroke="rgb(0%, 0%, 0%)" stroke-opacity="1" stroke-miterlimit="10" d="M 128 688 L 128 672 L 144 672 L 144 688 Z M 128 688 " transform="matrix(1, 0, 0, -1, -15, 833)"/>
<path fill-rule="evenodd" fill="rgb(100%, 75.3%, 79.6%)" fill-opacity="1" stroke-width="0.4" stroke-linecap="butt" stroke-linejoin="round" stroke="rgb(0%, 0%, 0%)" stroke-opacity="1" stroke-miterlimit="10" d="M 128 672 L 128 656 L 144 656 L 144 672 Z M 128 672 " transform="matrix(1, 0, 0, -1, -15, 833)"/>
<path fill-rule="evenodd" fill="rgb(62.7%, 12.5%, 94.1%)" fill-opacity="1" stroke-width="0.4" stroke-linecap="butt" stroke-linejoin="round" stroke="rgb(0%, 0%, 0%)" stroke-opacity="1" stroke-miterlimit="10" d="M 160 720 L 160 704 L 176 704 L 176 720 Z M 160 720 " transform="matrix(1, 0, 0, -1, -15, 833)"/>
<path fill-rule="evenodd" fill="rgb(62.7%, 12.5%, 94.1%)" fill-opacity="1" stroke-width="0.4" stroke-linecap="butt" stroke-linejoin="round" stroke="rgb(0%, 0%, 0%)" stroke-opacity="1" stroke-miterlimit="10" d="M 192 672 L 192 656 L 208 656 L 208 672 Z M 192 672 " transform="matrix(1, 0, 0, -1, -15, 833)"/>
<path fill-rule="evenodd" fill="rgb(62.7%, 12.5%, 94.1%)" fill-opacity="1" stroke-width="0.4" stroke-linecap="butt" stroke-linejoin="round" stroke="rgb(0%, 0%, 0%)" stroke-opacity="1" stroke-miterlimit="10" d="M 192 688 L 192 672 L 208 672 L 208 688 Z M 192 688 " transform="matrix(1, 0, 0, -1, -15, 833)"/>
<path fill-rule="evenodd" fill="rgb(62.7%, 12.5%, 94.1%)" fill-opacity="1" stroke-width="0.4" stroke-linecap="butt" stroke-linejoin="round" stroke="rgb(0%, 0%, 0%)" stroke-opacity="1" stroke-miterlimit="10" d="M 192 704 L 192 688 L 208 688 L 208 704 Z M 192 704 " transform="matrix(1, 0, 0, -1, -15, 833)"/>
<path fill-rule="evenodd" fill="rgb(62.7%, 12.5%, 94.1%)" fill-opacity="1" stroke-width="0.4" stroke-linecap="butt" stroke-linejoin="round" stroke="rgb(0%, 0%, 0%)" stroke-opacity="1" stroke-miterlimit="10" d="M 192 720 L 192 704 L 208 704 L 208 720 Z M 192 720 " transform="matrix(1, 0, 0, -1, -15, 833)"/>
<path fill-rule="evenodd" fill="rgb(62.7%, 12.5%, 94.1%)" fill-opacity="1" stroke-width="0.4" stroke-linecap="butt" stroke-linejoin="round" stroke="rgb(0%, 0%, 0%)" stroke-opacity="1" stroke-miterlimit="10" d="M 176 656 L 176 640 L 192 640 L 192 656 Z M 176 656 " transform="matrix(1, 0, 0, -1, -15, 833)"/>
<path fill-rule="evenodd" fill="rgb(62.7%, 12.5%, 94.1%)" fill-opacity="1" stroke-width="0.4" stroke-linecap="butt" stroke-linejoin="round" stroke="rgb(0%, 0%, 0%)" stroke-opacity="1" stroke-miterlimit="10" d="M 160 656 L 160 640 L 176 640 L 176 656 Z M 160 656 " transform="matrix(1, 0, 0, -1, -15, 833)"/>
<path fill-rule="evenodd" fill="rgb(100%, 75.3%, 79.6%)" fill-opacity="1" stroke-width="0.4" stroke-linecap="butt" stroke-linejoin="round" stroke="rgb(0%, 0%, 0%)" stroke-opacity="1" stroke-miterlimit="10" d="M 144 656 L 144 640 L 160 640 L 160 656 Z M 144 656 " transform="matrix(1, 0, 0, -1, -15, 833)"/>
<path fill-rule="evenodd" fill="rgb(100%, 75.3%, 79.6%)" fill-opacity="1" stroke-width="0.4" stroke-linecap="butt" stroke-linejoin="round" stroke="rgb(0%, 0%, 0%)" stroke-opacity="1" stroke-miterlimit="10" d="M 128 656 L 128 640 L 144 640 L 144 656 Z M 128 656 " transform="matrix(1, 0, 0, -1, -15, 833)"/>
<path fill-rule="evenodd" fill="rgb(62.7%, 12.5%, 94.1%)" fill-opacity="1" stroke-width="0.4" stroke-linecap="butt" stroke-linejoin="round" stroke="rgb(0%, 0%, 0%)" stroke-opacity="1" stroke-miterlimit="10" d="M 192 656 L 192 640 L 208 640 L 208 656 Z M 192 656 " transform="matrix(1, 0, 0, -1, -15, 833)"/>
<path fill="none" stroke-width="2" stroke-linecap="butt" stroke-linejoin="round" stroke="rgb(100%, 100%, 100%)" stroke-opacity="1" stroke-miterlimit="10" d="M 16 720 L 32 720 L 32 640 L 16 640 L 16 720 " transform="matrix(1, 0, 0, -1, -15, 833)"/>
<path fill="none" stroke-width="2" stroke-linecap="butt" stroke-linejoin="round" stroke="rgb(100%, 100%, 100%)" stroke-opacity="1" stroke-miterlimit="10" d="M 32 720 L 48 720 L 48 640 L 32 640 L 32 720 " transform="matrix(1, 0, 0, -1, -15, 833)"/>
<path fill="none" stroke-width="2" stroke-linecap="butt" stroke-linejoin="round" stroke="rgb(100%, 100%, 100%)" stroke-opacity="1" stroke-miterlimit="10" d="M 48 720 L 64 720 L 64 640 L 48 640 L 48 720 " transform="matrix(1, 0, 0, -1, -15, 833)"/>
<path fill="none" stroke-width="2" stroke-linecap="butt" stroke-linejoin="round" stroke="rgb(100%, 100%, 100%)" stroke-opacity="1" stroke-miterlimit="10" d="M 64 720 L 80 720 L 80 640 L 64 640 L 64 720 " transform="matrix(1, 0, 0, -1, -15, 833)"/>
<path fill="none" stroke-width="2" stroke-linecap="butt" stroke-linejoin="round" stroke="rgb(100%, 100%, 100%)" stroke-opacity="1" stroke-miterlimit="10" d="M 80 720 L 96 720 L 96 640 L 80 640 L 80 720 " transform="matrix(1, 0, 0, -1, -15, 833)"/>
<path fill="none" stroke-width="2" stroke-linecap="butt" stroke-linejoin="round" stroke="rgb(100%, 100%, 100%)" stroke-opacity="1" stroke-miterlimit="10" d="M 128 640 L 208 640 L 208 656 L 128 656 L 128 640 " transform="matrix(1, 0, 0, -1, -15, 833)"/>
<path fill="none" stroke-width="2" stroke-linecap="butt" stroke-linejoin="round" stroke="rgb(100%, 100%, 100%)" stroke-opacity="1" stroke-miterlimit="10" d="M 128 656 L 128 672 L 208 672 L 208 656 L 128 656 " transform="matrix(1, 0, 0, -1, -15, 833)"/>
<path fill="none" stroke-width="2" stroke-linecap="butt" stroke-linejoin="round" stroke="rgb(100%, 100%, 100%)" stroke-opacity="1" stroke-miterlimit="10" d="M 128 672 L 128 688 L 208 688 L 208 672 L 128 672 " transform="matrix(1, 0, 0, -1, -15, 833)"/>
<path fill="none" stroke-width="2" stroke-linecap="butt" stroke-linejoin="round" stroke="rgb(100%, 100%, 100%)" stroke-opacity="1" stroke-miterlimit="10" d="M 128 688 L 128 704 L 208 704 L 208 688 L 128 688 " transform="matrix(1, 0, 0, -1, -15, 833)"/>
<path fill="none" stroke-width="2" stroke-linecap="butt" stroke-linejoin="round" stroke="rgb(100%, 100%, 100%)" stroke-opacity="1" stroke-miterlimit="10" d="M 128 704 L 128 720 L 208 720 L 208 704 L 128 704 " transform="matrix(1, 0, 0, -1, -15, 833)"/>
<path fill-rule="evenodd" fill="rgb(62.7%, 12.5%, 94.1%)" fill-opacity="1" stroke-width="0.4" stroke-linecap="butt" stroke-linejoin="round" stroke="rgb(0%, 0%, 0%)" stroke-opacity="1" stroke-miterlimit="10" d="M 64 784 L 64 768 L 80 768 L 80 784 Z M 64 784 " transform="matrix(1, 0, 0, -1, -15, 833)"/>
<path fill-rule="evenodd" fill="rgb(62.7%, 12.5%, 94.1%)" fill-opacity="1" stroke-width="0.4" stroke-linecap="butt" stroke-linejoin="round" stroke="rgb(0%, 0%, 0%)" stroke-opacity="1" stroke-miterlimit="10" d="M 64 800 L 64 784 L 80 784 L 80 800 Z M 64 800 " transform="matrix(1, 0, 0, -1, -15, 833)"/>
<path fill-rule="evenodd" fill="rgb(62.7%, 12.5%, 94.1%)" fill-opacity="1" stroke-width="0.4" stroke-linecap="butt" stroke-linejoin="round" stroke="rgb(0%, 0%, 0%)" stroke-opacity="1" stroke-miterlimit="10" d="M 64 816 L 64 800 L 80 800 L 80 816 Z M 64 816 " transform="matrix(1, 0, 0, -1, -15, 833)"/>
<path fill-rule="evenodd" fill="rgb(100%, 75.3%, 79.6%)" fill-opacity="1" stroke-width="0.4" stroke-linecap="butt" stroke-linejoin="round" stroke="rgb(0%, 0%, 0%)" stroke-opacity="1" stroke-miterlimit="10" d="M 32 832 L 32 816 L 48 816 L 48 832 Z M 32 832 " transform="matrix(1, 0, 0, -1, -15, 833)"/>
<path fill-rule="evenodd" fill="rgb(62.7%, 12.5%, 94.1%)" fill-opacity="1" stroke-width="0.4" stroke-linecap="butt" stroke-linejoin="round" stroke="rgb(0%, 0%, 0%)" stroke-opacity="1" stroke-miterlimit="10" d="M 48 800 L 48 784 L 64 784 L 64 800 Z M 48 800 " transform="matrix(1, 0, 0, -1, -15, 833)"/>
<path fill-rule="evenodd" fill="rgb(62.7%, 12.5%, 94.1%)" fill-opacity="1" stroke-width="0.4" stroke-linecap="butt" stroke-linejoin="round" stroke="rgb(0%, 0%, 0%)" stroke-opacity="1" stroke-miterlimit="10" d="M 48 784 L 48 768 L 64 768 L 64 784 Z M 48 784 " transform="matrix(1, 0, 0, -1, -15, 833)"/>
<path fill-rule="evenodd" fill="rgb(62.7%, 12.5%, 94.1%)" fill-opacity="1" stroke-width="0.4" stroke-linecap="butt" stroke-linejoin="round" stroke="rgb(0%, 0%, 0%)" stroke-opacity="1" stroke-miterlimit="10" d="M 48 816 L 48 800 L 64 800 L 64 816 Z M 48 816 " transform="matrix(1, 0, 0, -1, -15, 833)"/>
<path fill-rule="evenodd" fill="rgb(62.7%, 12.5%, 94.1%)" fill-opacity="1" stroke-width="0.4" stroke-linecap="butt" stroke-linejoin="round" stroke="rgb(0%, 0%, 0%)" stroke-opacity="1" stroke-miterlimit="10" d="M 64 832 L 64 816 L 80 816 L 80 832 Z M 64 832 " transform="matrix(1, 0, 0, -1, -15, 833)"/>
<path fill-rule="evenodd" fill="rgb(100%, 75.3%, 79.6%)" fill-opacity="1" stroke-width="0.4" stroke-linecap="butt" stroke-linejoin="round" stroke="rgb(0%, 0%, 0%)" stroke-opacity="1" stroke-miterlimit="10" d="M 32 816 L 32 800 L 48 800 L 48 816 Z M 32 816 " transform="matrix(1, 0, 0, -1, -15, 833)"/>
<path fill-rule="evenodd" fill="rgb(100%, 75.3%, 79.6%)" fill-opacity="1" stroke-width="0.4" stroke-linecap="butt" stroke-linejoin="round" stroke="rgb(0%, 0%, 0%)" stroke-opacity="1" stroke-miterlimit="10" d="M 32 800 L 32 784 L 48 784 L 48 800 Z M 32 800 " transform="matrix(1, 0, 0, -1, -15, 833)"/>
<path fill-rule="evenodd" fill="rgb(100%, 75.3%, 79.6%)" fill-opacity="1" stroke-width="0.4" stroke-linecap="butt" stroke-linejoin="round" stroke="rgb(0%, 0%, 0%)" stroke-opacity="1" stroke-miterlimit="10" d="M 32 784 L 32 768 L 48 768 L 48 784 Z M 32 784 " transform="matrix(1, 0, 0, -1, -15, 833)"/>
<path fill-rule="evenodd" fill="rgb(100%, 75.3%, 79.6%)" fill-opacity="1" stroke-width="0.4" stroke-linecap="butt" stroke-linejoin="round" stroke="rgb(0%, 0%, 0%)" stroke-opacity="1" stroke-miterlimit="10" d="M 16 832 L 16 816 L 32 816 L 32 832 Z M 16 832 " transform="matrix(1, 0, 0, -1, -15, 833)"/>
<path fill-rule="evenodd" fill="rgb(100%, 75.3%, 79.6%)" fill-opacity="1" stroke-width="0.4" stroke-linecap="butt" stroke-linejoin="round" stroke="rgb(0%, 0%, 0%)" stroke-opacity="1" stroke-miterlimit="10" d="M 16 816 L 16 800 L 32 800 L 32 816 Z M 16 816 " transform="matrix(1, 0, 0, -1, -15, 833)"/>
<path fill-rule="evenodd" fill="rgb(100%, 75.3%, 79.6%)" fill-opacity="1" stroke-width="0.4" stroke-linecap="butt" stroke-linejoin="round" stroke="rgb(0%, 0%, 0%)" stroke-opacity="1" stroke-miterlimit="10" d="M 16 800 L 16 784 L 32 784 L 32 800 Z M 16 800 " transform="matrix(1, 0, 0, -1, -15, 833)"/>
<path fill-rule="evenodd" fill="rgb(100%, 75.3%, 79.6%)" fill-opacity="1" stroke-width="0.4" stroke-linecap="butt" stroke-linejoin="round" stroke="rgb(0%, 0%, 0%)" stroke-opacity="1" stroke-miterlimit="10" d="M 16 784 L 16 768 L 32 768 L 32 784 Z M 16 784 " transform="matrix(1, 0, 0, -1, -15, 833)"/>
<path fill-rule="evenodd" fill="rgb(62.7%, 12.5%, 94.1%)" fill-opacity="1" stroke-width="0.4" stroke-linecap="butt" stroke-linejoin="round" stroke="rgb(0%, 0%, 0%)" stroke-opacity="1" stroke-miterlimit="10" d="M 48 832 L 48 816 L 64 816 L 64 832 Z M 48 832 " transform="matrix(1, 0, 0, -1, -15, 833)"/>
<path fill-rule="evenodd" fill="rgb(62.7%, 12.5%, 94.1%)" fill-opacity="1" stroke-width="0.4" stroke-linecap="butt" stroke-linejoin="round" stroke="rgb(0%, 0%, 0%)" stroke-opacity="1" stroke-miterlimit="10" d="M 80 784 L 80 768 L 96 768 L 96 784 Z M 80 784 " transform="matrix(1, 0, 0, -1, -15, 833)"/>
<path fill-rule="evenodd" fill="rgb(62.7%, 12.5%, 94.1%)" fill-opacity="1" stroke-width="0.4" stroke-linecap="butt" stroke-linejoin="round" stroke="rgb(0%, 0%, 0%)" stroke-opacity="1" stroke-miterlimit="10" d="M 80 800 L 80 784 L 96 784 L 96 800 Z M 80 800 " transform="matrix(1, 0, 0, -1, -15, 833)"/>
<path fill-rule="evenodd" fill="rgb(62.7%, 12.5%, 94.1%)" fill-opacity="1" stroke-width="0.4" stroke-linecap="butt" stroke-linejoin="round" stroke="rgb(0%, 0%, 0%)" stroke-opacity="1" stroke-miterlimit="10" d="M 80 816 L 80 800 L 96 800 L 96 816 Z M 80 816 " transform="matrix(1, 0, 0, -1, -15, 833)"/>
<path fill-rule="evenodd" fill="rgb(62.7%, 12.5%, 94.1%)" fill-opacity="1" stroke-width="0.4" stroke-linecap="butt" stroke-linejoin="round" stroke="rgb(0%, 0%, 0%)" stroke-opacity="1" stroke-miterlimit="10" d="M 80 832 L 80 816 L 96 816 L 96 832 Z M 80 832 " transform="matrix(1, 0, 0, -1, -15, 833)"/>
<path fill-rule="evenodd" fill="rgb(62.7%, 12.5%, 94.1%)" fill-opacity="1" stroke-width="0.4" stroke-linecap="butt" stroke-linejoin="round" stroke="rgb(0%, 0%, 0%)" stroke-opacity="1" stroke-miterlimit="10" d="M 64 768 L 64 752 L 80 752 L 80 768 Z M 64 768 " transform="matrix(1, 0, 0, -1, -15, 833)"/>
<path fill-rule="evenodd" fill="rgb(62.7%, 12.5%, 94.1%)" fill-opacity="1" stroke-width="0.4" stroke-linecap="butt" stroke-linejoin="round" stroke="rgb(0%, 0%, 0%)" stroke-opacity="1" stroke-miterlimit="10" d="M 48 768 L 48 752 L 64 752 L 64 768 Z M 48 768 " transform="matrix(1, 0, 0, -1, -15, 833)"/>
<path fill-rule="evenodd" fill="rgb(100%, 75.3%, 79.6%)" fill-opacity="1" stroke-width="0.4" stroke-linecap="butt" stroke-linejoin="round" stroke="rgb(0%, 0%, 0%)" stroke-opacity="1" stroke-miterlimit="10" d="M 32 768 L 32 752 L 48 752 L 48 768 Z M 32 768 " transform="matrix(1, 0, 0, -1, -15, 833)"/>
<path fill-rule="evenodd" fill="rgb(100%, 75.3%, 79.6%)" fill-opacity="1" stroke-width="0.4" stroke-linecap="butt" stroke-linejoin="round" stroke="rgb(0%, 0%, 0%)" stroke-opacity="1" stroke-miterlimit="10" d="M 16 768 L 16 752 L 32 752 L 32 768 Z M 16 768 " transform="matrix(1, 0, 0, -1, -15, 833)"/>
<path fill-rule="evenodd" fill="rgb(62.7%, 12.5%, 94.1%)" fill-opacity="1" stroke-width="0.4" stroke-linecap="butt" stroke-linejoin="round" stroke="rgb(0%, 0%, 0%)" stroke-opacity="1" stroke-miterlimit="10" d="M 80 768 L 80 752 L 96 752 L 96 768 Z M 80 768 " transform="matrix(1, 0, 0, -1, -15, 833)"/>
<path fill="none" stroke-width="2" stroke-linecap="butt" stroke-linejoin="round" stroke="rgb(100%, 100%, 100%)" stroke-opacity="1" stroke-miterlimit="10" d="M 16 832 L 16 800 L 64 800 L 64 816 L 48 816 L 48 832 L 16 832 " transform="matrix(1, 0, 0, -1, -15, 833)"/>
<path fill="none" stroke-width="2" stroke-linecap="butt" stroke-linejoin="round" stroke="rgb(100%, 100%, 100%)" stroke-opacity="1" stroke-miterlimit="10" d="M 16 800 L 48 800 L 48 768 L 32 768 L 32 752 L 16 752 L 16 800 " transform="matrix(1, 0, 0, -1, -15, 833)"/>
<path fill="none" stroke-width="2" stroke-linecap="butt" stroke-linejoin="round" stroke="rgb(100%, 100%, 100%)" stroke-opacity="1" stroke-miterlimit="10" d="M 32 752 L 80 752 L 80 784 L 48 784 L 48 768 L 32 768 L 32 752 " transform="matrix(1, 0, 0, -1, -15, 833)"/>
<path fill="none" stroke-width="2" stroke-linecap="butt" stroke-linejoin="round" stroke="rgb(100%, 100%, 100%)" stroke-opacity="1" stroke-miterlimit="10" d="M 48 832 L 96 832 L 96 800 L 64 800 L 64 816 L 48 816 L 48 832 " transform="matrix(1, 0, 0, -1, -15, 833)"/>
<path fill="none" stroke-width="2" stroke-linecap="butt" stroke-linejoin="round" stroke="rgb(100%, 100%, 100%)" stroke-opacity="1" stroke-miterlimit="10" d="M 48 800 L 96 800 L 96 752 L 80 752 L 80 784 L 48 784 L 48 800 " transform="matrix(1, 0, 0, -1, -15, 833)"/>
<path fill-rule="evenodd" fill="rgb(62.7%, 12.5%, 94.1%)" fill-opacity="1" stroke-width="0.4" stroke-linecap="butt" stroke-linejoin="round" stroke="rgb(0%, 0%, 0%)" stroke-opacity="1" stroke-miterlimit="10" d="M 176 784 L 176 768 L 192 768 L 192 784 Z M 176 784 " transform="matrix(1, 0, 0, -1, -15, 833)"/>
<path fill-rule="evenodd" fill="rgb(62.7%, 12.5%, 94.1%)" fill-opacity="1" stroke-width="0.4" stroke-linecap="butt" stroke-linejoin="round" stroke="rgb(0%, 0%, 0%)" stroke-opacity="1" stroke-miterlimit="10" d="M 176 800 L 176 784 L 192 784 L 192 800 Z M 176 800 " transform="matrix(1, 0, 0, -1, -15, 833)"/>
<path fill-rule="evenodd" fill="rgb(62.7%, 12.5%, 94.1%)" fill-opacity="1" stroke-width="0.4" stroke-linecap="butt" stroke-linejoin="round" stroke="rgb(0%, 0%, 0%)" stroke-opacity="1" stroke-miterlimit="10" d="M 176 816 L 176 800 L 192 800 L 192 816 Z M 176 816 " transform="matrix(1, 0, 0, -1, -15, 833)"/>
<path fill-rule="evenodd" fill="rgb(100%, 75.3%, 79.6%)" fill-opacity="1" stroke-width="0.4" stroke-linecap="butt" stroke-linejoin="round" stroke="rgb(0%, 0%, 0%)" stroke-opacity="1" stroke-miterlimit="10" d="M 144 832 L 144 816 L 160 816 L 160 832 Z M 144 832 " transform="matrix(1, 0, 0, -1, -15, 833)"/>
<path fill-rule="evenodd" fill="rgb(62.7%, 12.5%, 94.1%)" fill-opacity="1" stroke-width="0.4" stroke-linecap="butt" stroke-linejoin="round" stroke="rgb(0%, 0%, 0%)" stroke-opacity="1" stroke-miterlimit="10" d="M 160 800 L 160 784 L 176 784 L 176 800 Z M 160 800 " transform="matrix(1, 0, 0, -1, -15, 833)"/>
<path fill-rule="evenodd" fill="rgb(62.7%, 12.5%, 94.1%)" fill-opacity="1" stroke-width="0.4" stroke-linecap="butt" stroke-linejoin="round" stroke="rgb(0%, 0%, 0%)" stroke-opacity="1" stroke-miterlimit="10" d="M 160 784 L 160 768 L 176 768 L 176 784 Z M 160 784 " transform="matrix(1, 0, 0, -1, -15, 833)"/>
<path fill-rule="evenodd" fill="rgb(62.7%, 12.5%, 94.1%)" fill-opacity="1" stroke-width="0.4" stroke-linecap="butt" stroke-linejoin="round" stroke="rgb(0%, 0%, 0%)" stroke-opacity="1" stroke-miterlimit="10" d="M 160 816 L 160 800 L 176 800 L 176 816 Z M 160 816 " transform="matrix(1, 0, 0, -1, -15, 833)"/>
<path fill-rule="evenodd" fill="rgb(62.7%, 12.5%, 94.1%)" fill-opacity="1" stroke-width="0.4" stroke-linecap="butt" stroke-linejoin="round" stroke="rgb(0%, 0%, 0%)" stroke-opacity="1" stroke-miterlimit="10" d="M 176 832 L 176 816 L 192 816 L 192 832 Z M 176 832 " transform="matrix(1, 0, 0, -1, -15, 833)"/>
<path fill-rule="evenodd" fill="rgb(100%, 75.3%, 79.6%)" fill-opacity="1" stroke-width="0.4" stroke-linecap="butt" stroke-linejoin="round" stroke="rgb(0%, 0%, 0%)" stroke-opacity="1" stroke-miterlimit="10" d="M 144 816 L 144 800 L 160 800 L 160 816 Z M 144 816 " transform="matrix(1, 0, 0, -1, -15, 833)"/>
<path fill-rule="evenodd" fill="rgb(100%, 75.3%, 79.6%)" fill-opacity="1" stroke-width="0.4" stroke-linecap="butt" stroke-linejoin="round" stroke="rgb(0%, 0%, 0%)" stroke-opacity="1" stroke-miterlimit="10" d="M 144 800 L 144 784 L 160 784 L 160 800 Z M 144 800 " transform="matrix(1, 0, 0, -1, -15, 833)"/>
<path fill-rule="evenodd" fill="rgb(100%, 75.3%, 79.6%)" fill-opacity="1" stroke-width="0.4" stroke-linecap="butt" stroke-linejoin="round" stroke="rgb(0%, 0%, 0%)" stroke-opacity="1" stroke-miterlimit="10" d="M 144 784 L 144 768 L 160 768 L 160 784 Z M 144 784 " transform="matrix(1, 0, 0, -1, -15, 833)"/>
<path fill-rule="evenodd" fill="rgb(100%, 75.3%, 79.6%)" fill-opacity="1" stroke-width="0.4" stroke-linecap="butt" stroke-linejoin="round" stroke="rgb(0%, 0%, 0%)" stroke-opacity="1" stroke-miterlimit="10" d="M 128 832 L 128 816 L 144 816 L 144 832 Z M 128 832 " transform="matrix(1, 0, 0, -1, -15, 833)"/>
<path fill-rule="evenodd" fill="rgb(100%, 75.3%, 79.6%)" fill-opacity="1" stroke-width="0.4" stroke-linecap="butt" stroke-linejoin="round" stroke="rgb(0%, 0%, 0%)" stroke-opacity="1" stroke-miterlimit="10" d="M 128 816 L 128 800 L 144 800 L 144 816 Z M 128 816 " transform="matrix(1, 0, 0, -1, -15, 833)"/>
<path fill-rule="evenodd" fill="rgb(100%, 75.3%, 79.6%)" fill-opacity="1" stroke-width="0.4" stroke-linecap="butt" stroke-linejoin="round" stroke="rgb(0%, 0%, 0%)" stroke-opacity="1" stroke-miterlimit="10" d="M 128 800 L 128 784 L 144 784 L 144 800 Z M 128 800 " transform="matrix(1, 0, 0, -1, -15, 833)"/>
<path fill-rule="evenodd" fill="rgb(100%, 75.3%, 79.6%)" fill-opacity="1" stroke-width="0.4" stroke-linecap="butt" stroke-linejoin="round" stroke="rgb(0%, 0%, 0%)" stroke-opacity="1" stroke-miterlimit="10" d="M 128 784 L 128 768 L 144 768 L 144 784 Z M 128 784 " transform="matrix(1, 0, 0, -1, -15, 833)"/>
<path fill-rule="evenodd" fill="rgb(62.7%, 12.5%, 94.1%)" fill-opacity="1" stroke-width="0.4" stroke-linecap="butt" stroke-linejoin="round" stroke="rgb(0%, 0%, 0%)" stroke-opacity="1" stroke-miterlimit="10" d="M 160 832 L 160 816 L 176 816 L 176 832 Z M 160 832 " transform="matrix(1, 0, 0, -1, -15, 833)"/>
<path fill-rule="evenodd" fill="rgb(62.7%, 12.5%, 94.1%)" fill-opacity="1" stroke-width="0.4" stroke-linecap="butt" stroke-linejoin="round" stroke="rgb(0%, 0%, 0%)" stroke-opacity="1" stroke-miterlimit="10" d="M 192 784 L 192 768 L 208 768 L 208 784 Z M 192 784 " transform="matrix(1, 0, 0, -1, -15, 833)"/>
<path fill-rule="evenodd" fill="rgb(62.7%, 12.5%, 94.1%)" fill-opacity="1" stroke-width="0.4" stroke-linecap="butt" stroke-linejoin="round" stroke="rgb(0%, 0%, 0%)" stroke-opacity="1" stroke-miterlimit="10" d="M 192 800 L 192 784 L 208 784 L 208 800 Z M 192 800 " transform="matrix(1, 0, 0, -1, -15, 833)"/>
<path fill-rule="evenodd" fill="rgb(62.7%, 12.5%, 94.1%)" fill-opacity="1" stroke-width="0.4" stroke-linecap="butt" stroke-linejoin="round" stroke="rgb(0%, 0%, 0%)" stroke-opacity="1" stroke-miterlimit="10" d="M 192 816 L 192 800 L 208 800 L 208 816 Z M 192 816 " transform="matrix(1, 0, 0, -1, -15, 833)"/>
<path fill-rule="evenodd" fill="rgb(62.7%, 12.5%, 94.1%)" fill-opacity="1" stroke-width="0.4" stroke-linecap="butt" stroke-linejoin="round" stroke="rgb(0%, 0%, 0%)" stroke-opacity="1" stroke-miterlimit="10" d="M 192 832 L 192 816 L 208 816 L 208 832 Z M 192 832 " transform="matrix(1, 0, 0, -1, -15, 833)"/>
<path fill-rule="evenodd" fill="rgb(62.7%, 12.5%, 94.1%)" fill-opacity="1" stroke-width="0.4" stroke-linecap="butt" stroke-linejoin="round" stroke="rgb(0%, 0%, 0%)" stroke-opacity="1" stroke-miterlimit="10" d="M 176 768 L 176 752 L 192 752 L 192 768 Z M 176 768 " transform="matrix(1, 0, 0, -1, -15, 833)"/>
<path fill-rule="evenodd" fill="rgb(62.7%, 12.5%, 94.1%)" fill-opacity="1" stroke-width="0.4" stroke-linecap="butt" stroke-linejoin="round" stroke="rgb(0%, 0%, 0%)" stroke-opacity="1" stroke-miterlimit="10" d="M 160 768 L 160 752 L 176 752 L 176 768 Z M 160 768 " transform="matrix(1, 0, 0, -1, -15, 833)"/>
<path fill-rule="evenodd" fill="rgb(100%, 75.3%, 79.6%)" fill-opacity="1" stroke-width="0.4" stroke-linecap="butt" stroke-linejoin="round" stroke="rgb(0%, 0%, 0%)" stroke-opacity="1" stroke-miterlimit="10" d="M 144 768 L 144 752 L 160 752 L 160 768 Z M 144 768 " transform="matrix(1, 0, 0, -1, -15, 833)"/>
<path fill-rule="evenodd" fill="rgb(100%, 75.3%, 79.6%)" fill-opacity="1" stroke-width="0.4" stroke-linecap="butt" stroke-linejoin="round" stroke="rgb(0%, 0%, 0%)" stroke-opacity="1" stroke-miterlimit="10" d="M 128 768 L 128 752 L 144 752 L 144 768 Z M 128 768 " transform="matrix(1, 0, 0, -1, -15, 833)"/>
<path fill-rule="evenodd" fill="rgb(62.7%, 12.5%, 94.1%)" fill-opacity="1" stroke-width="0.4" stroke-linecap="butt" stroke-linejoin="round" stroke="rgb(0%, 0%, 0%)" stroke-opacity="1" stroke-miterlimit="10" d="M 192 768 L 192 752 L 208 752 L 208 768 Z M 192 768 " transform="matrix(1, 0, 0, -1, -15, 833)"/>
<path fill="none" stroke-width="2" stroke-linecap="butt" stroke-linejoin="round" stroke="rgb(100%, 100%, 100%)" stroke-opacity="1" stroke-miterlimit="10" d="M 128 768 L 144 768 L 144 784 L 176 784 L 176 752 L 128 752 L 128 768 " transform="matrix(1, 0, 0, -1, -15, 833)"/>
<path fill="none" stroke-width="2" stroke-linecap="butt" stroke-linejoin="round" stroke="rgb(100%, 100%, 100%)" stroke-opacity="1" stroke-miterlimit="10" d="M 128 768 L 128 800 L 192 800 L 192 784 L 144 784 L 144 768 L 128 768 " transform="matrix(1, 0, 0, -1, -15, 833)"/>
<path fill="none" stroke-width="2" stroke-linecap="butt" stroke-linejoin="round" stroke="rgb(100%, 100%, 100%)" stroke-opacity="1" stroke-miterlimit="10" d="M 128 800 L 128 832 L 160 832 L 160 816 L 176 816 L 176 800 L 128 800 " transform="matrix(1, 0, 0, -1, -15, 833)"/>
<path fill="none" stroke-width="2" stroke-linecap="butt" stroke-linejoin="round" stroke="rgb(100%, 100%, 100%)" stroke-opacity="1" stroke-miterlimit="10" d="M 160 832 L 208 832 L 208 800 L 176 800 L 176 816 L 160 816 L 160 832 " transform="matrix(1, 0, 0, -1, -15, 833)"/>
<path fill="none" stroke-width="2" stroke-linecap="butt" stroke-linejoin="round" stroke="rgb(100%, 100%, 100%)" stroke-opacity="1" stroke-miterlimit="10" d="M 192 800 L 208 800 L 208 752 L 176 752 L 176 784 L 192 784 L 192 800 " transform="matrix(1, 0, 0, -1, -15, 833)"/>
</svg>
