<?xml version="1.0" encoding="UTF-8"?>
<svg xmlns="http://www.w3.org/2000/svg" xmlns:xlink="http://www.w3.org/1999/xlink" width="504" height="309" viewBox="0 0 504 309">
<path fill-rule="evenodd" fill="rgb(62.7%, 12.5%, 94.1%)" fill-opacity="1" stroke-width="0.4" stroke-linecap="butt" stroke-linejoin="round" stroke="rgb(0%, 0%, 0%)" stroke-opacity="1" stroke-miterlimit="10" d="M 384 592 L 384 576 L 400 576 L 400 592 Z M 384 592 " transform="matrix(1, 0, 0, -1, -82, 819)"/>
<path fill-rule="evenodd" fill="rgb(62.7%, 12.5%, 94.1%)" fill-opacity="1" stroke-width="0.4" stroke-linecap="butt" stroke-linejoin="round" stroke="rgb(0%, 0%, 0%)" stroke-opacity="1" stroke-miterlimit="10" d="M 384 608 L 384 592 L 400 592 L 400 608 Z M 384 608 " transform="matrix(1, 0, 0, -1, -82, 819)"/>
<path fill-rule="evenodd" fill="rgb(62.7%, 12.5%, 94.1%)" fill-opacity="1" stroke-width="0.4" stroke-linecap="butt" stroke-linejoin="round" stroke="rgb(0%, 0%, 0%)" stroke-opacity="1" stroke-miterlimit="10" d="M 384 624 L 384 608 L 400 608 L 400 624 Z M 384 624 " transform="matrix(1, 0, 0, -1, -82, 819)"/>
<path fill-rule="evenodd" fill="rgb(100%, 75.3%, 79.6%)" fill-opacity="1" stroke-width="0.4" stroke-linecap="butt" stroke-linejoin="round" stroke="rgb(0%, 0%, 0%)" stroke-opacity="1" stroke-miterlimit="10" d="M 352 640 L 352 624 L 368 624 L 368 640 Z M 352 640 " transform="matrix(1, 0, 0, -1, -82, 819)"/>
<path fill-rule="evenodd" fill="rgb(62.7%, 12.5%, 94.1%)" fill-opacity="1" stroke-width="0.4" stroke-linecap="butt" stroke-linejoin="round" stroke="rgb(0%, 0%, 0%)" stroke-opacity="1" stroke-miterlimit="10" d="M 368 608 L 368 592 L 384 592 L 384 608 Z M 368 608 " transform="matrix(1, 0, 0, -1, -82, 819)"/>
<path fill-rule="evenodd" fill="rgb(62.7%, 12.5%, 94.1%)" fill-opacity="1" stroke-width="0.4" stroke-linecap="butt" stroke-linejoin="round" stroke="rgb(0%, 0%, 0%)" stroke-opacity="1" stroke-miterlimit="10" d="M 368 592 L 368 576 L 384 576 L 384 592 Z M 368 592 " transform="matrix(1, 0, 0, -1, -82, 819)"/>
<path fill-rule="evenodd" fill="rgb(62.7%, 12.5%, 94.1%)" fill-opacity="1" stroke-width="0.4" stroke-linecap="butt" stroke-linejoin="round" stroke="rgb(0%, 0%, 0%)" stroke-opacity="1" stroke-miterlimit="10" d="M 368 624 L 368 608 L 384 608 L 384 624 Z M 368 624 " transform="matrix(1, 0, 0, -1, -82, 819)"/>
<path fill-rule="evenodd" fill="rgb(62.7%, 12.5%, 94.1%)" fill-opacity="1" stroke-width="0.4" stroke-linecap="butt" stroke-linejoin="round" stroke="rgb(0%, 0%, 0%)" stroke-opacity="1" stroke-miterlimit="10" d="M 384 640 L 384 624 L 400 624 L 400 640 Z M 384 640 " transform="matrix(1, 0, 0, -1, -82, 819)"/>
<path fill-rule="evenodd" fill="rgb(100%, 75.3%, 79.6%)" fill-opacity="1" stroke-width="0.4" stroke-linecap="butt" stroke-linejoin="round" stroke="rgb(0%, 0%, 0%)" stroke-opacity="1" stroke-miterlimit="10" d="M 352 624 L 352 608 L 368 608 L 368 624 Z M 352 624 " transform="matrix(1, 0, 0, -1, -82, 819)"/>
<path fill-rule="evenodd" fill="rgb(100%, 75.3%, 79.6%)" fill-opacity="1" stroke-width="0.4" stroke-linecap="butt" stroke-linejoin="round" stroke="rgb(0%, 0%, 0%)" stroke-opacity="1" stroke-miterlimit="10" d="M 352 608 L 352 592 L 368 592 L 368 608 Z M 352 608 " transform="matrix(1, 0, 0, -1, -82, 819)"/>
<path fill-rule="evenodd" fill="rgb(100%, 75.3%, 79.6%)" fill-opacity="1" stroke-width="0.4" stroke-linecap="butt" stroke-linejoin="round" stroke="rgb(0%, 0%, 0%)" stroke-opacity="1" stroke-miterlimit="10" d="M 352 592 L 352 576 L 368 576 L 368 592 Z M 352 592 " transform="matrix(1, 0, 0, -1, -82, 819)"/>
<path fill-rule="evenodd" fill="rgb(100%, 75.3%, 79.6%)" fill-opacity="1" stroke-width="0.4" stroke-linecap="butt" stroke-linejoin="round" stroke="rgb(0%, 0%, 0%)" stroke-opacity="1" stroke-miterlimit="10" d="M 336 640 L 336 624 L 352 624 L 352 640 Z M 336 640 " transform="matrix(1, 0, 0, -1, -82, 819)"/>
<path fill-rule="evenodd" fill="rgb(100%, 75.3%, 79.6%)" fill-opacity="1" stroke-width="0.4" stroke-linecap="butt" stroke-linejoin="round" stroke="rgb(0%, 0%, 0%)" stroke-opacity="1" stroke-miterlimit="10" d="M 336 624 L 336 608 L 352 608 L 352 624 Z M 336 624 " transform="matrix(1, 0, 0, -1, -82, 819)"/>
<path fill-rule="evenodd" fill="rgb(100%, 75.3%, 79.6%)" fill-opacity="1" stroke-width="0.4" stroke-linecap="butt" stroke-linejoin="round" stroke="rgb(0%, 0%, 0%)" stroke-opacity="1" stroke-miterlimit="10" d="M 336 608 L 336 592 L 352 592 L 352 608 Z M 336 608 " transform="matrix(1, 0, 0, -1, -82, 819)"/>
<path fill-rule="evenodd" fill="rgb(100%, 75.3%, 79.6%)" fill-opacity="1" stroke-width="0.4" stroke-linecap="butt" stroke-linejoin="round" stroke="rgb(0%, 0%, 0%)" stroke-opacity="1" stroke-miterlimit="10" d="M 336 592 L 336 576 L 352 576 L 352 592 Z M 336 592 " transform="matrix(1, 0, 0, -1, -82, 819)"/>
<path fill-rule="evenodd" fill="rgb(62.7%, 12.5%, 94.1%)" fill-opacity="1" stroke-width="0.4" stroke-linecap="butt" stroke-linejoin="round" stroke="rgb(0%, 0%, 0%)" stroke-opacity="1" stroke-miterlimit="10" d="M 368 640 L 368 624 L 384 624 L 384 640 Z M 368 640 " transform="matrix(1, 0, 0, -1, -82, 819)"/>
<path fill-rule="evenodd" fill="rgb(62.7%, 12.5%, 94.1%)" fill-opacity="1" stroke-width="0.4" stroke-linecap="butt" stroke-linejoin="round" stroke="rgb(0%, 0%, 0%)" stroke-opacity="1" stroke-miterlimit="10" d="M 400 592 L 400 576 L 416 576 L 416 592 Z M 400 592 " transform="matrix(1, 0, 0, -1, -82, 819)"/>
<path fill-rule="evenodd" fill="rgb(62.7%, 12.5%, 94.1%)" fill-opacity="1" stroke-width="0.4" stroke-linecap="butt" stroke-linejoin="round" stroke="rgb(0%, 0%, 0%)" stroke-opacity="1" stroke-miterlimit="10" d="M 400 608 L 400 592 L 416 592 L 416 608 Z M 400 608 " transform="matrix(1, 0, 0, -1, -82, 819)"/>
<path fill-rule="evenodd" fill="rgb(62.7%, 12.5%, 94.1%)" fill-opacity="1" stroke-width="0.4" stroke-linecap="butt" stroke-linejoin="round" stroke="rgb(0%, 0%, 0%)" stroke-opacity="1" stroke-miterlimit="10" d="M 400 624 L 400 608 L 416 608 L 416 624 Z M 400 624 " transform="matrix(1, 0, 0, -1, -82, 819)"/>
<path fill-rule="evenodd" fill="rgb(62.7%, 12.5%, 94.1%)" fill-opacity="1" stroke-width="0.4" stroke-linecap="butt" stroke-linejoin="round" stroke="rgb(0%, 0%, 0%)" stroke-opacity="1" stroke-miterlimit="10" d="M 400 640 L 400 624 L 416 624 L 416 640 Z M 400 640 " transform="matrix(1, 0, 0, -1, -82, 819)"/>
<path fill-rule="evenodd" fill="rgb(62.7%, 12.5%, 94.1%)" fill-opacity="1" stroke-width="0.4" stroke-linecap="butt" stroke-linejoin="round" stroke="rgb(0%, 0%, 0%)" stroke-opacity="1" stroke-miterlimit="10" d="M 384 576 L 384 560 L 400 560 L 400 576 Z M 384 576 " transform="matrix(1, 0, 0, -1, -82, 819)"/>
<path fill-rule="evenodd" fill="rgb(62.7%, 12.5%, 94.1%)" fill-opacity="1" stroke-width="0.4" stroke-linecap="butt" stroke-linejoin="round" stroke="rgb(0%, 0%, 0%)" stroke-opacity="1" stroke-miterlimit="10" d="M 368 576 L 368 560 L 384 560 L 384 576 Z M 368 576 " transform="matrix(1, 0, 0, -1, -82, 819)"/>
<path fill-rule="evenodd" fill="rgb(100%, 75.3%, 79.6%)" fill-opacity="1" stroke-width="0.4" stroke-linecap="butt" stroke-linejoin="round" stroke="rgb(0%, 0%, 0%)" stroke-opacity="1" stroke-miterlimit="10" d="M 352 576 L 352 560 L 368 560 L 368 576 Z M 352 576 " transform="matrix(1, 0, 0, -1, -82, 819)"/>
<path fill-rule="evenodd" fill="rgb(100%, 75.3%, 79.6%)" fill-opacity="1" stroke-width="0.4" stroke-linecap="butt" stroke-linejoin="round" stroke="rgb(0%, 0%, 0%)" stroke-opacity="1" stroke-miterlimit="10" d="M 336 576 L 336 560 L 352 560 L 352 576 Z M 336 576 " transform="matrix(1, 0, 0, -1, -82, 819)"/>
<path fill-rule="evenodd" fill="rgb(62.7%, 12.5%, 94.1%)" fill-opacity="1" stroke-width="0.4" stroke-linecap="butt" stroke-linejoin="round" stroke="rgb(0%, 0%, 0%)" stroke-opacity="1" stroke-miterlimit="10" d="M 400 576 L 400 560 L 416 560 L 416 576 Z M 400 576 " transform="matrix(1, 0, 0, -1, -82, 819)"/>
<path fill-rule="evenodd" fill="rgb(62.7%, 12.5%, 94.1%)" fill-opacity="1" stroke-width="0.4" stroke-linecap="butt" stroke-linejoin="round" stroke="rgb(0%, 0%, 0%)" stroke-opacity="1" stroke-miterlimit="10" d="M 496 592 L 496 576 L 512 576 L 512 592 Z M 496 592 " transform="matrix(1, 0, 0, -1, -82, 819)"/>
<path fill-rule="evenodd" fill="rgb(62.7%, 12.5%, 94.1%)" fill-opacity="1" stroke-width="0.4" stroke-linecap="butt" stroke-linejoin="round" stroke="rgb(0%, 0%, 0%)" stroke-opacity="1" stroke-miterlimit="10" d="M 496 608 L 496 592 L 512 592 L 512 608 Z M 496 608 " transform="matrix(1, 0, 0, -1, -82, 819)"/>
<path fill-rule="evenodd" fill="rgb(62.7%, 12.5%, 94.1%)" fill-opacity="1" stroke-width="0.4" stroke-linecap="butt" stroke-linejoin="round" stroke="rgb(0%, 0%, 0%)" stroke-opacity="1" stroke-miterlimit="10" d="M 496 624 L 496 608 L 512 608 L 512 624 Z M 496 624 " transform="matrix(1, 0, 0, -1, -82, 819)"/>
<path fill-rule="evenodd" fill="rgb(100%, 75.3%, 79.6%)" fill-opacity="1" stroke-width="0.4" stroke-linecap="butt" stroke-linejoin="round" stroke="rgb(0%, 0%, 0%)" stroke-opacity="1" stroke-miterlimit="10" d="M 464 640 L 464 624 L 480 624 L 480 640 Z M 464 640 " transform="matrix(1, 0, 0, -1, -82, 819)"/>
<path fill-rule="evenodd" fill="rgb(62.7%, 12.5%, 94.1%)" fill-opacity="1" stroke-width="0.4" stroke-linecap="butt" stroke-linejoin="round" stroke="rgb(0%, 0%, 0%)" stroke-opacity="1" stroke-miterlimit="10" d="M 480 608 L 480 592 L 496 592 L 496 608 Z M 480 608 " transform="matrix(1, 0, 0, -1, -82, 819)"/>
<path fill-rule="evenodd" fill="rgb(62.7%, 12.5%, 94.1%)" fill-opacity="1" stroke-width="0.4" stroke-linecap="butt" stroke-linejoin="round" stroke="rgb(0%, 0%, 0%)" stroke-opacity="1" stroke-miterlimit="10" d="M 480 592 L 480 576 L 496 576 L 496 592 Z M 480 592 " transform="matrix(1, 0, 0, -1, -82, 819)"/>
<path fill-rule="evenodd" fill="rgb(62.7%, 12.5%, 94.1%)" fill-opacity="1" stroke-width="0.4" stroke-linecap="butt" stroke-linejoin="round" stroke="rgb(0%, 0%, 0%)" stroke-opacity="1" stroke-miterlimit="10" d="M 480 624 L 480 608 L 496 608 L 496 624 Z M 480 624 " transform="matrix(1, 0, 0, -1, -82, 819)"/>
<path fill-rule="evenodd" fill="rgb(62.7%, 12.5%, 94.1%)" fill-opacity="1" stroke-width="0.4" stroke-linecap="butt" stroke-linejoin="round" stroke="rgb(0%, 0%, 0%)" stroke-opacity="1" stroke-miterlimit="10" d="M 496 640 L 496 624 L 512 624 L 512 640 Z M 496 640 " transform="matrix(1, 0, 0, -1, -82, 819)"/>
<path fill-rule="evenodd" fill="rgb(100%, 75.3%, 79.6%)" fill-opacity="1" stroke-width="0.4" stroke-linecap="butt" stroke-linejoin="round" stroke="rgb(0%, 0%, 0%)" stroke-opacity="1" stroke-miterlimit="10" d="M 464 624 L 464 608 L 480 608 L 480 624 Z M 464 624 " transform="matrix(1, 0, 0, -1, -82, 819)"/>
<path fill-rule="evenodd" fill="rgb(100%, 75.3%, 79.6%)" fill-opacity="1" stroke-width="0.4" stroke-linecap="butt" stroke-linejoin="round" stroke="rgb(0%, 0%, 0%)" stroke-opacity="1" stroke-miterlimit="10" d="M 464 608 L 464 592 L 480 592 L 480 608 Z M 464 608 " transform="matrix(1, 0, 0, -1, -82, 819)"/>
<path fill-rule="evenodd" fill="rgb(100%, 75.3%, 79.6%)" fill-opacity="1" stroke-width="0.4" stroke-linecap="butt" stroke-linejoin="round" stroke="rgb(0%, 0%, 0%)" stroke-opacity="1" stroke-miterlimit="10" d="M 464 592 L 464 576 L 480 576 L 480 592 Z M 464 592 " transform="matrix(1, 0, 0, -1, -82, 819)"/>
<path fill-rule="evenodd" fill="rgb(100%, 75.3%, 79.6%)" fill-opacity="1" stroke-width="0.4" stroke-linecap="butt" stroke-linejoin="round" stroke="rgb(0%, 0%, 0%)" stroke-opacity="1" stroke-miterlimit="10" d="M 448 640 L 448 624 L 464 624 L 464 640 Z M 448 640 " transform="matrix(1, 0, 0, -1, -82, 819)"/>
<path fill-rule="evenodd" fill="rgb(100%, 75.3%, 79.6%)" fill-opacity="1" stroke-width="0.4" stroke-linecap="butt" stroke-linejoin="round" stroke="rgb(0%, 0%, 0%)" stroke-opacity="1" stroke-miterlimit="10" d="M 448 624 L 448 608 L 464 608 L 464 624 Z M 448 624 " transform="matrix(1, 0, 0, -1, -82, 819)"/>
<path fill-rule="evenodd" fill="rgb(100%, 75.3%, 79.6%)" fill-opacity="1" stroke-width="0.4" stroke-linecap="butt" stroke-linejoin="round" stroke="rgb(0%, 0%, 0%)" stroke-opacity="1" stroke-miterlimit="10" d="M 448 608 L 448 592 L 464 592 L 464 608 Z M 448 608 " transform="matrix(1, 0, 0, -1, -82, 819)"/>
<path fill-rule="evenodd" fill="rgb(100%, 75.3%, 79.6%)" fill-opacity="1" stroke-width="0.4" stroke-linecap="butt" stroke-linejoin="round" stroke="rgb(0%, 0%, 0%)" stroke-opacity="1" stroke-miterlimit="10" d="M 448 592 L 448 576 L 464 576 L 464 592 Z M 448 592 " transform="matrix(1, 0, 0, -1, -82, 819)"/>
<path fill-rule="evenodd" fill="rgb(62.7%, 12.5%, 94.1%)" fill-opacity="1" stroke-width="0.4" stroke-linecap="butt" stroke-linejoin="round" stroke="rgb(0%, 0%, 0%)" stroke-opacity="1" stroke-miterlimit="10" d="M 480 640 L 480 624 L 496 624 L 496 640 Z M 480 640 " transform="matrix(1, 0, 0, -1, -82, 819)"/>
<path fill-rule="evenodd" fill="rgb(62.7%, 12.5%, 94.1%)" fill-opacity="1" stroke-width="0.4" stroke-linecap="butt" stroke-linejoin="round" stroke="rgb(0%, 0%, 0%)" stroke-opacity="1" stroke-miterlimit="10" d="M 512 592 L 512 576 L 528 576 L 528 592 Z M 512 592 " transform="matrix(1, 0, 0, -1, -82, 819)"/>
<path fill-rule="evenodd" fill="rgb(62.7%, 12.5%, 94.1%)" fill-opacity="1" stroke-width="0.4" stroke-linecap="butt" stroke-linejoin="round" stroke="rgb(0%, 0%, 0%)" stroke-opacity="1" stroke-miterlimit="10" d="M 512 608 L 512 592 L 528 592 L 528 608 Z M 512 608 " transform="matrix(1, 0, 0, -1, -82, 819)"/>
<path fill-rule="evenodd" fill="rgb(62.7%, 12.5%, 94.1%)" fill-opacity="1" stroke-width="0.4" stroke-linecap="butt" stroke-linejoin="round" stroke="rgb(0%, 0%, 0%)" stroke-opacity="1" stroke-miterlimit="10" d="M 512 624 L 512 608 L 528 608 L 528 624 Z M 512 624 " transform="matrix(1, 0, 0, -1, -82, 819)"/>
<path fill-rule="evenodd" fill="rgb(62.7%, 12.5%, 94.1%)" fill-opacity="1" stroke-width="0.4" stroke-linecap="butt" stroke-linejoin="round" stroke="rgb(0%, 0%, 0%)" stroke-opacity="1" stroke-miterlimit="10" d="M 512 640 L 512 624 L 528 624 L 528 640 Z M 512 640 " transform="matrix(1, 0, 0, -1, -82, 819)"/>
<path fill-rule="evenodd" fill="rgb(62.7%, 12.5%, 94.1%)" fill-opacity="1" stroke-width="0.4" stroke-linecap="butt" stroke-linejoin="round" stroke="rgb(0%, 0%, 0%)" stroke-opacity="1" stroke-miterlimit="10" d="M 496 576 L 496 560 L 512 560 L 512 576 Z M 496 576 " transform="matrix(1, 0, 0, -1, -82, 819)"/>
<path fill-rule="evenodd" fill="rgb(62.7%, 12.5%, 94.1%)" fill-opacity="1" stroke-width="0.4" stroke-linecap="butt" stroke-linejoin="round" stroke="rgb(0%, 0%, 0%)" stroke-opacity="1" stroke-miterlimit="10" d="M 480 576 L 480 560 L 496 560 L 496 576 Z M 480 576 " transform="matrix(1, 0, 0, -1, -82, 819)"/>
<path fill-rule="evenodd" fill="rgb(100%, 75.3%, 79.6%)" fill-opacity="1" stroke-width="0.4" stroke-linecap="butt" stroke-linejoin="round" stroke="rgb(0%, 0%, 0%)" stroke-opacity="1" stroke-miterlimit="10" d="M 464 576 L 464 560 L 480 560 L 480 576 Z M 464 576 " transform="matrix(1, 0, 0, -1, -82, 819)"/>
<path fill-rule="evenodd" fill="rgb(100%, 75.3%, 79.6%)" fill-opacity="1" stroke-width="0.4" stroke-linecap="butt" stroke-linejoin="round" stroke="rgb(0%, 0%, 0%)" stroke-opacity="1" stroke-miterlimit="10" d="M 448 576 L 448 560 L 464 560 L 464 576 Z M 448 576 " transform="matrix(1, 0, 0, -1, -82, 819)"/>
<path fill-rule="evenodd" fill="rgb(62.7%, 12.5%, 94.1%)" fill-opacity="1" stroke-width="0.4" stroke-linecap="butt" stroke-linejoin="round" stroke="rgb(0%, 0%, 0%)" stroke-opacity="1" stroke-miterlimit="10" d="M 512 576 L 512 560 L 528 560 L 528 576 Z M 512 576 " transform="matrix(1, 0, 0, -1, -82, 819)"/>
<path fill="none" stroke-width="2" stroke-linecap="butt" stroke-linejoin="round" stroke="rgb(100%, 100%, 100%)" stroke-opacity="1" stroke-miterlimit="10" d="M 336 640 L 352 640 L 352 560 L 336 560 L 336 640 " transform="matrix(1, 0, 0, -1, -82, 819)"/>
<path fill="none" stroke-width="2" stroke-linecap="butt" stroke-linejoin="round" stroke="rgb(100%, 100%, 100%)" stroke-opacity="1" stroke-miterlimit="10" d="M 352 640 L 368 640 L 368 560 L 352 560 L 352 640 " transform="matrix(1, 0, 0, -1, -82, 819)"/>
<path fill="none" stroke-width="2" stroke-linecap="butt" stroke-linejoin="round" stroke="rgb(100%, 100%, 100%)" stroke-opacity="1" stroke-miterlimit="10" d="M 368 640 L 384 640 L 384 560 L 368 560 L 368 640 " transform="matrix(1, 0, 0, -1, -82, 819)"/>
<path fill="none" stroke-width="2" stroke-linecap="butt" stroke-linejoin="round" stroke="rgb(100%, 100%, 100%)" stroke-opacity="1" stroke-miterlimit="10" d="M 384 640 L 400 640 L 400 560 L 384 560 L 384 640 " transform="matrix(1, 0, 0, -1, -82, 819)"/>
<path fill="none" stroke-width="2" stroke-linecap="butt" stroke-linejoin="round" stroke="rgb(100%, 100%, 100%)" stroke-opacity="1" stroke-miterlimit="10" d="M 400 640 L 416 640 L 416 560 L 400 560 L 400 640 " transform="matrix(1, 0, 0, -1, -82, 819)"/>
<path fill="none" stroke-width="2" stroke-linecap="butt" stroke-linejoin="round" stroke="rgb(100%, 100%, 100%)" stroke-opacity="1" stroke-miterlimit="10" d="M 448 560 L 528 560 L 528 576 L 448 576 L 448 560 " transform="matrix(1, 0, 0, -1, -82, 819)"/>
<path fill="none" stroke-width="2" stroke-linecap="butt" stroke-linejoin="round" stroke="rgb(100%, 100%, 100%)" stroke-opacity="1" stroke-miterlimit="10" d="M 448 576 L 448 592 L 528 592 L 528 576 L 448 576 " transform="matrix(1, 0, 0, -1, -82, 819)"/>
<path fill="none" stroke-width="2" stroke-linecap="butt" stroke-linejoin="round" stroke="rgb(100%, 100%, 100%)" stroke-opacity="1" stroke-miterlimit="10" d="M 448 592 L 448 608 L 528 608 L 528 592 L 448 592 " transform="matrix(1, 0, 0, -1, -82, 819)"/>
<path fill="none" stroke-width="2" stroke-linecap="butt" stroke-linejoin="round" stroke="rgb(100%, 100%, 100%)" stroke-opacity="1" stroke-miterlimit="10" d="M 448 608 L 448 624 L 528 624 L 528 608 L 448 608 " transform="matrix(1, 0, 0, -1, -82, 819)"/>
<path fill="none" stroke-width="2" stroke-linecap="butt" stroke-linejoin="round" stroke="rgb(100%, 100%, 100%)" stroke-opacity="1" stroke-miterlimit="10" d="M 448 624 L 448 640 L 528 640 L 528 624 L 448 624 " transform="matrix(1, 0, 0, -1, -82, 819)"/>
<path fill-rule="evenodd" fill="rgb(62.7%, 12.5%, 94.1%)" fill-opacity="1" stroke-width="0.4" stroke-linecap="butt" stroke-linejoin="round" stroke="rgb(0%, 0%, 0%)" stroke-opacity="1" stroke-miterlimit="10" d="M 384 720 L 384 704 L 400 704 L 400 720 Z M 384 720 " transform="matrix(1, 0, 0, -1, -82, 819)"/>
<path fill-rule="evenodd" fill="rgb(62.7%, 12.5%, 94.1%)" fill-opacity="1" stroke-width="0.4" stroke-linecap="butt" stroke-linejoin="round" stroke="rgb(0%, 0%, 0%)" stroke-opacity="1" stroke-miterlimit="10" d="M 384 736 L 384 720 L 400 720 L 400 736 Z M 384 736 " transform="matrix(1, 0, 0, -1, -82, 819)"/>
<path fill-rule="evenodd" fill="rgb(62.7%, 12.5%, 94.1%)" fill-opacity="1" stroke-width="0.4" stroke-linecap="butt" stroke-linejoin="round" stroke="rgb(0%, 0%, 0%)" stroke-opacity="1" stroke-miterlimit="10" d="M 384 752 L 384 736 L 400 736 L 400 752 Z M 384 752 " transform="matrix(1, 0, 0, -1, -82, 819)"/>
<path fill-rule="evenodd" fill="rgb(100%, 75.3%, 79.6%)" fill-opacity="1" stroke-width="0.4" stroke-linecap="butt" stroke-linejoin="round" stroke="rgb(0%, 0%, 0%)" stroke-opacity="1" stroke-miterlimit="10" d="M 352 768 L 352 752 L 368 752 L 368 768 Z M 352 768 " transform="matrix(1, 0, 0, -1, -82, 819)"/>
<path fill-rule="evenodd" fill="rgb(62.7%, 12.5%, 94.1%)" fill-opacity="1" stroke-width="0.4" stroke-linecap="butt" stroke-linejoin="round" stroke="rgb(0%, 0%, 0%)" stroke-opacity="1" stroke-miterlimit="10" d="M 368 736 L 368 720 L 384 720 L 384 736 Z M 368 736 " transform="matrix(1, 0, 0, -1, -82, 819)"/>
<path fill-rule="evenodd" fill="rgb(62.7%, 12.5%, 94.1%)" fill-opacity="1" stroke-width="0.4" stroke-linecap="butt" stroke-linejoin="round" stroke="rgb(0%, 0%, 0%)" stroke-opacity="1" stroke-miterlimit="10" d="M 368 720 L 368 704 L 384 704 L 384 720 Z M 368 720 " transform="matrix(1, 0, 0, -1, -82, 819)"/>
<path fill-rule="evenodd" fill="rgb(62.7%, 12.5%, 94.1%)" fill-opacity="1" stroke-width="0.4" stroke-linecap="butt" stroke-linejoin="round" stroke="rgb(0%, 0%, 0%)" stroke-opacity="1" stroke-miterlimit="10" d="M 368 752 L 368 736 L 384 736 L 384 752 Z M 368 752 " transform="matrix(1, 0, 0, -1, -82, 819)"/>
<path fill-rule="evenodd" fill="rgb(62.7%, 12.5%, 94.1%)" fill-opacity="1" stroke-width="0.4" stroke-linecap="butt" stroke-linejoin="round" stroke="rgb(0%, 0%, 0%)" stroke-opacity="1" stroke-miterlimit="10" d="M 384 768 L 384 752 L 400 752 L 400 768 Z M 384 768 " transform="matrix(1, 0, 0, -1, -82, 819)"/>
<path fill-rule="evenodd" fill="rgb(100%, 75.3%, 79.6%)" fill-opacity="1" stroke-width="0.4" stroke-linecap="butt" stroke-linejoin="round" stroke="rgb(0%, 0%, 0%)" stroke-opacity="1" stroke-miterlimit="10" d="M 352 752 L 352 736 L 368 736 L 368 752 Z M 352 752 " transform="matrix(1, 0, 0, -1, -82, 819)"/>
<path fill-rule="evenodd" fill="rgb(100%, 75.3%, 79.6%)" fill-opacity="1" stroke-width="0.4" stroke-linecap="butt" stroke-linejoin="round" stroke="rgb(0%, 0%, 0%)" stroke-opacity="1" stroke-miterlimit="10" d="M 352 736 L 352 720 L 368 720 L 368 736 Z M 352 736 " transform="matrix(1, 0, 0, -1, -82, 819)"/>
<path fill-rule="evenodd" fill="rgb(100%, 75.3%, 79.6%)" fill-opacity="1" stroke-width="0.4" stroke-linecap="butt" stroke-linejoin="round" stroke="rgb(0%, 0%, 0%)" stroke-opacity="1" stroke-miterlimit="10" d="M 352 720 L 352 704 L 368 704 L 368 720 Z M 352 720 " transform="matrix(1, 0, 0, -1, -82, 819)"/>
<path fill-rule="evenodd" fill="rgb(100%, 75.3%, 79.6%)" fill-opacity="1" stroke-width="0.4" stroke-linecap="butt" stroke-linejoin="round" stroke="rgb(0%, 0%, 0%)" stroke-opacity="1" stroke-miterlimit="10" d="M 336 768 L 336 752 L 352 752 L 352 768 Z M 336 768 " transform="matrix(1, 0, 0, -1, -82, 819)"/>
<path fill-rule="evenodd" fill="rgb(100%, 75.3%, 79.6%)" fill-opacity="1" stroke-width="0.4" stroke-linecap="butt" stroke-linejoin="round" stroke="rgb(0%, 0%, 0%)" stroke-opacity="1" stroke-miterlimit="10" d="M 336 752 L 336 736 L 352 736 L 352 752 Z M 336 752 " transform="matrix(1, 0, 0, -1, -82, 819)"/>
<path fill-rule="evenodd" fill="rgb(100%, 75.3%, 79.6%)" fill-opacity="1" stroke-width="0.4" stroke-linecap="butt" stroke-linejoin="round" stroke="rgb(0%, 0%, 0%)" stroke-opacity="1" stroke-miterlimit="10" d="M 336 736 L 336 720 L 352 720 L 352 736 Z M 336 736 " transform="matrix(1, 0, 0, -1, -82, 819)"/>
<path fill-rule="evenodd" fill="rgb(100%, 75.3%, 79.6%)" fill-opacity="1" stroke-width="0.4" stroke-linecap="butt" stroke-linejoin="round" stroke="rgb(0%, 0%, 0%)" stroke-opacity="1" stroke-miterlimit="10" d="M 336 720 L 336 704 L 352 704 L 352 720 Z M 336 720 " transform="matrix(1, 0, 0, -1, -82, 819)"/>
<path fill-rule="evenodd" fill="rgb(62.7%, 12.5%, 94.1%)" fill-opacity="1" stroke-width="0.4" stroke-linecap="butt" stroke-linejoin="round" stroke="rgb(0%, 0%, 0%)" stroke-opacity="1" stroke-miterlimit="10" d="M 368 768 L 368 752 L 384 752 L 384 768 Z M 368 768 " transform="matrix(1, 0, 0, -1, -82, 819)"/>
<path fill-rule="evenodd" fill="rgb(62.7%, 12.5%, 94.1%)" fill-opacity="1" stroke-width="0.4" stroke-linecap="butt" stroke-linejoin="round" stroke="rgb(0%, 0%, 0%)" stroke-opacity="1" stroke-miterlimit="10" d="M 400 720 L 400 704 L 416 704 L 416 720 Z M 400 720 " transform="matrix(1, 0, 0, -1, -82, 819)"/>
<path fill-rule="evenodd" fill="rgb(62.7%, 12.5%, 94.1%)" fill-opacity="1" stroke-width="0.4" stroke-linecap="butt" stroke-linejoin="round" stroke="rgb(0%, 0%, 0%)" stroke-opacity="1" stroke-miterlimit="10" d="M 400 736 L 400 720 L 416 720 L 416 736 Z M 400 736 " transform="matrix(1, 0, 0, -1, -82, 819)"/>
<path fill-rule="evenodd" fill="rgb(62.7%, 12.5%, 94.1%)" fill-opacity="1" stroke-width="0.4" stroke-linecap="butt" stroke-linejoin="round" stroke="rgb(0%, 0%, 0%)" stroke-opacity="1" stroke-miterlimit="10" d="M 400 752 L 400 736 L 416 736 L 416 752 Z M 400 752 " transform="matrix(1, 0, 0, -1, -82, 819)"/>
<path fill-rule="evenodd" fill="rgb(62.7%, 12.5%, 94.1%)" fill-opacity="1" stroke-width="0.4" stroke-linecap="butt" stroke-linejoin="round" stroke="rgb(0%, 0%, 0%)" stroke-opacity="1" stroke-miterlimit="10" d="M 400 768 L 400 752 L 416 752 L 416 768 Z M 400 768 " transform="matrix(1, 0, 0, -1, -82, 819)"/>
<path fill-rule="evenodd" fill="rgb(62.7%, 12.5%, 94.1%)" fill-opacity="1" stroke-width="0.4" stroke-linecap="butt" stroke-linejoin="round" stroke="rgb(0%, 0%, 0%)" stroke-opacity="1" stroke-miterlimit="10" d="M 384 704 L 384 688 L 400 688 L 400 704 Z M 384 704 " transform="matrix(1, 0, 0, -1, -82, 819)"/>
<path fill-rule="evenodd" fill="rgb(62.7%, 12.5%, 94.1%)" fill-opacity="1" stroke-width="0.4" stroke-linecap="butt" stroke-linejoin="round" stroke="rgb(0%, 0%, 0%)" stroke-opacity="1" stroke-miterlimit="10" d="M 368 704 L 368 688 L 384 688 L 384 704 Z M 368 704 " transform="matrix(1, 0, 0, -1, -82, 819)"/>
<path fill-rule="evenodd" fill="rgb(100%, 75.3%, 79.6%)" fill-opacity="1" stroke-width="0.4" stroke-linecap="butt" stroke-linejoin="round" stroke="rgb(0%, 0%, 0%)" stroke-opacity="1" stroke-miterlimit="10" d="M 352 704 L 352 688 L 368 688 L 368 704 Z M 352 704 " transform="matrix(1, 0, 0, -1, -82, 819)"/>
<path fill-rule="evenodd" fill="rgb(100%, 75.3%, 79.6%)" fill-opacity="1" stroke-width="0.4" stroke-linecap="butt" stroke-linejoin="round" stroke="rgb(0%, 0%, 0%)" stroke-opacity="1" stroke-miterlimit="10" d="M 336 704 L 336 688 L 352 688 L 352 704 Z M 336 704 " transform="matrix(1, 0, 0, -1, -82, 819)"/>
<path fill-rule="evenodd" fill="rgb(62.7%, 12.5%, 94.1%)" fill-opacity="1" stroke-width="0.4" stroke-linecap="butt" stroke-linejoin="round" stroke="rgb(0%, 0%, 0%)" stroke-opacity="1" stroke-miterlimit="10" d="M 400 704 L 400 688 L 416 688 L 416 704 Z M 400 704 " transform="matrix(1, 0, 0, -1, -82, 819)"/>
<path fill="none" stroke-width="2" stroke-linecap="butt" stroke-linejoin="round" stroke="rgb(100%, 100%, 100%)" stroke-opacity="1" stroke-miterlimit="10" d="M 336 768 L 336 736 L 384 736 L 384 752 L 368 752 L 368 768 L 336 768 " transform="matrix(1, 0, 0, -1, -82, 819)"/>
<path fill="none" stroke-width="2" stroke-linecap="butt" stroke-linejoin="round" stroke="rgb(100%, 100%, 100%)" stroke-opacity="1" stroke-miterlimit="10" d="M 336 736 L 368 736 L 368 704 L 352 704 L 352 688 L 336 688 L 336 736 " transform="matrix(1, 0, 0, -1, -82, 819)"/>
<path fill="none" stroke-width="2" stroke-linecap="butt" stroke-linejoin="round" stroke="rgb(100%, 100%, 100%)" stroke-opacity="1" stroke-miterlimit="10" d="M 352 688 L 400 688 L 400 720 L 368 720 L 368 704 L 352 704 L 352 688 " transform="matrix(1, 0, 0, -1, -82, 819)"/>
<path fill="none" stroke-width="2" stroke-linecap="butt" stroke-linejoin="round" stroke="rgb(100%, 100%, 100%)" stroke-opacity="1" stroke-miterlimit="10" d="M 368 768 L 416 768 L 416 736 L 384 736 L 384 752 L 368 752 L 368 768 " transform="matrix(1, 0, 0, -1, -82, 819)"/>
<path fill="none" stroke-width="2" stroke-linecap="butt" stroke-linejoin="round" stroke="rgb(100%, 100%, 100%)" stroke-opacity="1" stroke-miterlimit="10" d="M 368 736 L 416 736 L 416 688 L 400 688 L 400 720 L 368 720 L 368 736 " transform="matrix(1, 0, 0, -1, -82, 819)"/>
<path fill-rule="evenodd" fill="rgb(62.7%, 12.5%, 94.1%)" fill-opacity="1" stroke-width="0.4" stroke-linecap="butt" stroke-linejoin="round" stroke="rgb(0%, 0%, 0%)" stroke-opacity="1" stroke-miterlimit="10" d="M 496 720 L 496 704 L 512 704 L 512 720 Z M 496 720 " transform="matrix(1, 0, 0, -1, -82, 819)"/>
<path fill-rule="evenodd" fill="rgb(62.7%, 12.5%, 94.1%)" fill-opacity="1" stroke-width="0.4" stroke-linecap="butt" stroke-linejoin="round" stroke="rgb(0%, 0%, 0%)" stroke-opacity="1" stroke-miterlimit="10" d="M 496 736 L 496 720 L 512 720 L 512 736 Z M 496 736 " transform="matrix(1, 0, 0, -1, -82, 819)"/>
<path fill-rule="evenodd" fill="rgb(62.7%, 12.5%, 94.1%)" fill-opacity="1" stroke-width="0.4" stroke-linecap="butt" stroke-linejoin="round" stroke="rgb(0%, 0%, 0%)" stroke-opacity="1" stroke-miterlimit="10" d="M 496 752 L 496 736 L 512 736 L 512 752 Z M 496 752 " transform="matrix(1, 0, 0, -1, -82, 819)"/>
<path fill-rule="evenodd" fill="rgb(100%, 75.3%, 79.6%)" fill-opacity="1" stroke-width="0.4" stroke-linecap="butt" stroke-linejoin="round" stroke="rgb(0%, 0%, 0%)" stroke-opacity="1" stroke-miterlimit="10" d="M 464 768 L 464 752 L 480 752 L 480 768 Z M 464 768 " transform="matrix(1, 0, 0, -1, -82, 819)"/>
<path fill-rule="evenodd" fill="rgb(62.7%, 12.5%, 94.1%)" fill-opacity="1" stroke-width="0.4" stroke-linecap="butt" stroke-linejoin="round" stroke="rgb(0%, 0%, 0%)" stroke-opacity="1" stroke-miterlimit="10" d="M 480 736 L 480 720 L 496 720 L 496 736 Z M 480 736 " transform="matrix(1, 0, 0, -1, -82, 819)"/>
<path fill-rule="evenodd" fill="rgb(62.7%, 12.5%, 94.1%)" fill-opacity="1" stroke-width="0.4" stroke-linecap="butt" stroke-linejoin="round" stroke="rgb(0%, 0%, 0%)" stroke-opacity="1" stroke-miterlimit="10" d="M 480 720 L 480 704 L 496 704 L 496 720 Z M 480 720 " transform="matrix(1, 0, 0, -1, -82, 819)"/>
<path fill-rule="evenodd" fill="rgb(62.7%, 12.5%, 94.1%)" fill-opacity="1" stroke-width="0.4" stroke-linecap="butt" stroke-linejoin="round" stroke="rgb(0%, 0%, 0%)" stroke-opacity="1" stroke-miterlimit="10" d="M 480 752 L 480 736 L 496 736 L 496 752 Z M 480 752 " transform="matrix(1, 0, 0, -1, -82, 819)"/>
<path fill-rule="evenodd" fill="rgb(62.7%, 12.5%, 94.1%)" fill-opacity="1" stroke-width="0.4" stroke-linecap="butt" stroke-linejoin="round" stroke="rgb(0%, 0%, 0%)" stroke-opacity="1" stroke-miterlimit="10" d="M 496 768 L 496 752 L 512 752 L 512 768 Z M 496 768 " transform="matrix(1, 0, 0, -1, -82, 819)"/>
<path fill-rule="evenodd" fill="rgb(100%, 75.3%, 79.6%)" fill-opacity="1" stroke-width="0.4" stroke-linecap="butt" stroke-linejoin="round" stroke="rgb(0%, 0%, 0%)" stroke-opacity="1" stroke-miterlimit="10" d="M 464 752 L 464 736 L 480 736 L 480 752 Z M 464 752 " transform="matrix(1, 0, 0, -1, -82, 819)"/>
<path fill-rule="evenodd" fill="rgb(100%, 75.3%, 79.6%)" fill-opacity="1" stroke-width="0.4" stroke-linecap="butt" stroke-linejoin="round" stroke="rgb(0%, 0%, 0%)" stroke-opacity="1" stroke-miterlimit="10" d="M 464 736 L 464 720 L 480 720 L 480 736 Z M 464 736 " transform="matrix(1, 0, 0, -1, -82, 819)"/>
<path fill-rule="evenodd" fill="rgb(100%, 75.3%, 79.6%)" fill-opacity="1" stroke-width="0.4" stroke-linecap="butt" stroke-linejoin="round" stroke="rgb(0%, 0%, 0%)" stroke-opacity="1" stroke-miterlimit="10" d="M 464 720 L 464 704 L 480 704 L 480 720 Z M 464 720 " transform="matrix(1, 0, 0, -1, -82, 819)"/>
<path fill-rule="evenodd" fill="rgb(100%, 75.3%, 79.6%)" fill-opacity="1" stroke-width="0.4" stroke-linecap="butt" stroke-linejoin="round" stroke="rgb(0%, 0%, 0%)" stroke-opacity="1" stroke-miterlimit="10" d="M 448 768 L 448 752 L 464 752 L 464 768 Z M 448 768 " transform="matrix(1, 0, 0, -1, -82, 819)"/>
<path fill-rule="evenodd" fill="rgb(100%, 75.3%, 79.6%)" fill-opacity="1" stroke-width="0.4" stroke-linecap="butt" stroke-linejoin="round" stroke="rgb(0%, 0%, 0%)" stroke-opacity="1" stroke-miterlimit="10" d="M 448 752 L 448 736 L 464 736 L 464 752 Z M 448 752 " transform="matrix(1, 0, 0, -1, -82, 819)"/>
<path fill-rule="evenodd" fill="rgb(100%, 75.3%, 79.6%)" fill-opacity="1" stroke-width="0.4" stroke-linecap="butt" stroke-linejoin="round" stroke="rgb(0%, 0%, 0%)" stroke-opacity="1" stroke-miterlimit="10" d="M 448 736 L 448 720 L 464 720 L 464 736 Z M 448 736 " transform="matrix(1, 0, 0, -1, -82, 819)"/>
<path fill-rule="evenodd" fill="rgb(100%, 75.3%, 79.6%)" fill-opacity="1" stroke-width="0.4" stroke-linecap="butt" stroke-linejoin="round" stroke="rgb(0%, 0%, 0%)" stroke-opacity="1" stroke-miterlimit="10" d="M 448 720 L 448 704 L 464 704 L 464 720 Z M 448 720 " transform="matrix(1, 0, 0, -1, -82, 819)"/>
<path fill-rule="evenodd" fill="rgb(62.7%, 12.5%, 94.1%)" fill-opacity="1" stroke-width="0.4" stroke-linecap="butt" stroke-linejoin="round" stroke="rgb(0%, 0%, 0%)" stroke-opacity="1" stroke-miterlimit="10" d="M 480 768 L 480 752 L 496 752 L 496 768 Z M 480 768 " transform="matrix(1, 0, 0, -1, -82, 819)"/>
<path fill-rule="evenodd" fill="rgb(62.7%, 12.5%, 94.1%)" fill-opacity="1" stroke-width="0.4" stroke-linecap="butt" stroke-linejoin="round" stroke="rgb(0%, 0%, 0%)" stroke-opacity="1" stroke-miterlimit="10" d="M 512 720 L 512 704 L 528 704 L 528 720 Z M 512 720 " transform="matrix(1, 0, 0, -1, -82, 819)"/>
<path fill-rule="evenodd" fill="rgb(62.7%, 12.5%, 94.1%)" fill-opacity="1" stroke-width="0.4" stroke-linecap="butt" stroke-linejoin="round" stroke="rgb(0%, 0%, 0%)" stroke-opacity="1" stroke-miterlimit="10" d="M 512 736 L 512 720 L 528 720 L 528 736 Z M 512 736 " transform="matrix(1, 0, 0, -1, -82, 819)"/>
<path fill-rule="evenodd" fill="rgb(62.7%, 12.5%, 94.1%)" fill-opacity="1" stroke-width="0.4" stroke-linecap="butt" stroke-linejoin="round" stroke="rgb(0%, 0%, 0%)" stroke-opacity="1" stroke-miterlimit="10" d="M 512 752 L 512 736 L 528 736 L 528 752 Z M 512 752 " transform="matrix(1, 0, 0, -1, -82, 819)"/>
<path fill-rule="evenodd" fill="rgb(62.7%, 12.5%, 94.1%)" fill-opacity="1" stroke-width="0.4" stroke-linecap="butt" stroke-linejoin="round" stroke="rgb(0%, 0%, 0%)" stroke-opacity="1" stroke-miterlimit="10" d="M 512 768 L 512 752 L 528 752 L 528 768 Z M 512 768 " transform="matrix(1, 0, 0, -1, -82, 819)"/>
<path fill-rule="evenodd" fill="rgb(62.7%, 12.5%, 94.1%)" fill-opacity="1" stroke-width="0.4" stroke-linecap="butt" stroke-linejoin="round" stroke="rgb(0%, 0%, 0%)" stroke-opacity="1" stroke-miterlimit="10" d="M 496 704 L 496 688 L 512 688 L 512 704 Z M 496 704 " transform="matrix(1, 0, 0, -1, -82, 819)"/>
<path fill-rule="evenodd" fill="rgb(62.7%, 12.5%, 94.1%)" fill-opacity="1" stroke-width="0.4" stroke-linecap="butt" stroke-linejoin="round" stroke="rgb(0%, 0%, 0%)" stroke-opacity="1" stroke-miterlimit="10" d="M 480 704 L 480 688 L 496 688 L 496 704 Z M 480 704 " transform="matrix(1, 0, 0, -1, -82, 819)"/>
<path fill-rule="evenodd" fill="rgb(100%, 75.3%, 79.6%)" fill-opacity="1" stroke-width="0.4" stroke-linecap="butt" stroke-linejoin="round" stroke="rgb(0%, 0%, 0%)" stroke-opacity="1" stroke-miterlimit="10" d="M 464 704 L 464 688 L 480 688 L 480 704 Z M 464 704 " transform="matrix(1, 0, 0, -1, -82, 819)"/>
<path fill-rule="evenodd" fill="rgb(100%, 75.3%, 79.6%)" fill-opacity="1" stroke-width="0.4" stroke-linecap="butt" stroke-linejoin="round" stroke="rgb(0%, 0%, 0%)" stroke-opacity="1" stroke-miterlimit="10" d="M 448 704 L 448 688 L 464 688 L 464 704 Z M 448 704 " transform="matrix(1, 0, 0, -1, -82, 819)"/>
<path fill-rule="evenodd" fill="rgb(62.7%, 12.5%, 94.1%)" fill-opacity="1" stroke-width="0.4" stroke-linecap="butt" stroke-linejoin="round" stroke="rgb(0%, 0%, 0%)" stroke-opacity="1" stroke-miterlimit="10" d="M 512 704 L 512 688 L 528 688 L 528 704 Z M 512 704 " transform="matrix(1, 0, 0, -1, -82, 819)"/>
<path fill="none" stroke-width="2" stroke-linecap="butt" stroke-linejoin="round" stroke="rgb(100%, 100%, 100%)" stroke-opacity="1" stroke-miterlimit="10" d="M 448 704 L 464 704 L 464 720 L 496 720 L 496 688 L 448 688 L 448 704 " transform="matrix(1, 0, 0, -1, -82, 819)"/>
<path fill="none" stroke-width="2" stroke-linecap="butt" stroke-linejoin="round" stroke="rgb(100%, 100%, 100%)" stroke-opacity="1" stroke-miterlimit="10" d="M 448 704 L 448 736 L 512 736 L 512 720 L 464 720 L 464 704 L 448 704 " transform="matrix(1, 0, 0, -1, -82, 819)"/>
<path fill="none" stroke-width="2" stroke-linecap="butt" stroke-linejoin="round" stroke="rgb(100%, 100%, 100%)" stroke-opacity="1" stroke-miterlimit="10" d="M 448 736 L 448 768 L 480 768 L 480 752 L 496 752 L 496 736 L 448 736 " transform="matrix(1, 0, 0, -1, -82, 819)"/>
<path fill="none" stroke-width="2" stroke-linecap="butt" stroke-linejoin="round" stroke="rgb(100%, 100%, 100%)" stroke-opacity="1" stroke-miterlimit="10" d="M 480 768 L 528 768 L 528 736 L 496 736 L 496 752 L 480 752 L 480 768 " transform="matrix(1, 0, 0, -1, -82, 819)"/>
<path fill="none" stroke-width="2" stroke-linecap="butt" stroke-linejoin="round" stroke="rgb(100%, 100%, 100%)" stroke-opacity="1" stroke-miterlimit="10" d="M 512 736 L 528 736 L 528 688 L 496 688 L 496 720 L 512 720 L 512 736 " transform="matrix(1, 0, 0, -1, -82, 819)"/>
<path fill-rule="evenodd" fill="rgb(62.7%, 12.5%, 94.1%)" fill-opacity="1" stroke-width="0.4" stroke-linecap="butt" stroke-linejoin="round" stroke="rgb(0%, 0%, 0%)" stroke-opacity="1" stroke-miterlimit="10" d="M 160 656 L 160 640 L 176 640 L 176 656 Z M 160 656 " transform="matrix(1, 0, 0, -1, -82, 819)"/>
<path fill-rule="evenodd" fill="rgb(62.7%, 12.5%, 94.1%)" fill-opacity="1" stroke-width="0.4" stroke-linecap="butt" stroke-linejoin="round" stroke="rgb(0%, 0%, 0%)" stroke-opacity="1" stroke-miterlimit="10" d="M 160 672 L 160 656 L 176 656 L 176 672 Z M 160 672 " transform="matrix(1, 0, 0, -1, -82, 819)"/>
<path fill-rule="evenodd" fill="rgb(62.7%, 12.5%, 94.1%)" fill-opacity="1" stroke-width="0.4" stroke-linecap="butt" stroke-linejoin="round" stroke="rgb(0%, 0%, 0%)" stroke-opacity="1" stroke-miterlimit="10" d="M 160 688 L 160 672 L 176 672 L 176 688 Z M 160 688 " transform="matrix(1, 0, 0, -1, -82, 819)"/>
<path fill-rule="evenodd" fill="rgb(100%, 75.3%, 79.6%)" fill-opacity="1" stroke-width="0.4" stroke-linecap="butt" stroke-linejoin="round" stroke="rgb(0%, 0%, 0%)" stroke-opacity="1" stroke-miterlimit="10" d="M 128 704 L 128 688 L 144 688 L 144 704 Z M 128 704 " transform="matrix(1, 0, 0, -1, -82, 819)"/>
<path fill-rule="evenodd" fill="rgb(62.7%, 12.5%, 94.1%)" fill-opacity="1" stroke-width="0.4" stroke-linecap="butt" stroke-linejoin="round" stroke="rgb(0%, 0%, 0%)" stroke-opacity="1" stroke-miterlimit="10" d="M 144 672 L 144 656 L 160 656 L 160 672 Z M 144 672 " transform="matrix(1, 0, 0, -1, -82, 819)"/>
<path fill-rule="evenodd" fill="rgb(62.7%, 12.5%, 94.1%)" fill-opacity="1" stroke-width="0.4" stroke-linecap="butt" stroke-linejoin="round" stroke="rgb(0%, 0%, 0%)" stroke-opacity="1" stroke-miterlimit="10" d="M 144 656 L 144 640 L 160 640 L 160 656 Z M 144 656 " transform="matrix(1, 0, 0, -1, -82, 819)"/>
<path fill-rule="evenodd" fill="rgb(62.7%, 12.5%, 94.1%)" fill-opacity="1" stroke-width="0.4" stroke-linecap="butt" stroke-linejoin="round" stroke="rgb(0%, 0%, 0%)" stroke-opacity="1" stroke-miterlimit="10" d="M 144 688 L 144 672 L 160 672 L 160 688 Z M 144 688 " transform="matrix(1, 0, 0, -1, -82, 819)"/>
<path fill-rule="evenodd" fill="rgb(62.7%, 12.5%, 94.1%)" fill-opacity="1" stroke-width="0.4" stroke-linecap="butt" stroke-linejoin="round" stroke="rgb(0%, 0%, 0%)" stroke-opacity="1" stroke-miterlimit="10" d="M 160 704 L 160 688 L 176 688 L 176 704 Z M 160 704 " transform="matrix(1, 0, 0, -1, -82, 819)"/>
<path fill-rule="evenodd" fill="rgb(100%, 75.3%, 79.6%)" fill-opacity="1" stroke-width="0.4" stroke-linecap="butt" stroke-linejoin="round" stroke="rgb(0%, 0%, 0%)" stroke-opacity="1" stroke-miterlimit="10" d="M 128 688 L 128 672 L 144 672 L 144 688 Z M 128 688 " transform="matrix(1, 0, 0, -1, -82, 819)"/>
<path fill-rule="evenodd" fill="rgb(100%, 75.3%, 79.6%)" fill-opacity="1" stroke-width="0.4" stroke-linecap="butt" stroke-linejoin="round" stroke="rgb(0%, 0%, 0%)" stroke-opacity="1" stroke-miterlimit="10" d="M 128 672 L 128 656 L 144 656 L 144 672 Z M 128 672 " transform="matrix(1, 0, 0, -1, -82, 819)"/>
<path fill-rule="evenodd" fill="rgb(100%, 75.3%, 79.6%)" fill-opacity="1" stroke-width="0.4" stroke-linecap="butt" stroke-linejoin="round" stroke="rgb(0%, 0%, 0%)" stroke-opacity="1" stroke-miterlimit="10" d="M 128 656 L 128 640 L 144 640 L 144 656 Z M 128 656 " transform="matrix(1, 0, 0, -1, -82, 819)"/>
<path fill-rule="evenodd" fill="rgb(100%, 75.3%, 79.6%)" fill-opacity="1" stroke-width="0.4" stroke-linecap="butt" stroke-linejoin="round" stroke="rgb(0%, 0%, 0%)" stroke-opacity="1" stroke-miterlimit="10" d="M 112 704 L 112 688 L 128 688 L 128 704 Z M 112 704 " transform="matrix(1, 0, 0, -1, -82, 819)"/>
<path fill-rule="evenodd" fill="rgb(100%, 75.3%, 79.6%)" fill-opacity="1" stroke-width="0.4" stroke-linecap="butt" stroke-linejoin="round" stroke="rgb(0%, 0%, 0%)" stroke-opacity="1" stroke-miterlimit="10" d="M 112 688 L 112 672 L 128 672 L 128 688 Z M 112 688 " transform="matrix(1, 0, 0, -1, -82, 819)"/>
<path fill-rule="evenodd" fill="rgb(100%, 75.3%, 79.6%)" fill-opacity="1" stroke-width="0.4" stroke-linecap="butt" stroke-linejoin="round" stroke="rgb(0%, 0%, 0%)" stroke-opacity="1" stroke-miterlimit="10" d="M 112 672 L 112 656 L 128 656 L 128 672 Z M 112 672 " transform="matrix(1, 0, 0, -1, -82, 819)"/>
<path fill-rule="evenodd" fill="rgb(100%, 75.3%, 79.6%)" fill-opacity="1" stroke-width="0.4" stroke-linecap="butt" stroke-linejoin="round" stroke="rgb(0%, 0%, 0%)" stroke-opacity="1" stroke-miterlimit="10" d="M 112 656 L 112 640 L 128 640 L 128 656 Z M 112 656 " transform="matrix(1, 0, 0, -1, -82, 819)"/>
<path fill-rule="evenodd" fill="rgb(62.7%, 12.5%, 94.1%)" fill-opacity="1" stroke-width="0.4" stroke-linecap="butt" stroke-linejoin="round" stroke="rgb(0%, 0%, 0%)" stroke-opacity="1" stroke-miterlimit="10" d="M 144 704 L 144 688 L 160 688 L 160 704 Z M 144 704 " transform="matrix(1, 0, 0, -1, -82, 819)"/>
<path fill-rule="evenodd" fill="rgb(62.7%, 12.5%, 94.1%)" fill-opacity="1" stroke-width="0.4" stroke-linecap="butt" stroke-linejoin="round" stroke="rgb(0%, 0%, 0%)" stroke-opacity="1" stroke-miterlimit="10" d="M 176 656 L 176 640 L 192 640 L 192 656 Z M 176 656 " transform="matrix(1, 0, 0, -1, -82, 819)"/>
<path fill-rule="evenodd" fill="rgb(62.7%, 12.5%, 94.1%)" fill-opacity="1" stroke-width="0.4" stroke-linecap="butt" stroke-linejoin="round" stroke="rgb(0%, 0%, 0%)" stroke-opacity="1" stroke-miterlimit="10" d="M 176 672 L 176 656 L 192 656 L 192 672 Z M 176 672 " transform="matrix(1, 0, 0, -1, -82, 819)"/>
<path fill-rule="evenodd" fill="rgb(62.7%, 12.5%, 94.1%)" fill-opacity="1" stroke-width="0.4" stroke-linecap="butt" stroke-linejoin="round" stroke="rgb(0%, 0%, 0%)" stroke-opacity="1" stroke-miterlimit="10" d="M 176 688 L 176 672 L 192 672 L 192 688 Z M 176 688 " transform="matrix(1, 0, 0, -1, -82, 819)"/>
<path fill-rule="evenodd" fill="rgb(62.7%, 12.5%, 94.1%)" fill-opacity="1" stroke-width="0.4" stroke-linecap="butt" stroke-linejoin="round" stroke="rgb(0%, 0%, 0%)" stroke-opacity="1" stroke-miterlimit="10" d="M 176 704 L 176 688 L 192 688 L 192 704 Z M 176 704 " transform="matrix(1, 0, 0, -1, -82, 819)"/>
<path fill-rule="evenodd" fill="rgb(62.7%, 12.5%, 94.1%)" fill-opacity="1" stroke-width="0.4" stroke-linecap="butt" stroke-linejoin="round" stroke="rgb(0%, 0%, 0%)" stroke-opacity="1" stroke-miterlimit="10" d="M 160 640 L 160 624 L 176 624 L 176 640 Z M 160 640 " transform="matrix(1, 0, 0, -1, -82, 819)"/>
<path fill-rule="evenodd" fill="rgb(62.7%, 12.5%, 94.1%)" fill-opacity="1" stroke-width="0.4" stroke-linecap="butt" stroke-linejoin="round" stroke="rgb(0%, 0%, 0%)" stroke-opacity="1" stroke-miterlimit="10" d="M 144 640 L 144 624 L 160 624 L 160 640 Z M 144 640 " transform="matrix(1, 0, 0, -1, -82, 819)"/>
<path fill-rule="evenodd" fill="rgb(100%, 75.3%, 79.6%)" fill-opacity="1" stroke-width="0.4" stroke-linecap="butt" stroke-linejoin="round" stroke="rgb(0%, 0%, 0%)" stroke-opacity="1" stroke-miterlimit="10" d="M 128 640 L 128 624 L 144 624 L 144 640 Z M 128 640 " transform="matrix(1, 0, 0, -1, -82, 819)"/>
<path fill-rule="evenodd" fill="rgb(100%, 75.3%, 79.6%)" fill-opacity="1" stroke-width="0.4" stroke-linecap="butt" stroke-linejoin="round" stroke="rgb(0%, 0%, 0%)" stroke-opacity="1" stroke-miterlimit="10" d="M 112 640 L 112 624 L 128 624 L 128 640 Z M 112 640 " transform="matrix(1, 0, 0, -1, -82, 819)"/>
<path fill-rule="evenodd" fill="rgb(62.7%, 12.5%, 94.1%)" fill-opacity="1" stroke-width="0.4" stroke-linecap="butt" stroke-linejoin="round" stroke="rgb(0%, 0%, 0%)" stroke-opacity="1" stroke-miterlimit="10" d="M 176 640 L 176 624 L 192 624 L 192 640 Z M 176 640 " transform="matrix(1, 0, 0, -1, -82, 819)"/>
<path fill="none" stroke-width="2" stroke-linecap="butt" stroke-linejoin="round" stroke="rgb(100%, 100%, 100%)" stroke-opacity="1" stroke-miterlimit="10" d="M 584.839844 664 C 584.839844 748.410156 516.410156 816.839844 432 816.839844 C 347.589844 816.839844 279.160156 748.410156 279.160156 664 C 279.160156 579.589844 347.589844 511.160156 432 511.160156 C 516.410156 511.160156 584.839844 579.589844 584.839844 664 Z M 584.839844 664 " transform="matrix(1, 0, 0, -1, -82, 819)"/>
<path fill="none" stroke-width="2" stroke-linecap="butt" stroke-linejoin="round" stroke="rgb(100%, 100%, 100%)" stroke-opacity="1" stroke-miterlimit="10" d="M 219.882812 664 C 219.882812 701.492188 189.492188 731.882812 152 731.882812 C 114.507812 731.882812 84.117188 701.492188 84.117188 664 C 84.117188 626.507812 114.507812 596.117188 152 596.117188 C 189.492188 596.117188 219.882812 626.507812 219.882812 664 Z M 219.882812 664 " transform="matrix(1, 0, 0, -1, -82, 819)"/>
<path fill="none" stroke-width="2" stroke-linecap="butt" stroke-linejoin="round" stroke="rgb(100%, 100%, 100%)" stroke-opacity="1" stroke-miterlimit="10" d="M 152 596 L 380 520 " transform="matrix(1, 0, 0, -1, -82, 819)"/>
<path fill="none" stroke-width="2" stroke-linecap="butt" stroke-linejoin="round" stroke="rgb(100%, 100%, 100%)" stroke-opacity="1" stroke-miterlimit="10" d="M 152 732 L 380 808 " transform="matrix(1, 0, 0, -1, -82, 819)"/>
</svg>
