<?xml version="1.0" encoding="UTF-8"?>
<svg xmlns="http://www.w3.org/2000/svg" xmlns:xlink="http://www.w3.org/1999/xlink" width="81" height="81" viewBox="0 0 81 81">
<path fill-rule="evenodd" fill="rgb(62.7%, 12.5%, 94.1%)" fill-opacity="1" stroke-width="0.4" stroke-linecap="butt" stroke-linejoin="round" stroke="rgb(0%, 0%, 0%)" stroke-opacity="1" stroke-miterlimit="10" d="M 64 784 L 64 768 L 80 768 L 80 784 Z M 64 784 " transform="matrix(1, 0, 0, -1, -15, 833)"/>
<path fill-rule="evenodd" fill="rgb(62.7%, 12.5%, 94.1%)" fill-opacity="1" stroke-width="0.4" stroke-linecap="butt" stroke-linejoin="round" stroke="rgb(0%, 0%, 0%)" stroke-opacity="1" stroke-miterlimit="10" d="M 64 800 L 64 784 L 80 784 L 80 800 Z M 64 800 " transform="matrix(1, 0, 0, -1, -15, 833)"/>
<path fill-rule="evenodd" fill="rgb(62.7%, 12.5%, 94.1%)" fill-opacity="1" stroke-width="0.4" stroke-linecap="butt" stroke-linejoin="round" stroke="rgb(0%, 0%, 0%)" stroke-opacity="1" stroke-miterlimit="10" d="M 64 816 L 64 800 L 80 800 L 80 816 Z M 64 816 " transform="matrix(1, 0, 0, -1, -15, 833)"/>
<path fill-rule="evenodd" fill="rgb(100%, 75.3%, 79.6%)" fill-opacity="1" stroke-width="0.4" stroke-linecap="butt" stroke-linejoin="round" stroke="rgb(0%, 0%, 0%)" stroke-opacity="1" stroke-miterlimit="10" d="M 32 832 L 32 816 L 48 816 L 48 832 Z M 32 832 " transform="matrix(1, 0, 0, -1, -15, 833)"/>
<path fill-rule="evenodd" fill="rgb(62.7%, 12.5%, 94.1%)" fill-opacity="1" stroke-width="0.4" stroke-linecap="butt" stroke-linejoin="round" stroke="rgb(0%, 0%, 0%)" stroke-opacity="1" stroke-miterlimit="10" d="M 48 800 L 48 784 L 64 784 L 64 800 Z M 48 800 " transform="matrix(1, 0, 0, -1, -15, 833)"/>
<path fill-rule="evenodd" fill="rgb(62.7%, 12.5%, 94.1%)" fill-opacity="1" stroke-width="0.4" stroke-linecap="butt" stroke-linejoin="round" stroke="rgb(0%, 0%, 0%)" stroke-opacity="1" stroke-miterlimit="10" d="M 48 784 L 48 768 L 64 768 L 64 784 Z M 48 784 " transform="matrix(1, 0, 0, -1, -15, 833)"/>
<path fill-rule="evenodd" fill="rgb(62.7%, 12.5%, 94.1%)" fill-opacity="1" stroke-width="0.4" stroke-linecap="butt" stroke-linejoin="round" stroke="rgb(0%, 0%, 0%)" stroke-opacity="1" stroke-miterlimit="10" d="M 48 816 L 48 800 L 64 800 L 64 816 Z M 48 816 " transform="matrix(1, 0, 0, -1, -15, 833)"/>
<path fill-rule="evenodd" fill="rgb(62.7%, 12.5%, 94.1%)" fill-opacity="1" stroke-width="0.4" stroke-linecap="butt" stroke-linejoin="round" stroke="rgb(0%, 0%, 0%)" stroke-opacity="1" stroke-miterlimit="10" d="M 64 832 L 64 816 L 80 816 L 80 832 Z M 64 832 " transform="matrix(1, 0, 0, -1, -15, 833)"/>
<path fill-rule="evenodd" fill="rgb(100%, 75.3%, 79.6%)" fill-opacity="1" stroke-width="0.4" stroke-linecap="butt" stroke-linejoin="round" stroke="rgb(0%, 0%, 0%)" stroke-opacity="1" stroke-miterlimit="10" d="M 32 816 L 32 800 L 48 800 L 48 816 Z M 32 816 " transform="matrix(1, 0, 0, -1, -15, 833)"/>
<path fill-rule="evenodd" fill="rgb(100%, 75.3%, 79.6%)" fill-opacity="1" stroke-width="0.4" stroke-linecap="butt" stroke-linejoin="round" stroke="rgb(0%, 0%, 0%)" stroke-opacity="1" stroke-miterlimit="10" d="M 32 800 L 32 784 L 48 784 L 48 800 Z M 32 800 " transform="matrix(1, 0, 0, -1, -15, 833)"/>
<path fill-rule="evenodd" fill="rgb(100%, 75.3%, 79.6%)" fill-opacity="1" stroke-width="0.4" stroke-linecap="butt" stroke-linejoin="round" stroke="rgb(0%, 0%, 0%)" stroke-opacity="1" stroke-miterlimit="10" d="M 32 784 L 32 768 L 48 768 L 48 784 Z M 32 784 " transform="matrix(1, 0, 0, -1, -15, 833)"/>
<path fill-rule="evenodd" fill="rgb(100%, 75.3%, 79.6%)" fill-opacity="1" stroke-width="0.4" stroke-linecap="butt" stroke-linejoin="round" stroke="rgb(0%, 0%, 0%)" stroke-opacity="1" stroke-miterlimit="10" d="M 16 832 L 16 816 L 32 816 L 32 832 Z M 16 832 " transform="matrix(1, 0, 0, -1, -15, 833)"/>
<path fill-rule="evenodd" fill="rgb(100%, 75.3%, 79.6%)" fill-opacity="1" stroke-width="0.4" stroke-linecap="butt" stroke-linejoin="round" stroke="rgb(0%, 0%, 0%)" stroke-opacity="1" stroke-miterlimit="10" d="M 16 816 L 16 800 L 32 800 L 32 816 Z M 16 816 " transform="matrix(1, 0, 0, -1, -15, 833)"/>
<path fill-rule="evenodd" fill="rgb(100%, 75.3%, 79.6%)" fill-opacity="1" stroke-width="0.4" stroke-linecap="butt" stroke-linejoin="round" stroke="rgb(0%, 0%, 0%)" stroke-opacity="1" stroke-miterlimit="10" d="M 16 800 L 16 784 L 32 784 L 32 800 Z M 16 800 " transform="matrix(1, 0, 0, -1, -15, 833)"/>
<path fill-rule="evenodd" fill="rgb(100%, 75.3%, 79.6%)" fill-opacity="1" stroke-width="0.4" stroke-linecap="butt" stroke-linejoin="round" stroke="rgb(0%, 0%, 0%)" stroke-opacity="1" stroke-miterlimit="10" d="M 16 784 L 16 768 L 32 768 L 32 784 Z M 16 784 " transform="matrix(1, 0, 0, -1, -15, 833)"/>
<path fill-rule="evenodd" fill="rgb(62.7%, 12.5%, 94.1%)" fill-opacity="1" stroke-width="0.4" stroke-linecap="butt" stroke-linejoin="round" stroke="rgb(0%, 0%, 0%)" stroke-opacity="1" stroke-miterlimit="10" d="M 48 832 L 48 816 L 64 816 L 64 832 Z M 48 832 " transform="matrix(1, 0, 0, -1, -15, 833)"/>
<path fill-rule="evenodd" fill="rgb(62.7%, 12.5%, 94.1%)" fill-opacity="1" stroke-width="0.4" stroke-linecap="butt" stroke-linejoin="round" stroke="rgb(0%, 0%, 0%)" stroke-opacity="1" stroke-miterlimit="10" d="M 80 784 L 80 768 L 96 768 L 96 784 Z M 80 784 " transform="matrix(1, 0, 0, -1, -15, 833)"/>
<path fill-rule="evenodd" fill="rgb(62.7%, 12.5%, 94.1%)" fill-opacity="1" stroke-width="0.4" stroke-linecap="butt" stroke-linejoin="round" stroke="rgb(0%, 0%, 0%)" stroke-opacity="1" stroke-miterlimit="10" d="M 80 800 L 80 784 L 96 784 L 96 800 Z M 80 800 " transform="matrix(1, 0, 0, -1, -15, 833)"/>
<path fill-rule="evenodd" fill="rgb(62.7%, 12.5%, 94.1%)" fill-opacity="1" stroke-width="0.4" stroke-linecap="butt" stroke-linejoin="round" stroke="rgb(0%, 0%, 0%)" stroke-opacity="1" stroke-miterlimit="10" d="M 80 816 L 80 800 L 96 800 L 96 816 Z M 80 816 " transform="matrix(1, 0, 0, -1, -15, 833)"/>
<path fill-rule="evenodd" fill="rgb(62.7%, 12.5%, 94.1%)" fill-opacity="1" stroke-width="0.4" stroke-linecap="butt" stroke-linejoin="round" stroke="rgb(0%, 0%, 0%)" stroke-opacity="1" stroke-miterlimit="10" d="M 80 832 L 80 816 L 96 816 L 96 832 Z M 80 832 " transform="matrix(1, 0, 0, -1, -15, 833)"/>
<path fill-rule="evenodd" fill="rgb(62.7%, 12.5%, 94.1%)" fill-opacity="1" stroke-width="0.4" stroke-linecap="butt" stroke-linejoin="round" stroke="rgb(0%, 0%, 0%)" stroke-opacity="1" stroke-miterlimit="10" d="M 64 768 L 64 752 L 80 752 L 80 768 Z M 64 768 " transform="matrix(1, 0, 0, -1, -15, 833)"/>
<path fill-rule="evenodd" fill="rgb(62.7%, 12.5%, 94.1%)" fill-opacity="1" stroke-width="0.4" stroke-linecap="butt" stroke-linejoin="round" stroke="rgb(0%, 0%, 0%)" stroke-opacity="1" stroke-miterlimit="10" d="M 48 768 L 48 752 L 64 752 L 64 768 Z M 48 768 " transform="matrix(1, 0, 0, -1, -15, 833)"/>
<path fill-rule="evenodd" fill="rgb(100%, 75.3%, 79.6%)" fill-opacity="1" stroke-width="0.4" stroke-linecap="butt" stroke-linejoin="round" stroke="rgb(0%, 0%, 0%)" stroke-opacity="1" stroke-miterlimit="10" d="M 32 768 L 32 752 L 48 752 L 48 768 Z M 32 768 " transform="matrix(1, 0, 0, -1, -15, 833)"/>
<path fill-rule="evenodd" fill="rgb(100%, 75.3%, 79.6%)" fill-opacity="1" stroke-width="0.4" stroke-linecap="butt" stroke-linejoin="round" stroke="rgb(0%, 0%, 0%)" stroke-opacity="1" stroke-miterlimit="10" d="M 16 768 L 16 752 L 32 752 L 32 768 Z M 16 768 " transform="matrix(1, 0, 0, -1, -15, 833)"/>
<path fill-rule="evenodd" fill="rgb(62.7%, 12.5%, 94.1%)" fill-opacity="1" stroke-width="0.4" stroke-linecap="butt" stroke-linejoin="round" stroke="rgb(0%, 0%, 0%)" stroke-opacity="1" stroke-miterlimit="10" d="M 80 768 L 80 752 L 96 752 L 96 768 Z M 80 768 " transform="matrix(1, 0, 0, -1, -15, 833)"/>
</svg>
