<?xml version="1.0" encoding="UTF-8" standalone="no"?>
<svg
   version="1.1"
   width="93.337967"
   height="109.65198"
   viewBox="0 0 93.337965 109.65198"
   id="svg1222"
   xmlns="http://www.w3.org/2000/svg"
   xmlns:svg="http://www.w3.org/2000/svg">
  <defs
     id="defs1222" />
  <path
     d="m 8.5054755,65.804491 -8.25800001,-11.344 v 20.914 l 8.25800001,11.344 z m 0,0"
     fill="#cccccc"
     id="path981-8-5-1-2"
     style="fill:#00ffff" />
  <path
     stroke-width="0.482987"
     stroke-linecap="butt"
     stroke-linejoin="round"
     fill="none"
     stroke="#000000"
     stroke-opacity="0.78"
     d="m 8.5034755,65.804491 -8.25800001,-11.344 v 20.914 l 8.25800001,11.344 z m 0,0"
     id="path982-2-5-9-0" />
  <path
     d="m 31.196475,61.675491 -22.6909995,4.129 v 20.914 l 22.6909995,-4.129 z m 0,0"
     fill="#cccccc"
     id="path1001-0-1-8-1" />
  <path
     stroke-width="0.482987"
     stroke-linecap="butt"
     stroke-linejoin="round"
     fill="none"
     stroke="#000000"
     stroke-opacity="0.78"
     d="m 31.196475,61.675491 -22.6909995,4.129 v 20.914 l 22.6909995,-4.129 z m 0,0"
     id="path1002-8-7-6-6" />
  <path
     d="m 31.196475,61.675491 -8.258,-11.348 -22.69499951,4.133 8.26200001,11.344 z m 0,0"
     fill="#cccccc"
     id="path1003-4-1-50-4" />
  <path
     stroke-width="0.482987"
     stroke-linecap="butt"
     stroke-linejoin="round"
     fill="none"
     stroke="#000000"
     stroke-opacity="0.78"
     d="m 31.196475,61.675491 -8.258,-11.348 -22.69499951,4.133 8.26200001,11.344 z m 0,0"
     id="path1004-9-1-2-0" />
  <path
     d="m 53.885475,15.718491 -8.258,-11.3439998 V 25.288491 l 8.258,11.344 z m 0,0"
     fill="#cccccc"
     id="path981-8-5-7-1-2" />
  <path
     stroke-width="0.482987"
     stroke-linecap="butt"
     stroke-linejoin="round"
     fill="none"
     stroke="#000000"
     stroke-opacity="0.78"
     d="m 53.883475,15.718491 -8.258,-11.3439998 V 25.288491 l 8.258,11.344 z m 0,0"
     id="path982-2-5-6-6-00" />
  <path
     d="m 76.576475,11.589491 -22.691,4.129 v 20.914 l 22.691,-4.129 z m 0,0"
     fill="#cccccc"
     id="path1001-0-1-1-8-1" />
  <path
     stroke-width="0.482987"
     stroke-linecap="butt"
     stroke-linejoin="round"
     fill="none"
     stroke="#000000"
     stroke-opacity="0.78"
     d="m 76.576475,11.589491 -22.691,4.129 v 20.914 l 22.691,-4.129 z m 0,0"
     id="path1002-8-7-4-5-4" />
  <path
     d="m 76.576475,11.589491 -8.258,-11.34799983 -22.695,4.13300003 8.262,11.3439998 z m 0,0"
     fill="#cccccc"
     id="path1003-4-1-2-7-6"
     style="fill:#f9f9f9" />
  <path
     stroke-width="0.482987"
     stroke-linecap="butt"
     stroke-linejoin="round"
     fill="none"
     stroke="#000000"
     stroke-opacity="0.78"
     d="m 76.576475,11.589491 -8.258,-11.34799983 -22.695,4.13300003 8.262,11.3439998 z m 0,0"
     id="path1004-9-1-3-6-0" />
  <path
     d="m 62.145475,27.064491 -8.258,-11.344 v 20.914 l 8.258,11.344 z m 0,0"
     fill="#cccccc"
     id="path981-8-5-7-1-6" />
  <path
     stroke-width="0.482987"
     stroke-linecap="butt"
     stroke-linejoin="round"
     fill="none"
     stroke="#000000"
     stroke-opacity="0.78"
     d="m 62.143475,27.064491 -8.258,-11.344 v 20.914 l 8.258,11.344 z m 0,0"
     id="path982-2-5-6-6-3" />
  <path
     d="m 84.836475,22.935491 -22.691,4.129 v 20.914 l 22.691,-4.129 z m 0,0"
     fill="#cccccc"
     id="path1001-0-1-1-8-6" />
  <path
     stroke-width="0.482987"
     stroke-linecap="butt"
     stroke-linejoin="round"
     fill="none"
     stroke="#000000"
     stroke-opacity="0.78"
     d="m 84.836475,22.935491 -22.691,4.129 v 20.914 l 22.691,-4.129 z m 0,0"
     id="path1002-8-7-4-5-1" />
  <path
     d="m 84.836475,22.935491 -8.258,-11.348 -22.695,4.133 8.262,11.344 z m 0,0"
     fill="#cccccc"
     id="path1003-4-1-2-7-5"
     style="fill:#f9f9f9" />
  <path
     stroke-width="0.482987"
     stroke-linecap="butt"
     stroke-linejoin="round"
     fill="none"
     stroke="#000000"
     stroke-opacity="0.78"
     d="m 84.836475,22.935491 -8.258,-11.348 -22.695,4.133 8.262,11.344 z m 0,0"
     id="path1004-9-1-3-6-4" />
  <path
     d="m 70.405475,80.238491 -8.258,-11.344 v 20.914 l 8.258,11.343999 z m 0,0"
     fill="#cccccc"
     id="path981-8-5" />
  <path
     stroke-width="0.482987"
     stroke-linecap="butt"
     stroke-linejoin="round"
     fill="none"
     stroke="#000000"
     stroke-opacity="0.78"
     d="m 70.403475,80.238491 -8.258,-11.344 v 20.914 l 8.258,11.343999 z m 0,0"
     id="path982-2-5" />
  <path
     d="m 93.096475,76.109491 -22.691,4.129 v 20.913999 l 22.691,-4.128999 z m 0,0"
     fill="#cccccc"
     id="path1001-0-1"
     style="fill:#ff0000" />
  <path
     stroke-width="0.482987"
     stroke-linecap="butt"
     stroke-linejoin="round"
     fill="none"
     stroke="#000000"
     stroke-opacity="0.78"
     d="m 93.096475,76.109491 -22.691,4.129 v 20.913999 l 22.691,-4.128999 z m 0,0"
     id="path1002-8-7" />
  <path
     d="m 93.096475,76.109491 -8.258,-11.348 -22.695,4.133 8.262,11.344 z m 0,0"
     fill="#cccccc"
     id="path1003-4-1" />
  <path
     stroke-width="0.482987"
     stroke-linecap="butt"
     stroke-linejoin="round"
     fill="none"
     stroke="#000000"
     stroke-opacity="0.78"
     d="m 93.096475,76.109491 -8.258,-11.348 -22.695,4.133 8.262,11.344 z m 0,0"
     id="path1004-9-1" />
  <path
     d="m 31.194475,19.847491 -8.258,-11.3439998 V 29.417491 l 8.258,11.344 z m 0,0"
     fill="#cccccc"
     id="path981-8-5-7-1-8-1" />
  <path
     stroke-width="0.482987"
     stroke-linecap="butt"
     stroke-linejoin="round"
     fill="none"
     stroke="#000000"
     stroke-opacity="0.78"
     d="m 31.192475,19.847491 -8.258,-11.3439998 V 29.417491 l 8.258,11.344 z m 0,0"
     id="path982-2-5-6-6-7-7" />
  <path
     d="m 53.885475,15.718491 -22.691,4.129 v 20.914 l 22.691,-4.129 z m 0,0"
     fill="#cccccc"
     id="path1001-0-1-1-8-4-77" />
  <path
     stroke-width="0.482987"
     stroke-linecap="butt"
     stroke-linejoin="round"
     fill="none"
     stroke="#000000"
     stroke-opacity="0.78"
     d="m 53.885475,15.718491 -22.691,4.129 v 20.914 l 22.691,-4.129 z m 0,0"
     id="path1002-8-7-4-5-2-7" />
  <path
     d="m 53.885475,15.718491 -8.258,-11.3479998 -22.695,4.133 8.262,11.3439998 z m 0,0"
     fill="#cccccc"
     id="path1003-4-1-2-7-7-3"
     style="fill:#f9f9f9" />
  <path
     stroke-width="0.482987"
     stroke-linecap="butt"
     stroke-linejoin="round"
     fill="none"
     stroke="#000000"
     stroke-opacity="0.78"
     d="m 53.885475,15.718491 -8.258,-11.3479998 -22.695,4.133 8.262,11.3439998 z m 0,0"
     id="path1004-9-1-3-6-7-3" />
  <path
     d="m 8.5054755,44.890491 -8.25800001,-11.344 v 20.914 l 8.25800001,11.344 z m 0,0"
     fill="#cccccc"
     id="path981-8-5-7-6-1" />
  <path
     stroke-width="0.482987"
     stroke-linecap="butt"
     stroke-linejoin="round"
     fill="none"
     stroke="#000000"
     stroke-opacity="0.78"
     d="m 8.5034755,44.890491 -8.25800001,-11.344 v 20.914 l 8.25800001,11.344 z m 0,0"
     id="path982-2-5-6-0-8"
     style="fill:#00ffff" />
  <path
     d="m 31.196475,40.761491 -22.6909995,4.129 v 20.914 l 22.6909995,-4.129 z m 0,0"
     fill="#cccccc"
     id="path1001-0-1-1-2-9" />
  <path
     stroke-width="0.482987"
     stroke-linecap="butt"
     stroke-linejoin="round"
     fill="none"
     stroke="#000000"
     stroke-opacity="0.78"
     d="m 31.196475,40.761491 -22.6909995,4.129 v 20.914 l 22.6909995,-4.129 z m 0,0"
     id="path1002-8-7-4-48-8" />
  <path
     d="m 31.196475,40.761491 -8.258,-11.348 -22.69499951,4.133 8.26200001,11.344 z m 0,0"
     fill="#cccccc"
     id="path1003-4-1-2-6-4" />
  <path
     stroke-width="0.482987"
     stroke-linecap="butt"
     stroke-linejoin="round"
     fill="none"
     stroke="#000000"
     stroke-opacity="0.78"
     d="m 31.196475,40.761491 -8.258,-11.348 -22.69499951,4.133 8.26200001,11.344 z m 0,0"
     id="path1004-9-1-3-5-1" />
  <path
     d="m 70.405475,59.324491 -8.258,-11.344 v 20.914 l 8.258,11.344 z m 0,0"
     fill="#cccccc"
     id="path981-8-5-7" />
  <path
     stroke-width="0.482987"
     stroke-linecap="butt"
     stroke-linejoin="round"
     fill="none"
     stroke="#000000"
     stroke-opacity="0.78"
     d="m 70.403475,59.324491 -8.258,-11.344 v 20.914 l 8.258,11.344 z m 0,0"
     id="path982-2-5-6" />
  <path
     d="m 93.096475,55.195491 -22.691,4.129 v 20.914 l 22.691,-4.129 z m 0,0"
     fill="#cccccc"
     id="path1001-0-1-1"
     style="fill:#ff0000" />
  <path
     stroke-width="0.482987"
     stroke-linecap="butt"
     stroke-linejoin="round"
     fill="none"
     stroke="#000000"
     stroke-opacity="0.78"
     d="m 93.096475,55.195491 -22.691,4.129 v 20.914 l 22.691,-4.129 z m 0,0"
     id="path1002-8-7-4" />
  <path
     d="m 93.096475,55.195491 -8.258,-11.348 -22.695,4.133 8.262,11.344 z m 0,0"
     fill="#cccccc"
     id="path1003-4-1-2" />
  <path
     stroke-width="0.482987"
     stroke-linecap="butt"
     stroke-linejoin="round"
     fill="none"
     stroke="#000000"
     stroke-opacity="0.78"
     d="m 93.096475,55.195491 -8.258,-11.348 -22.695,4.133 8.262,11.344 z m 0,0"
     id="path1004-9-1-3" />
  <path
     d="m 8.5034755,23.976491 -8.25800001,-11.344 v 20.914 l 8.25800001,11.344 z m 0,0"
     fill="#cccccc"
     id="path981-8-5-7-1-9-9"
     style="fill:#00ffff" />
  <path
     stroke-width="0.482987"
     stroke-linecap="butt"
     stroke-linejoin="round"
     fill="none"
     stroke="#000000"
     stroke-opacity="0.78"
     d="m 8.5014755,23.976491 -8.25800001,-11.344 v 20.914 l 8.25800001,11.344 z m 0,0"
     id="path982-2-5-6-6-0-9" />
  <path
     d="m 31.194475,19.847491 -22.6909995,4.129 v 20.914 l 22.6909995,-4.129 z m 0,0"
     fill="#cccccc"
     id="path1001-0-1-1-8-0-8" />
  <path
     stroke-width="0.482987"
     stroke-linecap="butt"
     stroke-linejoin="round"
     fill="none"
     stroke="#000000"
     stroke-opacity="0.78"
     d="m 31.194475,19.847491 -22.6909995,4.129 v 20.914 l 22.6909995,-4.129 z m 0,0"
     id="path1002-8-7-4-5-6-1" />
  <path
     d="m 31.194475,19.847491 -8.258,-11.3479998 -22.69499951,4.1329998 8.26200001,11.344 z m 0,0"
     fill="#cccccc"
     id="path1003-4-1-2-7-1-8"
     style="fill:#f9f9f9" />
  <path
     stroke-width="0.482987"
     stroke-linecap="butt"
     stroke-linejoin="round"
     fill="none"
     stroke="#000000"
     stroke-opacity="0.78"
     d="m 31.194475,19.847491 -8.258,-11.3479998 -22.69499951,4.1329998 8.26200001,11.344 z m 0,0"
     id="path1004-9-1-3-6-3-2" />
  <path
     d="m 16.761475,77.150491 -8.2579995,-11.344 v 20.914 l 8.2579995,11.344 z m 0,0"
     fill="#cccccc"
     id="path981-8-5-1-0"
     style="fill:#00ffff" />
  <path
     stroke-width="0.482987"
     stroke-linecap="butt"
     stroke-linejoin="round"
     fill="none"
     stroke="#000000"
     stroke-opacity="0.78"
     d="m 16.759475,77.150491 -8.2579995,-11.344 v 20.914 l 8.2579995,11.344 z m 0,0"
     id="path982-2-5-9-3" />
  <path
     d="m 39.452475,73.021491 -22.691,4.129 v 20.914 l 22.691,-4.129 z m 0,0"
     fill="#cccccc"
     id="path1001-0-1-8-8" />
  <path
     stroke-width="0.482987"
     stroke-linecap="butt"
     stroke-linejoin="round"
     fill="none"
     stroke="#000000"
     stroke-opacity="0.78"
     d="m 39.452475,73.021491 -22.691,4.129 v 20.914 l 22.691,-4.129 z m 0,0"
     id="path1002-8-7-6-0" />
  <path
     d="m 39.452475,73.021491 -8.258,-11.348 -22.6949995,4.133 8.2619995,11.344 z m 0,0"
     fill="#cccccc"
     id="path1003-4-1-50-1" />
  <path
     stroke-width="0.482987"
     stroke-linecap="butt"
     stroke-linejoin="round"
     fill="none"
     stroke="#000000"
     stroke-opacity="0.78"
     d="m 39.452475,73.021491 -8.258,-11.348 -22.6949995,4.133 8.2619995,11.344 z m 0,0"
     id="path1004-9-1-2-2" />
  <path
     d="m 39.454475,31.193491 -8.258,-11.344 v 20.914 l 8.258,11.344 z m 0,0"
     fill="#cccccc"
     id="path981-8-5-7-1-8-0" />
  <path
     stroke-width="0.482987"
     stroke-linecap="butt"
     stroke-linejoin="round"
     fill="none"
     stroke="#000000"
     stroke-opacity="0.78"
     d="m 39.452475,31.193491 -8.258,-11.344 v 20.914 l 8.258,11.344 z m 0,0"
     id="path982-2-5-6-6-7-9" />
  <path
     d="m 62.145475,27.064491 -22.691,4.129 v 20.914 l 22.691,-4.129 z m 0,0"
     fill="#cccccc"
     id="path1001-0-1-1-8-4-7" />
  <path
     stroke-width="0.482987"
     stroke-linecap="butt"
     stroke-linejoin="round"
     fill="none"
     stroke="#000000"
     stroke-opacity="0.78"
     d="m 62.145475,27.064491 -22.691,4.129 v 20.914 l 22.691,-4.129 z m 0,0"
     id="path1002-8-7-4-5-2-3" />
  <path
     d="m 62.145475,27.064491 -8.258,-11.348 -22.695,4.133 8.262,11.344 z m 0,0"
     fill="#cccccc"
     id="path1003-4-1-2-7-7-7"
     style="fill:#f9f9f9" />
  <path
     stroke-width="0.482987"
     stroke-linecap="butt"
     stroke-linejoin="round"
     fill="none"
     stroke="#000000"
     stroke-opacity="0.78"
     d="m 62.145475,27.064491 -8.258,-11.348 -22.695,4.133 8.262,11.344 z m 0,0"
     id="path1004-9-1-3-6-7-2" />
  <path
     d="m 70.405475,38.410491 -8.258,-11.344 v 20.914 l 8.258,11.344 z m 0,0"
     fill="#cccccc"
     id="path981-8-5-7-1" />
  <path
     stroke-width="0.482987"
     stroke-linecap="butt"
     stroke-linejoin="round"
     fill="none"
     stroke="#000000"
     stroke-opacity="0.78"
     d="m 70.403475,38.410491 -8.258,-11.344 v 20.914 l 8.258,11.344 z m 0,0"
     id="path982-2-5-6-6" />
  <path
     d="m 93.096475,34.281491 -22.691,4.129 v 20.914 l 22.691,-4.129 z m 0,0"
     fill="#cccccc"
     id="path1001-0-1-1-8"
     style="fill:#ff0000" />
  <path
     stroke-width="0.482987"
     stroke-linecap="butt"
     stroke-linejoin="round"
     fill="none"
     stroke="#000000"
     stroke-opacity="0.78"
     d="m 93.096475,34.281491 -22.691,4.129 v 20.914 l 22.691,-4.129 z m 0,0"
     id="path1002-8-7-4-5" />
  <path
     d="m 93.096475,34.281491 -8.258,-11.348 -22.695,4.133 8.262,11.344 z m 0,0"
     fill="#cccccc"
     id="path1003-4-1-2-7"
     style="fill:#f9f9f9" />
  <path
     stroke-width="0.482987"
     stroke-linecap="butt"
     stroke-linejoin="round"
     fill="none"
     stroke="#000000"
     stroke-opacity="0.78"
     d="m 93.096475,34.281491 -8.258,-11.348 -22.695,4.133 8.262,11.344 z m 0,0"
     id="path1004-9-1-3-6" />
  <path
     d="m 16.761475,56.236491 -8.2579995,-11.344 v 20.914 l 8.2579995,11.344 z m 0,0"
     fill="#cccccc"
     id="path981-8-5-7-6-0"
     style="fill:#00ffff" />
  <path
     stroke-width="0.482987"
     stroke-linecap="butt"
     stroke-linejoin="round"
     fill="none"
     stroke="#000000"
     stroke-opacity="0.78"
     d="m 16.759475,56.236491 -8.2579995,-11.344 v 20.914 l 8.2579995,11.344 z m 0,0"
     id="path982-2-5-6-0-9" />
  <path
     d="m 39.452475,52.107491 -22.691,4.129 v 20.914 l 22.691,-4.129 z m 0,0"
     fill="#cccccc"
     id="path1001-0-1-1-2-4" />
  <path
     stroke-width="0.482987"
     stroke-linecap="butt"
     stroke-linejoin="round"
     fill="none"
     stroke="#000000"
     stroke-opacity="0.78"
     d="m 39.452475,52.107491 -22.691,4.129 v 20.914 l 22.691,-4.129 z m 0,0"
     id="path1002-8-7-4-48-7" />
  <path
     d="m 39.452475,52.107491 -8.258,-11.348 -22.6949995,4.133 8.2619995,11.344 z m 0,0"
     fill="#cccccc"
     id="path1003-4-1-2-6-8" />
  <path
     stroke-width="0.482987"
     stroke-linecap="butt"
     stroke-linejoin="round"
     fill="none"
     stroke="#000000"
     stroke-opacity="0.78"
     d="m 39.452475,52.107491 -8.258,-11.348 -22.6949995,4.133 8.2619995,11.344 z m 0,0"
     id="path1004-9-1-3-5-3" />
  <path
     d="m 16.763475,35.322491 -8.2579995,-11.344 v 20.914 l 8.2579995,11.344 z m 0,0"
     fill="#cccccc"
     id="path981-8-5-7-1-9-0"
     style="fill:#00ffff" />
  <path
     stroke-width="0.482987"
     stroke-linecap="butt"
     stroke-linejoin="round"
     fill="none"
     stroke="#000000"
     stroke-opacity="0.78"
     d="m 16.761475,35.322491 -8.2579995,-11.344 v 20.914 l 8.2579995,11.344 z m 0,0"
     id="path982-2-5-6-6-0-1" />
  <path
     d="m 39.454475,31.193491 -22.691,4.129 v 20.914 l 22.691,-4.129 z m 0,0"
     fill="#cccccc"
     id="path1001-0-1-1-8-0-6" />
  <path
     stroke-width="0.482987"
     stroke-linecap="butt"
     stroke-linejoin="round"
     fill="none"
     stroke="#000000"
     stroke-opacity="0.78"
     d="m 39.454475,31.193491 -22.691,4.129 v 20.914 l 22.691,-4.129 z m 0,0"
     id="path1002-8-7-4-5-6-5" />
  <path
     d="m 39.454475,31.193491 -8.258,-11.348 -22.6949995,4.133 8.2619995,11.344 z m 0,0"
     fill="#cccccc"
     id="path1003-4-1-2-7-1-7"
     style="fill:#f9f9f9" />
  <path
     stroke-width="0.482987"
     stroke-linecap="butt"
     stroke-linejoin="round"
     fill="none"
     stroke="#000000"
     stroke-opacity="0.78"
     d="m 39.454475,31.193491 -8.258,-11.348 -22.6949995,4.133 8.2619995,11.344 z m 0,0"
     id="path1004-9-1-3-6-3-5" />
  <path
     d="m 47.714475,84.367491 -8.258,-11.344 v 20.914 l 8.258,11.343999 z m 0,0"
     fill="#cccccc"
     id="path981-8-5-9" />
  <path
     stroke-width="0.482987"
     stroke-linecap="butt"
     stroke-linejoin="round"
     fill="none"
     stroke="#000000"
     stroke-opacity="0.78"
     d="m 47.712475,84.367491 -8.258,-11.344 v 20.914 l 8.258,11.343999 z m 0,0"
     id="path982-2-5-2" />
  <path
     d="m 70.405475,80.238491 -22.691,4.129 v 20.913999 l 22.691,-4.129 z m 0,0"
     fill="#cccccc"
     id="path1001-0-1-7"
     style="fill:#ff0000" />
  <path
     stroke-width="0.482987"
     stroke-linecap="butt"
     stroke-linejoin="round"
     fill="none"
     stroke="#000000"
     stroke-opacity="0.78"
     d="m 70.405475,80.238491 -22.691,4.129 v 20.913999 l 22.691,-4.129 z m 0,0"
     id="path1002-8-7-9" />
  <path
     d="m 70.405475,80.238491 -8.258,-11.348 -22.695,4.133 8.262,11.344 z m 0,0"
     fill="#cccccc"
     id="path1003-4-1-5" />
  <path
     stroke-width="0.482987"
     stroke-linecap="butt"
     stroke-linejoin="round"
     fill="none"
     stroke="#000000"
     stroke-opacity="0.78"
     d="m 70.405475,80.238491 -8.258,-11.348 -22.695,4.133 8.262,11.344 z m 0,0"
     id="path1004-9-1-4" />
  <path
     d="m 47.714475,63.453491 -8.258,-11.344 v 20.914 l 8.258,11.344 z m 0,0"
     fill="#cccccc"
     id="path981-8-5-7-12" />
  <path
     stroke-width="0.482987"
     stroke-linecap="butt"
     stroke-linejoin="round"
     fill="none"
     stroke="#000000"
     stroke-opacity="0.78"
     d="m 47.712475,63.453491 -8.258,-11.344 v 20.914 l 8.258,11.344 z m 0,0"
     id="path982-2-5-6-3" />
  <path
     d="m 70.405475,59.324491 -22.691,4.129 v 20.914 l 22.691,-4.129 z m 0,0"
     fill="#cccccc"
     id="path1001-0-1-1-3"
     style="fill:#ff0000" />
  <path
     stroke-width="0.482987"
     stroke-linecap="butt"
     stroke-linejoin="round"
     fill="none"
     stroke="#000000"
     stroke-opacity="0.78"
     d="m 70.405475,59.324491 -22.691,4.129 v 20.914 l 22.691,-4.129 z m 0,0"
     id="path1002-8-7-4-4" />
  <path
     d="m 70.405475,59.324491 -8.258,-11.348 -22.695,4.133 8.262,11.344 z m 0,0"
     fill="#cccccc"
     id="path1003-4-1-2-1" />
  <path
     stroke-width="0.482987"
     stroke-linecap="butt"
     stroke-linejoin="round"
     fill="none"
     stroke="#000000"
     stroke-opacity="0.78"
     d="m 70.405475,59.324491 -8.258,-11.348 -22.695,4.133 8.262,11.344 z m 0,0"
     id="path1004-9-1-3-1" />
  <path
     d="m 47.714475,42.539491 -8.258,-11.344 v 20.914 l 8.258,11.344 z m 0,0"
     fill="#cccccc"
     id="path981-8-5-7-1-8" />
  <path
     stroke-width="0.482987"
     stroke-linecap="butt"
     stroke-linejoin="round"
     fill="none"
     stroke="#000000"
     stroke-opacity="0.78"
     d="m 47.712475,42.539491 -8.258,-11.344 v 20.914 l 8.258,11.344 z m 0,0"
     id="path982-2-5-6-6-7" />
  <path
     d="m 70.405475,38.410491 -22.691,4.129 v 20.914 l 22.691,-4.129 z m 0,0"
     fill="#cccccc"
     id="path1001-0-1-1-8-4"
     style="fill:#ff0000" />
  <path
     stroke-width="0.482987"
     stroke-linecap="butt"
     stroke-linejoin="round"
     fill="none"
     stroke="#000000"
     stroke-opacity="0.78"
     d="m 70.405475,38.410491 -22.691,4.129 v 20.914 l 22.691,-4.129 z m 0,0"
     id="path1002-8-7-4-5-2" />
  <path
     d="m 70.405475,38.410491 -8.258,-11.348 -22.695,4.133 8.262,11.344 z m 0,0"
     fill="#cccccc"
     id="path1003-4-1-2-7-7" />
  <path
     stroke-width="0.482987"
     stroke-linecap="butt"
     stroke-linejoin="round"
     fill="none"
     stroke="#000000"
     stroke-opacity="0.78"
     d="m 70.405475,38.410491 -8.258,-11.348 -22.695,4.133 8.262,11.344 z m 0,0"
     id="path1004-9-1-3-6-7"
     style="fill:#f9f9f9" />
  <path
     d="m 25.023475,88.496491 -8.258,-11.344 v 20.914 l 8.258,11.343999 z m 0,0"
     fill="#cccccc"
     id="path981-8-5-1"
     style="fill:#00ffff" />
  <path
     stroke-width="0.482987"
     stroke-linecap="butt"
     stroke-linejoin="round"
     fill="none"
     stroke="#000000"
     stroke-opacity="0.78"
     d="m 25.021475,88.496491 -8.258,-11.344 v 20.914 l 8.258,11.343999 z m 0,0"
     id="path982-2-5-9" />
  <path
     d="m 47.714475,84.367491 -22.691,4.129 v 20.913999 l 22.691,-4.129 z m 0,0"
     fill="#cccccc"
     id="path1001-0-1-8"
     style="fill:#ff0000" />
  <path
     stroke-width="0.482987"
     stroke-linecap="butt"
     stroke-linejoin="round"
     fill="none"
     stroke="#000000"
     stroke-opacity="0.78"
     d="m 47.714475,84.367491 -22.691,4.129 v 20.913999 l 22.691,-4.129 z m 0,0"
     id="path1002-8-7-6" />
  <path
     d="m 47.714475,84.367491 -8.258,-11.348 -22.695,4.133 8.262,11.344 z m 0,0"
     fill="#cccccc"
     id="path1003-4-1-50" />
  <path
     stroke-width="0.482987"
     stroke-linecap="butt"
     stroke-linejoin="round"
     fill="none"
     stroke="#000000"
     stroke-opacity="0.78"
     d="m 47.714475,84.367491 -8.258,-11.348 -22.695,4.133 8.262,11.344 z m 0,0"
     id="path1004-9-1-2" />
  <path
     d="m 25.023475,67.582491 -8.258,-11.344 v 20.914 l 8.258,11.344 z m 0,0"
     fill="#cccccc"
     id="path981-8-5-7-6"
     style="fill:#00ffff" />
  <path
     stroke-width="0.482987"
     stroke-linecap="butt"
     stroke-linejoin="round"
     fill="none"
     stroke="#000000"
     stroke-opacity="0.78"
     d="m 25.021475,67.582491 -8.258,-11.344 v 20.914 l 8.258,11.344 z m 0,0"
     id="path982-2-5-6-0" />
  <path
     d="m 47.714475,63.453491 -22.691,4.129 v 20.914 l 22.691,-4.129 z m 0,0"
     fill="#cccccc"
     id="path1001-0-1-1-2"
     style="fill:#ff0000" />
  <path
     stroke-width="0.482987"
     stroke-linecap="butt"
     stroke-linejoin="round"
     fill="none"
     stroke="#000000"
     stroke-opacity="0.78"
     d="m 47.714475,63.453491 -22.691,4.129 v 20.914 l 22.691,-4.129 z m 0,0"
     id="path1002-8-7-4-48" />
  <path
     d="m 47.714475,63.453491 -8.258,-11.348 -22.695,4.133 8.262,11.344 z m 0,0"
     fill="#cccccc"
     id="path1003-4-1-2-6" />
  <path
     stroke-width="0.482987"
     stroke-linecap="butt"
     stroke-linejoin="round"
     fill="none"
     stroke="#000000"
     stroke-opacity="0.78"
     d="m 47.714475,63.453491 -8.258,-11.348 -22.695,4.133 8.262,11.344 z m 0,0"
     id="path1004-9-1-3-5" />
  <path
     d="m 25.023475,46.668491 -8.258,-11.344 v 20.914 l 8.258,11.344 z m 0,0"
     fill="#cccccc"
     id="path981-8-5-7-1-9"
     style="fill:#00ffff" />
  <path
     stroke-width="0.482987"
     stroke-linecap="butt"
     stroke-linejoin="round"
     fill="none"
     stroke="#000000"
     stroke-opacity="0.78"
     d="m 25.021475,46.668491 -8.258,-11.344 v 20.914 l 8.258,11.344 z m 0,0"
     id="path982-2-5-6-6-0" />
  <path
     d="m 47.714475,42.539491 -22.691,4.129 v 20.914 l 22.691,-4.129 z m 0,0"
     fill="#cccccc"
     id="path1001-0-1-1-8-0"
     style="fill:#ff0000" />
  <path
     stroke-width="0.482987"
     stroke-linecap="butt"
     stroke-linejoin="round"
     fill="none"
     stroke="#000000"
     stroke-opacity="0.78"
     d="m 47.714475,42.539491 -22.691,4.129 v 20.914 l 22.691,-4.129 z m 0,0"
     id="path1002-8-7-4-5-6" />
  <path
     d="m 47.714475,42.539491 -8.258,-11.348 -22.695,4.133 8.262,11.344 z m 0,0"
     fill="#cccccc"
     id="path1003-4-1-2-7-1"
     style="fill:#f9f9f9" />
  <path
     stroke-width="0.482987"
     stroke-linecap="butt"
     stroke-linejoin="round"
     fill="none"
     stroke="#000000"
     stroke-opacity="0.78"
     d="m 47.714475,42.539491 -8.258,-11.348 -22.695,4.133 8.262,11.344 z m 0,0"
     id="path1004-9-1-3-6-3" />
</svg>
