<?xml version="1.0" encoding="UTF-8" standalone="no"?>
<svg
   version="1.1"
   width="585.0751"
   height="186.55274"
   viewBox="0 0 585.0751 186.55274"
   id="svg44"
   sodipodi:docname="backbone-full.svg"
   inkscape:export-filename="backbone-full.svg"
   inkscape:export-xdpi="96"
   inkscape:export-ydpi="96"
   inkscape:version="1.4 (86a8ad7, 2024-10-11)"
   xmlns:inkscape="http://www.inkscape.org/namespaces/inkscape"
   xmlns:sodipodi="http://sodipodi.sourceforge.net/DTD/sodipodi-0.dtd"
   xmlns="http://www.w3.org/2000/svg"
   xmlns:svg="http://www.w3.org/2000/svg">
  <defs
     id="defs44" />
  <sodipodi:namedview
     id="namedview44"
     pagecolor="#ffffff"
     bordercolor="#000000"
     borderopacity="0.25"
     inkscape:showpageshadow="2"
     inkscape:pageopacity="0.0"
     inkscape:pagecheckerboard="0"
     inkscape:deskcolor="#d1d1d1"
     inkscape:zoom="1.536555"
     inkscape:cx="254.13995"
     inkscape:cy="135.69316"
     inkscape:window-width="1920"
     inkscape:window-height="1009"
     inkscape:window-x="1912"
     inkscape:window-y="-8"
     inkscape:window-maximized="1"
     inkscape:current-layer="g44" />
  <g
     id="g44">
    <path
       d="M198.637 90.73 139.773 101.441V155.691L198.637 144.98ZM198.637 90.73"
       fill="#e4e4e4"
       id="path1" />
    <path
       stroke-width="1.252795"
       stroke-linecap="butt"
       stroke-linejoin="round"
       fill="none"
       stroke="#000000"
       stroke-opacity=".78"
       d="M198.637 90.73 139.773 101.441V155.691L198.637 144.98ZM198.637 90.73"
       id="path2" />
    <path
       d="M198.637 90.73 177.211 61.301 118.352 72.012 139.773 101.441ZM198.637 90.73"
       fill="#e4e4e4"
       id="path3" />
    <path
       stroke-width="1.252795"
       stroke-linecap="butt"
       stroke-linejoin="round"
       fill="none"
       stroke="#000000"
       stroke-opacity=".78"
       d="M198.637 90.73 177.211 61.301 118.352 72.012 139.773 101.441ZM198.637 90.73"
       id="path4" />
    <path
       d="M139.773 101.441 118.352 72.012V126.258L139.773 155.691ZM139.773 101.441"
       fill="#e4e4e4"
       id="path5" />
    <path
       stroke-width="1.252795"
       stroke-linecap="butt"
       stroke-linejoin="round"
       fill="none"
       stroke="#000000"
       stroke-opacity=".78"
       d="M139.773 101.441 118.352 72.012V126.258L139.773 155.691ZM139.773 101.441"
       id="path6" />
    <path
       d="M139.773 101.441 80.914 112.156V166.402L139.773 155.691ZM139.773 101.441"
       fill="#20ff00"
       id="path7" />
    <path
       stroke-width="1.252795"
       stroke-linecap="butt"
       stroke-linejoin="round"
       fill="none"
       stroke="#000000"
       stroke-opacity=".78"
       d="M139.773 101.441 80.914 112.156V166.402L139.773 155.691ZM139.773 101.441"
       id="path8" />
    <path
       d="M139.773 101.441 118.352 72.012 59.488 82.723 80.914 112.156ZM139.773 101.441"
       fill="#20ff00"
       id="path9" />
    <path
       stroke-width="1.252795"
       stroke-linecap="butt"
       stroke-linejoin="round"
       fill="none"
       stroke="#000000"
       stroke-opacity=".78"
       d="M139.773 101.441 118.352 72.012 59.488 82.723 80.914 112.156ZM139.773 101.441"
       id="path10" />
    <path
       d="M80.914 112.156 59.488 82.723V136.973L80.914 166.402ZM80.914 112.156"
       fill="#20ff00"
       id="path11" />
    <path
       stroke-width="1.252795"
       stroke-linecap="butt"
       stroke-linejoin="round"
       fill="none"
       stroke="#000000"
       stroke-opacity=".78"
       d="M80.914 112.156 59.488 82.723V136.973L80.914 166.402ZM80.914 112.156"
       id="path12" />
    <path
       d="M80.914 112.156 22.051 122.867V177.113L80.914 166.402ZM80.914 112.156"
       fill="#e4e4e4"
       id="path13" />
    <path
       stroke-width="1.252795"
       stroke-linecap="butt"
       stroke-linejoin="round"
       fill="none"
       stroke="#000000"
       stroke-opacity=".78"
       d="M80.914 112.156 22.051 122.867V177.113L80.914 166.402ZM80.914 112.156"
       id="path14" />
    <path
       d="M80.914 112.156 59.488 82.723 .625 93.438 22.051 122.867ZM80.914 112.156"
       fill="#e4e4e4"
       id="path15" />
    <path
       stroke-width="1.252795"
       stroke-linecap="butt"
       stroke-linejoin="round"
       fill="none"
       stroke="#000000"
       stroke-opacity=".78"
       d="M80.914 112.156 59.488 82.723 .625 93.438 22.051 122.867ZM80.914 112.156"
       id="path16" />
    <path
       d="M22.051 122.867 .625 93.438V147.684L22.051 177.113ZM22.051 122.867"
       fill="#e4e4e4"
       id="path17" />
    <path
       stroke-width="1.252795"
       stroke-linecap="butt"
       stroke-linejoin="round"
       fill="none"
       stroke="#000000"
       stroke-opacity=".78"
       d="M22.051 122.867 .625 93.438V147.684L22.051 177.113ZM22.051 122.867"
       id="path18" />
    <path
       d="M560.949 84.305 502.086 95.016V149.266L560.949 138.555ZM560.949 84.305"
       fill="#e4e4e4"
       id="path19" />
    <path
       stroke-width="1.252795"
       stroke-linecap="butt"
       stroke-linejoin="round"
       fill="none"
       stroke="#000000"
       stroke-opacity=".78"
       d="M560.949 84.305 502.086 95.016V149.266L560.949 138.555ZM560.949 84.305"
       id="path20" />
    <path
       d="M560.949 84.305 539.523 54.875 480.664 65.586 502.086 95.016ZM560.949 84.305"
       fill="#e4e4e4"
       id="path21" />
    <path
       stroke-width="1.252795"
       stroke-linecap="butt"
       stroke-linejoin="round"
       fill="none"
       stroke="#000000"
       stroke-opacity=".78"
       d="M560.949 84.305 539.523 54.875 480.664 65.586 502.086 95.016ZM560.949 84.305"
       id="path22" />
    <path
       d="M502.086 95.016 480.664 65.586V119.832L502.086 149.266ZM502.086 95.016"
       fill="#e4e4e4"
       id="path23" />
    <path
       stroke-width="1.252795"
       stroke-linecap="butt"
       stroke-linejoin="round"
       fill="none"
       stroke="#000000"
       stroke-opacity=".78"
       d="M502.086 95.016 480.664 65.586V119.832L502.086 149.266ZM502.086 95.016"
       id="path24" />
    <path
       d="M560.949 30.059 502.086 40.77V95.016L560.949 84.305ZM560.949 30.059"
       fill="#20ff00"
       id="path25" />
    <path
       stroke-width="1.252795"
       stroke-linecap="butt"
       stroke-linejoin="round"
       fill="none"
       stroke="#000000"
       stroke-opacity=".78"
       d="M560.949 30.059 502.086 40.77V95.016L560.949 84.305ZM560.949 30.059"
       id="path26" />
    <path
       d="M560.949 30.059 539.523 .625 480.664 11.34 502.086 40.77ZM560.949 30.059"
       fill="#20ff00"
       id="path27" />
    <path
       stroke-width="1.252795"
       stroke-linecap="butt"
       stroke-linejoin="round"
       fill="none"
       stroke="#000000"
       stroke-opacity=".78"
       d="M560.949 30.059 539.523 .625 480.664 11.34 502.086 40.77ZM560.949 30.059"
       id="path28" />
    <path
       d="M502.086 40.77 480.664 11.34V65.586L502.086 95.016ZM502.086 40.77"
       fill="#20ff00"
       id="path29" />
    <path
       stroke-width="1.252795"
       stroke-linecap="butt"
       stroke-linejoin="round"
       fill="none"
       stroke="#000000"
       stroke-opacity=".78"
       d="M502.086 40.77 480.664 11.34V65.586L502.086 95.016ZM502.086 40.77"
       id="path30" />
    <path
       stroke-width="3.44126"
       stroke-linecap="butt"
       stroke-miterlimit="4"
       stroke-linejoin="miter"
       fill="none"
       stroke="#ff0000"
       d="M458.043 87.086V59.855L480.664 55.676"
       id="path31" />
    <path
       transform="matrix(1,-.18482,.18482,1,0,0)"
       d="M462.763 139.739 450.88 146.609 450.877 132.866ZM462.763 139.739"
       fill="#ff0000"
       fill-rule="evenodd"
       id="path32" />
    <path
       transform="matrix(1,-.18482,.18482,1,0,0)"
       stroke-width="1.832091"
       stroke-linecap="butt"
       stroke-miterlimit="4"
       stroke-linejoin="miter"
       fill="none"
       stroke="#ff0000"
       d="M462.763 139.739 450.88 146.609 450.877 132.866ZM462.763 139.739"
       id="path33" />
    <path
       d="M443.223 105.73 384.363 116.441V170.688L443.223 159.977ZM443.223 105.73"
       fill="#e4e4e4"
       id="path34" />
    <path
       stroke-width="1.252795"
       stroke-linecap="butt"
       stroke-linejoin="round"
       fill="none"
       stroke="#000000"
       stroke-opacity=".78"
       d="M443.223 105.73 384.363 116.441V170.688L443.223 159.977ZM443.223 105.73"
       id="path35" />
    <path
       d="M443.223 105.73 421.801 76.297 362.938 87.012 384.363 116.441ZM443.223 105.73"
       fill="#e4e4e4"
       id="path36" />
    <path
       stroke-width="1.252795"
       stroke-linecap="butt"
       stroke-linejoin="round"
       fill="none"
       stroke="#000000"
       stroke-opacity=".78"
       d="M443.223 105.73 421.801 76.297 362.938 87.012 384.363 116.441ZM443.223 105.73"
       id="path37" />
    <path
       d="M384.363 116.441 362.938 87.012V141.258L384.363 170.688ZM384.363 116.441"
       fill="#e4e4e4"
       id="path38" />
    <path
       stroke-width="1.252795"
       stroke-linecap="butt"
       stroke-linejoin="round"
       fill="none"
       stroke="#000000"
       stroke-opacity=".78"
       d="M384.363 116.441 362.938 87.012V141.258L384.363 170.688ZM384.363 116.441"
       id="path39" />
    <path
       stroke-width="3.44126"
       stroke-linecap="butt"
       stroke-miterlimit="4"
       stroke-linejoin="miter"
       fill="none"
       stroke="#ff0000"
       d="M373.648 10.711C373.648 14.816 583.992 185.215 583.992 185.215"
       id="path40" />
    <path
       stroke-width="3.44126"
       stroke-linecap="butt"
       stroke-miterlimit="4"
       stroke-linejoin="miter"
       fill="none"
       stroke="#ff0000"
       d="M371.93 186.551 594.23 0"
       id="path41" />
    <path
       stroke-width="3.44126"
       stroke-linecap="butt"
       stroke-miterlimit="4"
       stroke-linejoin="miter"
       fill="none"
       stroke="#000000"
       d="M219.055 102.07H335.813"
       id="path42"
       style="stroke:#ffffff;fill:#ffffff" />
    <path
       d="M343.875 102.07 331.785 109.055V95.082ZM343.875 102.07"
       fill-rule="evenodd"
       id="path43" />
    <path
       stroke-width="1.863119"
       stroke-linecap="butt"
       stroke-miterlimit="4"
       stroke-linejoin="miter"
       fill="none"
       stroke="#000000"
       d="M343.875 102.07 331.785 109.055V95.082ZM343.875 102.07"
       id="path44"
       style="stroke:#ffffff;fill:#ffffff" />
  </g>
</svg>
