<svg xmlns="http://www.w3.org/2000/svg" xmlns:xlink="http://www.w3.org/1999/xlink" xmlns:inkscape="http://www.inkscape.org/namespaces/inkscape" version="1.1" width="155.24547" height="128.21668" viewBox="0 0 155.24547 128.21668">
<g>
<path d="M121.965 41.027 99.273 45.156V66.07L121.965 61.941ZM121.965 41.027" fill="#cccccc"/>
<path stroke-width=".482987" stroke-linecap="butt" stroke-linejoin="round" fill="none" stroke="#000000" stroke-opacity=".78" d="M121.965 41.027 99.273 45.156V66.07L121.965 61.941ZM121.965 41.027"/>
<path d="M121.965 41.027 113.707 29.68 91.012 33.809 99.273 45.156ZM121.965 41.027" fill="#cccccc"/>
<path stroke-width=".482987" stroke-linecap="butt" stroke-linejoin="round" fill="none" stroke="#000000" stroke-opacity=".78" d="M121.965 41.027 113.707 29.68 91.012 33.809 99.273 45.156ZM121.965 41.027"/>
<path d="M99.273 45.156 91.012 33.809V54.723L99.273 66.07ZM99.273 45.156" fill="#cccccc"/>
<path stroke-width=".482987" stroke-linecap="butt" stroke-linejoin="round" fill="none" stroke="#000000" stroke-opacity=".78" d="M99.273 45.156 91.012 33.809V54.723L99.273 66.07ZM99.273 45.156"/>
<path d="M99.273 45.156 76.578 49.285V70.199L99.273 66.07ZM99.273 45.156" fill="#cccccc"/>
<path stroke-width=".482987" stroke-linecap="butt" stroke-linejoin="round" fill="none" stroke="#000000" stroke-opacity=".78" d="M99.273 45.156 76.578 49.285V70.199L99.273 66.07ZM99.273 45.156"/>
<path d="M99.273 45.156 91.012 33.809 68.32 37.941 76.578 49.285ZM99.273 45.156" fill="#cccccc"/>
<path stroke-width=".482987" stroke-linecap="butt" stroke-linejoin="round" fill="none" stroke="#000000" stroke-opacity=".78" d="M99.273 45.156 91.012 33.809 68.32 37.941 76.578 49.285ZM99.273 45.156"/>
<path d="M76.578 49.285 68.32 37.941V58.855L76.578 70.199ZM76.578 49.285" fill="#cccccc"/>
<path stroke-width=".482987" stroke-linecap="butt" stroke-linejoin="round" fill="none" stroke="#000000" stroke-opacity=".78" d="M76.578 49.285 68.32 37.941V58.855L76.578 70.199ZM76.578 49.285"/>
<path d="M76.578 49.285 53.887 53.414V74.328L76.578 70.199ZM76.578 49.285" fill="#cccccc"/>
<path stroke-width=".482987" stroke-linecap="butt" stroke-linejoin="round" fill="none" stroke="#000000" stroke-opacity=".78" d="M76.578 49.285 53.887 53.414V74.328L76.578 70.199ZM76.578 49.285"/>
<path d="M76.578 49.285 68.32 37.941 45.629 42.07 53.887 53.414ZM76.578 49.285" fill="#cccccc"/>
<path stroke-width=".482987" stroke-linecap="butt" stroke-linejoin="round" fill="none" stroke="#000000" stroke-opacity=".78" d="M76.578 49.285 68.32 37.941 45.629 42.07 53.887 53.414ZM76.578 49.285"/>
<path d="M53.887 53.414 45.629 42.07V62.984L53.887 74.328ZM53.887 53.414" fill="#cccccc"/>
<path stroke-width=".482987" stroke-linecap="butt" stroke-linejoin="round" fill="none" stroke="#000000" stroke-opacity=".78" d="M53.887 53.414 45.629 42.07V62.984L53.887 74.328ZM53.887 53.414"/>
<path d="M53.887 53.414 31.195 57.547V78.461L53.887 74.328ZM53.887 53.414" fill="#cccccc"/>
<path stroke-width=".482987" stroke-linecap="butt" stroke-linejoin="round" fill="none" stroke="#000000" stroke-opacity=".78" d="M53.887 53.414 31.195 57.547V78.461L53.887 74.328ZM53.887 53.414"/>
<path d="M53.887 53.414 45.629 42.07 22.934 46.199 31.195 57.547ZM53.887 53.414" fill="#cccccc"/>
<path stroke-width=".482987" stroke-linecap="butt" stroke-linejoin="round" fill="none" stroke="#000000" stroke-opacity=".78" d="M53.887 53.414 45.629 42.07 22.934 46.199 31.195 57.547ZM53.887 53.414"/>
<path d="M31.195 57.547 22.934 46.199V67.113L31.195 78.461ZM31.195 57.547" fill="#cccccc"/>
<path stroke-width=".482987" stroke-linecap="butt" stroke-linejoin="round" fill="none" stroke="#000000" stroke-opacity=".78" d="M31.195 57.547 22.934 46.199V67.113L31.195 78.461ZM31.195 57.547"/>
<path d="M31.195 57.547 8.5 61.676V82.59L31.195 78.461ZM31.195 57.547" fill="#cccccc"/>
<path stroke-width=".482987" stroke-linecap="butt" stroke-linejoin="round" fill="none" stroke="#000000" stroke-opacity=".78" d="M31.195 57.547 8.5 61.676V82.59L31.195 78.461ZM31.195 57.547"/>
<path d="M31.195 57.547 22.934 46.199 .242 50.328 8.5 61.676ZM31.195 57.547" fill="#cccccc"/>
<path stroke-width=".482987" stroke-linecap="butt" stroke-linejoin="round" fill="none" stroke="#000000" stroke-opacity=".78" d="M31.195 57.547 22.934 46.199 .242 50.328 8.5 61.676ZM31.195 57.547"/>
<path d="M8.5 61.676 .242 50.328V71.242L8.5 82.59ZM8.5 61.676" fill="#cccccc"/>
<path stroke-width=".482987" stroke-linecap="butt" stroke-linejoin="round" fill="none" stroke="#000000" stroke-opacity=".78" d="M8.5 61.676 .242 50.328V71.242L8.5 82.59ZM8.5 61.676"/>
<path d="M130.227 52.371 107.531 56.504V77.418L130.227 73.285ZM130.227 52.371" fill="#cccccc"/>
<path stroke-width=".482987" stroke-linecap="butt" stroke-linejoin="round" fill="none" stroke="#000000" stroke-opacity=".78" d="M130.227 52.371 107.531 56.504V77.418L130.227 73.285ZM130.227 52.371"/>
<path d="M130.227 52.371 121.965 41.027 99.273 45.156 107.531 56.504ZM130.227 52.371" fill="#cccccc"/>
<path stroke-width=".482987" stroke-linecap="butt" stroke-linejoin="round" fill="none" stroke="#000000" stroke-opacity=".78" d="M130.227 52.371 121.965 41.027 99.273 45.156 107.531 56.504ZM130.227 52.371"/>
<path d="M107.531 56.504 99.273 45.156V66.07L107.531 77.418ZM107.531 56.504" fill="#cccccc"/>
<path stroke-width=".482987" stroke-linecap="butt" stroke-linejoin="round" fill="none" stroke="#000000" stroke-opacity=".78" d="M107.531 56.504 99.273 45.156V66.07L107.531 77.418ZM107.531 56.504"/>
<path d="M107.531 56.504 84.84 60.633V81.547L107.531 77.418ZM107.531 56.504" fill="#cccccc"/>
<path stroke-width=".482987" stroke-linecap="butt" stroke-linejoin="round" fill="none" stroke="#000000" stroke-opacity=".78" d="M107.531 56.504 84.84 60.633V81.547L107.531 77.418ZM107.531 56.504"/>
<path d="M107.531 56.504 99.273 45.156 76.578 49.285 84.84 60.633ZM107.531 56.504" fill="#cccccc"/>
<path stroke-width=".482987" stroke-linecap="butt" stroke-linejoin="round" fill="none" stroke="#000000" stroke-opacity=".78" d="M107.531 56.504 99.273 45.156 76.578 49.285 84.84 60.633ZM107.531 56.504"/>
<path d="M84.84 60.633 76.578 49.285V70.199L84.84 81.547ZM84.84 60.633" fill="#cccccc"/>
<path stroke-width=".482987" stroke-linecap="butt" stroke-linejoin="round" fill="none" stroke="#000000" stroke-opacity=".78" d="M84.84 60.633 76.578 49.285V70.199L84.84 81.547ZM84.84 60.633"/>
<path d="M84.84 60.633 62.148 64.762V85.676L84.84 81.547ZM84.84 60.633" fill="#cccccc"/>
<path stroke-width=".482987" stroke-linecap="butt" stroke-linejoin="round" fill="none" stroke="#000000" stroke-opacity=".78" d="M84.84 60.633 62.148 64.762V85.676L84.84 81.547ZM84.84 60.633"/>
<path d="M84.84 60.633 76.578 49.285 53.887 53.414 62.148 64.762ZM84.84 60.633" fill="#cccccc"/>
<path stroke-width=".482987" stroke-linecap="butt" stroke-linejoin="round" fill="none" stroke="#000000" stroke-opacity=".78" d="M84.84 60.633 76.578 49.285 53.887 53.414 62.148 64.762ZM84.84 60.633"/>
<path d="M62.148 64.762 53.887 53.414V74.328L62.148 85.676ZM62.148 64.762" fill="#cccccc"/>
<path stroke-width=".482987" stroke-linecap="butt" stroke-linejoin="round" fill="none" stroke="#000000" stroke-opacity=".78" d="M62.148 64.762 53.887 53.414V74.328L62.148 85.676ZM62.148 64.762"/>
<path d="M62.148 64.762 39.453 68.891V89.805L62.148 85.676ZM62.148 64.762" fill="#cccccc"/>
<path stroke-width=".482987" stroke-linecap="butt" stroke-linejoin="round" fill="none" stroke="#000000" stroke-opacity=".78" d="M62.148 64.762 39.453 68.891V89.805L62.148 85.676ZM62.148 64.762"/>
<path d="M62.148 64.762 53.887 53.414 31.195 57.547 39.453 68.891ZM62.148 64.762" fill="#cccccc"/>
<path stroke-width=".482987" stroke-linecap="butt" stroke-linejoin="round" fill="none" stroke="#000000" stroke-opacity=".78" d="M62.148 64.762 53.887 53.414 31.195 57.547 39.453 68.891ZM62.148 64.762"/>
<path d="M39.453 68.891 31.195 57.547V78.461L39.453 89.805ZM39.453 68.891" fill="#cccccc"/>
<path stroke-width=".482987" stroke-linecap="butt" stroke-linejoin="round" fill="none" stroke="#000000" stroke-opacity=".78" d="M39.453 68.891 31.195 57.547V78.461L39.453 89.805ZM39.453 68.891"/>
<path d="M39.453 68.891 16.762 73.023V93.938L39.453 89.805ZM39.453 68.891" fill="#cccccc"/>
<path stroke-width=".482987" stroke-linecap="butt" stroke-linejoin="round" fill="none" stroke="#000000" stroke-opacity=".78" d="M39.453 68.891 16.762 73.023V93.938L39.453 89.805ZM39.453 68.891"/>
<path d="M39.453 68.891 31.195 57.547 8.5 61.676 16.762 73.023ZM39.453 68.891" fill="#cccccc"/>
<path stroke-width=".482987" stroke-linecap="butt" stroke-linejoin="round" fill="none" stroke="#000000" stroke-opacity=".78" d="M39.453 68.891 31.195 57.547 8.5 61.676 16.762 73.023ZM39.453 68.891"/>
<path d="M16.762 73.023 8.5 61.676V82.59L16.762 93.938ZM16.762 73.023" fill="#cccccc"/>
<path stroke-width=".482987" stroke-linecap="butt" stroke-linejoin="round" fill="none" stroke="#000000" stroke-opacity=".78" d="M16.762 73.023 8.5 61.676V82.59L16.762 93.938ZM16.762 73.023"/>
<path d="M138.484 63.719 115.793 67.848V88.762L138.484 84.633ZM138.484 63.719" fill="#cccccc"/>
<path stroke-width=".482987" stroke-linecap="butt" stroke-linejoin="round" fill="none" stroke="#000000" stroke-opacity=".78" d="M138.484 63.719 115.793 67.848V88.762L138.484 84.633ZM138.484 63.719"/>
<path d="M138.484 63.719 130.227 52.371 107.531 56.504 115.793 67.848ZM138.484 63.719" fill="#cccccc"/>
<path stroke-width=".482987" stroke-linecap="butt" stroke-linejoin="round" fill="none" stroke="#000000" stroke-opacity=".78" d="M138.484 63.719 130.227 52.371 107.531 56.504 115.793 67.848ZM138.484 63.719"/>
<path d="M115.793 67.848 107.531 56.504V77.418L115.793 88.762ZM115.793 67.848" fill="#cccccc"/>
<path stroke-width=".482987" stroke-linecap="butt" stroke-linejoin="round" fill="none" stroke="#000000" stroke-opacity=".78" d="M115.793 67.848 107.531 56.504V77.418L115.793 88.762ZM115.793 67.848"/>
<path d="M115.793 67.848 93.098 71.98V92.895L115.793 88.762ZM115.793 67.848" fill="#cccccc"/>
<path stroke-width=".482987" stroke-linecap="butt" stroke-linejoin="round" fill="none" stroke="#000000" stroke-opacity=".78" d="M115.793 67.848 93.098 71.98V92.895L115.793 88.762ZM115.793 67.848"/>
<path d="M115.793 67.848 107.531 56.504 84.84 60.633 93.098 71.98ZM115.793 67.848" fill="#cccccc"/>
<path stroke-width=".482987" stroke-linecap="butt" stroke-linejoin="round" fill="none" stroke="#000000" stroke-opacity=".78" d="M115.793 67.848 107.531 56.504 84.84 60.633 93.098 71.98ZM115.793 67.848"/>
<path d="M93.098 71.98 84.84 60.633V81.547L93.098 92.895ZM93.098 71.98" fill="#cccccc"/>
<path stroke-width=".482987" stroke-linecap="butt" stroke-linejoin="round" fill="none" stroke="#000000" stroke-opacity=".78" d="M93.098 71.98 84.84 60.633V81.547L93.098 92.895ZM93.098 71.98"/>
<path d="M93.098 71.98 70.406 76.109V97.023L93.098 92.895ZM93.098 71.98" fill="#cccccc"/>
<path stroke-width=".482987" stroke-linecap="butt" stroke-linejoin="round" fill="none" stroke="#000000" stroke-opacity=".78" d="M93.098 71.98 70.406 76.109V97.023L93.098 92.895ZM93.098 71.98"/>
<path d="M93.098 71.98 84.84 60.633 62.148 64.762 70.406 76.109ZM93.098 71.98" fill="#cccccc"/>
<path stroke-width=".482987" stroke-linecap="butt" stroke-linejoin="round" fill="none" stroke="#000000" stroke-opacity=".78" d="M93.098 71.98 84.84 60.633 62.148 64.762 70.406 76.109ZM93.098 71.98"/>
<path d="M70.406 76.109 62.148 64.762V85.676L70.406 97.023ZM70.406 76.109" fill="#cccccc"/>
<path stroke-width=".482987" stroke-linecap="butt" stroke-linejoin="round" fill="none" stroke="#000000" stroke-opacity=".78" d="M70.406 76.109 62.148 64.762V85.676L70.406 97.023ZM70.406 76.109"/>
<path d="M70.406 76.109 47.715 80.238V101.152L70.406 97.023ZM70.406 76.109" fill="#cccccc"/>
<path stroke-width=".482987" stroke-linecap="butt" stroke-linejoin="round" fill="none" stroke="#000000" stroke-opacity=".78" d="M70.406 76.109 47.715 80.238V101.152L70.406 97.023ZM70.406 76.109"/>
<path d="M70.406 76.109 62.148 64.762 39.453 68.891 47.715 80.238ZM70.406 76.109" fill="#cccccc"/>
<path stroke-width=".482987" stroke-linecap="butt" stroke-linejoin="round" fill="none" stroke="#000000" stroke-opacity=".78" d="M70.406 76.109 62.148 64.762 39.453 68.891 47.715 80.238ZM70.406 76.109"/>
<path d="M47.715 80.238 39.453 68.891V89.805L47.715 101.152ZM47.715 80.238" fill="#cccccc"/>
<path stroke-width=".482987" stroke-linecap="butt" stroke-linejoin="round" fill="none" stroke="#000000" stroke-opacity=".78" d="M47.715 80.238 39.453 68.891V89.805L47.715 101.152ZM47.715 80.238"/>
<path d="M47.715 80.238 25.02 84.367V105.281L47.715 101.152ZM47.715 80.238" fill="#cccccc"/>
<path stroke-width=".482987" stroke-linecap="butt" stroke-linejoin="round" fill="none" stroke="#000000" stroke-opacity=".78" d="M47.715 80.238 25.02 84.367V105.281L47.715 101.152ZM47.715 80.238"/>
<path d="M47.715 80.238 39.453 68.891 16.762 73.023 25.02 84.367ZM47.715 80.238" fill="#cccccc"/>
<path stroke-width=".482987" stroke-linecap="butt" stroke-linejoin="round" fill="none" stroke="#000000" stroke-opacity=".78" d="M47.715 80.238 39.453 68.891 16.762 73.023 25.02 84.367ZM47.715 80.238"/>
<path d="M25.02 84.367 16.762 73.023V93.938L25.02 105.281ZM25.02 84.367" fill="#cccccc"/>
<path stroke-width=".482987" stroke-linecap="butt" stroke-linejoin="round" fill="none" stroke="#000000" stroke-opacity=".78" d="M25.02 84.367 16.762 73.023V93.938L25.02 105.281ZM25.02 84.367"/>
<path d="M146.746 75.066 124.051 79.195V100.109L146.746 95.98ZM146.746 75.066" fill="#cccccc"/>
<path stroke-width=".482987" stroke-linecap="butt" stroke-linejoin="round" fill="none" stroke="#000000" stroke-opacity=".78" d="M146.746 75.066 124.051 79.195V100.109L146.746 95.98ZM146.746 75.066"/>
<path d="M146.746 75.066 138.484 63.719 115.793 67.848 124.051 79.195ZM146.746 75.066" fill="#cccccc"/>
<path stroke-width=".482987" stroke-linecap="butt" stroke-linejoin="round" fill="none" stroke="#000000" stroke-opacity=".78" d="M146.746 75.066 138.484 63.719 115.793 67.848 124.051 79.195ZM146.746 75.066"/>
<path d="M124.051 79.195 115.793 67.848V88.762L124.051 100.109ZM124.051 79.195" fill="#cccccc"/>
<path stroke-width=".482987" stroke-linecap="butt" stroke-linejoin="round" fill="none" stroke="#000000" stroke-opacity=".78" d="M124.051 79.195 115.793 67.848V88.762L124.051 100.109ZM124.051 79.195"/>
<path d="M124.051 79.195 101.359 83.324V104.238L124.051 100.109ZM124.051 79.195" fill="#cccccc"/>
<path stroke-width=".482987" stroke-linecap="butt" stroke-linejoin="round" fill="none" stroke="#000000" stroke-opacity=".78" d="M124.051 79.195 101.359 83.324V104.238L124.051 100.109ZM124.051 79.195"/>
<path d="M124.051 79.195 115.793 67.848 93.098 71.98 101.359 83.324ZM124.051 79.195" fill="#cccccc"/>
<path stroke-width=".482987" stroke-linecap="butt" stroke-linejoin="round" fill="none" stroke="#000000" stroke-opacity=".78" d="M124.051 79.195 115.793 67.848 93.098 71.98 101.359 83.324ZM124.051 79.195"/>
<path d="M101.359 83.324 93.098 71.98V92.895L101.359 104.238ZM101.359 83.324" fill="#cccccc"/>
<path stroke-width=".482987" stroke-linecap="butt" stroke-linejoin="round" fill="none" stroke="#000000" stroke-opacity=".78" d="M101.359 83.324 93.098 71.98V92.895L101.359 104.238ZM101.359 83.324"/>
<path d="M101.359 83.324 78.664 87.457V108.371L101.359 104.238ZM101.359 83.324" fill="#cccccc"/>
<path stroke-width=".482987" stroke-linecap="butt" stroke-linejoin="round" fill="none" stroke="#000000" stroke-opacity=".78" d="M101.359 83.324 78.664 87.457V108.371L101.359 104.238ZM101.359 83.324"/>
<path d="M101.359 83.324 93.098 71.98 70.406 76.109 78.664 87.457ZM101.359 83.324" fill="#cccccc"/>
<path stroke-width=".482987" stroke-linecap="butt" stroke-linejoin="round" fill="none" stroke="#000000" stroke-opacity=".78" d="M101.359 83.324 93.098 71.98 70.406 76.109 78.664 87.457ZM101.359 83.324"/>
<path d="M78.664 87.457 70.406 76.109V97.023L78.664 108.371ZM78.664 87.457" fill="#cccccc"/>
<path stroke-width=".482987" stroke-linecap="butt" stroke-linejoin="round" fill="none" stroke="#000000" stroke-opacity=".78" d="M78.664 87.457 70.406 76.109V97.023L78.664 108.371ZM78.664 87.457"/>
<path d="M78.664 87.457 55.973 91.586V112.5L78.664 108.371ZM78.664 87.457" fill="#cccccc"/>
<path stroke-width=".482987" stroke-linecap="butt" stroke-linejoin="round" fill="none" stroke="#000000" stroke-opacity=".78" d="M78.664 87.457 55.973 91.586V112.5L78.664 108.371ZM78.664 87.457"/>
<path d="M78.664 87.457 70.406 76.109 47.715 80.238 55.973 91.586ZM78.664 87.457" fill="#cccccc"/>
<path stroke-width=".482987" stroke-linecap="butt" stroke-linejoin="round" fill="none" stroke="#000000" stroke-opacity=".78" d="M78.664 87.457 70.406 76.109 47.715 80.238 55.973 91.586ZM78.664 87.457"/>
<path d="M55.973 91.586 47.715 80.238V101.152L55.973 112.5ZM55.973 91.586" fill="#cccccc"/>
<path stroke-width=".482987" stroke-linecap="butt" stroke-linejoin="round" fill="none" stroke="#000000" stroke-opacity=".78" d="M55.973 91.586 47.715 80.238V101.152L55.973 112.5ZM55.973 91.586"/>
<path d="M155.004 86.414 132.313 90.543V111.457L155.004 107.328ZM155.004 86.414" fill="#cccccc"/>
<path stroke-width=".482987" stroke-linecap="butt" stroke-linejoin="round" fill="none" stroke="#000000" stroke-opacity=".78" d="M155.004 86.414 132.313 90.543V111.457L155.004 107.328ZM155.004 86.414"/>
<path d="M155.004 86.414 146.746 75.066 124.051 79.195 132.313 90.543ZM155.004 86.414" fill="#cccccc"/>
<path stroke-width=".482987" stroke-linecap="butt" stroke-linejoin="round" fill="none" stroke="#000000" stroke-opacity=".78" d="M155.004 86.414 146.746 75.066 124.051 79.195 132.313 90.543ZM155.004 86.414"/>
<path d="M132.313 90.543 124.051 79.195V100.109L132.313 111.457ZM132.313 90.543" fill="#cccccc"/>
<path stroke-width=".482987" stroke-linecap="butt" stroke-linejoin="round" fill="none" stroke="#000000" stroke-opacity=".78" d="M132.313 90.543 124.051 79.195V100.109L132.313 111.457ZM132.313 90.543"/>
<path d="M132.313 90.543 109.617 94.672V115.586L132.313 111.457ZM132.313 90.543" fill="#cccccc"/>
<path stroke-width=".482987" stroke-linecap="butt" stroke-linejoin="round" fill="none" stroke="#000000" stroke-opacity=".78" d="M132.313 90.543 109.617 94.672V115.586L132.313 111.457ZM132.313 90.543"/>
<path d="M132.313 90.543 124.051 79.195 101.359 83.324 109.617 94.672ZM132.313 90.543" fill="#cccccc"/>
<path stroke-width=".482987" stroke-linecap="butt" stroke-linejoin="round" fill="none" stroke="#000000" stroke-opacity=".78" d="M132.313 90.543 124.051 79.195 101.359 83.324 109.617 94.672ZM132.313 90.543"/>
<path d="M109.617 94.672 101.359 83.324V104.238L109.617 115.586ZM109.617 94.672" fill="#cccccc"/>
<path stroke-width=".482987" stroke-linecap="butt" stroke-linejoin="round" fill="none" stroke="#000000" stroke-opacity=".78" d="M109.617 94.672 101.359 83.324V104.238L109.617 115.586ZM109.617 94.672"/>
<path d="M109.617 94.672 86.926 98.801V119.715L109.617 115.586ZM109.617 94.672" fill="#cccccc"/>
<path stroke-width=".482987" stroke-linecap="butt" stroke-linejoin="round" fill="none" stroke="#000000" stroke-opacity=".78" d="M109.617 94.672 86.926 98.801V119.715L109.617 115.586ZM109.617 94.672"/>
<path d="M109.617 94.672 101.359 83.324 78.664 87.457 86.926 98.801ZM109.617 94.672" fill="#cccccc"/>
<path stroke-width=".482987" stroke-linecap="butt" stroke-linejoin="round" fill="none" stroke="#000000" stroke-opacity=".78" d="M109.617 94.672 101.359 83.324 78.664 87.457 86.926 98.801ZM109.617 94.672"/>
<path d="M86.926 98.801 78.664 87.457V108.371L86.926 119.715ZM86.926 98.801" fill="#cccccc"/>
<path stroke-width=".482987" stroke-linecap="butt" stroke-linejoin="round" fill="none" stroke="#000000" stroke-opacity=".78" d="M86.926 98.801 78.664 87.457V108.371L86.926 119.715ZM86.926 98.801"/>
<path d="M86.926 98.801 64.23 102.93V123.844L86.926 119.715ZM86.926 98.801" fill="#cccccc"/>
<path stroke-width=".482987" stroke-linecap="butt" stroke-linejoin="round" fill="none" stroke="#000000" stroke-opacity=".78" d="M86.926 98.801 64.23 102.93V123.844L86.926 119.715ZM86.926 98.801"/>
<path d="M86.926 98.801 78.664 87.457 55.973 91.586 64.23 102.93ZM86.926 98.801" fill="#cccccc"/>
<path stroke-width=".482987" stroke-linecap="butt" stroke-linejoin="round" fill="none" stroke="#000000" stroke-opacity=".78" d="M86.926 98.801 78.664 87.457 55.973 91.586 64.23 102.93ZM86.926 98.801"/>
<path d="M64.23 102.93 55.973 91.586V112.5L64.23 123.844ZM64.23 102.93" fill="#cccccc"/>
<path stroke-width=".482987" stroke-linecap="butt" stroke-linejoin="round" fill="none" stroke="#000000" stroke-opacity=".78" d="M64.23 102.93 55.973 91.586V112.5L64.23 123.844ZM64.23 102.93"/>
<path d="M55.973 91.586 33.281 95.715V116.629L55.973 112.5ZM55.973 91.586" fill="#cccccc"/>
<path stroke-width=".482987" stroke-linecap="butt" stroke-linejoin="round" fill="none" stroke="#000000" stroke-opacity=".78" d="M55.973 91.586 33.281 95.715V116.629L55.973 112.5ZM55.973 91.586"/>
<path d="M55.973 91.586 47.715 80.238 25.02 84.367 33.281 95.715ZM55.973 91.586" fill="#cccccc"/>
<path stroke-width=".482987" stroke-linecap="butt" stroke-linejoin="round" fill="none" stroke="#000000" stroke-opacity=".78" d="M55.973 91.586 47.715 80.238 25.02 84.367 33.281 95.715ZM55.973 91.586"/>
<path d="M33.281 95.715 25.02 84.367V105.281L33.281 116.629ZM33.281 95.715" fill="#cccccc"/>
<path stroke-width=".482987" stroke-linecap="butt" stroke-linejoin="round" fill="none" stroke="#000000" stroke-opacity=".78" d="M33.281 95.715 25.02 84.367V105.281L33.281 116.629ZM33.281 95.715"/>
<path d="M64.23 102.93 41.539 107.063V127.977L64.23 123.844ZM64.23 102.93" fill="#cccccc"/>
<path stroke-width=".482987" stroke-linecap="butt" stroke-linejoin="round" fill="none" stroke="#000000" stroke-opacity=".78" d="M64.23 102.93 41.539 107.063V127.977L64.23 123.844ZM64.23 102.93"/>
<path d="M64.23 102.93 55.973 91.586 33.281 95.715 41.539 107.063ZM64.23 102.93" fill="#cccccc"/>
<path stroke-width=".482987" stroke-linecap="butt" stroke-linejoin="round" fill="none" stroke="#000000" stroke-opacity=".78" d="M64.23 102.93 55.973 91.586 33.281 95.715 41.539 107.063ZM64.23 102.93"/>
<path d="M41.539 107.063 33.281 95.715V116.629L41.539 127.977ZM41.539 107.063" fill="#cccccc"/>
<path stroke-width=".482987" stroke-linecap="butt" stroke-linejoin="round" fill="none" stroke="#000000" stroke-opacity=".78" d="M41.539 107.063 33.281 95.715V116.629L41.539 127.977ZM41.539 107.063"/>
<path d="M121.965 20.113 99.273 24.242V45.156L121.965 41.027ZM121.965 20.113" fill="#cccccc"/>
<path stroke-width=".482987" stroke-linecap="butt" stroke-linejoin="round" fill="none" stroke="#000000" stroke-opacity=".78" d="M121.965 20.113 99.273 24.242V45.156L121.965 41.027ZM121.965 20.113"/>
<path d="M121.965 20.113 113.707 8.766 91.012 12.895 99.273 24.242ZM121.965 20.113" fill="#cccccc"/>
<path stroke-width=".482987" stroke-linecap="butt" stroke-linejoin="round" fill="none" stroke="#000000" stroke-opacity=".78" d="M121.965 20.113 113.707 8.766 91.012 12.895 99.273 24.242ZM121.965 20.113"/>
<path d="M99.273 24.242 91.012 12.895V33.809L99.273 45.156ZM99.273 24.242" fill="#cccccc"/>
<path stroke-width=".482987" stroke-linecap="butt" stroke-linejoin="round" fill="none" stroke="#000000" stroke-opacity=".78" d="M99.273 24.242 91.012 12.895V33.809L99.273 45.156ZM99.273 24.242"/>
<path d="M99.273 24.242 76.578 28.371V49.285L99.273 45.156ZM99.273 24.242" fill="#cccccc"/>
<path stroke-width=".482987" stroke-linecap="butt" stroke-linejoin="round" fill="none" stroke="#000000" stroke-opacity=".78" d="M99.273 24.242 76.578 28.371V49.285L99.273 45.156ZM99.273 24.242"/>
<path d="M99.273 24.242 91.012 12.895 68.32 17.027 76.578 28.371ZM99.273 24.242" fill="#cccccc"/>
<path stroke-width=".482987" stroke-linecap="butt" stroke-linejoin="round" fill="none" stroke="#000000" stroke-opacity=".78" d="M99.273 24.242 91.012 12.895 68.32 17.027 76.578 28.371ZM99.273 24.242"/>
<path d="M76.578 28.371 68.32 17.027V37.941L76.578 49.285ZM76.578 28.371" fill="#cccccc"/>
<path stroke-width=".482987" stroke-linecap="butt" stroke-linejoin="round" fill="none" stroke="#000000" stroke-opacity=".78" d="M76.578 28.371 68.32 17.027V37.941L76.578 49.285ZM76.578 28.371"/>
<path d="M76.578 28.371 53.887 32.5V53.414L76.578 49.285ZM76.578 28.371" fill="#cccccc"/>
<path stroke-width=".482987" stroke-linecap="butt" stroke-linejoin="round" fill="none" stroke="#000000" stroke-opacity=".78" d="M76.578 28.371 53.887 32.5V53.414L76.578 49.285ZM76.578 28.371"/>
<path d="M76.578 28.371 68.32 17.027 45.629 21.156 53.887 32.5ZM76.578 28.371" fill="#cccccc"/>
<path stroke-width=".482987" stroke-linecap="butt" stroke-linejoin="round" fill="none" stroke="#000000" stroke-opacity=".78" d="M76.578 28.371 68.32 17.027 45.629 21.156 53.887 32.5ZM76.578 28.371"/>
<path d="M53.887 32.5 45.629 21.156V42.07L53.887 53.414ZM53.887 32.5" fill="#cccccc"/>
<path stroke-width=".482987" stroke-linecap="butt" stroke-linejoin="round" fill="none" stroke="#000000" stroke-opacity=".78" d="M53.887 32.5 45.629 21.156V42.07L53.887 53.414ZM53.887 32.5"/>
<path d="M53.887 32.5 31.195 36.633V57.547L53.887 53.414ZM53.887 32.5" fill="#cccccc"/>
<path stroke-width=".482987" stroke-linecap="butt" stroke-linejoin="round" fill="none" stroke="#000000" stroke-opacity=".78" d="M53.887 32.5 31.195 36.633V57.547L53.887 53.414ZM53.887 32.5"/>
<path d="M53.887 32.5 45.629 21.156 22.934 25.285 31.195 36.633ZM53.887 32.5" fill="#cccccc"/>
<path stroke-width=".482987" stroke-linecap="butt" stroke-linejoin="round" fill="none" stroke="#000000" stroke-opacity=".78" d="M53.887 32.5 45.629 21.156 22.934 25.285 31.195 36.633ZM53.887 32.5"/>
<path d="M31.195 36.633 22.934 25.285V46.199L31.195 57.547ZM31.195 36.633" fill="#cccccc"/>
<path stroke-width=".482987" stroke-linecap="butt" stroke-linejoin="round" fill="none" stroke="#000000" stroke-opacity=".78" d="M31.195 36.633 22.934 25.285V46.199L31.195 57.547ZM31.195 36.633"/>
<path d="M31.195 36.633 8.5 40.762V61.676L31.195 57.547ZM31.195 36.633" fill="#cccccc"/>
<path stroke-width=".482987" stroke-linecap="butt" stroke-linejoin="round" fill="none" stroke="#000000" stroke-opacity=".78" d="M31.195 36.633 8.5 40.762V61.676L31.195 57.547ZM31.195 36.633"/>
<path d="M31.195 36.633 22.934 25.285 .242 29.414 8.5 40.762ZM31.195 36.633" fill="#cccccc"/>
<path stroke-width=".482987" stroke-linecap="butt" stroke-linejoin="round" fill="none" stroke="#000000" stroke-opacity=".78" d="M31.195 36.633 22.934 25.285 .242 29.414 8.5 40.762ZM31.195 36.633"/>
<path d="M8.5 40.762 .242 29.414V50.328L8.5 61.676ZM8.5 40.762" fill="#cccccc"/>
<path stroke-width=".482987" stroke-linecap="butt" stroke-linejoin="round" fill="none" stroke="#000000" stroke-opacity=".78" d="M8.5 40.762 .242 29.414V50.328L8.5 61.676ZM8.5 40.762"/>
<path d="M130.227 31.461 107.531 35.59V56.504L130.227 52.371ZM130.227 31.461" fill="#cccccc"/>
<path stroke-width=".482987" stroke-linecap="butt" stroke-linejoin="round" fill="none" stroke="#000000" stroke-opacity=".78" d="M130.227 31.461 107.531 35.59V56.504L130.227 52.371ZM130.227 31.461"/>
<path d="M130.227 31.461 121.965 20.113 99.273 24.242 107.531 35.59ZM130.227 31.461" fill="#cccccc"/>
<path stroke-width=".482987" stroke-linecap="butt" stroke-linejoin="round" fill="none" stroke="#000000" stroke-opacity=".78" d="M130.227 31.461 121.965 20.113 99.273 24.242 107.531 35.59ZM130.227 31.461"/>
<path d="M107.531 35.59 99.273 24.242V45.156L107.531 56.504ZM107.531 35.59" fill="#cccccc"/>
<path stroke-width=".482987" stroke-linecap="butt" stroke-linejoin="round" fill="none" stroke="#000000" stroke-opacity=".78" d="M107.531 35.59 99.273 24.242V45.156L107.531 56.504ZM107.531 35.59"/>
<path d="M107.531 35.59 84.84 39.719V60.633L107.531 56.504ZM107.531 35.59" fill="#cccccc"/>
<path stroke-width=".482987" stroke-linecap="butt" stroke-linejoin="round" fill="none" stroke="#000000" stroke-opacity=".78" d="M107.531 35.59 84.84 39.719V60.633L107.531 56.504ZM107.531 35.59"/>
<path d="M107.531 35.59 99.273 24.242 76.578 28.371 84.84 39.719ZM107.531 35.59" fill="#cccccc"/>
<path stroke-width=".482987" stroke-linecap="butt" stroke-linejoin="round" fill="none" stroke="#000000" stroke-opacity=".78" d="M107.531 35.59 99.273 24.242 76.578 28.371 84.84 39.719ZM107.531 35.59"/>
<path d="M84.84 39.719 76.578 28.371V49.285L84.84 60.633ZM84.84 39.719" fill="#cccccc"/>
<path stroke-width=".482987" stroke-linecap="butt" stroke-linejoin="round" fill="none" stroke="#000000" stroke-opacity=".78" d="M84.84 39.719 76.578 28.371V49.285L84.84 60.633ZM84.84 39.719"/>
<path d="M84.84 39.719 62.148 43.848V64.762L84.84 60.633ZM84.84 39.719" fill="#cccccc"/>
<path stroke-width=".482987" stroke-linecap="butt" stroke-linejoin="round" fill="none" stroke="#000000" stroke-opacity=".78" d="M84.84 39.719 62.148 43.848V64.762L84.84 60.633ZM84.84 39.719"/>
<path d="M84.84 39.719 76.578 28.371 53.887 32.5 62.148 43.848ZM84.84 39.719" fill="#cccccc"/>
<path stroke-width=".482987" stroke-linecap="butt" stroke-linejoin="round" fill="none" stroke="#000000" stroke-opacity=".78" d="M84.84 39.719 76.578 28.371 53.887 32.5 62.148 43.848ZM84.84 39.719"/>
<path d="M62.148 43.848 53.887 32.5V53.414L62.148 64.762ZM62.148 43.848" fill="#cccccc"/>
<path stroke-width=".482987" stroke-linecap="butt" stroke-linejoin="round" fill="none" stroke="#000000" stroke-opacity=".78" d="M62.148 43.848 53.887 32.5V53.414L62.148 64.762ZM62.148 43.848"/>
<path d="M62.148 43.848 39.453 47.977V68.891L62.148 64.762ZM62.148 43.848" fill="#cccccc"/>
<path stroke-width=".482987" stroke-linecap="butt" stroke-linejoin="round" fill="none" stroke="#000000" stroke-opacity=".78" d="M62.148 43.848 39.453 47.977V68.891L62.148 64.762ZM62.148 43.848"/>
<path d="M62.148 43.848 53.887 32.5 31.195 36.633 39.453 47.977ZM62.148 43.848" fill="#cccccc"/>
<path stroke-width=".482987" stroke-linecap="butt" stroke-linejoin="round" fill="none" stroke="#000000" stroke-opacity=".78" d="M62.148 43.848 53.887 32.5 31.195 36.633 39.453 47.977ZM62.148 43.848"/>
<path d="M39.453 47.977 31.195 36.633V57.547L39.453 68.891ZM39.453 47.977" fill="#cccccc"/>
<path stroke-width=".482987" stroke-linecap="butt" stroke-linejoin="round" fill="none" stroke="#000000" stroke-opacity=".78" d="M39.453 47.977 31.195 36.633V57.547L39.453 68.891ZM39.453 47.977"/>
<path d="M39.453 47.977 16.762 52.109V73.023L39.453 68.891ZM39.453 47.977" fill="#cccccc"/>
<path stroke-width=".482987" stroke-linecap="butt" stroke-linejoin="round" fill="none" stroke="#000000" stroke-opacity=".78" d="M39.453 47.977 16.762 52.109V73.023L39.453 68.891ZM39.453 47.977"/>
<path d="M39.453 47.977 31.195 36.633 8.5 40.762 16.762 52.109ZM39.453 47.977" fill="#cccccc"/>
<path stroke-width=".482987" stroke-linecap="butt" stroke-linejoin="round" fill="none" stroke="#000000" stroke-opacity=".78" d="M39.453 47.977 31.195 36.633 8.5 40.762 16.762 52.109ZM39.453 47.977"/>
<path d="M16.762 52.109 8.5 40.762V61.676L16.762 73.023ZM16.762 52.109" fill="#cccccc"/>
<path stroke-width=".482987" stroke-linecap="butt" stroke-linejoin="round" fill="none" stroke="#000000" stroke-opacity=".78" d="M16.762 52.109 8.5 40.762V61.676L16.762 73.023ZM16.762 52.109"/>
<path d="M138.484 42.805 115.793 46.934V67.848L138.484 63.719ZM138.484 42.805" fill="#cccccc"/>
<path stroke-width=".482987" stroke-linecap="butt" stroke-linejoin="round" fill="none" stroke="#000000" stroke-opacity=".78" d="M138.484 42.805 115.793 46.934V67.848L138.484 63.719ZM138.484 42.805"/>
<path d="M138.484 42.805 130.227 31.461 107.531 35.59 115.793 46.934ZM138.484 42.805" fill="#cccccc"/>
<path stroke-width=".482987" stroke-linecap="butt" stroke-linejoin="round" fill="none" stroke="#000000" stroke-opacity=".78" d="M138.484 42.805 130.227 31.461 107.531 35.59 115.793 46.934ZM138.484 42.805"/>
<path d="M115.793 46.934 107.531 35.59V56.504L115.793 67.848ZM115.793 46.934" fill="#cccccc"/>
<path stroke-width=".482987" stroke-linecap="butt" stroke-linejoin="round" fill="none" stroke="#000000" stroke-opacity=".78" d="M115.793 46.934 107.531 35.59V56.504L115.793 67.848ZM115.793 46.934"/>
<path d="M115.793 46.934 93.098 51.066V71.98L115.793 67.848ZM115.793 46.934" fill="#cccccc"/>
<path stroke-width=".482987" stroke-linecap="butt" stroke-linejoin="round" fill="none" stroke="#000000" stroke-opacity=".78" d="M115.793 46.934 93.098 51.066V71.98L115.793 67.848ZM115.793 46.934"/>
<path d="M115.793 46.934 107.531 35.59 84.84 39.719 93.098 51.066ZM115.793 46.934" fill="#cccccc"/>
<path stroke-width=".482987" stroke-linecap="butt" stroke-linejoin="round" fill="none" stroke="#000000" stroke-opacity=".78" d="M115.793 46.934 107.531 35.59 84.84 39.719 93.098 51.066ZM115.793 46.934"/>
<path d="M93.098 51.066 84.84 39.719V60.633L93.098 71.98ZM93.098 51.066" fill="#cccccc"/>
<path stroke-width=".482987" stroke-linecap="butt" stroke-linejoin="round" fill="none" stroke="#000000" stroke-opacity=".78" d="M93.098 51.066 84.84 39.719V60.633L93.098 71.98ZM93.098 51.066"/>
<path d="M93.098 51.066 70.406 55.195V76.109L93.098 71.98ZM93.098 51.066" fill="#cccccc"/>
<path stroke-width=".482987" stroke-linecap="butt" stroke-linejoin="round" fill="none" stroke="#000000" stroke-opacity=".78" d="M93.098 51.066 70.406 55.195V76.109L93.098 71.98ZM93.098 51.066"/>
<path d="M93.098 51.066 84.84 39.719 62.148 43.848 70.406 55.195ZM93.098 51.066" fill="#cccccc"/>
<path stroke-width=".482987" stroke-linecap="butt" stroke-linejoin="round" fill="none" stroke="#000000" stroke-opacity=".78" d="M93.098 51.066 84.84 39.719 62.148 43.848 70.406 55.195ZM93.098 51.066"/>
<path d="M70.406 55.195 62.148 43.848V64.762L70.406 76.109ZM70.406 55.195" fill="#cccccc"/>
<path stroke-width=".482987" stroke-linecap="butt" stroke-linejoin="round" fill="none" stroke="#000000" stroke-opacity=".78" d="M70.406 55.195 62.148 43.848V64.762L70.406 76.109ZM70.406 55.195"/>
<path d="M70.406 55.195 47.715 59.324V80.238L70.406 76.109ZM70.406 55.195" fill="#cccccc"/>
<path stroke-width=".482987" stroke-linecap="butt" stroke-linejoin="round" fill="none" stroke="#000000" stroke-opacity=".78" d="M70.406 55.195 47.715 59.324V80.238L70.406 76.109ZM70.406 55.195"/>
<path d="M70.406 55.195 62.148 43.848 39.453 47.977 47.715 59.324ZM70.406 55.195" fill="#cccccc"/>
<path stroke-width=".482987" stroke-linecap="butt" stroke-linejoin="round" fill="none" stroke="#000000" stroke-opacity=".78" d="M70.406 55.195 62.148 43.848 39.453 47.977 47.715 59.324ZM70.406 55.195"/>
<path d="M47.715 59.324 39.453 47.977V68.891L47.715 80.238ZM47.715 59.324" fill="#cccccc"/>
<path stroke-width=".482987" stroke-linecap="butt" stroke-linejoin="round" fill="none" stroke="#000000" stroke-opacity=".78" d="M47.715 59.324 39.453 47.977V68.891L47.715 80.238ZM47.715 59.324"/>
<path d="M47.715 59.324 25.02 63.453V84.367L47.715 80.238ZM47.715 59.324" fill="#cccccc"/>
<path stroke-width=".482987" stroke-linecap="butt" stroke-linejoin="round" fill="none" stroke="#000000" stroke-opacity=".78" d="M47.715 59.324 25.02 63.453V84.367L47.715 80.238ZM47.715 59.324"/>
<path d="M47.715 59.324 39.453 47.977 16.762 52.109 25.02 63.453ZM47.715 59.324" fill="#cccccc"/>
<path stroke-width=".482987" stroke-linecap="butt" stroke-linejoin="round" fill="none" stroke="#000000" stroke-opacity=".78" d="M47.715 59.324 39.453 47.977 16.762 52.109 25.02 63.453ZM47.715 59.324"/>
<path d="M25.02 63.453 16.762 52.109V73.023L25.02 84.367ZM25.02 63.453" fill="#cccccc"/>
<path stroke-width=".482987" stroke-linecap="butt" stroke-linejoin="round" fill="none" stroke="#000000" stroke-opacity=".78" d="M25.02 63.453 16.762 52.109V73.023L25.02 84.367ZM25.02 63.453"/>
<path d="M146.746 54.152 124.051 58.281V79.195L146.746 75.066ZM146.746 54.152" fill="#cccccc"/>
<path stroke-width=".482987" stroke-linecap="butt" stroke-linejoin="round" fill="none" stroke="#000000" stroke-opacity=".78" d="M146.746 54.152 124.051 58.281V79.195L146.746 75.066ZM146.746 54.152"/>
<path d="M146.746 54.152 138.484 42.805 115.793 46.934 124.051 58.281ZM146.746 54.152" fill="#cccccc"/>
<path stroke-width=".482987" stroke-linecap="butt" stroke-linejoin="round" fill="none" stroke="#000000" stroke-opacity=".78" d="M146.746 54.152 138.484 42.805 115.793 46.934 124.051 58.281ZM146.746 54.152"/>
<path d="M124.051 58.281 115.793 46.934V67.848L124.051 79.195ZM124.051 58.281" fill="#cccccc"/>
<path stroke-width=".482987" stroke-linecap="butt" stroke-linejoin="round" fill="none" stroke="#000000" stroke-opacity=".78" d="M124.051 58.281 115.793 46.934V67.848L124.051 79.195ZM124.051 58.281"/>
<path d="M124.051 58.281 101.359 62.41V83.324L124.051 79.195ZM124.051 58.281" fill="#cccccc"/>
<path stroke-width=".482987" stroke-linecap="butt" stroke-linejoin="round" fill="none" stroke="#000000" stroke-opacity=".78" d="M124.051 58.281 101.359 62.41V83.324L124.051 79.195ZM124.051 58.281"/>
<path d="M124.051 58.281 115.793 46.934 93.098 51.066 101.359 62.41ZM124.051 58.281" fill="#cccccc"/>
<path stroke-width=".482987" stroke-linecap="butt" stroke-linejoin="round" fill="none" stroke="#000000" stroke-opacity=".78" d="M124.051 58.281 115.793 46.934 93.098 51.066 101.359 62.41ZM124.051 58.281"/>
<path d="M101.359 62.41 93.098 51.066V71.98L101.359 83.324ZM101.359 62.41" fill="#cccccc"/>
<path stroke-width=".482987" stroke-linecap="butt" stroke-linejoin="round" fill="none" stroke="#000000" stroke-opacity=".78" d="M101.359 62.41 93.098 51.066V71.98L101.359 83.324ZM101.359 62.41"/>
<path d="M101.359 62.41 78.664 66.543V87.457L101.359 83.324ZM101.359 62.41" fill="#cccccc"/>
<path stroke-width=".482987" stroke-linecap="butt" stroke-linejoin="round" fill="none" stroke="#000000" stroke-opacity=".78" d="M101.359 62.41 78.664 66.543V87.457L101.359 83.324ZM101.359 62.41"/>
<path d="M101.359 62.41 93.098 51.066 70.406 55.195 78.664 66.543ZM101.359 62.41" fill="#cccccc"/>
<path stroke-width=".482987" stroke-linecap="butt" stroke-linejoin="round" fill="none" stroke="#000000" stroke-opacity=".78" d="M101.359 62.41 93.098 51.066 70.406 55.195 78.664 66.543ZM101.359 62.41"/>
<path d="M78.664 66.543 70.406 55.195V76.109L78.664 87.457ZM78.664 66.543" fill="#cccccc"/>
<path stroke-width=".482987" stroke-linecap="butt" stroke-linejoin="round" fill="none" stroke="#000000" stroke-opacity=".78" d="M78.664 66.543 70.406 55.195V76.109L78.664 87.457ZM78.664 66.543"/>
<path d="M78.664 66.543 55.973 70.672V91.586L78.664 87.457ZM78.664 66.543" fill="#cccccc"/>
<path stroke-width=".482987" stroke-linecap="butt" stroke-linejoin="round" fill="none" stroke="#000000" stroke-opacity=".78" d="M78.664 66.543 55.973 70.672V91.586L78.664 87.457ZM78.664 66.543"/>
<path d="M78.664 66.543 70.406 55.195 47.715 59.324 55.973 70.672ZM78.664 66.543" fill="#cccccc"/>
<path stroke-width=".482987" stroke-linecap="butt" stroke-linejoin="round" fill="none" stroke="#000000" stroke-opacity=".78" d="M78.664 66.543 70.406 55.195 47.715 59.324 55.973 70.672ZM78.664 66.543"/>
<path d="M55.973 70.672 47.715 59.324V80.238L55.973 91.586ZM55.973 70.672" fill="#cccccc"/>
<path stroke-width=".482987" stroke-linecap="butt" stroke-linejoin="round" fill="none" stroke="#000000" stroke-opacity=".78" d="M55.973 70.672 47.715 59.324V80.238L55.973 91.586ZM55.973 70.672"/>
<path d="M155.004 65.5 132.313 69.629V90.543L155.004 86.414ZM155.004 65.5" fill="#cccccc"/>
<path stroke-width=".482987" stroke-linecap="butt" stroke-linejoin="round" fill="none" stroke="#000000" stroke-opacity=".78" d="M155.004 65.5 132.313 69.629V90.543L155.004 86.414ZM155.004 65.5"/>
<path d="M155.004 65.5 146.746 54.152 124.051 58.281 132.313 69.629ZM155.004 65.5" fill="#cccccc"/>
<path stroke-width=".482987" stroke-linecap="butt" stroke-linejoin="round" fill="none" stroke="#000000" stroke-opacity=".78" d="M155.004 65.5 146.746 54.152 124.051 58.281 132.313 69.629ZM155.004 65.5"/>
<path d="M132.313 69.629 124.051 58.281V79.195L132.313 90.543ZM132.313 69.629" fill="#cccccc"/>
<path stroke-width=".482987" stroke-linecap="butt" stroke-linejoin="round" fill="none" stroke="#000000" stroke-opacity=".78" d="M132.313 69.629 124.051 58.281V79.195L132.313 90.543ZM132.313 69.629"/>
<path d="M132.313 69.629 109.617 73.758V94.672L132.313 90.543ZM132.313 69.629" fill="#cccccc"/>
<path stroke-width=".482987" stroke-linecap="butt" stroke-linejoin="round" fill="none" stroke="#000000" stroke-opacity=".78" d="M132.313 69.629 109.617 73.758V94.672L132.313 90.543ZM132.313 69.629"/>
<path d="M132.313 69.629 124.051 58.281 101.359 62.41 109.617 73.758ZM132.313 69.629" fill="#cccccc"/>
<path stroke-width=".482987" stroke-linecap="butt" stroke-linejoin="round" fill="none" stroke="#000000" stroke-opacity=".78" d="M132.313 69.629 124.051 58.281 101.359 62.41 109.617 73.758ZM132.313 69.629"/>
<path d="M109.617 73.758 101.359 62.41V83.324L109.617 94.672ZM109.617 73.758" fill="#cccccc"/>
<path stroke-width=".482987" stroke-linecap="butt" stroke-linejoin="round" fill="none" stroke="#000000" stroke-opacity=".78" d="M109.617 73.758 101.359 62.41V83.324L109.617 94.672ZM109.617 73.758"/>
<path d="M109.617 73.758 86.926 77.887V98.801L109.617 94.672ZM109.617 73.758" fill="#cccccc"/>
<path stroke-width=".482987" stroke-linecap="butt" stroke-linejoin="round" fill="none" stroke="#000000" stroke-opacity=".78" d="M109.617 73.758 86.926 77.887V98.801L109.617 94.672ZM109.617 73.758"/>
<path d="M109.617 73.758 101.359 62.41 78.664 66.543 86.926 77.887ZM109.617 73.758" fill="#cccccc"/>
<path stroke-width=".482987" stroke-linecap="butt" stroke-linejoin="round" fill="none" stroke="#000000" stroke-opacity=".78" d="M109.617 73.758 101.359 62.41 78.664 66.543 86.926 77.887ZM109.617 73.758"/>
<path d="M86.926 77.887 78.664 66.543V87.457L86.926 98.801ZM86.926 77.887" fill="#cccccc"/>
<path stroke-width=".482987" stroke-linecap="butt" stroke-linejoin="round" fill="none" stroke="#000000" stroke-opacity=".78" d="M86.926 77.887 78.664 66.543V87.457L86.926 98.801ZM86.926 77.887"/>
<path d="M86.926 77.887 64.23 82.016V102.93L86.926 98.801ZM86.926 77.887" fill="#cccccc"/>
<path stroke-width=".482987" stroke-linecap="butt" stroke-linejoin="round" fill="none" stroke="#000000" stroke-opacity=".78" d="M86.926 77.887 64.23 82.016V102.93L86.926 98.801ZM86.926 77.887"/>
<path d="M86.926 77.887 78.664 66.543 55.973 70.672 64.23 82.016ZM86.926 77.887" fill="#cccccc"/>
<path stroke-width=".482987" stroke-linecap="butt" stroke-linejoin="round" fill="none" stroke="#000000" stroke-opacity=".78" d="M86.926 77.887 78.664 66.543 55.973 70.672 64.23 82.016ZM86.926 77.887"/>
<path d="M64.23 82.016 55.973 70.672V91.586L64.23 102.93ZM64.23 82.016" fill="#cccccc"/>
<path stroke-width=".482987" stroke-linecap="butt" stroke-linejoin="round" fill="none" stroke="#000000" stroke-opacity=".78" d="M64.23 82.016 55.973 70.672V91.586L64.23 102.93ZM64.23 82.016"/>
<path d="M55.973 70.672 33.281 74.801V95.715L55.973 91.586ZM55.973 70.672" fill="#cccccc"/>
<path stroke-width=".482987" stroke-linecap="butt" stroke-linejoin="round" fill="none" stroke="#000000" stroke-opacity=".78" d="M55.973 70.672 33.281 74.801V95.715L55.973 91.586ZM55.973 70.672"/>
<path d="M55.973 70.672 47.715 59.324 25.02 63.453 33.281 74.801ZM55.973 70.672" fill="#cccccc"/>
<path stroke-width=".482987" stroke-linecap="butt" stroke-linejoin="round" fill="none" stroke="#000000" stroke-opacity=".78" d="M55.973 70.672 47.715 59.324 25.02 63.453 33.281 74.801ZM55.973 70.672"/>
<path d="M33.281 74.801 25.02 63.453V84.367L33.281 95.715ZM33.281 74.801" fill="#cccccc"/>
<path stroke-width=".482987" stroke-linecap="butt" stroke-linejoin="round" fill="none" stroke="#000000" stroke-opacity=".78" d="M33.281 74.801 25.02 63.453V84.367L33.281 95.715ZM33.281 74.801"/>
<path d="M64.23 82.016 41.539 86.148V107.063L64.23 102.93ZM64.23 82.016" fill="#cccccc"/>
<path stroke-width=".482987" stroke-linecap="butt" stroke-linejoin="round" fill="none" stroke="#000000" stroke-opacity=".78" d="M64.23 82.016 41.539 86.148V107.063L64.23 102.93ZM64.23 82.016"/>
<path d="M64.23 82.016 55.973 70.672 33.281 74.801 41.539 86.148ZM64.23 82.016" fill="#cccccc"/>
<path stroke-width=".482987" stroke-linecap="butt" stroke-linejoin="round" fill="none" stroke="#000000" stroke-opacity=".78" d="M64.23 82.016 55.973 70.672 33.281 74.801 41.539 86.148ZM64.23 82.016"/>
<path d="M41.539 86.148 33.281 74.801V95.715L41.539 107.063ZM41.539 86.148" fill="#cccccc"/>
<path stroke-width=".482987" stroke-linecap="butt" stroke-linejoin="round" fill="none" stroke="#000000" stroke-opacity=".78" d="M41.539 86.148 33.281 74.801V95.715L41.539 107.063ZM41.539 86.148"/>
<path d="M53.887 11.59 31.195 15.719V36.633L53.887 32.5ZM53.887 11.59" fill="#cccccc"/>
<path stroke-width=".482987" stroke-linecap="butt" stroke-linejoin="round" fill="none" stroke="#000000" stroke-opacity=".78" d="M53.887 11.59 31.195 15.719V36.633L53.887 32.5ZM53.887 11.59"/>
<path d="M53.887 11.59 45.629 .242 22.934 4.371 31.195 15.719ZM53.887 11.59" fill="#cccccc"/>
<path stroke-width=".482987" stroke-linecap="butt" stroke-linejoin="round" fill="none" stroke="#000000" stroke-opacity=".78" d="M53.887 11.59 45.629 .242 22.934 4.371 31.195 15.719ZM53.887 11.59"/>
<path d="M31.195 15.719 22.934 4.371V25.285L31.195 36.633ZM31.195 15.719" fill="#cccccc"/>
<path stroke-width=".482987" stroke-linecap="butt" stroke-linejoin="round" fill="none" stroke="#000000" stroke-opacity=".78" d="M31.195 15.719 22.934 4.371V25.285L31.195 36.633ZM31.195 15.719"/>
<path d="M31.195 15.719 8.5 19.848V40.762L31.195 36.633ZM31.195 15.719" fill="#cccccc"/>
<path stroke-width=".482987" stroke-linecap="butt" stroke-linejoin="round" fill="none" stroke="#000000" stroke-opacity=".78" d="M31.195 15.719 8.5 19.848V40.762L31.195 36.633ZM31.195 15.719"/>
<path d="M31.195 15.719 22.934 4.371 .242 8.5 8.5 19.848ZM31.195 15.719" fill="#cccccc"/>
<path stroke-width=".482987" stroke-linecap="butt" stroke-linejoin="round" fill="none" stroke="#000000" stroke-opacity=".78" d="M31.195 15.719 22.934 4.371 .242 8.5 8.5 19.848ZM31.195 15.719"/>
<path d="M8.5 19.848 .242 8.5V29.414L8.5 40.762ZM8.5 19.848" fill="#cccccc"/>
<path stroke-width=".482987" stroke-linecap="butt" stroke-linejoin="round" fill="none" stroke="#000000" stroke-opacity=".78" d="M8.5 19.848 .242 8.5V29.414L8.5 40.762ZM8.5 19.848"/>
<path d="M62.148 22.934 39.453 27.063V47.977L62.148 43.848ZM62.148 22.934" fill="#cccccc"/>
<path stroke-width=".482987" stroke-linecap="butt" stroke-linejoin="round" fill="none" stroke="#000000" stroke-opacity=".78" d="M62.148 22.934 39.453 27.063V47.977L62.148 43.848ZM62.148 22.934"/>
<path d="M62.148 22.934 53.887 11.59 31.195 15.719 39.453 27.063ZM62.148 22.934" fill="#cccccc"/>
<path stroke-width=".482987" stroke-linecap="butt" stroke-linejoin="round" fill="none" stroke="#000000" stroke-opacity=".78" d="M62.148 22.934 53.887 11.59 31.195 15.719 39.453 27.063ZM62.148 22.934"/>
<path d="M39.453 27.063 31.195 15.719V36.633L39.453 47.977ZM39.453 27.063" fill="#cccccc"/>
<path stroke-width=".482987" stroke-linecap="butt" stroke-linejoin="round" fill="none" stroke="#000000" stroke-opacity=".78" d="M39.453 27.063 31.195 15.719V36.633L39.453 47.977ZM39.453 27.063"/>
<path d="M39.453 27.063 16.762 31.195V52.109L39.453 47.977ZM39.453 27.063" fill="#cccccc"/>
<path stroke-width=".482987" stroke-linecap="butt" stroke-linejoin="round" fill="none" stroke="#000000" stroke-opacity=".78" d="M39.453 27.063 16.762 31.195V52.109L39.453 47.977ZM39.453 27.063"/>
<path d="M39.453 27.063 31.195 15.719 8.5 19.848 16.762 31.195ZM39.453 27.063" fill="#cccccc"/>
<path stroke-width=".482987" stroke-linecap="butt" stroke-linejoin="round" fill="none" stroke="#000000" stroke-opacity=".78" d="M39.453 27.063 31.195 15.719 8.5 19.848 16.762 31.195ZM39.453 27.063"/>
<path d="M16.762 31.195 8.5 19.848V40.762L16.762 52.109ZM16.762 31.195" fill="#cccccc"/>
<path stroke-width=".482987" stroke-linecap="butt" stroke-linejoin="round" fill="none" stroke="#000000" stroke-opacity=".78" d="M16.762 31.195 8.5 19.848V40.762L16.762 52.109ZM16.762 31.195"/>
<path d="M70.406 34.281 47.715 38.41V59.324L70.406 55.195ZM70.406 34.281" fill="#cccccc"/>
<path stroke-width=".482987" stroke-linecap="butt" stroke-linejoin="round" fill="none" stroke="#000000" stroke-opacity=".78" d="M70.406 34.281 47.715 38.41V59.324L70.406 55.195ZM70.406 34.281"/>
<path d="M70.406 34.281 62.148 22.934 39.453 27.063 47.715 38.41ZM70.406 34.281" fill="#cccccc"/>
<path stroke-width=".482987" stroke-linecap="butt" stroke-linejoin="round" fill="none" stroke="#000000" stroke-opacity=".78" d="M70.406 34.281 62.148 22.934 39.453 27.063 47.715 38.41ZM70.406 34.281"/>
<path d="M47.715 38.41 39.453 27.063V47.977L47.715 59.324ZM47.715 38.41" fill="#cccccc"/>
<path stroke-width=".482987" stroke-linecap="butt" stroke-linejoin="round" fill="none" stroke="#000000" stroke-opacity=".78" d="M47.715 38.41 39.453 27.063V47.977L47.715 59.324ZM47.715 38.41"/>
<path d="M47.715 38.41 25.02 42.539V63.453L47.715 59.324ZM47.715 38.41" fill="#cccccc"/>
<path stroke-width=".482987" stroke-linecap="butt" stroke-linejoin="round" fill="none" stroke="#000000" stroke-opacity=".78" d="M47.715 38.41 25.02 42.539V63.453L47.715 59.324ZM47.715 38.41"/>
<path d="M47.715 38.41 39.453 27.063 16.762 31.195 25.02 42.539ZM47.715 38.41" fill="#cccccc"/>
<path stroke-width=".482987" stroke-linecap="butt" stroke-linejoin="round" fill="none" stroke="#000000" stroke-opacity=".78" d="M47.715 38.41 39.453 27.063 16.762 31.195 25.02 42.539ZM47.715 38.41"/>
<path d="M25.02 42.539 16.762 31.195V52.109L25.02 63.453ZM25.02 42.539" fill="#cccccc"/>
<path stroke-width=".482987" stroke-linecap="butt" stroke-linejoin="round" fill="none" stroke="#000000" stroke-opacity=".78" d="M25.02 42.539 16.762 31.195V52.109L25.02 63.453ZM25.02 42.539"/>
<path d="M55.973 49.758 33.281 53.887V74.801L55.973 70.672ZM55.973 49.758" fill="#cccccc"/>
<path stroke-width=".482987" stroke-linecap="butt" stroke-linejoin="round" fill="none" stroke="#000000" stroke-opacity=".78" d="M55.973 49.758 33.281 53.887V74.801L55.973 70.672ZM55.973 49.758"/>
<path d="M55.973 49.758 47.715 38.41 25.02 42.539 33.281 53.887ZM55.973 49.758" fill="#cccccc"/>
<path stroke-width=".482987" stroke-linecap="butt" stroke-linejoin="round" fill="none" stroke="#000000" stroke-opacity=".78" d="M55.973 49.758 47.715 38.41 25.02 42.539 33.281 53.887ZM55.973 49.758"/>
<path d="M33.281 53.887 25.02 42.539V63.453L33.281 74.801ZM33.281 53.887" fill="#cccccc"/>
<path stroke-width=".482987" stroke-linecap="butt" stroke-linejoin="round" fill="none" stroke="#000000" stroke-opacity=".78" d="M33.281 53.887 25.02 42.539V63.453L33.281 74.801ZM33.281 53.887"/>
<path d="M64.23 61.105 41.539 65.234V86.148L64.23 82.02ZM64.23 61.105" fill="#cccccc"/>
<path stroke-width=".482987" stroke-linecap="butt" stroke-linejoin="round" fill="none" stroke="#000000" stroke-opacity=".78" d="M64.23 61.105 41.539 65.234V86.148L64.23 82.02ZM64.23 61.105"/>
<path d="M64.23 61.105 55.973 49.758 33.281 53.887 41.539 65.234ZM64.23 61.105" fill="#cccccc"/>
<path stroke-width=".482987" stroke-linecap="butt" stroke-linejoin="round" fill="none" stroke="#000000" stroke-opacity=".78" d="M64.23 61.105 55.973 49.758 33.281 53.887 41.539 65.234ZM64.23 61.105"/>
<path d="M41.539 65.234 33.281 53.887V74.801L41.539 86.148ZM41.539 65.234" fill="#cccccc"/>
<path stroke-width=".482987" stroke-linecap="butt" stroke-linejoin="round" fill="none" stroke="#000000" stroke-opacity=".78" d="M41.539 65.234 33.281 53.887V74.801L41.539 86.148ZM41.539 65.234"/>
</g>
</svg>
