<?xml version="1.0" encoding="UTF-8" standalone="no"?>
<svg
   version="1.1"
   width="748.55288"
   height="308.14384"
   viewBox="0 0 748.55288 308.14384"
   id="svg164"
   sodipodi:docname="free-space.svg"
   inkscape:export-filename="free-space.svg"
   inkscape:export-xdpi="96"
   inkscape:export-ydpi="96"
   inkscape:version="1.4 (86a8ad7, 2024-10-11)"
   xmlns:inkscape="http://www.inkscape.org/namespaces/inkscape"
   xmlns:sodipodi="http://sodipodi.sourceforge.net/DTD/sodipodi-0.dtd"
   xmlns="http://www.w3.org/2000/svg"
   xmlns:svg="http://www.w3.org/2000/svg">
  <defs
     id="defs164" />
  <sodipodi:namedview
     id="namedview164"
     pagecolor="#ffffff"
     bordercolor="#000000"
     borderopacity="0.25"
     inkscape:showpageshadow="2"
     inkscape:pageopacity="0.0"
     inkscape:pagecheckerboard="0"
     inkscape:deskcolor="#d1d1d1"
     inkscape:zoom="0.84922393"
     inkscape:cx="758.92822"
     inkscape:cy="-24.139687"
     inkscape:window-width="1920"
     inkscape:window-height="1009"
     inkscape:window-x="1912"
     inkscape:window-y="-8"
     inkscape:window-maximized="1"
     inkscape:current-layer="g164" />
  <g
     id="g164">
    <path
       d="M747.926 137.711 689.063 148.426V202.672L747.926 191.961ZM747.926 137.711"
       fill="#1de600"
       id="path1" />
    <path
       stroke-width="1.252795"
       stroke-linecap="butt"
       stroke-linejoin="round"
       fill="none"
       stroke="#000000"
       stroke-opacity=".78"
       d="M747.926 137.711 689.063 148.426V202.672L747.926 191.961ZM747.926 137.711"
       id="path2" />
    <path
       d="M747.926 137.711 726.504 108.281 667.641 118.992 689.063 148.426ZM747.926 137.711"
       fill="#1de600"
       id="path3" />
    <path
       stroke-width="1.252795"
       stroke-linecap="butt"
       stroke-linejoin="round"
       fill="none"
       stroke="#000000"
       stroke-opacity=".78"
       d="M747.926 137.711 726.504 108.281 667.641 118.992 689.063 148.426ZM747.926 137.711"
       id="path4" />
    <path
       d="M689.063 148.426 667.641 118.992V173.242L689.063 202.672ZM689.063 148.426"
       fill="#1de600"
       id="path5" />
    <path
       stroke-width="1.252795"
       stroke-linecap="butt"
       stroke-linejoin="round"
       fill="none"
       stroke="#000000"
       stroke-opacity=".78"
       d="M689.063 148.426 667.641 118.992V173.242L689.063 202.672ZM689.063 148.426"
       id="path6" />
    <path
       d="M257.5 202.672 198.637 213.383V267.633L257.5 256.918ZM257.5 202.672"
       fill="#e4e4e4"
       id="path7" />
    <path
       stroke-width="1.252795"
       stroke-linecap="butt"
       stroke-linejoin="round"
       fill="none"
       stroke="#000000"
       stroke-opacity=".78"
       d="M257.5 202.672 198.637 213.383V267.633L257.5 256.918ZM257.5 202.672"
       id="path8" />
    <path
       d="M257.5 202.672 236.074 173.242 177.211 183.953 198.637 213.383ZM257.5 202.672"
       fill="#e4e4e4"
       id="path9" />
    <path
       stroke-width="1.252795"
       stroke-linecap="butt"
       stroke-linejoin="round"
       fill="none"
       stroke="#000000"
       stroke-opacity=".78"
       d="M257.5 202.672 236.074 173.242 177.211 183.953 198.637 213.383ZM257.5 202.672"
       id="path10" />
    <path
       d="M198.637 213.383 177.211 183.953V238.199L198.637 267.633ZM198.637 213.383"
       fill="#e4e4e4"
       id="path11" />
    <path
       stroke-width="1.252795"
       stroke-linecap="butt"
       stroke-linejoin="round"
       fill="none"
       stroke="#000000"
       stroke-opacity=".78"
       d="M198.637 213.383 177.211 183.953V238.199L198.637 267.633ZM198.637 213.383"
       id="path12" />
    <path
       d="M198.637 213.383 139.773 224.094V278.344L198.637 267.633ZM198.637 213.383"
       fill="#e4e4e4"
       id="path13" />
    <path
       stroke-width="1.252795"
       stroke-linecap="butt"
       stroke-linejoin="round"
       fill="none"
       stroke="#000000"
       stroke-opacity=".78"
       d="M198.637 213.383 139.773 224.094V278.344L198.637 267.633ZM198.637 213.383"
       id="path14" />
    <path
       d="M198.637 213.383 177.211 183.953 118.352 194.664 139.773 224.094ZM198.637 213.383"
       fill="#e4e4e4"
       id="path15" />
    <path
       stroke-width="1.252795"
       stroke-linecap="butt"
       stroke-linejoin="round"
       fill="none"
       stroke="#000000"
       stroke-opacity=".78"
       d="M198.637 213.383 177.211 183.953 118.352 194.664 139.773 224.094ZM198.637 213.383"
       id="path16" />
    <path
       d="M139.773 224.094 118.352 194.664V248.914L139.773 278.344ZM139.773 224.094"
       fill="#e4e4e4"
       id="path17" />
    <path
       stroke-width="1.252795"
       stroke-linecap="butt"
       stroke-linejoin="round"
       fill="none"
       stroke="#000000"
       stroke-opacity=".78"
       d="M139.773 224.094 118.352 194.664V248.914L139.773 278.344ZM139.773 224.094"
       id="path18" />
    <path
       d="M139.773 224.094 80.914 234.809V289.055L139.773 278.344ZM139.773 224.094"
       fill="#e4e4e4"
       id="path19" />
    <path
       stroke-width="1.252795"
       stroke-linecap="butt"
       stroke-linejoin="round"
       fill="none"
       stroke="#000000"
       stroke-opacity=".78"
       d="M139.773 224.094 80.914 234.809V289.055L139.773 278.344ZM139.773 224.094"
       id="path20" />
    <path
       d="M139.773 224.094 118.352 194.664 59.488 205.375 80.914 234.809ZM139.773 224.094"
       fill="#e4e4e4"
       id="path21" />
    <path
       stroke-width="1.252795"
       stroke-linecap="butt"
       stroke-linejoin="round"
       fill="none"
       stroke="#000000"
       stroke-opacity=".78"
       d="M139.773 224.094 118.352 194.664 59.488 205.375 80.914 234.809ZM139.773 224.094"
       id="path22" />
    <path
       d="M80.914 234.809 59.488 205.375V259.625L80.914 289.055ZM80.914 234.809"
       fill="#e4e4e4"
       id="path23" />
    <path
       stroke-width="1.252795"
       stroke-linecap="butt"
       stroke-linejoin="round"
       fill="none"
       stroke="#000000"
       stroke-opacity=".78"
       d="M80.914 234.809 59.488 205.375V259.625L80.914 289.055ZM80.914 234.809"
       id="path24" />
    <path
       d="M80.914 234.809 22.051 245.52V299.766L80.914 289.055ZM80.914 234.809"
       fill="#e4e4e4"
       id="path25" />
    <path
       stroke-width="1.252795"
       stroke-linecap="butt"
       stroke-linejoin="round"
       fill="none"
       stroke="#000000"
       stroke-opacity=".78"
       d="M80.914 234.809 22.051 245.52V299.766L80.914 289.055ZM80.914 234.809"
       id="path26" />
    <path
       d="M80.914 234.809 59.488 205.375 .625 216.09 22.051 245.52ZM80.914 234.809"
       fill="#e4e4e4"
       id="path27" />
    <path
       stroke-width="1.252795"
       stroke-linecap="butt"
       stroke-linejoin="round"
       fill="none"
       stroke="#000000"
       stroke-opacity=".78"
       d="M80.914 234.809 59.488 205.375 .625 216.09 22.051 245.52ZM80.914 234.809"
       id="path28" />
    <path
       d="M22.051 245.52 .625 216.09V270.336L22.051 299.766ZM22.051 245.52"
       fill="#e4e4e4"
       id="path29" />
    <path
       stroke-width="1.252795"
       stroke-linecap="butt"
       stroke-linejoin="round"
       fill="none"
       stroke="#000000"
       stroke-opacity=".78"
       d="M22.051 245.52 .625 216.09V270.336L22.051 299.766ZM22.051 245.52"
       id="path30" />
    <path
       stroke-width="3.44126"
       stroke-linecap="butt"
       stroke-miterlimit="4"
       stroke-linejoin="miter"
       fill="none"
       stroke="#000000"
       d="M282.504 147.797H389.461"
       id="path31"
       style="fill:#ffffff;stroke:#ffffff" />
    <path
       d="M397.523 147.797 385.438 154.785V140.813ZM397.523 147.797"
       fill-rule="evenodd"
       id="path32" />
    <path
       stroke-width="1.863119"
       stroke-linecap="butt"
       stroke-miterlimit="4"
       stroke-linejoin="miter"
       fill="none"
       stroke="#000000"
       d="M397.523 147.797 385.438 154.785V140.813ZM397.523 147.797"
       id="path33"
       style="fill:#ffffff;stroke:#ffffff" />
    <path
       d="M257.5 148.422 198.637 159.137V213.383L257.5 202.672ZM257.5 148.422"
       fill="#e4e4e4"
       id="path34" />
    <path
       stroke-width="1.252795"
       stroke-linecap="butt"
       stroke-linejoin="round"
       fill="none"
       stroke="#000000"
       stroke-opacity=".78"
       d="M257.5 148.422 198.637 159.137V213.383L257.5 202.672ZM257.5 148.422"
       id="path35" />
    <path
       d="M257.5 148.422 236.074 118.992 177.211 129.703 198.637 159.137ZM257.5 148.422"
       fill="#e4e4e4"
       id="path36" />
    <path
       stroke-width="1.252795"
       stroke-linecap="butt"
       stroke-linejoin="round"
       fill="none"
       stroke="#000000"
       stroke-opacity=".78"
       d="M257.5 148.422 236.074 118.992 177.211 129.703 198.637 159.137ZM257.5 148.422"
       id="path37" />
    <path
       d="M198.637 159.137 177.211 129.703V183.953L198.637 213.383ZM198.637 159.137"
       fill="#e4e4e4"
       id="path38" />
    <path
       stroke-width="1.252795"
       stroke-linecap="butt"
       stroke-linejoin="round"
       fill="none"
       stroke="#000000"
       stroke-opacity=".78"
       d="M198.637 159.137 177.211 129.703V183.953L198.637 213.383ZM198.637 159.137"
       id="path39" />
    <path
       d="M257.5 94.176 198.637 104.887V159.137L257.5 148.422ZM257.5 94.176"
       fill="#e4e4e4"
       id="path40" />
    <path
       stroke-width="1.252795"
       stroke-linecap="butt"
       stroke-linejoin="round"
       fill="none"
       stroke="#000000"
       stroke-opacity=".78"
       d="M257.5 94.176 198.637 104.887V159.137L257.5 148.422ZM257.5 94.176"
       id="path41" />
    <path
       d="M257.5 94.176 236.074 64.746 177.211 75.457 198.637 104.887ZM257.5 94.176"
       fill="#e4e4e4"
       id="path42" />
    <path
       stroke-width="1.252795"
       stroke-linecap="butt"
       stroke-linejoin="round"
       fill="none"
       stroke="#000000"
       stroke-opacity=".78"
       d="M257.5 94.176 236.074 64.746 177.211 75.457 198.637 104.887ZM257.5 94.176"
       id="path43" />
    <path
       d="M198.637 104.887 177.211 75.457V129.703L198.637 159.137ZM198.637 104.887"
       fill="#e4e4e4"
       id="path44" />
    <path
       stroke-width="1.252795"
       stroke-linecap="butt"
       stroke-linejoin="round"
       fill="none"
       stroke="#000000"
       stroke-opacity=".78"
       d="M198.637 104.887 177.211 75.457V129.703L198.637 159.137ZM198.637 104.887"
       id="path45" />
    <path
       d="M257.5 39.93 198.637 50.641V104.887L257.5 94.176ZM257.5 39.93"
       fill="#e4e4e4"
       id="path46" />
    <path
       stroke-width="1.252795"
       stroke-linecap="butt"
       stroke-linejoin="round"
       fill="none"
       stroke="#000000"
       stroke-opacity=".78"
       d="M257.5 39.93 198.637 50.641V104.887L257.5 94.176ZM257.5 39.93"
       id="path47" />
    <path
       d="M257.5 39.93 236.074 10.496 177.211 21.211 198.637 50.641ZM257.5 39.93"
       fill="#e4e4e4"
       id="path48" />
    <path
       stroke-width="1.252795"
       stroke-linecap="butt"
       stroke-linejoin="round"
       fill="none"
       stroke="#000000"
       stroke-opacity=".78"
       d="M257.5 39.93 236.074 10.496 177.211 21.211 198.637 50.641ZM257.5 39.93"
       id="path49" />
    <path
       d="M198.637 50.641 177.211 21.211V75.457L198.637 104.887ZM198.637 50.641"
       fill="#e4e4e4"
       id="path50" />
    <path
       stroke-width="1.252795"
       stroke-linecap="butt"
       stroke-linejoin="round"
       fill="none"
       stroke="#000000"
       stroke-opacity=".78"
       d="M198.637 50.641 177.211 21.211V75.457L198.637 104.887ZM198.637 50.641"
       id="path51" />
    <path
       d="M198.637 50.641 139.773 61.352V115.602L198.637 104.887ZM198.637 50.641"
       fill="#e4e4e4"
       id="path52" />
    <path
       stroke-width="1.252795"
       stroke-linecap="butt"
       stroke-linejoin="round"
       fill="none"
       stroke="#000000"
       stroke-opacity=".78"
       d="M198.637 50.641 139.773 61.352V115.602L198.637 104.887ZM198.637 50.641"
       id="path53" />
    <path
       d="M198.637 50.641 177.211 21.211 118.352 31.922 139.773 61.352ZM198.637 50.641"
       fill="#e4e4e4"
       id="path54" />
    <path
       stroke-width="1.252795"
       stroke-linecap="butt"
       stroke-linejoin="round"
       fill="none"
       stroke="#000000"
       stroke-opacity=".78"
       d="M198.637 50.641 177.211 21.211 118.352 31.922 139.773 61.352ZM198.637 50.641"
       id="path55" />
    <path
       d="M139.773 61.352 118.352 31.922V86.168L139.773 115.602ZM139.773 61.352"
       fill="#e4e4e4"
       id="path56" />
    <path
       stroke-width="1.252795"
       stroke-linecap="butt"
       stroke-linejoin="round"
       fill="none"
       stroke="#000000"
       stroke-opacity=".78"
       d="M139.773 61.352 118.352 31.922V86.168L139.773 115.602ZM139.773 61.352"
       id="path57" />
    <path
       d="M139.773 61.352 80.914 72.066V126.313L139.773 115.602ZM139.773 61.352"
       fill="#e4e4e4"
       id="path58" />
    <path
       stroke-width="1.252795"
       stroke-linecap="butt"
       stroke-linejoin="round"
       fill="none"
       stroke="#000000"
       stroke-opacity=".78"
       d="M139.773 61.352 80.914 72.066V126.313L139.773 115.602ZM139.773 61.352"
       id="path59" />
    <path
       d="M139.773 61.352 118.352 31.922 59.488 42.633 80.914 72.066ZM139.773 61.352"
       fill="#e4e4e4"
       id="path60" />
    <path
       stroke-width="1.252795"
       stroke-linecap="butt"
       stroke-linejoin="round"
       fill="none"
       stroke="#000000"
       stroke-opacity=".78"
       d="M139.773 61.352 118.352 31.922 59.488 42.633 80.914 72.066ZM139.773 61.352"
       id="path61" />
    <path
       d="M80.914 72.066 59.488 42.633V96.883L80.914 126.313ZM80.914 72.066"
       fill="#e4e4e4"
       id="path62" />
    <path
       stroke-width="1.252795"
       stroke-linecap="butt"
       stroke-linejoin="round"
       fill="none"
       stroke="#000000"
       stroke-opacity=".78"
       d="M80.914 72.066 59.488 42.633V96.883L80.914 126.313ZM80.914 72.066"
       id="path63" />
    <path
       d="M80.914 180.559 22.051 191.273V245.52L80.914 234.809ZM80.914 180.559"
       fill="#e4e4e4"
       id="path64" />
    <path
       stroke-width="1.252795"
       stroke-linecap="butt"
       stroke-linejoin="round"
       fill="none"
       stroke="#000000"
       stroke-opacity=".78"
       d="M80.914 180.559 22.051 191.273V245.52L80.914 234.809ZM80.914 180.559"
       id="path65" />
    <path
       d="M80.914 180.559 59.488 151.129 .625 161.84 22.051 191.273ZM80.914 180.559"
       fill="#e4e4e4"
       id="path66" />
    <path
       stroke-width="1.252795"
       stroke-linecap="butt"
       stroke-linejoin="round"
       fill="none"
       stroke="#000000"
       stroke-opacity=".78"
       d="M80.914 180.559 59.488 151.129 .625 161.84 22.051 191.273ZM80.914 180.559"
       id="path67" />
    <path
       d="M22.051 191.273 .625 161.84V216.09L22.051 245.52ZM22.051 191.273"
       fill="#e4e4e4"
       id="path68" />
    <path
       stroke-width="1.252795"
       stroke-linecap="butt"
       stroke-linejoin="round"
       fill="none"
       stroke="#000000"
       stroke-opacity=".78"
       d="M22.051 191.273 .625 161.84V216.09L22.051 245.52ZM22.051 191.273"
       id="path69" />
    <path
       d="M80.914 126.313 22.051 137.023V191.273L80.914 180.559ZM80.914 126.313"
       fill="#e4e4e4"
       id="path70" />
    <path
       stroke-width="1.252795"
       stroke-linecap="butt"
       stroke-linejoin="round"
       fill="none"
       stroke="#000000"
       stroke-opacity=".78"
       d="M80.914 126.313 22.051 137.023V191.273L80.914 180.559ZM80.914 126.313"
       id="path71" />
    <path
       d="M80.914 126.313 59.488 96.883 .625 107.594 22.051 137.023ZM80.914 126.313"
       fill="#e4e4e4"
       id="path72" />
    <path
       stroke-width="1.252795"
       stroke-linecap="butt"
       stroke-linejoin="round"
       fill="none"
       stroke="#000000"
       stroke-opacity=".78"
       d="M80.914 126.313 59.488 96.883 .625 107.594 22.051 137.023ZM80.914 126.313"
       id="path73" />
    <path
       d="M22.051 137.023 .625 107.594V161.84L22.051 191.273ZM22.051 137.023"
       fill="#e4e4e4"
       id="path74" />
    <path
       stroke-width="1.252795"
       stroke-linecap="butt"
       stroke-linejoin="round"
       fill="none"
       stroke="#000000"
       stroke-opacity=".78"
       d="M22.051 137.023 .625 107.594V161.84L22.051 191.273ZM22.051 137.023"
       id="path75" />
    <path
       d="M80.914 72.066 22.051 82.777V137.023L80.914 126.313ZM80.914 72.066"
       fill="#e4e4e4"
       id="path76" />
    <path
       stroke-width="1.252795"
       stroke-linecap="butt"
       stroke-linejoin="round"
       fill="none"
       stroke="#000000"
       stroke-opacity=".78"
       d="M80.914 72.066 22.051 82.777V137.023L80.914 126.313ZM80.914 72.066"
       id="path77" />
    <path
       d="M80.914 72.066 59.488 42.633 .625 53.344 22.051 82.777ZM80.914 72.066"
       fill="#e4e4e4"
       id="path78" />
    <path
       stroke-width="1.252795"
       stroke-linecap="butt"
       stroke-linejoin="round"
       fill="none"
       stroke="#000000"
       stroke-opacity=".78"
       d="M80.914 72.066 59.488 42.633 .625 53.344 22.051 82.777ZM80.914 72.066"
       id="path79" />
    <path
       d="M22.051 82.777 .625 53.344V107.594L22.051 137.023ZM22.051 82.777"
       fill="#e4e4e4"
       id="path80" />
    <path
       stroke-width="1.252795"
       stroke-linecap="butt"
       stroke-linejoin="round"
       fill="none"
       stroke="#000000"
       stroke-opacity=".78"
       d="M22.051 82.777 .625 53.344V107.594L22.051 137.023ZM22.051 82.777"
       id="path81" />
    <path
       d="M198.637 159.137 139.773 169.848V224.094L198.637 213.383ZM198.637 159.137"
       fill="#1de600"
       id="path82" />
    <path
       stroke-width="1.252795"
       stroke-linecap="butt"
       stroke-linejoin="round"
       fill="none"
       stroke="#000000"
       stroke-opacity=".78"
       d="M198.637 159.137 139.773 169.848V224.094L198.637 213.383ZM198.637 159.137"
       id="path83" />
    <path
       d="M198.637 159.137 177.211 129.703 118.352 140.418 139.773 169.848ZM198.637 159.137"
       fill="#1de600"
       id="path84" />
    <path
       stroke-width="1.252795"
       stroke-linecap="butt"
       stroke-linejoin="round"
       fill="none"
       stroke="#000000"
       stroke-opacity=".78"
       d="M198.637 159.137 177.211 129.703 118.352 140.418 139.773 169.848ZM198.637 159.137"
       id="path85" />
    <path
       d="M139.773 169.848 118.352 140.418V194.664L139.773 224.094ZM139.773 169.848"
       fill="#1de600"
       id="path86" />
    <path
       stroke-width="1.252795"
       stroke-linecap="butt"
       stroke-linejoin="round"
       fill="none"
       stroke="#000000"
       stroke-opacity=".78"
       d="M139.773 169.848 118.352 140.418V194.664L139.773 224.094ZM139.773 169.848"
       id="path87" />
    <path
       d="M689.063 202.672 630.203 213.383V267.633L689.063 256.918ZM689.063 202.672"
       fill="#e4e4e4"
       id="path88" />
    <path
       stroke-width="1.252795"
       stroke-linecap="butt"
       stroke-linejoin="round"
       fill="none"
       stroke="#000000"
       stroke-opacity=".78"
       d="M689.063 202.672 630.203 213.383V267.633L689.063 256.918ZM689.063 202.672"
       id="path89" />
    <path
       d="M689.063 202.672 667.641 173.242 608.777 183.953 630.203 213.383ZM689.063 202.672"
       fill="#e4e4e4"
       id="path90" />
    <path
       stroke-width="1.252795"
       stroke-linecap="butt"
       stroke-linejoin="round"
       fill="none"
       stroke="#000000"
       stroke-opacity=".78"
       d="M689.063 202.672 667.641 173.242 608.777 183.953 630.203 213.383ZM689.063 202.672"
       id="path91" />
    <path
       d="M630.203 213.383 608.777 183.953V238.199L630.203 267.633ZM630.203 213.383"
       fill="#e4e4e4"
       id="path92" />
    <path
       stroke-width="1.252795"
       stroke-linecap="butt"
       stroke-linejoin="round"
       fill="none"
       stroke="#000000"
       stroke-opacity=".78"
       d="M630.203 213.383 608.777 183.953V238.199L630.203 267.633ZM630.203 213.383"
       id="path93" />
    <path
       d="M630.203 213.383 571.34 224.098V278.344L630.203 267.633ZM630.203 213.383"
       fill="#e4e4e4"
       id="path94" />
    <path
       stroke-width="1.252795"
       stroke-linecap="butt"
       stroke-linejoin="round"
       fill="none"
       stroke="#000000"
       stroke-opacity=".78"
       d="M630.203 213.383 571.34 224.098V278.344L630.203 267.633ZM630.203 213.383"
       id="path95" />
    <path
       d="M630.203 213.383 608.777 183.953 549.918 194.664 571.34 224.098ZM630.203 213.383"
       fill="#e4e4e4"
       id="path96" />
    <path
       stroke-width="1.252795"
       stroke-linecap="butt"
       stroke-linejoin="round"
       fill="none"
       stroke="#000000"
       stroke-opacity=".78"
       d="M630.203 213.383 608.777 183.953 549.918 194.664 571.34 224.098ZM630.203 213.383"
       id="path97" />
    <path
       d="M571.34 224.098 549.918 194.664V248.914L571.34 278.344ZM571.34 224.098"
       fill="#e4e4e4"
       id="path98" />
    <path
       stroke-width="1.252795"
       stroke-linecap="butt"
       stroke-linejoin="round"
       fill="none"
       stroke="#000000"
       stroke-opacity=".78"
       d="M571.34 224.098 549.918 194.664V248.914L571.34 278.344ZM571.34 224.098"
       id="path99" />
    <path
       d="M571.34 224.098 512.477 234.809V289.055L571.34 278.344ZM571.34 224.098"
       fill="#e4e4e4"
       id="path100" />
    <path
       stroke-width="1.252795"
       stroke-linecap="butt"
       stroke-linejoin="round"
       fill="none"
       stroke="#000000"
       stroke-opacity=".78"
       d="M571.34 224.098 512.477 234.809V289.055L571.34 278.344ZM571.34 224.098"
       id="path101" />
    <path
       d="M571.34 224.098 549.918 194.664 491.055 205.379 512.477 234.809ZM571.34 224.098"
       fill="#e4e4e4"
       id="path102" />
    <path
       stroke-width="1.252795"
       stroke-linecap="butt"
       stroke-linejoin="round"
       fill="none"
       stroke="#000000"
       stroke-opacity=".78"
       d="M571.34 224.098 549.918 194.664 491.055 205.379 512.477 234.809ZM571.34 224.098"
       id="path103" />
    <path
       d="M512.477 234.809 491.055 205.379V259.625L512.477 289.055ZM512.477 234.809"
       fill="#e4e4e4"
       id="path104" />
    <path
       stroke-width="1.252795"
       stroke-linecap="butt"
       stroke-linejoin="round"
       fill="none"
       stroke="#000000"
       stroke-opacity=".78"
       d="M512.477 234.809 491.055 205.379V259.625L512.477 289.055ZM512.477 234.809"
       id="path105" />
    <path
       d="M512.477 234.809 453.617 245.52V299.77L512.477 289.055ZM512.477 234.809"
       fill="#e4e4e4"
       id="path106" />
    <path
       stroke-width="1.252795"
       stroke-linecap="butt"
       stroke-linejoin="round"
       fill="none"
       stroke="#000000"
       stroke-opacity=".78"
       d="M512.477 234.809 453.617 245.52V299.77L512.477 289.055ZM512.477 234.809"
       id="path107" />
    <path
       d="M512.477 234.809 491.055 205.379 432.191 216.09 453.617 245.52ZM512.477 234.809"
       fill="#e4e4e4"
       id="path108" />
    <path
       stroke-width="1.252795"
       stroke-linecap="butt"
       stroke-linejoin="round"
       fill="none"
       stroke="#000000"
       stroke-opacity=".78"
       d="M512.477 234.809 491.055 205.379 432.191 216.09 453.617 245.52ZM512.477 234.809"
       id="path109" />
    <path
       d="M453.617 245.52 432.191 216.09V270.336L453.617 299.77ZM453.617 245.52"
       fill="#e4e4e4"
       id="path110" />
    <path
       stroke-width="1.252795"
       stroke-linecap="butt"
       stroke-linejoin="round"
       fill="none"
       stroke="#000000"
       stroke-opacity=".78"
       d="M453.617 245.52 432.191 216.09V270.336L453.617 299.77ZM453.617 245.52"
       id="path111" />
    <path
       d="M689.063 148.426 630.203 159.137V213.383L689.063 202.672ZM689.063 148.426"
       fill="#e4e4e4"
       id="path112" />
    <path
       stroke-width="1.252795"
       stroke-linecap="butt"
       stroke-linejoin="round"
       fill="none"
       stroke="#000000"
       stroke-opacity=".78"
       d="M689.063 148.426 630.203 159.137V213.383L689.063 202.672ZM689.063 148.426"
       id="path113" />
    <path
       d="M689.063 148.426 667.641 118.992 608.777 129.707 630.203 159.137ZM689.063 148.426"
       fill="#e4e4e4"
       id="path114" />
    <path
       stroke-width="1.252795"
       stroke-linecap="butt"
       stroke-linejoin="round"
       fill="none"
       stroke="#000000"
       stroke-opacity=".78"
       d="M689.063 148.426 667.641 118.992 608.777 129.707 630.203 159.137ZM689.063 148.426"
       id="path115" />
    <path
       d="M630.203 159.137 608.777 129.707V183.953L630.203 213.383ZM630.203 159.137"
       fill="#e4e4e4"
       id="path116" />
    <path
       stroke-width="1.252795"
       stroke-linecap="butt"
       stroke-linejoin="round"
       fill="none"
       stroke="#000000"
       stroke-opacity=".78"
       d="M630.203 159.137 608.777 129.707V183.953L630.203 213.383ZM630.203 159.137"
       id="path117" />
    <path
       d="M689.063 94.176 630.203 104.891V159.137L689.063 148.426ZM689.063 94.176"
       fill="#e4e4e4"
       id="path118" />
    <path
       stroke-width="1.252795"
       stroke-linecap="butt"
       stroke-linejoin="round"
       fill="none"
       stroke="#000000"
       stroke-opacity=".78"
       d="M689.063 94.176 630.203 104.891V159.137L689.063 148.426ZM689.063 94.176"
       id="path119" />
    <path
       d="M689.063 94.176 667.641 64.746 608.777 75.457 630.203 104.891ZM689.063 94.176"
       fill="#e4e4e4"
       id="path120" />
    <path
       stroke-width="1.252795"
       stroke-linecap="butt"
       stroke-linejoin="round"
       fill="none"
       stroke="#000000"
       stroke-opacity=".78"
       d="M689.063 94.176 667.641 64.746 608.777 75.457 630.203 104.891ZM689.063 94.176"
       id="path121" />
    <path
       d="M630.203 104.891 608.777 75.457V129.707L630.203 159.137ZM630.203 104.891"
       fill="#e4e4e4"
       id="path122" />
    <path
       stroke-width="1.252795"
       stroke-linecap="butt"
       stroke-linejoin="round"
       fill="none"
       stroke="#000000"
       stroke-opacity=".78"
       d="M630.203 104.891 608.777 75.457V129.707L630.203 159.137ZM630.203 104.891"
       id="path123" />
    <path
       d="M689.063 39.93 630.203 50.641V104.891L689.063 94.176ZM689.063 39.93"
       fill="#e4e4e4"
       id="path124" />
    <path
       stroke-width="1.252795"
       stroke-linecap="butt"
       stroke-linejoin="round"
       fill="none"
       stroke="#000000"
       stroke-opacity=".78"
       d="M689.063 39.93 630.203 50.641V104.891L689.063 94.176ZM689.063 39.93"
       id="path125" />
    <path
       d="M689.063 39.93 667.641 10.5 608.777 21.211 630.203 50.641ZM689.063 39.93"
       fill="#e4e4e4"
       id="path126" />
    <path
       stroke-width="1.252795"
       stroke-linecap="butt"
       stroke-linejoin="round"
       fill="none"
       stroke="#000000"
       stroke-opacity=".78"
       d="M689.063 39.93 667.641 10.5 608.777 21.211 630.203 50.641ZM689.063 39.93"
       id="path127" />
    <path
       d="M630.203 50.641 608.777 21.211V75.457L630.203 104.891ZM630.203 50.641"
       fill="#e4e4e4"
       id="path128" />
    <path
       stroke-width="1.252795"
       stroke-linecap="butt"
       stroke-linejoin="round"
       fill="none"
       stroke="#000000"
       stroke-opacity=".78"
       d="M630.203 50.641 608.777 21.211V75.457L630.203 104.891ZM630.203 50.641"
       id="path129" />
    <path
       d="M630.203 50.641 571.34 61.352V115.602L630.203 104.891ZM630.203 50.641"
       fill="#e4e4e4"
       id="path130" />
    <path
       stroke-width="1.252795"
       stroke-linecap="butt"
       stroke-linejoin="round"
       fill="none"
       stroke="#000000"
       stroke-opacity=".78"
       d="M630.203 50.641 571.34 61.352V115.602L630.203 104.891ZM630.203 50.641"
       id="path131" />
    <path
       d="M630.203 50.641 608.777 21.211 549.918 31.922 571.34 61.352ZM630.203 50.641"
       fill="#e4e4e4"
       id="path132" />
    <path
       stroke-width="1.252795"
       stroke-linecap="butt"
       stroke-linejoin="round"
       fill="none"
       stroke="#000000"
       stroke-opacity=".78"
       d="M630.203 50.641 608.777 21.211 549.918 31.922 571.34 61.352ZM630.203 50.641"
       id="path133" />
    <path
       d="M571.34 61.352 549.918 31.922V86.168L571.34 115.602ZM571.34 61.352"
       fill="#e4e4e4"
       id="path134" />
    <path
       stroke-width="1.252795"
       stroke-linecap="butt"
       stroke-linejoin="round"
       fill="none"
       stroke="#000000"
       stroke-opacity=".78"
       d="M571.34 61.352 549.918 31.922V86.168L571.34 115.602ZM571.34 61.352"
       id="path135" />
    <path
       d="M571.34 61.352 512.477 72.066V126.313L571.34 115.602ZM571.34 61.352"
       fill="#e4e4e4"
       id="path136" />
    <path
       stroke-width="1.252795"
       stroke-linecap="butt"
       stroke-linejoin="round"
       fill="none"
       stroke="#000000"
       stroke-opacity=".78"
       d="M571.34 61.352 512.477 72.066V126.313L571.34 115.602ZM571.34 61.352"
       id="path137" />
    <path
       d="M571.34 61.352 549.918 31.922 491.055 42.633 512.477 72.066ZM571.34 61.352"
       fill="#e4e4e4"
       id="path138" />
    <path
       stroke-width="1.252795"
       stroke-linecap="butt"
       stroke-linejoin="round"
       fill="none"
       stroke="#000000"
       stroke-opacity=".78"
       d="M571.34 61.352 549.918 31.922 491.055 42.633 512.477 72.066ZM571.34 61.352"
       id="path139" />
    <path
       d="M512.477 72.066 491.055 42.633V96.883L512.477 126.313ZM512.477 72.066"
       fill="#e4e4e4"
       id="path140" />
    <path
       stroke-width="1.252795"
       stroke-linecap="butt"
       stroke-linejoin="round"
       fill="none"
       stroke="#000000"
       stroke-opacity=".78"
       d="M512.477 72.066 491.055 42.633V96.883L512.477 126.313ZM512.477 72.066"
       id="path141" />
    <path
       d="M512.477 180.563 453.617 191.273V245.52L512.477 234.809ZM512.477 180.563"
       fill="#e4e4e4"
       id="path142" />
    <path
       stroke-width="1.252795"
       stroke-linecap="butt"
       stroke-linejoin="round"
       fill="none"
       stroke="#000000"
       stroke-opacity=".78"
       d="M512.477 180.563 453.617 191.273V245.52L512.477 234.809ZM512.477 180.563"
       id="path143" />
    <path
       d="M512.477 180.563 491.055 151.129 432.191 161.84 453.617 191.273ZM512.477 180.563"
       fill="#e4e4e4"
       id="path144" />
    <path
       stroke-width="1.252795"
       stroke-linecap="butt"
       stroke-linejoin="round"
       fill="none"
       stroke="#000000"
       stroke-opacity=".78"
       d="M512.477 180.563 491.055 151.129 432.191 161.84 453.617 191.273ZM512.477 180.563"
       id="path145" />
    <path
       d="M453.617 191.273 432.191 161.84V216.09L453.617 245.52ZM453.617 191.273"
       fill="#e4e4e4"
       id="path146" />
    <path
       stroke-width="1.252795"
       stroke-linecap="butt"
       stroke-linejoin="round"
       fill="none"
       stroke="#000000"
       stroke-opacity=".78"
       d="M453.617 191.273 432.191 161.84V216.09L453.617 245.52ZM453.617 191.273"
       id="path147" />
    <path
       d="M512.477 126.313 453.617 137.023V191.273L512.477 180.563ZM512.477 126.313"
       fill="#e4e4e4"
       id="path148" />
    <path
       stroke-width="1.252795"
       stroke-linecap="butt"
       stroke-linejoin="round"
       fill="none"
       stroke="#000000"
       stroke-opacity=".78"
       d="M512.477 126.313 453.617 137.023V191.273L512.477 180.563ZM512.477 126.313"
       id="path149" />
    <path
       d="M512.477 126.313 491.055 96.883 432.191 107.594 453.617 137.023ZM512.477 126.313"
       fill="#e4e4e4"
       id="path150" />
    <path
       stroke-width="1.252795"
       stroke-linecap="butt"
       stroke-linejoin="round"
       fill="none"
       stroke="#000000"
       stroke-opacity=".78"
       d="M512.477 126.313 491.055 96.883 432.191 107.594 453.617 137.023ZM512.477 126.313"
       id="path151" />
    <path
       d="M453.617 137.023 432.191 107.594V161.84L453.617 191.273ZM453.617 137.023"
       fill="#e4e4e4"
       id="path152" />
    <path
       stroke-width="1.252795"
       stroke-linecap="butt"
       stroke-linejoin="round"
       fill="none"
       stroke="#000000"
       stroke-opacity=".78"
       d="M453.617 137.023 432.191 107.594V161.84L453.617 191.273ZM453.617 137.023"
       id="path153" />
    <path
       d="M512.477 72.066 453.617 82.777V137.023L512.477 126.313ZM512.477 72.066"
       fill="#e4e4e4"
       id="path154" />
    <path
       stroke-width="1.252795"
       stroke-linecap="butt"
       stroke-linejoin="round"
       fill="none"
       stroke="#000000"
       stroke-opacity=".78"
       d="M512.477 72.066 453.617 82.777V137.023L512.477 126.313ZM512.477 72.066"
       id="path155" />
    <path
       d="M512.477 72.066 491.055 42.633 432.191 53.348 453.617 82.777ZM512.477 72.066"
       fill="#e4e4e4"
       id="path156" />
    <path
       stroke-width="1.252795"
       stroke-linecap="butt"
       stroke-linejoin="round"
       fill="none"
       stroke="#000000"
       stroke-opacity=".78"
       d="M512.477 72.066 491.055 42.633 432.191 53.348 453.617 82.777ZM512.477 72.066"
       id="path157" />
    <path
       d="M453.617 82.777 432.191 53.348V107.594L453.617 137.023ZM453.617 82.777"
       fill="#e4e4e4"
       id="path158" />
    <path
       stroke-width="1.252795"
       stroke-linecap="butt"
       stroke-linejoin="round"
       fill="none"
       stroke="#000000"
       stroke-opacity=".78"
       d="M453.617 82.777 432.191 53.348V107.594L453.617 137.023ZM453.617 82.777"
       id="path159" />
    <path
       stroke-width="2.942362"
       stroke-linecap="butt"
       stroke-miterlimit="4"
       stroke-linejoin="miter"
       fill="none"
       stroke="#ff0000"
       d="M600.77 191.617 705.953 174.719"
       id="path160" />
    <path
       transform="matrix(1,-.160663,.160663,1,0,0)"
       d="M667.633 280.889 657.428 286.785 657.429 274.988ZM667.633 280.889"
       fill="#ff0000"
       fill-rule="evenodd"
       id="path161" />
    <path
       transform="matrix(1,-.160663,.160663,1,0,0)"
       stroke-width="1.572842"
       stroke-linecap="butt"
       stroke-miterlimit="4"
       stroke-linejoin="miter"
       fill="none"
       stroke="#ff0000"
       d="M667.633 280.889 657.428 286.785 657.429 274.988ZM667.633 280.889"
       id="path162" />
    <path
       stroke-width="2.942362"
       stroke-linecap="butt"
       stroke-miterlimit="4"
       stroke-linejoin="miter"
       fill="none"
       stroke="#ff0000"
       d="M421.609 1.039 727.672 307.105"
       id="path163" />
    <path
       stroke-width="2.942362"
       stroke-linecap="butt"
       stroke-miterlimit="4"
       stroke-linejoin="miter"
       fill="none"
       stroke="#ff0000"
       d="M421.609 307.105 727.672 1.039"
       id="path164" />
  </g>
</svg>
