<?xml version="1.0" encoding="UTF-8" standalone="no"?>
<!-- Created with Inkscape (http://www.inkscape.org/) -->

<svg
   version="1.1"
   id="svg1"
   width="70.400009"
   height="70.400002"
   viewBox="0 0 70.40001 70.400002"
   xmlns="http://www.w3.org/2000/svg"
   xmlns:svg="http://www.w3.org/2000/svg">
  <defs
     id="defs1">
    <clipPath
       clipPathUnits="userSpaceOnUse"
       id="clipPath97">
      <path
         d="M 181.6,0 H 712.26667 V 841.33333 H 181.6 Z"
         id="path97" />
    </clipPath>
    <clipPath
       clipPathUnits="userSpaceOnUse"
       id="clipPath146">
      <path
         d="M -1,-1 H 11.422 V 8.123 H -1 Z"
         transform="matrix(1,0,0,-1,2.5000001e-6,0.99600027)"
         id="path146" />
    </clipPath>
    <clipPath
       clipPathUnits="userSpaceOnUse"
       id="clipPath149">
      <path
         d="M -1,-1 H 11.422 V 8.123 H -1 Z"
         transform="matrix(1,0,0,-1,0,0.99600027)"
         id="path149" />
    </clipPath>
  </defs>
  <g
     id="g96"
     clip-path="url(#clipPath97)"
     transform="translate(-181.59998,-1.7472053e-5)">
    <path
       id="path98"
       d="m 16,608 h 4 l -0.001,-4 H 36 l -10e-4,-8 h 4 L 40,588 h 4 V 576 H 16 Z"
       style="fill:#fca10f;fill-opacity:1;fill-rule:evenodd;stroke:none"
       transform="matrix(1.3333333,0,0,-1.3333333,166.13333,832.53333)" />
    <path
       id="path99"
       d="m 16,620 v -44 l 1,-1 h 44 v 4 l -1,1 H 49 v 3 l -1,1 H 37 v 3 l -1,1 h -3 v 7 l -1,1 h -3 v 3 l -1,1 h -3 v 15 l -1,1 h -3 v 3 l -1,1 z"
       style="fill:#000000;fill-opacity:0.33;fill-rule:evenodd;stroke:none"
       transform="matrix(1.3333333,0,0,-1.3333333,166.13333,832.53333)" />
    <path
       id="path100"
       d="m 15.999,604 v -4 h 4 v 4 z"
       style="fill:#bfbfbf;fill-opacity:1;fill-rule:evenodd;stroke:#000000;stroke-width:0.4;stroke-linecap:butt;stroke-linejoin:round;stroke-miterlimit:10;stroke-dasharray:none;stroke-opacity:1"
       transform="matrix(1.3333333,0,0,-1.3333333,166.13333,832.53333)" />
    <path
       id="path101"
       d="m 15.999,600 v -4 h 4 v 4 z"
       style="fill:#bfbfbf;fill-opacity:1;fill-rule:evenodd;stroke:#000000;stroke-width:0.4;stroke-linecap:butt;stroke-linejoin:round;stroke-miterlimit:10;stroke-dasharray:none;stroke-opacity:1"
       transform="matrix(1.3333333,0,0,-1.3333333,166.13333,832.53333)" />
    <path
       id="path102"
       d="m 15.999,596 v -4 h 4 v 4 z"
       style="fill:#bfbfbf;fill-opacity:1;fill-rule:evenodd;stroke:#000000;stroke-width:0.4;stroke-linecap:butt;stroke-linejoin:round;stroke-miterlimit:10;stroke-dasharray:none;stroke-opacity:1"
       transform="matrix(1.3333333,0,0,-1.3333333,166.13333,832.53333)" />
    <path
       id="path103"
       d="m 15.999,592 v -4 h 4 v 4 z"
       style="fill:#bfbfbf;fill-opacity:1;fill-rule:evenodd;stroke:#000000;stroke-width:0.4;stroke-linecap:butt;stroke-linejoin:round;stroke-miterlimit:10;stroke-dasharray:none;stroke-opacity:1"
       transform="matrix(1.3333333,0,0,-1.3333333,166.13333,832.53333)" />
    <path
       id="path104"
       d="m 16,584 h 4 v 4 h -4 z"
       style="fill:#bfbfbf;fill-opacity:1;fill-rule:evenodd;stroke:#000000;stroke-width:0.4;stroke-linecap:butt;stroke-linejoin:round;stroke-miterlimit:10;stroke-dasharray:none;stroke-opacity:1"
       transform="matrix(1.3333333,0,0,-1.3333333,166.13333,832.53333)" />
    <path
       id="path105"
       d="m 15.999,580 v -4 h 4 v 4 z"
       style="fill:#bfbfbf;fill-opacity:1;fill-rule:evenodd;stroke:#000000;stroke-width:0.4;stroke-linecap:butt;stroke-linejoin:round;stroke-miterlimit:10;stroke-dasharray:none;stroke-opacity:1"
       transform="matrix(1.3333333,0,0,-1.3333333,166.13333,832.53333)" />
    <path
       id="path106"
       d="m 16,580 h 4 v 4 h -4 z"
       style="fill:#bfbfbf;fill-opacity:1;fill-rule:evenodd;stroke:#000000;stroke-width:0.4;stroke-linecap:butt;stroke-linejoin:round;stroke-miterlimit:10;stroke-dasharray:none;stroke-opacity:1"
       transform="matrix(1.3333333,0,0,-1.3333333,166.13333,832.53333)" />
    <path
       id="path107"
       d="m 20,596 v -4 h 4 v 4 z"
       style="fill:#bfbfbf;fill-opacity:1;fill-rule:evenodd;stroke:#000000;stroke-width:0.4;stroke-linecap:butt;stroke-linejoin:round;stroke-miterlimit:10;stroke-dasharray:none;stroke-opacity:1"
       transform="matrix(1.3333333,0,0,-1.3333333,166.13333,832.53333)" />
    <path
       id="path108"
       d="m 20,592 v -4 h 4 v 4 z"
       style="fill:#bfbfbf;fill-opacity:1;fill-rule:evenodd;stroke:#000000;stroke-width:0.4;stroke-linecap:butt;stroke-linejoin:round;stroke-miterlimit:10;stroke-dasharray:none;stroke-opacity:1"
       transform="matrix(1.3333333,0,0,-1.3333333,166.13333,832.53333)" />
    <path
       id="path109"
       d="m 20,588 v -4 h 4 v 4 z"
       style="fill:#bfbfbf;fill-opacity:1;fill-rule:evenodd;stroke:#000000;stroke-width:0.4;stroke-linecap:butt;stroke-linejoin:round;stroke-miterlimit:10;stroke-dasharray:none;stroke-opacity:1"
       transform="matrix(1.3333333,0,0,-1.3333333,166.13333,832.53333)" />
    <path
       id="path110"
       d="m 20,584 v -4 h 4 v 4 z"
       style="fill:#bfbfbf;fill-opacity:1;fill-rule:evenodd;stroke:#000000;stroke-width:0.4;stroke-linecap:butt;stroke-linejoin:round;stroke-miterlimit:10;stroke-dasharray:none;stroke-opacity:1"
       transform="matrix(1.3333333,0,0,-1.3333333,166.13333,832.53333)" />
    <path
       id="path111"
       d="m 20,576 h 4 v 4 h -4 z"
       style="fill:#bfbfbf;fill-opacity:1;fill-rule:evenodd;stroke:#000000;stroke-width:0.4;stroke-linecap:butt;stroke-linejoin:round;stroke-miterlimit:10;stroke-dasharray:none;stroke-opacity:1"
       transform="matrix(1.3333333,0,0,-1.3333333,166.13333,832.53333)" />
    <path
       id="path112"
       d="m 24,596 v -4 h 4 v 4 z"
       style="fill:#bfbfbf;fill-opacity:1;fill-rule:evenodd;stroke:#000000;stroke-width:0.4;stroke-linecap:butt;stroke-linejoin:round;stroke-miterlimit:10;stroke-dasharray:none;stroke-opacity:1"
       transform="matrix(1.3333333,0,0,-1.3333333,166.13333,832.53333)" />
    <path
       id="path113"
       d="m 24,592 v -4 h 4 v 4 z"
       style="fill:#bfbfbf;fill-opacity:1;fill-rule:evenodd;stroke:#000000;stroke-width:0.4;stroke-linecap:butt;stroke-linejoin:round;stroke-miterlimit:10;stroke-dasharray:none;stroke-opacity:1"
       transform="matrix(1.3333333,0,0,-1.3333333,166.13333,832.53333)" />
    <path
       id="path114"
       d="m 24,588 v -4 h 4 v 4 z"
       style="fill:#bfbfbf;fill-opacity:1;fill-rule:evenodd;stroke:#000000;stroke-width:0.4;stroke-linecap:butt;stroke-linejoin:round;stroke-miterlimit:10;stroke-dasharray:none;stroke-opacity:1"
       transform="matrix(1.3333333,0,0,-1.3333333,166.13333,832.53333)" />
    <path
       id="path115"
       d="m 24,584 v -4 h 4 v 4 z"
       style="fill:#bfbfbf;fill-opacity:1;fill-rule:evenodd;stroke:#000000;stroke-width:0.4;stroke-linecap:butt;stroke-linejoin:round;stroke-miterlimit:10;stroke-dasharray:none;stroke-opacity:1"
       transform="matrix(1.3333333,0,0,-1.3333333,166.13333,832.53333)" />
    <path
       id="path116"
       d="m 24,576 h 4 v 4 h -4 z"
       style="fill:#bfbfbf;fill-opacity:1;fill-rule:evenodd;stroke:#000000;stroke-width:0.4;stroke-linecap:butt;stroke-linejoin:round;stroke-miterlimit:10;stroke-dasharray:none;stroke-opacity:1"
       transform="matrix(1.3333333,0,0,-1.3333333,166.13333,832.53333)" />
    <path
       id="path117"
       d="m 36,580 v -4 h 4 v 4 z"
       style="fill:#bfbfbf;fill-opacity:1;fill-rule:evenodd;stroke:#000000;stroke-width:0.4;stroke-linecap:butt;stroke-linejoin:round;stroke-miterlimit:10;stroke-dasharray:none;stroke-opacity:1"
       transform="matrix(1.3333333,0,0,-1.3333333,166.13333,832.53333)" />
    <path
       id="path118"
       d="m 28,588 v -4 h 4 v 4 z"
       style="fill:#bfbfbf;fill-opacity:1;fill-rule:evenodd;stroke:#000000;stroke-width:0.4;stroke-linecap:butt;stroke-linejoin:round;stroke-miterlimit:10;stroke-dasharray:none;stroke-opacity:1"
       transform="matrix(1.3333333,0,0,-1.3333333,166.13333,832.53333)" />
    <path
       id="path119"
       d="m 28,584 v -4 h 4 v 4 z"
       style="fill:#bfbfbf;fill-opacity:1;fill-rule:evenodd;stroke:#000000;stroke-width:0.4;stroke-linecap:butt;stroke-linejoin:round;stroke-miterlimit:10;stroke-dasharray:none;stroke-opacity:1"
       transform="matrix(1.3333333,0,0,-1.3333333,166.13333,832.53333)" />
    <path
       id="path120"
       d="m 28,576 h 4 v 4 h -4 z"
       style="fill:#bfbfbf;fill-opacity:1;fill-rule:evenodd;stroke:#000000;stroke-width:0.4;stroke-linecap:butt;stroke-linejoin:round;stroke-miterlimit:10;stroke-dasharray:none;stroke-opacity:1"
       transform="matrix(1.3333333,0,0,-1.3333333,166.13333,832.53333)" />
    <path
       id="path121"
       d="m 40,580 v -4 h 4 v 4 z"
       style="fill:#bfbfbf;fill-opacity:1;fill-rule:evenodd;stroke:#000000;stroke-width:0.4;stroke-linecap:butt;stroke-linejoin:round;stroke-miterlimit:10;stroke-dasharray:none;stroke-opacity:1"
       transform="matrix(1.3333333,0,0,-1.3333333,166.13333,832.53333)" />
    <path
       id="path122"
       d="m 32,588 v -4 h 4 v 4 z"
       style="fill:#bfbfbf;fill-opacity:1;fill-rule:evenodd;stroke:#000000;stroke-width:0.4;stroke-linecap:butt;stroke-linejoin:round;stroke-miterlimit:10;stroke-dasharray:none;stroke-opacity:1"
       transform="matrix(1.3333333,0,0,-1.3333333,166.13333,832.53333)" />
    <path
       id="path123"
       d="m 32,584 v -4 h 4 v 4 z"
       style="fill:#bfbfbf;fill-opacity:1;fill-rule:evenodd;stroke:#000000;stroke-width:0.4;stroke-linecap:butt;stroke-linejoin:round;stroke-miterlimit:10;stroke-dasharray:none;stroke-opacity:1"
       transform="matrix(1.3333333,0,0,-1.3333333,166.13333,832.53333)" />
    <path
       id="path124"
       d="m 32,576 h 4 v 4 h -4 z"
       style="fill:#bfbfbf;fill-opacity:1;fill-rule:evenodd;stroke:#000000;stroke-width:0.4;stroke-linecap:butt;stroke-linejoin:round;stroke-miterlimit:10;stroke-dasharray:none;stroke-opacity:1"
       transform="matrix(1.3333333,0,0,-1.3333333,166.13333,832.53333)" />
    <path
       id="path125"
       d="m 44,580 v -4 h 4 v 4 z"
       style="fill:#008b8b;fill-opacity:1;fill-rule:evenodd;stroke:#000000;stroke-width:0.4;stroke-linecap:butt;stroke-linejoin:round;stroke-miterlimit:10;stroke-dasharray:none;stroke-opacity:1"
       transform="matrix(1.3333333,0,0,-1.3333333,166.13333,832.53333)" />
    <path
       id="path126"
       d="m 48,580 v -4 h 4 v 4 z"
       style="fill:#008b8b;fill-opacity:1;fill-rule:evenodd;stroke:#000000;stroke-width:0.4;stroke-linecap:butt;stroke-linejoin:round;stroke-miterlimit:10;stroke-dasharray:none;stroke-opacity:1"
       transform="matrix(1.3333333,0,0,-1.3333333,166.13333,832.53333)" />
    <path
       id="path127"
       d="m 52,580 v -4 h 4 v 4 z"
       style="fill:#008b8b;fill-opacity:1;fill-rule:evenodd;stroke:#000000;stroke-width:0.4;stroke-linecap:butt;stroke-linejoin:round;stroke-miterlimit:10;stroke-dasharray:none;stroke-opacity:1"
       transform="matrix(1.3333333,0,0,-1.3333333,166.13333,832.53333)" />
    <path
       id="path128"
       d="m 56,580 v -4 h 4 v 4 z"
       style="fill:#008b8b;fill-opacity:1;fill-rule:evenodd;stroke:#000000;stroke-width:0.4;stroke-linecap:butt;stroke-linejoin:round;stroke-miterlimit:10;stroke-dasharray:none;stroke-opacity:1"
       transform="matrix(1.3333333,0,0,-1.3333333,166.13333,832.53333)" />
    <path
       id="path129"
       d="m 28,592 v -4 h 4 v 4 z"
       style="fill:#bfbfbf;fill-opacity:1;fill-rule:evenodd;stroke:#000000;stroke-width:0.4;stroke-linecap:butt;stroke-linejoin:round;stroke-miterlimit:10;stroke-dasharray:none;stroke-opacity:1"
       transform="matrix(1.3333333,0,0,-1.3333333,166.13333,832.53333)" />
    <path
       id="path130"
       d="m 44,584 v -4 h 4 v 4 z"
       style="fill:#008b8b;fill-opacity:1;fill-rule:evenodd;stroke:#000000;stroke-width:0.4;stroke-linecap:butt;stroke-linejoin:round;stroke-miterlimit:10;stroke-dasharray:none;stroke-opacity:1"
       transform="matrix(1.3333333,0,0,-1.3333333,166.13333,832.53333)" />
    <path
       id="path131"
       d="m 36,584 v -4 h 4 v 4 z"
       style="fill:#bfbfbf;fill-opacity:1;fill-rule:evenodd;stroke:#000000;stroke-width:0.4;stroke-linecap:butt;stroke-linejoin:round;stroke-miterlimit:10;stroke-dasharray:none;stroke-opacity:1"
       transform="matrix(1.3333333,0,0,-1.3333333,166.13333,832.53333)" />
    <path
       id="path132"
       d="m 40,584 v -4 h 4 v 4 z"
       style="fill:#bfbfbf;fill-opacity:1;fill-rule:evenodd;stroke:#000000;stroke-width:0.4;stroke-linecap:butt;stroke-linejoin:round;stroke-miterlimit:10;stroke-dasharray:none;stroke-opacity:1"
       transform="matrix(1.3333333,0,0,-1.3333333,166.13333,832.53333)" />
    <path
       id="path133"
       d="m 20,608 v -4 h 4 v 4 z"
       style="fill:#008b8b;fill-opacity:1;fill-rule:evenodd;stroke:#000000;stroke-width:0.4;stroke-linecap:butt;stroke-linejoin:round;stroke-miterlimit:10;stroke-dasharray:none;stroke-opacity:1"
       transform="matrix(1.3333333,0,0,-1.3333333,166.13333,832.53333)" />
    <path
       id="path134"
       d="m 20,604 v -4 h 4 v 4 z"
       style="fill:#bfbfbf;fill-opacity:1;fill-rule:evenodd;stroke:#000000;stroke-width:0.4;stroke-linecap:butt;stroke-linejoin:round;stroke-miterlimit:10;stroke-dasharray:none;stroke-opacity:1"
       transform="matrix(1.3333333,0,0,-1.3333333,166.13333,832.53333)" />
    <path
       id="path135"
       d="m 20,600 v -4 h 4 v 4 z"
       style="fill:#bfbfbf;fill-opacity:1;fill-rule:evenodd;stroke:#000000;stroke-width:0.4;stroke-linecap:butt;stroke-linejoin:round;stroke-miterlimit:10;stroke-dasharray:none;stroke-opacity:1"
       transform="matrix(1.3333333,0,0,-1.3333333,166.13333,832.53333)" />
    <path
       id="path136"
       d="m 24,600 v -4 h 4 v 4 z"
       style="fill:#bfbfbf;fill-opacity:1;fill-rule:evenodd;stroke:#000000;stroke-width:0.4;stroke-linecap:butt;stroke-linejoin:round;stroke-miterlimit:10;stroke-dasharray:none;stroke-opacity:1"
       transform="matrix(1.3333333,0,0,-1.3333333,166.13333,832.53333)" />
    <path
       id="path137"
       d="m 15.999,612 v -4 h 4 v 4 z"
       style="fill:#008b8b;fill-opacity:1;fill-rule:evenodd;stroke:#000000;stroke-width:0.4;stroke-linecap:butt;stroke-linejoin:round;stroke-miterlimit:10;stroke-dasharray:none;stroke-opacity:1"
       transform="matrix(1.3333333,0,0,-1.3333333,166.13333,832.53333)" />
    <path
       id="path138"
       d="m 15.999,608 v -4 h 4 v 4 z"
       style="fill:#bfbfbf;fill-opacity:1;fill-rule:evenodd;stroke:#000000;stroke-width:0.4;stroke-linecap:butt;stroke-linejoin:round;stroke-miterlimit:10;stroke-dasharray:none;stroke-opacity:1"
       transform="matrix(1.3333333,0,0,-1.3333333,166.13333,832.53333)" />
    <path
       id="path139"
       d="m 28,596 v -4 h 4 v 4 z"
       style="fill:#bfbfbf;fill-opacity:1;fill-rule:evenodd;stroke:#000000;stroke-width:0.4;stroke-linecap:butt;stroke-linejoin:round;stroke-miterlimit:10;stroke-dasharray:none;stroke-opacity:1"
       transform="matrix(1.3333333,0,0,-1.3333333,166.13333,832.53333)" />
    <path
       id="path140"
       d="m 20,612 v -4 h 4 v 4 z"
       style="fill:#008b8b;fill-opacity:1;fill-rule:evenodd;stroke:#000000;stroke-width:0.4;stroke-linecap:butt;stroke-linejoin:round;stroke-miterlimit:10;stroke-dasharray:none;stroke-opacity:1"
       transform="matrix(1.3333333,0,0,-1.3333333,166.13333,832.53333)" />
    <path
       id="path141"
       d="m 15.999,616 v -4 h 4 v 4 z"
       style="fill:#008b8b;fill-opacity:1;fill-rule:evenodd;stroke:#000000;stroke-width:0.4;stroke-linecap:butt;stroke-linejoin:round;stroke-miterlimit:10;stroke-dasharray:none;stroke-opacity:1"
       transform="matrix(1.3333333,0,0,-1.3333333,166.13333,832.53333)" />
    <path
       id="path142"
       d="m 20,616 v -4 h 4 v 4 z"
       style="fill:#008b8b;fill-opacity:1;fill-rule:evenodd;stroke:#000000;stroke-width:0.4;stroke-linecap:butt;stroke-linejoin:round;stroke-miterlimit:10;stroke-dasharray:none;stroke-opacity:1"
       transform="matrix(1.3333333,0,0,-1.3333333,166.13333,832.53333)" />
    <path
       id="path143"
       d="m 15.999,620 v -4 h 4 v 4 z"
       style="fill:#008b8b;fill-opacity:1;fill-rule:evenodd;stroke:#000000;stroke-width:0.4;stroke-linecap:butt;stroke-linejoin:round;stroke-miterlimit:10;stroke-dasharray:none;stroke-opacity:1"
       transform="matrix(1.3333333,0,0,-1.3333333,166.13333,832.53333)" />
    <path
       id="path144"
       d="m 16,620 v -4 h 4 v 4 z m 4,-4 v -4 h 4 v 4 z m 36,-36 v -4 h 4 v 4 z m -32,32 v -4 h 4 v 4 z m 4,-4 v -4 h 4 v 4 z m 4,-4 v -4 h 4 v 4 z m 4,-4 v -4 h 4 v 4 z m 4,-4 v -4 h 4 v 4 z m 4,-4 v -4 h 4 v 4 z m 4,-4 v -4 h 4 v 4 z m 4,-4 v -4 h 4 v 4 z m -40,40 4,-4 m 44,-44 4,-4"
       style="fill:none;stroke:#ff0000;stroke-width:0.8;stroke-linecap:round;stroke-linejoin:round;stroke-miterlimit:10;stroke-dasharray:none;stroke-opacity:1"
       transform="matrix(1.3333333,0,0,-1.3333333,166.13333,832.53333)" />
    <path
       id="path145"
       d="m 16.001,608 v -4 H 20 v 4 z m 4,-4 v -4 H 24 v 4 z m 4,-4 v -4 H 28 v 4 z m 3.9995,-4 v -4 h 3.999 v 4 z M 40.001,584 v -4 H 44 v 4 z m 4,-4 L 44,576 h 4 v 4 z m -8.0014,8 4e-4,-4 h 3.9997 v 4 z m -4.0001,4 v -4 h 4.0001 v 4 z M 48,576 l 4,-4 m -40,40 4,-4"
       style="fill:none;stroke:#0000ff;stroke-width:0.8;stroke-linecap:round;stroke-linejoin:round;stroke-miterlimit:10;stroke-dasharray:none;stroke-opacity:1"
       transform="matrix(1.3333333,0,0,-1.3333333,166.13333,832.53333)" />
    <g
       id="g149">
      <g
         aria-label="L&#10;1"
         transform="matrix(1.3333333,0,0,1.3333333,214.13333,16.525333)"
         clip-path="url(#clipPath146)"
         id="g148">
        <path
           d="m 3.4115234,-5.4154844 c 0.082031,-0.3398437 0.1171875,-0.4335937 0.9492188,-0.4335937 0.2460937,0 0.328125,0 0.328125,-0.1640625 0,-0.1054688 -0.1171875,-0.1054688 -0.140625,-0.1054688 -0.2109375,0 -0.4453125,0.011719 -0.65625,0.011719 -0.2109375,0 -0.4335938,0.011719 -0.6445313,0.011719 -0.2109375,0 -0.421875,0 -0.6210937,-0.011719 -0.1640625,-0.011719 -0.4335938,-0.011719 -0.5859375,-0.011719 -0.058594,0 -0.1875,0 -0.1875,0.1523438 0,0.1171875 0.082031,0.1171875 0.2695312,0.1171875 0.035156,0 0.1992188,0 0.3398438,0.023437 0.1523437,0.011719 0.2226562,0.035156 0.2226562,0.1289062 0,0.046875 -0.011719,0.082031 -0.035156,0.1875 l -1.21875,4.82812503 c -0.070312,0.31640625 -0.09375,0.3984375 -0.76171876,0.3984375 -0.17578125,0 -0.26953125,0 -0.26953125,0.1640625 0,0.1171875 0.0820313,0.1171875 0.24609375,0.1171875 H 4.8763672 c 0.2226562,0 0.2226562,-0.01171875 0.2929687,-0.19921875 0.09375,-0.22265625 0.7382813,-1.92187498 0.7382813,-1.99218748 0,-0.082031 -0.058594,-0.1171875 -0.1289063,-0.1171875 -0.082031,0 -0.09375,0.035156 -0.1640625,0.2109375 -0.3046875,0.796875 -0.703125,1.81640623 -2.2734375,1.81640623 H 2.4623047 c -0.1289063,0 -0.1523438,0 -0.1875,0 -0.082031,-0.0117188 -0.1171875,-0.0234375 -0.1171875,-0.0820313 0,-0.0351563 0,-0.046875 0.046875,-0.2109375 z m 0,0"
           style="fill:#0000ff;fill-opacity:1;fill-rule:nonzero;stroke:none"
           id="path147" />
        <path
           d="m 8.4154297,-2.8022031 c 0,-0.1757813 -0.023437,-0.1757813 -0.1992188,-0.1757813 -0.3984375,0.375 -1.0078125,0.375 -1.21875,0.375 v 0.234375 c 0.1523438,0 0.5507813,0 0.9023438,-0.1640625 v 3.02343753 c 0,0.1875 0,0.26953125 -0.609375,0.26953125 H 7.0326172 v 0.234375 c 0.328125,-0.0234375 0.796875,-0.0234375 1.125,-0.0234375 0.3398437,0 0.796875,0 1.1367187,0.0234375 v -0.234375 H 9.0365234 c -0.6210937,0 -0.6210937,-0.0820313 -0.6210937,-0.26953125 z m 0,0"
           style="fill:#0000ff;fill-opacity:1;fill-rule:nonzero;stroke:none"
           id="path148" />
      </g>
    </g>
    <g
       id="g152">
      <g
         aria-label="L&#10;2"
         transform="matrix(1.3333333,0,0,1.3333333,232.8,16.525333)"
         clip-path="url(#clipPath149)"
         id="g151">
        <path
           d="m 3.4095703,-5.4154844 c 0.082031,-0.3398437 0.1171875,-0.4335937 0.9492188,-0.4335937 0.2460937,0 0.328125,0 0.328125,-0.1640625 0,-0.1054688 -0.1171875,-0.1054688 -0.140625,-0.1054688 -0.2109375,0 -0.4453125,0.011719 -0.65625,0.011719 -0.2109375,0 -0.4335938,0.011719 -0.6445313,0.011719 -0.2109375,0 -0.421875,0 -0.6210937,-0.011719 -0.1640625,-0.011719 -0.4335938,-0.011719 -0.5859375,-0.011719 -0.058594,0 -0.1875,0 -0.1875,0.1523438 0,0.1171875 0.082031,0.1171875 0.2695312,0.1171875 0.035156,0 0.1992188,0 0.3398438,0.023437 0.1523437,0.011719 0.2226562,0.035156 0.2226562,0.1289062 0,0.046875 -0.011719,0.082031 -0.035156,0.1875 l -1.21875,4.82812503 c -0.070312,0.31640625 -0.09375,0.3984375 -0.76171879,0.3984375 -0.17578125,0 -0.26953125,0 -0.26953125,0.1640625 0,0.1171875 0.0820313,0.1171875 0.24609375,0.1171875 H 4.8744141 c 0.2226562,0 0.2226562,-0.01171875 0.2929687,-0.19921875 0.09375,-0.22265625 0.7382813,-1.92187498 0.7382813,-1.99218748 0,-0.082031 -0.058594,-0.1171875 -0.1289063,-0.1171875 -0.082031,0 -0.09375,0.035156 -0.1640625,0.2109375 -0.3046875,0.796875 -0.703125,1.81640623 -2.2734375,1.81640623 H 2.4603516 c -0.1289063,0 -0.1523438,0 -0.1875,0 -0.082031,-0.0117188 -0.1171875,-0.0234375 -0.1171875,-0.0820313 0,-0.0351563 0,-0.046875 0.046875,-0.2109375 z m 0,0"
           style="fill:#ff0000;fill-opacity:1;fill-rule:nonzero;stroke:none"
           id="path150" />
        <path
           d="M 9.4828125,-0.11860937 H 9.271875 c -0.023437,0.08203125 -0.082031,0.46875 -0.1640625,0.5390625 -0.046875,0.0351563 -0.5273437,0.0351563 -0.609375,0.0351563 h -1.125 l 0.7734375,-0.6210938 c 0.1992188,-0.1640625 0.7265625,-0.5390625 0.9140625,-0.7265625 0.1757813,-0.17578123 0.421875,-0.48046873 0.421875,-0.90234373 0,-0.75 -0.6679687,-1.1835938 -1.4765625,-1.1835938 -0.7617187,0 -1.3007812,0.5039063 -1.3007812,1.0664063 0,0.3046875 0.2578125,0.3398437 0.3164062,0.3398437 0.1523438,0 0.328125,-0.1054687 0.328125,-0.3164062 0,-0.140625 -0.082031,-0.328125 -0.3398437,-0.328125 0.1289062,-0.3046875 0.5039062,-0.5273438 0.9140625,-0.5273438 0.6210937,0 0.9609375,0.46875 0.9609375,0.9492188 0,0.421875 -0.28125,0.85546873 -0.703125,1.24218748 L 6.7640625,0.74857813 c -0.058594,0.0585938 -0.058594,0.0585938 -0.058594,0.24609375 H 9.307031 Z m 0,0"
           style="fill:#ff0000;fill-opacity:1;fill-rule:nonzero;stroke:none"
           id="path151" />
      </g>
    </g>
  </g>
</svg>
