<?xml version="1.0" encoding="UTF-8" standalone="no"?>
<svg
   version="1.1"
   width="1014.7694"
   height="334.05879"
   viewBox="0 0 1014.7694 334.05879"
   id="svg168"
   sodipodi:docname="in-place.svg"
   inkscape:version="1.4 (86a8ad7, 2024-10-11)"
   xmlns:inkscape="http://www.inkscape.org/namespaces/inkscape"
   xmlns:sodipodi="http://sodipodi.sourceforge.net/DTD/sodipodi-0.dtd"
   xmlns="http://www.w3.org/2000/svg"
   xmlns:svg="http://www.w3.org/2000/svg">
  <defs
     id="defs168" />
  <sodipodi:namedview
     id="namedview168"
     pagecolor="#ffffff"
     bordercolor="#000000"
     borderopacity="0.25"
     inkscape:showpageshadow="2"
     inkscape:pageopacity="0.0"
     inkscape:pagecheckerboard="0"
     inkscape:deskcolor="#d1d1d1"
     inkscape:zoom="0.44295778"
     inkscape:cx="608.41013"
     inkscape:cy="-398.45784"
     inkscape:window-width="1920"
     inkscape:window-height="1009"
     inkscape:window-x="1912"
     inkscape:window-y="-8"
     inkscape:window-maximized="1"
     inkscape:current-layer="g168" />
  <g
     id="g168">
    <path
       d="M198.637 225.625 139.773 236.336V290.586L198.637 279.871ZM198.637 225.625"
       fill="#e4e4e4"
       id="path1" />
    <path
       stroke-width="1.252795"
       stroke-linecap="butt"
       stroke-linejoin="round"
       fill="none"
       stroke="#000000"
       stroke-opacity=".78"
       d="M198.637 225.625 139.773 236.336V290.586L198.637 279.871ZM198.637 225.625"
       id="path2" />
    <path
       d="M198.637 225.625 177.211 196.195 118.348 206.906 139.773 236.336ZM198.637 225.625"
       fill="#e4e4e4"
       id="path3" />
    <path
       stroke-width="1.252795"
       stroke-linecap="butt"
       stroke-linejoin="round"
       fill="none"
       stroke="#000000"
       stroke-opacity=".78"
       d="M198.637 225.625 177.211 196.195 118.348 206.906 139.773 236.336ZM198.637 225.625"
       id="path4" />
    <path
       d="M139.773 236.336 118.348 206.906V261.152L139.773 290.586ZM139.773 236.336"
       fill="#e4e4e4"
       id="path5" />
    <path
       stroke-width="1.252795"
       stroke-linecap="butt"
       stroke-linejoin="round"
       fill="none"
       stroke="#000000"
       stroke-opacity=".78"
       d="M139.773 236.336 118.348 206.906V261.152L139.773 290.586ZM139.773 236.336"
       id="path6" />
    <path
       d="M198.637 171.379 139.773 182.09V236.336L198.637 225.625ZM198.637 171.379"
       fill="#e4e4e4"
       id="path7" />
    <path
       stroke-width="1.252795"
       stroke-linecap="butt"
       stroke-linejoin="round"
       fill="none"
       stroke="#000000"
       stroke-opacity=".78"
       d="M198.637 171.379 139.773 182.09V236.336L198.637 225.625ZM198.637 171.379"
       id="path8" />
    <path
       d="M198.637 171.379 177.211 141.945 118.348 152.656 139.773 182.09ZM198.637 171.379"
       fill="#e4e4e4"
       id="path9" />
    <path
       stroke-width="1.252795"
       stroke-linecap="butt"
       stroke-linejoin="round"
       fill="none"
       stroke="#000000"
       stroke-opacity=".78"
       d="M198.637 171.379 177.211 141.945 118.348 152.656 139.773 182.09ZM198.637 171.379"
       id="path10" />
    <path
       d="M139.773 182.09 118.348 152.656V206.906L139.773 236.336ZM139.773 182.09"
       fill="#e4e4e4"
       id="path11" />
    <path
       stroke-width="1.252795"
       stroke-linecap="butt"
       stroke-linejoin="round"
       fill="none"
       stroke="#000000"
       stroke-opacity=".78"
       d="M139.773 182.09 118.348 152.656V206.906L139.773 236.336ZM139.773 182.09"
       id="path12" />
    <path
       d="M198.637 117.129 139.773 127.84V182.09L198.637 171.375ZM198.637 117.129"
       fill="#e4e4e4"
       id="path13" />
    <path
       stroke-width="1.252795"
       stroke-linecap="butt"
       stroke-linejoin="round"
       fill="none"
       stroke="#000000"
       stroke-opacity=".78"
       d="M198.637 117.129 139.773 127.84V182.09L198.637 171.375ZM198.637 117.129"
       id="path14" />
    <path
       d="M198.637 117.129 177.211 87.699 118.348 98.41 139.773 127.84ZM198.637 117.129"
       fill="#e4e4e4"
       id="path15" />
    <path
       stroke-width="1.252795"
       stroke-linecap="butt"
       stroke-linejoin="round"
       fill="none"
       stroke="#000000"
       stroke-opacity=".78"
       d="M198.637 117.129 177.211 87.699 118.348 98.41 139.773 127.84ZM198.637 117.129"
       id="path16" />
    <path
       d="M139.773 127.84 118.348 98.41V152.656L139.773 182.09ZM139.773 127.84"
       fill="#e4e4e4"
       id="path17" />
    <path
       stroke-width="1.252795"
       stroke-linecap="butt"
       stroke-linejoin="round"
       fill="none"
       stroke="#000000"
       stroke-opacity=".78"
       d="M139.773 127.84 118.348 98.41V152.656L139.773 182.09ZM139.773 127.84"
       id="path18" />
    <path
       d="M139.773 127.84 80.91 138.555V192.801L139.773 182.09ZM139.773 127.84"
       fill="#e4e4e4"
       id="path19" />
    <path
       stroke-width="1.252795"
       stroke-linecap="butt"
       stroke-linejoin="round"
       fill="none"
       stroke="#000000"
       stroke-opacity=".78"
       d="M139.773 127.84 80.91 138.555V192.801L139.773 182.09ZM139.773 127.84"
       id="path20" />
    <path
       d="M139.773 127.84 118.348 98.41 59.488 109.121 80.91 138.555ZM139.773 127.84"
       fill="#e4e4e4"
       id="path21" />
    <path
       stroke-width="1.252795"
       stroke-linecap="butt"
       stroke-linejoin="round"
       fill="none"
       stroke="#000000"
       stroke-opacity=".78"
       d="M139.773 127.84 118.348 98.41 59.488 109.121 80.91 138.555ZM139.773 127.84"
       id="path22" />
    <path
       d="M80.91 138.555 59.488 109.121V163.371L80.91 192.801ZM80.91 138.555"
       fill="#e4e4e4"
       id="path23" />
    <path
       stroke-width="1.252795"
       stroke-linecap="butt"
       stroke-linejoin="round"
       fill="none"
       stroke="#000000"
       stroke-opacity=".78"
       d="M80.91 138.555 59.488 109.121V163.371L80.91 192.801ZM80.91 138.555"
       id="path24" />
    <path
       d="M80.914 247.047 22.051 257.762V312.008L80.914 301.297ZM80.914 247.047"
       fill="#e4e4e4"
       id="path25" />
    <path
       stroke-width="1.252795"
       stroke-linecap="butt"
       stroke-linejoin="round"
       fill="none"
       stroke="#000000"
       stroke-opacity=".78"
       d="M80.914 247.047 22.051 257.762V312.008L80.914 301.297ZM80.914 247.047"
       id="path26" />
    <path
       d="M80.914 247.047 59.488 217.617 .625 228.328 22.051 257.762ZM80.914 247.047"
       fill="#e4e4e4"
       id="path27" />
    <path
       stroke-width="1.252795"
       stroke-linecap="butt"
       stroke-linejoin="round"
       fill="none"
       stroke="#000000"
       stroke-opacity=".78"
       d="M80.914 247.047 59.488 217.617 .625 228.328 22.051 257.762ZM80.914 247.047"
       id="path28" />
    <path
       d="M22.051 257.762 .625 228.328V282.578L22.051 312.008ZM22.051 257.762"
       fill="#e4e4e4"
       id="path29" />
    <path
       stroke-width="1.252795"
       stroke-linecap="butt"
       stroke-linejoin="round"
       fill="none"
       stroke="#000000"
       stroke-opacity=".78"
       d="M22.051 257.762 .625 228.328V282.578L22.051 312.008ZM22.051 257.762"
       id="path30" />
    <path
       d="M80.914 192.801 22.051 203.512V257.762L80.914 247.047ZM80.914 192.801"
       fill="#e4e4e4"
       id="path31" />
    <path
       stroke-width="1.252795"
       stroke-linecap="butt"
       stroke-linejoin="round"
       fill="none"
       stroke="#000000"
       stroke-opacity=".78"
       d="M80.914 192.801 22.051 203.512V257.762L80.914 247.047ZM80.914 192.801"
       id="path32" />
    <path
       d="M80.914 192.801 59.488 163.371 .625 174.082 22.051 203.512ZM80.914 192.801"
       fill="#e4e4e4"
       id="path33" />
    <path
       stroke-width="1.252795"
       stroke-linecap="butt"
       stroke-linejoin="round"
       fill="none"
       stroke="#000000"
       stroke-opacity=".78"
       d="M80.914 192.801 59.488 163.371 .625 174.082 22.051 203.512ZM80.914 192.801"
       id="path34" />
    <path
       d="M22.051 203.512 .625 174.082V228.328L22.051 257.762ZM22.051 203.512"
       fill="#e4e4e4"
       id="path35" />
    <path
       stroke-width="1.252795"
       stroke-linecap="butt"
       stroke-linejoin="round"
       fill="none"
       stroke="#000000"
       stroke-opacity=".78"
       d="M22.051 203.512 .625 174.082V228.328L22.051 257.762ZM22.051 203.512"
       id="path36" />
    <path
       d="M80.914 138.555 22.051 149.266V203.512L80.914 192.801ZM80.914 138.555"
       fill="#e4e4e4"
       id="path37" />
    <path
       stroke-width="1.252795"
       stroke-linecap="butt"
       stroke-linejoin="round"
       fill="none"
       stroke="#000000"
       stroke-opacity=".78"
       d="M80.914 138.555 22.051 149.266V203.512L80.914 192.801ZM80.914 138.555"
       id="path38" />
    <path
       d="M80.914 138.555 59.488 109.121 .625 119.836 22.051 149.266ZM80.914 138.555"
       fill="#e4e4e4"
       id="path39" />
    <path
       stroke-width="1.252795"
       stroke-linecap="butt"
       stroke-linejoin="round"
       fill="none"
       stroke="#000000"
       stroke-opacity=".78"
       d="M80.914 138.555 59.488 109.121 .625 119.836 22.051 149.266ZM80.914 138.555"
       id="path40" />
    <path
       d="M22.051 149.266 .625 119.836V174.082L22.051 203.512ZM22.051 149.266"
       fill="#e4e4e4"
       id="path41" />
    <path
       stroke-width="1.252795"
       stroke-linecap="butt"
       stroke-linejoin="round"
       fill="none"
       stroke="#000000"
       stroke-opacity=".78"
       d="M22.051 149.266 .625 119.836V174.082L22.051 203.512ZM22.051 149.266"
       id="path42" />
    <path
       d="M80.914 84.305 22.051 95.016V149.266L80.914 138.555ZM80.914 84.305"
       fill="#e4e4e4"
       id="path43" />
    <path
       stroke-width="1.252795"
       stroke-linecap="butt"
       stroke-linejoin="round"
       fill="none"
       stroke="#000000"
       stroke-opacity=".78"
       d="M80.914 84.305 22.051 95.016V149.266L80.914 138.555ZM80.914 84.305"
       id="path44" />
    <path
       d="M80.914 84.305 59.488 54.875 .625 65.586 22.051 95.016ZM80.914 84.305"
       fill="#e4e4e4"
       id="path45" />
    <path
       stroke-width="1.252795"
       stroke-linecap="butt"
       stroke-linejoin="round"
       fill="none"
       stroke="#000000"
       stroke-opacity=".78"
       d="M80.914 84.305 59.488 54.875 .625 65.586 22.051 95.016ZM80.914 84.305"
       id="path46" />
    <path
       d="M22.051 95.016 .625 65.586V119.836L22.051 149.266ZM22.051 95.016"
       fill="#e4e4e4"
       id="path47" />
    <path
       stroke-width="1.252795"
       stroke-linecap="butt"
       stroke-linejoin="round"
       fill="none"
       stroke="#000000"
       stroke-opacity=".78"
       d="M22.051 95.016 .625 65.586V119.836L22.051 149.266ZM22.051 95.016"
       id="path48" />
    <path
       d="M80.914 30.059 22.051 40.77V95.016L80.914 84.305ZM80.914 30.059"
       fill="#e4e4e4"
       id="path49" />
    <path
       stroke-width="1.252795"
       stroke-linecap="butt"
       stroke-linejoin="round"
       fill="none"
       stroke="#000000"
       stroke-opacity=".78"
       d="M80.914 30.059 22.051 40.77V95.016L80.914 84.305ZM80.914 30.059"
       id="path50" />
    <path
       d="M80.914 30.059 59.488 .625 .625 11.34 22.051 40.77ZM80.914 30.059"
       fill="#e4e4e4"
       id="path51" />
    <path
       stroke-width="1.252795"
       stroke-linecap="butt"
       stroke-linejoin="round"
       fill="none"
       stroke="#000000"
       stroke-opacity=".78"
       d="M80.914 30.059 59.488 .625 .625 11.34 22.051 40.77ZM80.914 30.059"
       id="path52" />
    <path
       d="M22.051 40.77 .625 11.34V65.586L22.051 95.016ZM22.051 40.77"
       fill="#e4e4e4"
       id="path53" />
    <path
       stroke-width="1.252795"
       stroke-linecap="butt"
       stroke-linejoin="round"
       fill="none"
       stroke="#000000"
       stroke-opacity=".78"
       d="M22.051 40.77 .625 11.34V65.586L22.051 95.016ZM22.051 40.77"
       id="path54" />
    <path
       d="M627.938 214.91 569.078 225.625V279.871L627.938 269.16ZM627.938 214.91"
       fill="#e4e4e4"
       id="path55" />
    <path
       stroke-width="1.252795"
       stroke-linecap="butt"
       stroke-linejoin="round"
       fill="none"
       stroke="#000000"
       stroke-opacity=".78"
       d="M627.938 214.91 569.078 225.625V279.871L627.938 269.16ZM627.938 214.91"
       id="path56" />
    <path
       d="M627.938 214.91 606.516 185.48 547.652 196.191 569.078 225.625ZM627.938 214.91"
       fill="#e4e4e4"
       id="path57" />
    <path
       stroke-width="1.252795"
       stroke-linecap="butt"
       stroke-linejoin="round"
       fill="none"
       stroke="#000000"
       stroke-opacity=".78"
       d="M627.938 214.91 606.516 185.48 547.652 196.191 569.078 225.625ZM627.938 214.91"
       id="path58" />
    <path
       d="M569.078 225.625 547.652 196.191V250.441L569.078 279.871ZM569.078 225.625"
       fill="#e4e4e4"
       id="path59" />
    <path
       stroke-width="1.252795"
       stroke-linecap="butt"
       stroke-linejoin="round"
       fill="none"
       stroke="#000000"
       stroke-opacity=".78"
       d="M569.078 225.625 547.652 196.191V250.441L569.078 279.871ZM569.078 225.625"
       id="path60" />
    <path
       d="M569.078 225.625 510.215 236.336V290.582L569.078 279.871ZM569.078 225.625"
       fill="#e4e4e4"
       id="path61" />
    <path
       stroke-width="1.252795"
       stroke-linecap="butt"
       stroke-linejoin="round"
       fill="none"
       stroke="#000000"
       stroke-opacity=".78"
       d="M569.078 225.625 510.215 236.336V290.582L569.078 279.871ZM569.078 225.625"
       id="path62" />
    <path
       d="M569.078 225.625 547.652 196.191 488.789 206.906 510.215 236.336ZM569.078 225.625"
       fill="#e4e4e4"
       id="path63" />
    <path
       stroke-width="1.252795"
       stroke-linecap="butt"
       stroke-linejoin="round"
       fill="none"
       stroke="#000000"
       stroke-opacity=".78"
       d="M569.078 225.625 547.652 196.191 488.789 206.906 510.215 236.336ZM569.078 225.625"
       id="path64" />
    <path
       d="M510.215 236.336 488.789 206.906V261.152L510.215 290.582ZM510.215 236.336"
       fill="#e4e4e4"
       id="path65" />
    <path
       stroke-width="1.252795"
       stroke-linecap="butt"
       stroke-linejoin="round"
       fill="none"
       stroke="#000000"
       stroke-opacity=".78"
       d="M510.215 236.336 488.789 206.906V261.152L510.215 290.582ZM510.215 236.336"
       id="path66" />
    <path
       d="M627.938 160.664 569.078 171.375V225.625L627.938 214.91ZM627.938 160.664"
       fill="#e4e4e4"
       id="path67" />
    <path
       stroke-width="1.252795"
       stroke-linecap="butt"
       stroke-linejoin="round"
       fill="none"
       stroke="#000000"
       stroke-opacity=".78"
       d="M627.938 160.664 569.078 171.375V225.625L627.938 214.91ZM627.938 160.664"
       id="path68" />
    <path
       d="M627.938 160.664 606.516 131.234 547.652 141.945 569.078 171.375ZM627.938 160.664"
       fill="#e4e4e4"
       id="path69" />
    <path
       stroke-width="1.252795"
       stroke-linecap="butt"
       stroke-linejoin="round"
       fill="none"
       stroke="#000000"
       stroke-opacity=".78"
       d="M627.938 160.664 606.516 131.234 547.652 141.945 569.078 171.375ZM627.938 160.664"
       id="path70" />
    <path
       d="M569.078 171.375 547.652 141.945V196.191L569.078 225.625ZM569.078 171.375"
       fill="#e4e4e4"
       id="path71" />
    <path
       stroke-width="1.252795"
       stroke-linecap="butt"
       stroke-linejoin="round"
       fill="none"
       stroke="#000000"
       stroke-opacity=".78"
       d="M569.078 171.375 547.652 141.945V196.191L569.078 225.625ZM569.078 171.375"
       id="path72" />
    <path
       d="M569.078 171.375 510.215 182.09V236.336L569.078 225.625ZM569.078 171.375"
       fill="#e4e4e4"
       id="path73" />
    <path
       stroke-width="1.252795"
       stroke-linecap="butt"
       stroke-linejoin="round"
       fill="none"
       stroke="#000000"
       stroke-opacity=".78"
       d="M569.078 171.375 510.215 182.09V236.336L569.078 225.625ZM569.078 171.375"
       id="path74" />
    <path
       d="M569.078 171.375 547.652 141.945 488.789 152.656 510.215 182.09ZM569.078 171.375"
       fill="#e4e4e4"
       id="path75" />
    <path
       stroke-width="1.252795"
       stroke-linecap="butt"
       stroke-linejoin="round"
       fill="none"
       stroke="#000000"
       stroke-opacity=".78"
       d="M569.078 171.375 547.652 141.945 488.789 152.656 510.215 182.09ZM569.078 171.375"
       id="path76" />
    <path
       d="M510.215 182.09 488.789 152.656V206.906L510.215 236.336ZM510.215 182.09"
       fill="#e4e4e4"
       id="path77" />
    <path
       stroke-width="1.252795"
       stroke-linecap="butt"
       stroke-linejoin="round"
       fill="none"
       stroke="#000000"
       stroke-opacity=".78"
       d="M510.215 182.09 488.789 152.656V206.906L510.215 236.336ZM510.215 182.09"
       id="path78" />
    <path
       d="M627.938 106.418 569.074 117.129V171.375L627.938 160.664ZM627.938 106.418"
       fill="#e4e4e4"
       id="path79" />
    <path
       stroke-width="1.252795"
       stroke-linecap="butt"
       stroke-linejoin="round"
       fill="none"
       stroke="#000000"
       stroke-opacity=".78"
       d="M627.938 106.418 569.074 117.129V171.375L627.938 160.664ZM627.938 106.418"
       id="path80" />
    <path
       d="M627.938 106.418 606.516 76.984 547.652 87.699 569.074 117.129ZM627.938 106.418"
       fill="#e4e4e4"
       id="path81" />
    <path
       stroke-width="1.252795"
       stroke-linecap="butt"
       stroke-linejoin="round"
       fill="none"
       stroke="#000000"
       stroke-opacity=".78"
       d="M627.938 106.418 606.516 76.984 547.652 87.699 569.074 117.129ZM627.938 106.418"
       id="path82" />
    <path
       d="M569.074 117.129 547.652 87.699V141.945L569.074 171.375ZM569.074 117.129"
       fill="#e4e4e4"
       id="path83" />
    <path
       stroke-width="1.252795"
       stroke-linecap="butt"
       stroke-linejoin="round"
       fill="none"
       stroke="#000000"
       stroke-opacity=".78"
       d="M569.074 117.129 547.652 87.699V141.945L569.074 171.375ZM569.074 117.129"
       id="path84" />
    <path
       d="M569.074 117.129 510.215 127.84V182.09L569.074 171.375ZM569.074 117.129"
       fill="#e4e4e4"
       id="path85" />
    <path
       stroke-width="1.252795"
       stroke-linecap="butt"
       stroke-linejoin="round"
       fill="none"
       stroke="#000000"
       stroke-opacity=".78"
       d="M569.074 117.129 510.215 127.84V182.09L569.074 171.375ZM569.074 117.129"
       id="path86" />
    <path
       d="M569.074 117.129 547.652 87.699 488.789 98.41 510.215 127.84ZM569.074 117.129"
       fill="#e4e4e4"
       id="path87" />
    <path
       stroke-width="1.252795"
       stroke-linecap="butt"
       stroke-linejoin="round"
       fill="none"
       stroke="#000000"
       stroke-opacity=".78"
       d="M569.074 117.129 547.652 87.699 488.789 98.41 510.215 127.84ZM569.074 117.129"
       id="path88" />
    <path
       d="M510.215 127.84 488.789 98.41V152.656L510.215 182.09ZM510.215 127.84"
       fill="#e4e4e4"
       id="path89" />
    <path
       stroke-width="1.252795"
       stroke-linecap="butt"
       stroke-linejoin="round"
       fill="none"
       stroke="#000000"
       stroke-opacity=".78"
       d="M510.215 127.84 488.789 98.41V152.656L510.215 182.09ZM510.215 127.84"
       id="path90" />
    <path
       d="M510.215 236.336 451.352 247.047V301.297L510.215 290.582ZM510.215 236.336"
       fill="#e4e4e4"
       id="path91" />
    <path
       stroke-width="1.252795"
       stroke-linecap="butt"
       stroke-linejoin="round"
       fill="none"
       stroke="#000000"
       stroke-opacity=".78"
       d="M510.215 236.336 451.352 247.047V301.297L510.215 290.582ZM510.215 236.336"
       id="path92" />
    <path
       d="M510.215 236.336 488.789 206.906 429.93 217.617 451.352 247.047ZM510.215 236.336"
       fill="#e4e4e4"
       id="path93" />
    <path
       stroke-width="1.252795"
       stroke-linecap="butt"
       stroke-linejoin="round"
       fill="none"
       stroke="#000000"
       stroke-opacity=".78"
       d="M510.215 236.336 488.789 206.906 429.93 217.617 451.352 247.047ZM510.215 236.336"
       id="path94" />
    <path
       d="M451.352 247.047 429.93 217.617V271.863L451.352 301.297ZM451.352 247.047"
       fill="#e4e4e4"
       id="path95" />
    <path
       stroke-width="1.252795"
       stroke-linecap="butt"
       stroke-linejoin="round"
       fill="none"
       stroke="#000000"
       stroke-opacity=".78"
       d="M451.352 247.047 429.93 217.617V271.863L451.352 301.297ZM451.352 247.047"
       id="path96" />
    <path
       d="M510.215 182.09 451.352 192.801V247.047L510.215 236.336ZM510.215 182.09"
       fill="#e4e4e4"
       id="path97" />
    <path
       stroke-width="1.252795"
       stroke-linecap="butt"
       stroke-linejoin="round"
       fill="none"
       stroke="#000000"
       stroke-opacity=".78"
       d="M510.215 182.09 451.352 192.801V247.047L510.215 236.336ZM510.215 182.09"
       id="path98" />
    <path
       d="M510.215 182.09 488.789 152.656 429.93 163.371 451.352 192.801ZM510.215 182.09"
       fill="#e4e4e4"
       id="path99" />
    <path
       stroke-width="1.252795"
       stroke-linecap="butt"
       stroke-linejoin="round"
       fill="none"
       stroke="#000000"
       stroke-opacity=".78"
       d="M510.215 182.09 488.789 152.656 429.93 163.371 451.352 192.801ZM510.215 182.09"
       id="path100" />
    <path
       d="M451.352 192.801 429.93 163.371V217.617L451.352 247.047ZM451.352 192.801"
       fill="#e4e4e4"
       id="path101" />
    <path
       stroke-width="1.252795"
       stroke-linecap="butt"
       stroke-linejoin="round"
       fill="none"
       stroke="#000000"
       stroke-opacity=".78"
       d="M451.352 192.801 429.93 163.371V217.617L451.352 247.047ZM451.352 192.801"
       id="path102" />
    <path
       d="M510.215 127.84 451.352 138.551V192.801L510.215 182.09ZM510.215 127.84"
       fill="#e4e4e4"
       id="path103" />
    <path
       stroke-width="1.252795"
       stroke-linecap="butt"
       stroke-linejoin="round"
       fill="none"
       stroke="#000000"
       stroke-opacity=".78"
       d="M510.215 127.84 451.352 138.551V192.801L510.215 182.09ZM510.215 127.84"
       id="path104" />
    <path
       d="M510.215 127.84 488.789 98.41 429.93 109.121 451.352 138.551ZM510.215 127.84"
       fill="#e4e4e4"
       id="path105" />
    <path
       stroke-width="1.252795"
       stroke-linecap="butt"
       stroke-linejoin="round"
       fill="none"
       stroke="#000000"
       stroke-opacity=".78"
       d="M510.215 127.84 488.789 98.41 429.93 109.121 451.352 138.551ZM510.215 127.84"
       id="path106" />
    <path
       d="M451.352 138.551 429.93 109.121V163.371L451.352 192.801ZM451.352 138.551"
       fill="#e4e4e4"
       id="path107" />
    <path
       stroke-width="1.252795"
       stroke-linecap="butt"
       stroke-linejoin="round"
       fill="none"
       stroke="#000000"
       stroke-opacity=".78"
       d="M451.352 138.551 429.93 109.121V163.371L451.352 192.801ZM451.352 138.551"
       id="path108" />
    <path
       d="M1014.145 30.059 955.281 40.77V95.016L1014.145 84.305ZM1014.145 30.059"
       fill="#e4e4e4"
       id="path109" />
    <path
       stroke-width="1.252795"
       stroke-linecap="butt"
       stroke-linejoin="round"
       fill="none"
       stroke="#000000"
       stroke-opacity=".78"
       d="M1014.145 30.059 955.281 40.77V95.016L1014.145 84.305ZM1014.145 30.059"
       id="path110" />
    <path
       d="M1014.145 30.059 992.719 .625 933.855 11.34 955.281 40.77ZM1014.145 30.059"
       fill="#e4e4e4"
       id="path111" />
    <path
       stroke-width="1.252795"
       stroke-linecap="butt"
       stroke-linejoin="round"
       fill="none"
       stroke="#000000"
       stroke-opacity=".78"
       d="M1014.145 30.059 992.719 .625 933.855 11.34 955.281 40.77ZM1014.145 30.059"
       id="path112" />
    <path
       d="M955.281 40.77 933.855 11.34V65.586L955.281 95.016ZM955.281 40.77"
       fill="#e4e4e4"
       id="path113" />
    <path
       stroke-width="1.252795"
       stroke-linecap="butt"
       stroke-linejoin="round"
       fill="none"
       stroke="#000000"
       stroke-opacity=".78"
       d="M955.281 40.77 933.855 11.34V65.586L955.281 95.016ZM955.281 40.77"
       id="path114" />
    <path
       d="M1014.145 247.047 955.281 257.762V312.008L1014.145 301.297ZM1014.145 247.047"
       fill="#e4e4e4"
       id="path115" />
    <path
       stroke-width="1.252795"
       stroke-linecap="butt"
       stroke-linejoin="round"
       fill="none"
       stroke="#000000"
       stroke-opacity=".78"
       d="M1014.145 247.047 955.281 257.762V312.008L1014.145 301.297ZM1014.145 247.047"
       id="path116" />
    <path
       d="M1014.145 247.047 992.719 217.617 933.855 228.328 955.281 257.762ZM1014.145 247.047"
       fill="#e4e4e4"
       id="path117" />
    <path
       stroke-width="1.252795"
       stroke-linecap="butt"
       stroke-linejoin="round"
       fill="none"
       stroke="#000000"
       stroke-opacity=".78"
       d="M1014.145 247.047 992.719 217.617 933.855 228.328 955.281 257.762ZM1014.145 247.047"
       id="path118" />
    <path
       d="M955.281 257.762 933.855 228.328V282.578L955.281 312.008ZM955.281 257.762"
       fill="#e4e4e4"
       id="path119" />
    <path
       stroke-width="1.252795"
       stroke-linecap="butt"
       stroke-linejoin="round"
       fill="none"
       stroke="#000000"
       stroke-opacity=".78"
       d="M955.281 257.762 933.855 228.328V282.578L955.281 312.008ZM955.281 257.762"
       id="path120" />
    <path
       d="M955.281 257.762 896.418 268.473V322.719L955.281 312.008ZM955.281 257.762"
       fill="#e4e4e4"
       id="path121" />
    <path
       stroke-width="1.252795"
       stroke-linecap="butt"
       stroke-linejoin="round"
       fill="none"
       stroke="#000000"
       stroke-opacity=".78"
       d="M955.281 257.762 896.418 268.473V322.719L955.281 312.008ZM955.281 257.762"
       id="path122" />
    <path
       d="M955.281 257.762 933.855 228.328 874.996 239.043 896.418 268.473ZM955.281 257.762"
       fill="#e4e4e4"
       id="path123" />
    <path
       stroke-width="1.252795"
       stroke-linecap="butt"
       stroke-linejoin="round"
       fill="none"
       stroke="#000000"
       stroke-opacity=".78"
       d="M955.281 257.762 933.855 228.328 874.996 239.043 896.418 268.473ZM955.281 257.762"
       id="path124" />
    <path
       d="M896.418 268.473 874.996 239.043V293.289L896.418 322.719ZM896.418 268.473"
       fill="#e4e4e4"
       id="path125" />
    <path
       stroke-width="1.252795"
       stroke-linecap="butt"
       stroke-linejoin="round"
       fill="none"
       stroke="#000000"
       stroke-opacity=".78"
       d="M896.418 268.473 874.996 239.043V293.289L896.418 322.719ZM896.418 268.473"
       id="path126" />
    <path
       d="M955.281 203.512 896.418 214.227V268.473L955.281 257.762ZM955.281 203.512"
       fill="#e4e4e4"
       id="path127" />
    <path
       stroke-width="1.252795"
       stroke-linecap="butt"
       stroke-linejoin="round"
       fill="none"
       stroke="#000000"
       stroke-opacity=".78"
       d="M955.281 203.512 896.418 214.227V268.473L955.281 257.762ZM955.281 203.512"
       id="path128" />
    <path
       d="M955.281 203.512 933.855 174.082 874.996 184.793 896.418 214.227ZM955.281 203.512"
       fill="#e4e4e4"
       id="path129" />
    <path
       stroke-width="1.252795"
       stroke-linecap="butt"
       stroke-linejoin="round"
       fill="none"
       stroke="#000000"
       stroke-opacity=".78"
       d="M955.281 203.512 933.855 174.082 874.996 184.793 896.418 214.227ZM955.281 203.512"
       id="path130" />
    <path
       d="M896.418 214.227 874.996 184.793V239.043L896.418 268.473ZM896.418 214.227"
       fill="#e4e4e4"
       id="path131" />
    <path
       stroke-width="1.252795"
       stroke-linecap="butt"
       stroke-linejoin="round"
       fill="none"
       stroke="#000000"
       stroke-opacity=".78"
       d="M896.418 214.227 874.996 184.793V239.043L896.418 268.473ZM896.418 214.227"
       id="path132" />
    <path
       d="M896.418 268.473 837.559 279.184V333.434L896.418 322.719ZM896.418 268.473"
       fill="#e4e4e4"
       id="path133" />
    <path
       stroke-width="1.252795"
       stroke-linecap="butt"
       stroke-linejoin="round"
       fill="none"
       stroke="#000000"
       stroke-opacity=".78"
       d="M896.418 268.473 837.559 279.184V333.434L896.418 322.719ZM896.418 268.473"
       id="path134" />
    <path
       d="M896.418 268.473 874.996 239.043 816.133 249.754 837.559 279.184ZM896.418 268.473"
       fill="#e4e4e4"
       id="path135" />
    <path
       stroke-width="1.252795"
       stroke-linecap="butt"
       stroke-linejoin="round"
       fill="none"
       stroke="#000000"
       stroke-opacity=".78"
       d="M896.418 268.473 874.996 239.043 816.133 249.754 837.559 279.184ZM896.418 268.473"
       id="path136" />
    <path
       d="M837.559 279.184 816.133 249.754V304L837.559 333.434ZM837.559 279.184"
       fill="#e4e4e4"
       id="path137" />
    <path
       stroke-width="1.252795"
       stroke-linecap="butt"
       stroke-linejoin="round"
       fill="none"
       stroke="#000000"
       stroke-opacity=".78"
       d="M837.559 279.184 816.133 249.754V304L837.559 333.434ZM837.559 279.184"
       id="path138" />
    <path
       d="M955.281 149.266 896.418 159.977V214.227L955.281 203.512ZM955.281 149.266"
       fill="#e4e4e4"
       id="path139" />
    <path
       stroke-width="1.252795"
       stroke-linecap="butt"
       stroke-linejoin="round"
       fill="none"
       stroke="#000000"
       stroke-opacity=".78"
       d="M955.281 149.266 896.418 159.977V214.227L955.281 203.512ZM955.281 149.266"
       id="path140" />
    <path
       d="M955.281 149.266 933.855 119.836 874.996 130.547 896.418 159.977ZM955.281 149.266"
       fill="#e4e4e4"
       id="path141" />
    <path
       stroke-width="1.252795"
       stroke-linecap="butt"
       stroke-linejoin="round"
       fill="none"
       stroke="#000000"
       stroke-opacity=".78"
       d="M955.281 149.266 933.855 119.836 874.996 130.547 896.418 159.977ZM955.281 149.266"
       id="path142" />
    <path
       d="M896.418 159.977 874.996 130.547V184.793L896.418 214.227ZM896.418 159.977"
       fill="#e4e4e4"
       id="path143" />
    <path
       stroke-width="1.252795"
       stroke-linecap="butt"
       stroke-linejoin="round"
       fill="none"
       stroke="#000000"
       stroke-opacity=".78"
       d="M896.418 159.977 874.996 130.547V184.793L896.418 214.227ZM896.418 159.977"
       id="path144" />
    <path
       d="M955.281 95.016 896.418 105.73V159.977L955.281 149.266ZM955.281 95.016"
       fill="#e4e4e4"
       id="path145" />
    <path
       stroke-width="1.252795"
       stroke-linecap="butt"
       stroke-linejoin="round"
       fill="none"
       stroke="#000000"
       stroke-opacity=".78"
       d="M955.281 95.016 896.418 105.73V159.977L955.281 149.266ZM955.281 95.016"
       id="path146" />
    <path
       d="M955.281 95.016 933.855 65.586 874.996 76.297 896.418 105.73ZM955.281 95.016"
       fill="#e4e4e4"
       id="path147" />
    <path
       stroke-width="1.252795"
       stroke-linecap="butt"
       stroke-linejoin="round"
       fill="none"
       stroke="#000000"
       stroke-opacity=".78"
       d="M955.281 95.016 933.855 65.586 874.996 76.297 896.418 105.73ZM955.281 95.016"
       id="path148" />
    <path
       d="M896.418 105.73 874.996 76.297V130.547L896.418 159.977ZM896.418 105.73"
       fill="#e4e4e4"
       id="path149" />
    <path
       stroke-width="1.252795"
       stroke-linecap="butt"
       stroke-linejoin="round"
       fill="none"
       stroke="#000000"
       stroke-opacity=".78"
       d="M896.418 105.73 874.996 76.297V130.547L896.418 159.977ZM896.418 105.73"
       id="path150" />
    <path
       d="M955.281 40.77 896.418 51.48V105.73L955.281 95.016ZM955.281 40.77"
       fill="#e4e4e4"
       id="path151" />
    <path
       stroke-width="1.252795"
       stroke-linecap="butt"
       stroke-linejoin="round"
       fill="none"
       stroke="#000000"
       stroke-opacity=".78"
       d="M955.281 40.77 896.418 51.48V105.73L955.281 95.016ZM955.281 40.77"
       id="path152" />
    <path
       d="M955.281 40.77 933.855 11.34 874.996 22.051 896.418 51.48ZM955.281 40.77"
       fill="#e4e4e4"
       id="path153" />
    <path
       stroke-width="1.252795"
       stroke-linecap="butt"
       stroke-linejoin="round"
       fill="none"
       stroke="#000000"
       stroke-opacity=".78"
       d="M955.281 40.77 933.855 11.34 874.996 22.051 896.418 51.48ZM955.281 40.77"
       id="path154" />
    <path
       d="M896.418 51.48 874.996 22.051V76.297L896.418 105.73ZM896.418 51.48"
       fill="#e4e4e4"
       id="path155" />
    <path
       stroke-width="1.252795"
       stroke-linecap="butt"
       stroke-linejoin="round"
       fill="none"
       stroke="#000000"
       stroke-opacity=".78"
       d="M896.418 51.48 874.996 22.051V76.297L896.418 105.73ZM896.418 51.48"
       id="path156" />
    <path
       d="M896.418 51.48 837.559 62.195V116.441L896.418 105.73ZM896.418 51.48"
       fill="#e4e4e4"
       id="path157" />
    <path
       stroke-width="1.252795"
       stroke-linecap="butt"
       stroke-linejoin="round"
       fill="none"
       stroke="#000000"
       stroke-opacity=".78"
       d="M896.418 51.48 837.559 62.195V116.441L896.418 105.73ZM896.418 51.48"
       id="path158" />
    <path
       d="M896.418 51.48 874.996 22.051 816.133 32.762 837.559 62.195ZM896.418 51.48"
       fill="#e4e4e4"
       id="path159" />
    <path
       stroke-width="1.252795"
       stroke-linecap="butt"
       stroke-linejoin="round"
       fill="none"
       stroke="#000000"
       stroke-opacity=".78"
       d="M896.418 51.48 874.996 22.051 816.133 32.762 837.559 62.195ZM896.418 51.48"
       id="path160" />
    <path
       d="M837.559 62.195 816.133 32.762V87.012L837.559 116.441ZM837.559 62.195"
       fill="#e4e4e4"
       id="path161" />
    <path
       stroke-width="1.252795"
       stroke-linecap="butt"
       stroke-linejoin="round"
       fill="none"
       stroke="#000000"
       stroke-opacity=".78"
       d="M837.559 62.195 816.133 32.762V87.012L837.559 116.441ZM837.559 62.195"
       id="path162" />
    <path
       stroke-width="3.509291"
       stroke-linecap="butt"
       stroke-miterlimit="4"
       stroke-linejoin="miter"
       fill="none"
       stroke="#000000"
       d="M239.582 182.715H362.66"
       id="path163"
       style="fill:#ffffff;stroke:#ffffff" />
    <path
       d="M370.883 182.715 358.559 189.84V175.59ZM370.883 182.715"
       fill-rule="evenodd"
       id="path164" />
    <path
       stroke-width="1.899952"
       stroke-linecap="butt"
       stroke-miterlimit="4"
       stroke-linejoin="miter"
       fill="none"
       stroke="#000000"
       d="M370.883 182.715 358.559 189.84V175.59ZM370.883 182.715"
       id="path165"
       style="fill:#ffffff;stroke:#ffffff" />
    <path
       stroke-width="3.509291"
       stroke-linecap="butt"
       stroke-miterlimit="4"
       stroke-linejoin="miter"
       fill="none"
       stroke="#000000"
       d="M664.75 182.715H787.824"
       id="path166"
       style="fill:#ffffff;stroke:#ffffff" />
    <path
       d="M796.047 182.715 783.723 189.84V175.59ZM796.047 182.715"
       fill-rule="evenodd"
       id="path167" />
    <path
       stroke-width="1.899952"
       stroke-linecap="butt"
       stroke-miterlimit="4"
       stroke-linejoin="miter"
       fill="none"
       stroke="#000000"
       d="M796.047 182.715 783.723 189.84V175.59ZM796.047 182.715"
       id="path168"
       style="fill:#ffffff;stroke:#ffffff" />
  </g>
</svg>
