<?xml version="1.0" encoding="UTF-8" standalone="no"?>
<svg
   version="1.1"
   width="167.58002"
   height="208.04906"
   viewBox="0 0 167.58002 208.04906"
   id="svg348"
   xmlns="http://www.w3.org/2000/svg"
   xmlns:svg="http://www.w3.org/2000/svg">
  <defs
     id="defs348" />
  <g
     id="g348-1-72"
     transform="translate(93.148015,95.400985)">
    <path
       d="m 74.19049,62.588491 -22.691,4.129 v 20.914 l 22.691,-4.128 z m 0,0"
       fill="#cccccc"
       id="path343-8-7-2" />
    <path
       stroke-width="0.482987"
       stroke-linecap="butt"
       stroke-linejoin="round"
       fill="none"
       stroke="#000000"
       stroke-opacity="0.78"
       d="m 74.19049,62.588491 -22.691,4.129 v 20.914 l 22.691,-4.128 z m 0,0"
       id="path344-8-1-9" />
    <path
       d="m 74.19049,62.588491 -8.257,-11.347 -22.692,4.129 8.258,11.347 z m 0,0"
       fill="#cccccc"
       id="path345-2-1-4" />
    <path
       stroke-width="0.482987"
       stroke-linecap="butt"
       stroke-linejoin="round"
       fill="none"
       stroke="#000000"
       stroke-opacity="0.78"
       d="m 74.19049,62.588491 -8.257,-11.347 -22.692,4.129 8.258,11.347 z m 0,0"
       id="path346-4-5-1" />
    <path
       d="m 51.49949,66.717491 -8.258,-11.347 v 20.914 l 8.258,11.347 z m 0,0"
       fill="#cccccc"
       id="path347-5-2-96" />
    <path
       stroke-width="0.482987"
       stroke-linecap="butt"
       stroke-linejoin="round"
       fill="none"
       stroke="#000000"
       stroke-opacity="0.78"
       d="m 51.49949,66.717491 -8.258,-11.347 v 20.914 l 8.258,11.347 z m 0,0"
       id="path348-5-7-9" />
  </g>
  <g
     id="g348-68-82"
     transform="translate(70.457015,99.529985)">
    <path
       d="m 74.19049,62.588491 -22.691,4.129 v 20.914 l 22.691,-4.128 z m 0,0"
       fill="#cccccc"
       id="path343-8-5-5" />
    <path
       stroke-width="0.482987"
       stroke-linecap="butt"
       stroke-linejoin="round"
       fill="none"
       stroke="#000000"
       stroke-opacity="0.78"
       d="m 74.19049,62.588491 -22.691,4.129 v 20.914 l 22.691,-4.128 z m 0,0"
       id="path344-8-7-54" />
    <path
       d="m 74.19049,62.588491 -8.257,-11.347 -22.692,4.129 8.258,11.347 z m 0,0"
       fill="#cccccc"
       id="path345-2-6-9" />
    <path
       stroke-width="0.482987"
       stroke-linecap="butt"
       stroke-linejoin="round"
       fill="none"
       stroke="#000000"
       stroke-opacity="0.78"
       d="m 74.19049,62.588491 -8.257,-11.347 -22.692,4.129 8.258,11.347 z m 0,0"
       id="path346-4-1-1" />
    <path
       d="m 51.49949,66.717491 -8.258,-11.347 v 20.914 l 8.258,11.347 z m 0,0"
       fill="#cccccc"
       id="path347-5-8-25" />
    <path
       stroke-width="0.482987"
       stroke-linecap="butt"
       stroke-linejoin="round"
       fill="none"
       stroke="#000000"
       stroke-opacity="0.78"
       d="m 51.49949,66.717491 -8.258,-11.347 v 20.914 l 8.258,11.347 z m 0,0"
       id="path348-5-9-0" />
  </g>
  <g
     id="g348-2-83"
     transform="translate(47.765515,103.65899)">
    <path
       d="m 74.19049,62.588491 -22.691,4.129 v 20.914 l 22.691,-4.128 z m 0,0"
       fill="#cccccc"
       id="path343-8-79-9" />
    <path
       stroke-width="0.482987"
       stroke-linecap="butt"
       stroke-linejoin="round"
       fill="none"
       stroke="#000000"
       stroke-opacity="0.78"
       d="m 74.19049,62.588491 -22.691,4.129 v 20.914 l 22.691,-4.128 z m 0,0"
       id="path344-8-5-3" />
    <path
       d="m 74.19049,62.588491 -8.257,-11.347 -22.692,4.129 8.258,11.347 z m 0,0"
       fill="#cccccc"
       id="path345-2-4-9" />
    <path
       stroke-width="0.482987"
       stroke-linecap="butt"
       stroke-linejoin="round"
       fill="none"
       stroke="#000000"
       stroke-opacity="0.78"
       d="m 74.19049,62.588491 -8.257,-11.347 -22.692,4.129 8.258,11.347 z m 0,0"
       id="path346-4-31-67" />
    <path
       d="m 51.49949,66.717491 -8.258,-11.347 v 20.914 l 8.258,11.347 z m 0,0"
       fill="#cccccc"
       id="path347-5-23-99" />
    <path
       stroke-width="0.482987"
       stroke-linecap="butt"
       stroke-linejoin="round"
       fill="none"
       stroke="#000000"
       stroke-opacity="0.78"
       d="m 51.49949,66.717491 -8.258,-11.347 v 20.914 l 8.258,11.347 z m 0,0"
       id="path348-5-3-76" />
  </g>
  <g
     id="g348-1-2"
     transform="translate(25.074515,107.78799)">
    <path
       d="m 74.19049,62.588491 -22.691,4.129 v 20.914 l 22.691,-4.128 z m 0,0"
       fill="#cccccc"
       id="path343-8-7-1" />
    <path
       stroke-width="0.482987"
       stroke-linecap="butt"
       stroke-linejoin="round"
       fill="none"
       stroke="#000000"
       stroke-opacity="0.78"
       d="m 74.19049,62.588491 -22.691,4.129 v 20.914 l 22.691,-4.128 z m 0,0"
       id="path344-8-1-19" />
    <path
       d="m 74.19049,62.588491 -8.257,-11.347 -22.692,4.129 8.258,11.347 z m 0,0"
       fill="#cccccc"
       id="path345-2-1-7" />
    <path
       stroke-width="0.482987"
       stroke-linecap="butt"
       stroke-linejoin="round"
       fill="none"
       stroke="#000000"
       stroke-opacity="0.78"
       d="m 74.19049,62.588491 -8.257,-11.347 -22.692,4.129 8.258,11.347 z m 0,0"
       id="path346-4-5-62" />
    <path
       d="m 51.49949,66.717491 -8.258,-11.347 v 20.914 l 8.258,11.347 z m 0,0"
       fill="#cccccc"
       id="path347-5-2-95" />
    <path
       stroke-width="0.482987"
       stroke-linecap="butt"
       stroke-linejoin="round"
       fill="none"
       stroke="#000000"
       stroke-opacity="0.78"
       d="m 51.49949,66.717491 -8.258,-11.347 v 20.914 l 8.258,11.347 z m 0,0"
       id="path348-5-7-20" />
  </g>
  <g
     id="g348-7-7-5-34-9-3"
     transform="translate(-31.888445,92.888835)">
    <path
       d="m 131.15345,56.572641 -22.691,4.129 v 20.914 l 22.691,-4.128 z m 0,0"
       fill="#cccccc"
       id="path343-8-793-7-0-2-7-2" />
    <path
       stroke-width="0.482987"
       stroke-linecap="butt"
       stroke-linejoin="round"
       fill="none"
       stroke="#000000"
       stroke-opacity="0.78"
       d="m 131.15345,56.572641 -22.691,4.129 v 20.914 l 22.691,-4.128 z m 0,0"
       id="path344-8-19-8-36-8-5-5" />
    <path
       d="m 131.15345,56.572641 -8.257,-11.347 -22.692,4.129 8.258,11.347 z m 0,0"
       fill="#cccccc"
       id="path345-2-86-3-4-8-34-3" />
    <path
       stroke-width="0.482987"
       stroke-linecap="butt"
       stroke-linejoin="round"
       fill="none"
       stroke="#000000"
       stroke-opacity="0.78"
       d="m 131.15345,56.572641 -8.257,-11.347 -22.692,4.129 8.258,11.347 z m 0,0"
       id="path346-4-50-8-9-7-32-5" />
    <path
       d="m 108.46245,60.701641 -8.258,-11.347 v 20.914 l 8.258,11.347 z m 0,0"
       fill="#cccccc"
       id="path347-5-28-3-2-5-1-1" />
    <path
       stroke-width="0.482987"
       stroke-linecap="butt"
       stroke-linejoin="round"
       fill="none"
       stroke="#000000"
       stroke-opacity="0.78"
       d="m 108.46245,60.701641 -8.258,-11.347 v 20.914 l 8.258,11.347 z m 0,0"
       id="path348-5-6-7-9-8-1-2" />
  </g>
  <g
     id="g348-7-7-5-34-9-3-4-1"
     transform="translate(-9.1974452,67.845835)">
    <path
       d="m 131.15345,56.572641 -22.691,4.129 v 20.914 l 22.691,-4.128 z m 0,0"
       fill="#cccccc"
       id="path343-8-793-7-0-2-7-2-9-6" />
    <path
       stroke-width="0.482987"
       stroke-linecap="butt"
       stroke-linejoin="round"
       fill="none"
       stroke="#000000"
       stroke-opacity="0.78"
       d="m 131.15345,56.572641 -22.691,4.129 v 20.914 l 22.691,-4.128 z m 0,0"
       id="path344-8-19-8-36-8-5-5-5-8" />
    <path
       d="m 131.15345,56.572641 -8.257,-11.347 -22.692,4.129 8.258,11.347 z m 0,0"
       fill="#cccccc"
       id="path345-2-86-3-4-8-34-3-6-3" />
    <path
       stroke-width="0.482987"
       stroke-linecap="butt"
       stroke-linejoin="round"
       fill="none"
       stroke="#000000"
       stroke-opacity="0.78"
       d="m 131.15345,56.572641 -8.257,-11.347 -22.692,4.129 8.258,11.347 z m 0,0"
       id="path346-4-50-8-9-7-32-5-4-1" />
    <path
       d="m 108.46245,60.701641 -8.258,-11.347 v 20.914 l 8.258,11.347 z m 0,0"
       fill="#cccccc"
       id="path347-5-28-3-2-5-1-1-8-4" />
    <path
       stroke-width="0.482987"
       stroke-linecap="butt"
       stroke-linejoin="round"
       fill="none"
       stroke="#000000"
       stroke-opacity="0.78"
       d="m 108.46245,60.701641 -8.258,-11.347 v 20.914 l 8.258,11.347 z m 0,0"
       id="path348-5-6-7-9-8-1-2-2-8" />
  </g>
  <g
     id="g348-7-7-5-34-9-3-4"
     transform="translate(-31.888445,71.974335)">
    <path
       d="m 131.15345,56.572641 -22.691,4.129 v 20.914 l 22.691,-4.128 z m 0,0"
       fill="#cccccc"
       id="path343-8-793-7-0-2-7-2-9" />
    <path
       stroke-width="0.482987"
       stroke-linecap="butt"
       stroke-linejoin="round"
       fill="none"
       stroke="#000000"
       stroke-opacity="0.78"
       d="m 131.15345,56.572641 -22.691,4.129 v 20.914 l 22.691,-4.128 z m 0,0"
       id="path344-8-19-8-36-8-5-5-5" />
    <path
       d="m 131.15345,56.572641 -8.257,-11.347 -22.692,4.129 8.258,11.347 z m 0,0"
       fill="#cccccc"
       id="path345-2-86-3-4-8-34-3-6" />
    <path
       stroke-width="0.482987"
       stroke-linecap="butt"
       stroke-linejoin="round"
       fill="none"
       stroke="#000000"
       stroke-opacity="0.78"
       d="m 131.15345,56.572641 -8.257,-11.347 -22.692,4.129 8.258,11.347 z m 0,0"
       id="path346-4-50-8-9-7-32-5-4" />
    <path
       d="m 108.46245,60.701641 -8.258,-11.347 v 20.914 l 8.258,11.347 z m 0,0"
       fill="#cccccc"
       id="path347-5-28-3-2-5-1-1-8" />
    <path
       stroke-width="0.482987"
       stroke-linecap="butt"
       stroke-linejoin="round"
       fill="none"
       stroke="#000000"
       stroke-opacity="0.78"
       d="m 108.46245,60.701641 -8.258,-11.347 v 20.914 l 8.258,11.347 z m 0,0"
       id="path348-5-6-7-9-8-1-2-2" />
  </g>
  <g
     id="g348-7-7-5-34-9-3-4-4"
     transform="translate(-54.579445,76.102835)">
    <path
       d="m 131.15345,56.572641 -22.691,4.129 v 20.914 l 22.691,-4.128 z m 0,0"
       fill="#cccccc"
       id="path343-8-793-7-0-2-7-2-9-9" />
    <path
       stroke-width="0.482987"
       stroke-linecap="butt"
       stroke-linejoin="round"
       fill="none"
       stroke="#000000"
       stroke-opacity="0.78"
       d="m 131.15345,56.572641 -22.691,4.129 v 20.914 l 22.691,-4.128 z m 0,0"
       id="path344-8-19-8-36-8-5-5-5-2" />
    <path
       d="m 131.15345,56.572641 -8.257,-11.347 -22.692,4.129 8.258,11.347 z m 0,0"
       fill="#cccccc"
       id="path345-2-86-3-4-8-34-3-6-0" />
    <path
       stroke-width="0.482987"
       stroke-linecap="butt"
       stroke-linejoin="round"
       fill="none"
       stroke="#000000"
       stroke-opacity="0.78"
       d="m 131.15345,56.572641 -8.257,-11.347 -22.692,4.129 8.258,11.347 z m 0,0"
       id="path346-4-50-8-9-7-32-5-4-7" />
    <path
       d="m 108.46245,60.701641 -8.258,-11.347 v 20.914 l 8.258,11.347 z m 0,0"
       fill="#cccccc"
       id="path347-5-28-3-2-5-1-1-8-0" />
    <path
       stroke-width="0.482987"
       stroke-linecap="butt"
       stroke-linejoin="round"
       fill="none"
       stroke="#000000"
       stroke-opacity="0.78"
       d="m 108.46245,60.701641 -8.258,-11.347 v 20.914 l 8.258,11.347 z m 0,0"
       id="path348-5-6-7-9-8-1-2-2-6" />
  </g>
  <g
     id="g348-7-7-5-34-9-3-4-0"
     transform="translate(-54.579445,55.188335)">
    <path
       d="m 131.15345,56.572641 -22.691,4.129 v 20.914 l 22.691,-4.128 z m 0,0"
       fill="#cccccc"
       id="path343-8-793-7-0-2-7-2-9-7" />
    <path
       stroke-width="0.482987"
       stroke-linecap="butt"
       stroke-linejoin="round"
       fill="none"
       stroke="#000000"
       stroke-opacity="0.78"
       d="m 131.15345,56.572641 -22.691,4.129 v 20.914 l 22.691,-4.128 z m 0,0"
       id="path344-8-19-8-36-8-5-5-5-0" />
    <path
       d="m 131.15345,56.572641 -8.257,-11.347 -22.692,4.129 8.258,11.347 z m 0,0"
       fill="#cccccc"
       id="path345-2-86-3-4-8-34-3-6-5" />
    <path
       stroke-width="0.482987"
       stroke-linecap="butt"
       stroke-linejoin="round"
       fill="none"
       stroke="#000000"
       stroke-opacity="0.78"
       d="m 131.15345,56.572641 -8.257,-11.347 -22.692,4.129 8.258,11.347 z m 0,0"
       id="path346-4-50-8-9-7-32-5-4-6" />
    <path
       d="m 108.46245,60.701641 -8.258,-11.347 v 20.914 l 8.258,11.347 z m 0,0"
       fill="#cccccc"
       id="path347-5-28-3-2-5-1-1-8-7" />
    <path
       stroke-width="0.482987"
       stroke-linecap="butt"
       stroke-linejoin="round"
       fill="none"
       stroke="#000000"
       stroke-opacity="0.78"
       d="m 108.46245,60.701641 -8.258,-11.347 v 20.914 l 8.258,11.347 z m 0,0"
       id="path348-5-6-7-9-8-1-2-2-3" />
  </g>
  <g
     id="g348-68-0"
     transform="translate(2.3835118,111.91699)">
    <path
       d="m 74.19049,62.588491 -22.691,4.129 v 20.914 l 22.691,-4.128 z m 0,0"
       fill="#cccccc"
       id="path343-8-5-3" />
    <path
       stroke-width="0.482987"
       stroke-linecap="butt"
       stroke-linejoin="round"
       fill="none"
       stroke="#000000"
       stroke-opacity="0.78"
       d="m 74.19049,62.588491 -22.691,4.129 v 20.914 l 22.691,-4.128 z m 0,0"
       id="path344-8-7-91" />
    <path
       d="m 74.19049,62.588491 -8.257,-11.347 -22.692,4.129 8.258,11.347 z m 0,0"
       fill="#cccccc"
       id="path345-2-6-81" />
    <path
       stroke-width="0.482987"
       stroke-linecap="butt"
       stroke-linejoin="round"
       fill="none"
       stroke="#000000"
       stroke-opacity="0.78"
       d="m 74.19049,62.588491 -8.257,-11.347 -22.692,4.129 8.258,11.347 z m 0,0"
       id="path346-4-1-9" />
    <path
       d="m 51.49949,66.717491 -8.258,-11.347 v 20.914 l 8.258,11.347 z m 0,0"
       fill="#cccccc"
       id="path347-5-8-5" />
    <path
       stroke-width="0.482987"
       stroke-linecap="butt"
       stroke-linejoin="round"
       fill="none"
       stroke="#000000"
       stroke-opacity="0.78"
       d="m 51.49949,66.717491 -8.258,-11.347 v 20.914 l 8.258,11.347 z m 0,0"
       id="path348-5-9-3" />
  </g>
  <g
     id="g348-68-0-1"
     transform="translate(-20.307991,116.04599)">
    <path
       d="m 74.19049,62.588491 -22.691,4.129 v 20.914 l 22.691,-4.128 z m 0,0"
       fill="#cccccc"
       id="path343-8-5-3-2" />
    <path
       stroke-width="0.482987"
       stroke-linecap="butt"
       stroke-linejoin="round"
       fill="none"
       stroke="#000000"
       stroke-opacity="0.78"
       d="m 74.19049,62.588491 -22.691,4.129 v 20.914 l 22.691,-4.128 z m 0,0"
       id="path344-8-7-91-5" />
    <path
       d="m 74.19049,62.588491 -8.257,-11.347 -22.692,4.129 8.258,11.347 z m 0,0"
       fill="#cccccc"
       id="path345-2-6-81-7" />
    <path
       stroke-width="0.482987"
       stroke-linecap="butt"
       stroke-linejoin="round"
       fill="none"
       stroke="#000000"
       stroke-opacity="0.78"
       d="m 74.19049,62.588491 -8.257,-11.347 -22.692,4.129 8.258,11.347 z m 0,0"
       id="path346-4-1-9-4" />
    <path
       d="m 51.49949,66.717491 -8.258,-11.347 v 20.914 l 8.258,11.347 z m 0,0"
       fill="#cccccc"
       id="path347-5-8-5-4" />
    <path
       stroke-width="0.482987"
       stroke-linecap="butt"
       stroke-linejoin="round"
       fill="none"
       stroke="#000000"
       stroke-opacity="0.78"
       d="m 51.49949,66.717491 -8.258,-11.347 v 20.914 l 8.258,11.347 z m 0,0"
       id="path348-5-9-3-4" />
  </g>
  <g
     id="g348-2-2"
     transform="translate(-42.999995,120.17604)">
    <path
       d="m 74.19049,62.588491 -22.691,4.129 v 20.914 l 22.691,-4.128 z m 0,0"
       fill="#cccccc"
       id="path343-8-79-5" />
    <path
       stroke-width="0.482987"
       stroke-linecap="butt"
       stroke-linejoin="round"
       fill="none"
       stroke="#000000"
       stroke-opacity="0.78"
       d="m 74.19049,62.588491 -22.691,4.129 v 20.914 l 22.691,-4.128 z m 0,0"
       id="path344-8-5-2" />
    <path
       d="m 74.19049,62.588491 -8.257,-11.347 -22.692,4.129 8.258,11.347 z m 0,0"
       fill="#cccccc"
       id="path345-2-4-5" />
    <path
       stroke-width="0.482987"
       stroke-linecap="butt"
       stroke-linejoin="round"
       fill="none"
       stroke="#000000"
       stroke-opacity="0.78"
       d="m 74.19049,62.588491 -8.257,-11.347 -22.692,4.129 8.258,11.347 z m 0,0"
       id="path346-4-31-8" />
    <path
       d="m 51.49949,66.717491 -8.258,-11.347 v 20.914 l 8.258,11.347 z m 0,0"
       fill="#cccccc"
       id="path347-5-23-6" />
    <path
       stroke-width="0.482987"
       stroke-linecap="butt"
       stroke-linejoin="round"
       fill="none"
       stroke="#000000"
       stroke-opacity="0.78"
       d="m 51.49949,66.717491 -8.258,-11.347 v 20.914 l 8.258,11.347 z m 0,0"
       id="path348-5-3-7" />
  </g>
  <g
     id="g348-7-5-4"
     transform="translate(-42.999988,99.261035)">
    <path
       d="m 74.19049,62.588491 -22.691,4.129 v 20.914 l 22.691,-4.128 z m 0,0"
       fill="#cccccc"
       id="path343-8-793-1-0" />
    <path
       stroke-width="0.482987"
       stroke-linecap="butt"
       stroke-linejoin="round"
       fill="none"
       stroke="#000000"
       stroke-opacity="0.78"
       d="m 74.19049,62.588491 -22.691,4.129 v 20.914 l 22.691,-4.128 z m 0,0"
       id="path344-8-19-2-0" />
    <path
       d="m 74.19049,62.588491 -8.257,-11.347 -22.692,4.129 8.258,11.347 z m 0,0"
       fill="#cccccc"
       id="path345-2-86-0-5" />
    <path
       stroke-width="0.482987"
       stroke-linecap="butt"
       stroke-linejoin="round"
       fill="none"
       stroke="#000000"
       stroke-opacity="0.78"
       d="m 74.19049,62.588491 -8.257,-11.347 -22.692,4.129 8.258,11.347 z m 0,0"
       id="path346-4-50-1-3" />
    <path
       d="m 51.49949,66.717491 -8.258,-11.347 v 20.914 l 8.258,11.347 z m 0,0"
       fill="#cccccc"
       id="path347-5-28-6-1" />
    <path
       stroke-width="0.482987"
       stroke-linecap="butt"
       stroke-linejoin="round"
       fill="none"
       stroke="#000000"
       stroke-opacity="0.78"
       d="m 51.49949,66.717491 -8.258,-11.347 v 20.914 l 8.258,11.347 z m 0,0"
       id="path348-5-6-4-0" />
  </g>
  <g
     id="g348-2-0-9-6"
     transform="translate(93.148015,74.486485)">
    <path
       d="m 74.19049,62.588491 -22.691,4.129 v 20.914 l 22.691,-4.128 z m 0,0"
       fill="#cccccc"
       id="path343-8-79-6-3-7" />
    <path
       stroke-width="0.482987"
       stroke-linecap="butt"
       stroke-linejoin="round"
       fill="none"
       stroke="#000000"
       stroke-opacity="0.78"
       d="m 74.19049,62.588491 -22.691,4.129 v 20.914 l 22.691,-4.128 z m 0,0"
       id="path344-8-5-1-5-5" />
    <path
       d="m 74.19049,62.588491 -8.257,-11.347 -22.692,4.129 8.258,11.347 z m 0,0"
       fill="#cccccc"
       id="path345-2-4-8-7-0" />
    <path
       stroke-width="0.482987"
       stroke-linecap="butt"
       stroke-linejoin="round"
       fill="none"
       stroke="#000000"
       stroke-opacity="0.78"
       d="m 74.19049,62.588491 -8.257,-11.347 -22.692,4.129 8.258,11.347 z m 0,0"
       id="path346-4-31-9-6-0" />
    <path
       d="m 51.49949,66.717491 -8.258,-11.347 v 20.914 l 8.258,11.347 z m 0,0"
       fill="#cccccc"
       id="path347-5-23-8-6-4" />
    <path
       stroke-width="0.482987"
       stroke-linecap="butt"
       stroke-linejoin="round"
       fill="none"
       stroke="#000000"
       stroke-opacity="0.78"
       d="m 51.49949,66.717491 -8.258,-11.347 v 20.914 l 8.258,11.347 z m 0,0"
       id="path348-5-3-4-5-5" />
  </g>
  <g
     id="g348-7-5"
     transform="translate(-42.999988,78.346535)">
    <path
       d="m 74.19049,62.588491 -22.691,4.129 v 20.914 l 22.691,-4.128 z m 0,0"
       fill="#cccccc"
       id="path343-8-793-1" />
    <path
       stroke-width="0.482987"
       stroke-linecap="butt"
       stroke-linejoin="round"
       fill="none"
       stroke="#000000"
       stroke-opacity="0.78"
       d="m 74.19049,62.588491 -22.691,4.129 v 20.914 l 22.691,-4.128 z m 0,0"
       id="path344-8-19-2" />
    <path
       d="m 74.19049,62.588491 -8.257,-11.347 -22.692,4.129 8.258,11.347 z m 0,0"
       fill="#cccccc"
       id="path345-2-86-0" />
    <path
       stroke-width="0.482987"
       stroke-linecap="butt"
       stroke-linejoin="round"
       fill="none"
       stroke="#000000"
       stroke-opacity="0.78"
       d="m 74.19049,62.588491 -8.257,-11.347 -22.692,4.129 8.258,11.347 z m 0,0"
       id="path346-4-50-1" />
    <path
       d="m 51.49949,66.717491 -8.258,-11.347 v 20.914 l 8.258,11.347 z m 0,0"
       fill="#cccccc"
       id="path347-5-28-6" />
    <path
       stroke-width="0.482987"
       stroke-linecap="butt"
       stroke-linejoin="round"
       fill="none"
       stroke="#000000"
       stroke-opacity="0.78"
       d="m 51.49949,66.717491 -8.258,-11.347 v 20.914 l 8.258,11.347 z m 0,0"
       id="path348-5-6-4" />
  </g>
  <g
     id="g348-2-0"
     transform="translate(-42.999988,57.432035)">
    <path
       d="m 74.19049,62.588491 -22.691,4.129 v 20.914 l 22.691,-4.128 z m 0,0"
       fill="#cccccc"
       id="path343-8-79-6" />
    <path
       stroke-width="0.482987"
       stroke-linecap="butt"
       stroke-linejoin="round"
       fill="none"
       stroke="#000000"
       stroke-opacity="0.78"
       d="m 74.19049,62.588491 -22.691,4.129 v 20.914 l 22.691,-4.128 z m 0,0"
       id="path344-8-5-1" />
    <path
       d="m 74.19049,62.588491 -8.257,-11.347 -22.692,4.129 8.258,11.347 z m 0,0"
       fill="#cccccc"
       id="path345-2-4-8" />
    <path
       stroke-width="0.482987"
       stroke-linecap="butt"
       stroke-linejoin="round"
       fill="none"
       stroke="#000000"
       stroke-opacity="0.78"
       d="m 74.19049,62.588491 -8.257,-11.347 -22.692,4.129 8.258,11.347 z m 0,0"
       id="path346-4-31-9" />
    <path
       d="m 51.49949,66.717491 -8.258,-11.347 v 20.914 l 8.258,11.347 z m 0,0"
       fill="#cccccc"
       id="path347-5-23-8" />
    <path
       stroke-width="0.482987"
       stroke-linecap="butt"
       stroke-linejoin="round"
       fill="none"
       stroke="#000000"
       stroke-opacity="0.78"
       d="m 51.49949,66.717491 -8.258,-11.347 v 20.914 l 8.258,11.347 z m 0,0"
       id="path348-5-3-4" />
  </g>
  <g
     id="g348-7-7-5-34-9-2"
     transform="translate(-77.271448,38.404885)">
    <path
       d="m 131.15345,56.572641 -22.691,4.129 v 20.914 l 22.691,-4.128 z m 0,0"
       fill="#cccccc"
       id="path343-8-793-7-0-2-7-26" />
    <path
       stroke-width="0.482987"
       stroke-linecap="butt"
       stroke-linejoin="round"
       fill="none"
       stroke="#000000"
       stroke-opacity="0.78"
       d="m 131.15345,56.572641 -22.691,4.129 v 20.914 l 22.691,-4.128 z m 0,0"
       id="path344-8-19-8-36-8-5-4" />
    <path
       d="m 131.15345,56.572641 -8.257,-11.347 -22.692,4.129 8.258,11.347 z m 0,0"
       fill="#cccccc"
       id="path345-2-86-3-4-8-34-0" />
    <path
       stroke-width="0.482987"
       stroke-linecap="butt"
       stroke-linejoin="round"
       fill="none"
       stroke="#000000"
       stroke-opacity="0.78"
       d="m 131.15345,56.572641 -8.257,-11.347 -22.692,4.129 8.258,11.347 z m 0,0"
       id="path346-4-50-8-9-7-32-7" />
    <path
       d="m 108.46245,60.701641 -8.258,-11.347 v 20.914 l 8.258,11.347 z m 0,0"
       fill="#cccccc"
       id="path347-5-28-3-2-5-1-0" />
    <path
       stroke-width="0.482987"
       stroke-linecap="butt"
       stroke-linejoin="round"
       fill="none"
       stroke="#000000"
       stroke-opacity="0.78"
       d="m 108.46245,60.701641 -8.258,-11.347 v 20.914 l 8.258,11.347 z m 0,0"
       id="path348-5-6-7-9-8-1-3" />
  </g>
  <g
     id="g348-4-14"
     transform="translate(-42.999988,36.517535)">
    <path
       d="m 74.19049,62.588491 -22.691,4.129 v 20.914 l 22.691,-4.128 z m 0,0"
       fill="#cccccc"
       id="path343-8-11-3" />
    <path
       stroke-width="0.482987"
       stroke-linecap="butt"
       stroke-linejoin="round"
       fill="none"
       stroke="#000000"
       stroke-opacity="0.78"
       d="m 74.19049,62.588491 -22.691,4.129 v 20.914 l 22.691,-4.128 z m 0,0"
       id="path344-8-3-9" />
    <path
       d="m 74.19049,62.588491 -8.257,-11.347 -22.692,4.129 8.258,11.347 z m 0,0"
       fill="#cccccc"
       id="path345-2-8-8" />
    <path
       stroke-width="0.482987"
       stroke-linecap="butt"
       stroke-linejoin="round"
       fill="none"
       stroke="#000000"
       stroke-opacity="0.78"
       d="m 74.19049,62.588491 -8.257,-11.347 -22.692,4.129 8.258,11.347 z m 0,0"
       id="path346-4-7-8" />
    <path
       d="m 51.49949,66.717491 -8.258,-11.347 v 20.914 l 8.258,11.347 z m 0,0"
       fill="#cccccc"
       id="path347-5-4-0" />
    <path
       stroke-width="0.482987"
       stroke-linecap="butt"
       stroke-linejoin="round"
       fill="none"
       stroke="#000000"
       stroke-opacity="0.78"
       d="m 51.49949,66.717491 -8.258,-11.347 v 20.914 l 8.258,11.347 z m 0,0"
       id="path348-5-2-8" />
  </g>
  <g
     id="g348-7-7"
     transform="translate(-42.999988,15.603035)">
    <path
       d="m 74.19049,62.588491 -22.691,4.129 v 20.914 l 22.691,-4.128 z m 0,0"
       fill="#cccccc"
       id="path343-8-793-7" />
    <path
       stroke-width="0.482987"
       stroke-linecap="butt"
       stroke-linejoin="round"
       fill="none"
       stroke="#000000"
       stroke-opacity="0.78"
       d="m 74.19049,62.588491 -22.691,4.129 v 20.914 l 22.691,-4.128 z m 0,0"
       id="path344-8-19-8" />
    <path
       d="m 74.19049,62.588491 -8.257,-11.347 -22.692,4.129 8.258,11.347 z m 0,0"
       fill="#cccccc"
       id="path345-2-86-3" />
    <path
       stroke-width="0.482987"
       stroke-linecap="butt"
       stroke-linejoin="round"
       fill="none"
       stroke="#000000"
       stroke-opacity="0.78"
       d="m 74.19049,62.588491 -8.257,-11.347 -22.692,4.129 8.258,11.347 z m 0,0"
       id="path346-4-50-8" />
    <path
       d="m 51.49949,66.717491 -8.258,-11.347 v 20.914 l 8.258,11.347 z m 0,0"
       fill="#cccccc"
       id="path347-5-28-3" />
    <path
       stroke-width="0.482987"
       stroke-linecap="butt"
       stroke-linejoin="round"
       fill="none"
       stroke="#000000"
       stroke-opacity="0.78"
       d="m 51.49949,66.717491 -8.258,-11.347 v 20.914 l 8.258,11.347 z m 0,0"
       id="path348-5-6-7" />
  </g>
  <g
     id="g348-2-0-9"
     transform="translate(93.148015,53.571985)">
    <path
       d="m 74.19049,62.588491 -22.691,4.129 v 20.914 l 22.691,-4.128 z m 0,0"
       fill="#cccccc"
       id="path343-8-79-6-3" />
    <path
       stroke-width="0.482987"
       stroke-linecap="butt"
       stroke-linejoin="round"
       fill="none"
       stroke="#000000"
       stroke-opacity="0.78"
       d="m 74.19049,62.588491 -22.691,4.129 v 20.914 l 22.691,-4.128 z m 0,0"
       id="path344-8-5-1-5" />
    <path
       d="m 74.19049,62.588491 -8.257,-11.347 -22.692,4.129 8.258,11.347 z m 0,0"
       fill="#cccccc"
       id="path345-2-4-8-7" />
    <path
       stroke-width="0.482987"
       stroke-linecap="butt"
       stroke-linejoin="round"
       fill="none"
       stroke="#000000"
       stroke-opacity="0.78"
       d="m 74.19049,62.588491 -8.257,-11.347 -22.692,4.129 8.258,11.347 z m 0,0"
       id="path346-4-31-9-6" />
    <path
       d="m 51.49949,66.717491 -8.258,-11.347 v 20.914 l 8.258,11.347 z m 0,0"
       fill="#cccccc"
       id="path347-5-23-8-6" />
    <path
       stroke-width="0.482987"
       stroke-linecap="butt"
       stroke-linejoin="round"
       fill="none"
       stroke="#000000"
       stroke-opacity="0.78"
       d="m 51.49949,66.717491 -8.258,-11.347 v 20.914 l 8.258,11.347 z m 0,0"
       id="path348-5-3-4-5" />
  </g>
  <g
     id="g348-4-14-8"
     transform="translate(93.148015,32.657485)">
    <path
       d="m 74.19049,62.588491 -22.691,4.129 v 20.914 l 22.691,-4.128 z m 0,0"
       fill="#cccccc"
       id="path343-8-11-3-2" />
    <path
       stroke-width="0.482987"
       stroke-linecap="butt"
       stroke-linejoin="round"
       fill="none"
       stroke="#000000"
       stroke-opacity="0.78"
       d="m 74.19049,62.588491 -22.691,4.129 v 20.914 l 22.691,-4.128 z m 0,0"
       id="path344-8-3-9-5" />
    <path
       d="m 74.19049,62.588491 -8.257,-11.347 -22.692,4.129 8.258,11.347 z m 0,0"
       fill="#cccccc"
       id="path345-2-8-8-4" />
    <path
       stroke-width="0.482987"
       stroke-linecap="butt"
       stroke-linejoin="round"
       fill="none"
       stroke="#000000"
       stroke-opacity="0.78"
       d="m 74.19049,62.588491 -8.257,-11.347 -22.692,4.129 8.258,11.347 z m 0,0"
       id="path346-4-7-8-4" />
    <path
       d="m 51.49949,66.717491 -8.258,-11.347 v 20.914 l 8.258,11.347 z m 0,0"
       fill="#cccccc"
       id="path347-5-4-0-1" />
    <path
       stroke-width="0.482987"
       stroke-linecap="butt"
       stroke-linejoin="round"
       fill="none"
       stroke="#000000"
       stroke-opacity="0.78"
       d="m 51.49949,66.717491 -8.258,-11.347 v 20.914 l 8.258,11.347 z m 0,0"
       id="path348-5-2-8-6" />
  </g>
  <g
     id="g348-7-7-1"
     transform="translate(93.148015,11.742985)">
    <path
       d="m 74.19049,62.588491 -22.691,4.129 v 20.914 l 22.691,-4.128 z m 0,0"
       fill="#cccccc"
       id="path343-8-793-7-6" />
    <path
       stroke-width="0.482987"
       stroke-linecap="butt"
       stroke-linejoin="round"
       fill="none"
       stroke="#000000"
       stroke-opacity="0.78"
       d="m 74.19049,62.588491 -22.691,4.129 v 20.914 l 22.691,-4.128 z m 0,0"
       id="path344-8-19-8-3" />
    <path
       d="m 74.19049,62.588491 -8.257,-11.347 -22.692,4.129 8.258,11.347 z m 0,0"
       fill="#cccccc"
       id="path345-2-86-3-3" />
    <path
       stroke-width="0.482987"
       stroke-linecap="butt"
       stroke-linejoin="round"
       fill="none"
       stroke="#000000"
       stroke-opacity="0.78"
       d="m 74.19049,62.588491 -8.257,-11.347 -22.692,4.129 8.258,11.347 z m 0,0"
       id="path346-4-50-8-5" />
    <path
       d="m 51.49949,66.717491 -8.258,-11.347 v 20.914 l 8.258,11.347 z m 0,0"
       fill="#cccccc"
       id="path347-5-28-3-5" />
    <path
       stroke-width="0.482987"
       stroke-linecap="butt"
       stroke-linejoin="round"
       fill="none"
       stroke="#000000"
       stroke-opacity="0.78"
       d="m 51.49949,66.717491 -8.258,-11.347 v 20.914 l 8.258,11.347 z m 0,0"
       id="path348-5-6-7-3" />
  </g>
  <g
     id="g348-2-0-2"
     transform="translate(93.148015,-9.1710144)">
    <path
       d="m 74.19049,62.588491 -22.691,4.129 v 20.914 l 22.691,-4.128 z m 0,0"
       fill="#cccccc"
       id="path343-8-79-6-8" />
    <path
       stroke-width="0.482987"
       stroke-linecap="butt"
       stroke-linejoin="round"
       fill="none"
       stroke="#000000"
       stroke-opacity="0.78"
       d="m 74.19049,62.588491 -22.691,4.129 v 20.914 l 22.691,-4.128 z m 0,0"
       id="path344-8-5-1-2" />
    <path
       d="m 74.19049,62.588491 -8.257,-11.347 -22.692,4.129 8.258,11.347 z m 0,0"
       fill="#cccccc"
       id="path345-2-4-8-5" />
    <path
       stroke-width="0.482987"
       stroke-linecap="butt"
       stroke-linejoin="round"
       fill="none"
       stroke="#000000"
       stroke-opacity="0.78"
       d="m 74.19049,62.588491 -8.257,-11.347 -22.692,4.129 8.258,11.347 z m 0,0"
       id="path346-4-31-9-3" />
    <path
       d="m 51.49949,66.717491 -8.258,-11.347 v 20.914 l 8.258,11.347 z m 0,0"
       fill="#cccccc"
       id="path347-5-23-8-61" />
    <path
       stroke-width="0.482987"
       stroke-linecap="butt"
       stroke-linejoin="round"
       fill="none"
       stroke="#000000"
       stroke-opacity="0.78"
       d="m 51.49949,66.717491 -8.258,-11.347 v 20.914 l 8.258,11.347 z m 0,0"
       id="path348-5-3-4-8" />
  </g>
  <g
     id="g348-4-14-6"
     transform="translate(93.148015,-30.085515)">
    <path
       d="m 74.19049,62.588491 -22.691,4.129 v 20.914 l 22.691,-4.128 z m 0,0"
       fill="#cccccc"
       id="path343-8-11-3-21" />
    <path
       stroke-width="0.482987"
       stroke-linecap="butt"
       stroke-linejoin="round"
       fill="none"
       stroke="#000000"
       stroke-opacity="0.78"
       d="m 74.19049,62.588491 -22.691,4.129 v 20.914 l 22.691,-4.128 z m 0,0"
       id="path344-8-3-9-4" />
    <path
       d="m 74.19049,62.588491 -8.257,-11.347 -22.692,4.129 8.258,11.347 z m 0,0"
       fill="#cccccc"
       id="path345-2-8-8-6" />
    <path
       stroke-width="0.482987"
       stroke-linecap="butt"
       stroke-linejoin="round"
       fill="none"
       stroke="#000000"
       stroke-opacity="0.78"
       d="m 74.19049,62.588491 -8.257,-11.347 -22.692,4.129 8.258,11.347 z m 0,0"
       id="path346-4-7-8-2" />
    <path
       d="m 51.49949,66.717491 -8.258,-11.347 v 20.914 l 8.258,11.347 z m 0,0"
       fill="#cccccc"
       id="path347-5-4-0-9" />
    <path
       stroke-width="0.482987"
       stroke-linecap="butt"
       stroke-linejoin="round"
       fill="none"
       stroke="#000000"
       stroke-opacity="0.78"
       d="m 51.49949,66.717491 -8.258,-11.347 v 20.914 l 8.258,11.347 z m 0,0"
       id="path348-5-2-8-1" />
  </g>
  <g
     id="g348-7-7-5"
     transform="translate(93.148015,-51.000015)">
    <path
       d="m 74.19049,62.588491 -22.691,4.129 v 20.914 l 22.691,-4.128 z m 0,0"
       fill="#cccccc"
       id="path343-8-793-7-0" />
    <path
       stroke-width="0.482987"
       stroke-linecap="butt"
       stroke-linejoin="round"
       fill="none"
       stroke="#000000"
       stroke-opacity="0.78"
       d="m 74.19049,62.588491 -22.691,4.129 v 20.914 l 22.691,-4.128 z m 0,0"
       id="path344-8-19-8-36" />
    <path
       d="m 74.19049,62.588491 -8.257,-11.347 -22.692,4.129 8.258,11.347 z m 0,0"
       fill="#cccccc"
       id="path345-2-86-3-4" />
    <path
       stroke-width="0.482987"
       stroke-linecap="butt"
       stroke-linejoin="round"
       fill="none"
       stroke="#000000"
       stroke-opacity="0.78"
       d="m 74.19049,62.588491 -8.257,-11.347 -22.692,4.129 8.258,11.347 z m 0,0"
       id="path346-4-50-8-9" />
    <path
       d="m 51.49949,66.717491 -8.258,-11.347 v 20.914 l 8.258,11.347 z m 0,0"
       fill="#cccccc"
       id="path347-5-28-3-2" />
    <path
       stroke-width="0.482987"
       stroke-linecap="butt"
       stroke-linejoin="round"
       fill="none"
       stroke="#000000"
       stroke-opacity="0.78"
       d="m 51.49949,66.717491 -8.258,-11.347 v 20.914 l 8.258,11.347 z m 0,0"
       id="path348-5-6-7-9" />
  </g>
  <g
     id="g348-7-7-5-3"
     transform="translate(70.456515,-46.871015)">
    <path
       d="m 74.19049,62.588491 -22.691,4.129 v 20.914 l 22.691,-4.128 z m 0,0"
       fill="#cccccc"
       id="path343-8-793-7-0-4" />
    <path
       stroke-width="0.482987"
       stroke-linecap="butt"
       stroke-linejoin="round"
       fill="none"
       stroke="#000000"
       stroke-opacity="0.78"
       d="m 74.19049,62.588491 -22.691,4.129 v 20.914 l 22.691,-4.128 z m 0,0"
       id="path344-8-19-8-36-4" />
    <path
       d="m 74.19049,62.588491 -8.257,-11.347 -22.692,4.129 8.258,11.347 z m 0,0"
       fill="#cccccc"
       id="path345-2-86-3-4-0" />
    <path
       stroke-width="0.482987"
       stroke-linecap="butt"
       stroke-linejoin="round"
       fill="none"
       stroke="#000000"
       stroke-opacity="0.78"
       d="m 74.19049,62.588491 -8.257,-11.347 -22.692,4.129 8.258,11.347 z m 0,0"
       id="path346-4-50-8-9-5" />
    <path
       d="m 51.49949,66.717491 -8.258,-11.347 v 20.914 l 8.258,11.347 z m 0,0"
       fill="#cccccc"
       id="path347-5-28-3-2-9" />
    <path
       stroke-width="0.482987"
       stroke-linecap="butt"
       stroke-linejoin="round"
       fill="none"
       stroke="#000000"
       stroke-opacity="0.78"
       d="m 51.49949,66.717491 -8.258,-11.347 v 20.914 l 8.258,11.347 z m 0,0"
       id="path348-5-6-7-9-6" />
  </g>
  <g
     id="g348-1-7"
     transform="translate(47.765015,-42.742015)">
    <path
       d="m 74.19049,62.588491 -22.691,4.129 v 20.914 l 22.691,-4.128 z m 0,0"
       fill="#cccccc"
       id="path343-8-7-8" />
    <path
       stroke-width="0.482987"
       stroke-linecap="butt"
       stroke-linejoin="round"
       fill="none"
       stroke="#000000"
       stroke-opacity="0.78"
       d="m 74.19049,62.588491 -22.691,4.129 v 20.914 l 22.691,-4.128 z m 0,0"
       id="path344-8-1-15" />
    <path
       d="m 74.19049,62.588491 -8.257,-11.347 -22.692,4.129 8.258,11.347 z m 0,0"
       fill="#cccccc"
       id="path345-2-1-8" />
    <path
       stroke-width="0.482987"
       stroke-linecap="butt"
       stroke-linejoin="round"
       fill="none"
       stroke="#000000"
       stroke-opacity="0.78"
       d="m 74.19049,62.588491 -8.257,-11.347 -22.692,4.129 8.258,11.347 z m 0,0"
       id="path346-4-5-6" />
    <path
       d="m 51.49949,66.717491 -8.258,-11.347 v 20.914 l 8.258,11.347 z m 0,0"
       fill="#cccccc"
       id="path347-5-2-1" />
    <path
       stroke-width="0.482987"
       stroke-linecap="butt"
       stroke-linejoin="round"
       fill="none"
       stroke="#000000"
       stroke-opacity="0.78"
       d="m 51.49949,66.717491 -8.258,-11.347 v 20.914 l 8.258,11.347 z m 0,0"
       id="path348-5-7-2" />
  </g>
  <g
     id="g348-2-1"
     transform="translate(-42.999988,-5.3114644)">
    <path
       d="m 74.19049,62.588491 -22.691,4.129 v 20.914 l 22.691,-4.128 z m 0,0"
       fill="#cccccc"
       id="path343-8-79-0" />
    <path
       stroke-width="0.482987"
       stroke-linecap="butt"
       stroke-linejoin="round"
       fill="none"
       stroke="#000000"
       stroke-opacity="0.78"
       d="m 74.19049,62.588491 -22.691,4.129 v 20.914 l 22.691,-4.128 z m 0,0"
       id="path344-8-5-7" />
    <path
       d="m 74.19049,62.588491 -8.257,-11.347 -22.692,4.129 8.258,11.347 z m 0,0"
       fill="#cccccc"
       id="path345-2-4-3" />
    <path
       stroke-width="0.482987"
       stroke-linecap="butt"
       stroke-linejoin="round"
       fill="none"
       stroke="#000000"
       stroke-opacity="0.78"
       d="m 74.19049,62.588491 -8.257,-11.347 -22.692,4.129 8.258,11.347 z m 0,0"
       id="path346-4-31-4" />
    <path
       d="m 51.49949,66.717491 -8.258,-11.347 v 20.914 l 8.258,11.347 z m 0,0"
       fill="#cccccc"
       id="path347-5-23-9" />
    <path
       stroke-width="0.482987"
       stroke-linecap="butt"
       stroke-linejoin="round"
       fill="none"
       stroke="#000000"
       stroke-opacity="0.78"
       d="m 51.49949,66.717491 -8.258,-11.347 v 20.914 l 8.258,11.347 z m 0,0"
       id="path348-5-3-65" />
  </g>
  <g
     id="g348-68-4"
     transform="translate(25.074015,-38.613015)">
    <path
       d="m 74.19049,62.588491 -22.691,4.129 v 20.914 l 22.691,-4.128 z m 0,0"
       fill="#cccccc"
       id="path343-8-5-2" />
    <path
       stroke-width="0.482987"
       stroke-linecap="butt"
       stroke-linejoin="round"
       fill="none"
       stroke="#000000"
       stroke-opacity="0.78"
       d="m 74.19049,62.588491 -22.691,4.129 v 20.914 l 22.691,-4.128 z m 0,0"
       id="path344-8-7-5" />
    <path
       d="m 74.19049,62.588491 -8.257,-11.347 -22.692,4.129 8.258,11.347 z m 0,0"
       fill="#cccccc"
       id="path345-2-6-8" />
    <path
       stroke-width="0.482987"
       stroke-linecap="butt"
       stroke-linejoin="round"
       fill="none"
       stroke="#000000"
       stroke-opacity="0.78"
       d="m 74.19049,62.588491 -8.257,-11.347 -22.692,4.129 8.258,11.347 z m 0,0"
       id="path346-4-1-6" />
    <path
       d="m 51.49949,66.717491 -8.258,-11.347 v 20.914 l 8.258,11.347 z m 0,0"
       fill="#cccccc"
       id="path347-5-8-2" />
    <path
       stroke-width="0.482987"
       stroke-linecap="butt"
       stroke-linejoin="round"
       fill="none"
       stroke="#000000"
       stroke-opacity="0.78"
       d="m 51.49949,66.717491 -8.258,-11.347 v 20.914 l 8.258,11.347 z m 0,0"
       id="path348-5-9-6" />
  </g>
  <g
     id="g348-2-5"
     transform="translate(2.3825118,-34.484015)">
    <path
       d="m 74.19049,62.588491 -22.691,4.129 v 20.914 l 22.691,-4.128 z m 0,0"
       fill="#cccccc"
       id="path343-8-79-3" />
    <path
       stroke-width="0.482987"
       stroke-linecap="butt"
       stroke-linejoin="round"
       fill="none"
       stroke="#000000"
       stroke-opacity="0.78"
       d="m 74.19049,62.588491 -22.691,4.129 v 20.914 l 22.691,-4.128 z m 0,0"
       id="path344-8-5-9" />
    <path
       d="m 74.19049,62.588491 -8.257,-11.347 -22.692,4.129 8.258,11.347 z m 0,0"
       fill="#cccccc"
       id="path345-2-4-2" />
    <path
       stroke-width="0.482987"
       stroke-linecap="butt"
       stroke-linejoin="round"
       fill="none"
       stroke="#000000"
       stroke-opacity="0.78"
       d="m 74.19049,62.588491 -8.257,-11.347 -22.692,4.129 8.258,11.347 z m 0,0"
       id="path346-4-31-46" />
    <path
       d="m 51.49949,66.717491 -8.258,-11.347 v 20.914 l 8.258,11.347 z m 0,0"
       fill="#cccccc"
       id="path347-5-23-1" />
    <path
       stroke-width="0.482987"
       stroke-linecap="butt"
       stroke-linejoin="round"
       fill="none"
       stroke="#000000"
       stroke-opacity="0.78"
       d="m 51.49949,66.717491 -8.258,-11.347 v 20.914 l 8.258,11.347 z m 0,0"
       id="path348-5-3-8" />
  </g>
  <g
     id="g348-2-5-4"
     transform="translate(-20.308988,-30.355015)">
    <path
       d="m 74.19049,62.588491 -22.691,4.129 v 20.914 l 22.691,-4.128 z m 0,0"
       fill="#cccccc"
       id="path343-8-79-3-4" />
    <path
       stroke-width="0.482987"
       stroke-linecap="butt"
       stroke-linejoin="round"
       fill="none"
       stroke="#000000"
       stroke-opacity="0.78"
       d="m 74.19049,62.588491 -22.691,4.129 v 20.914 l 22.691,-4.128 z m 0,0"
       id="path344-8-5-9-2" />
    <path
       d="m 74.19049,62.588491 -8.257,-11.347 -22.692,4.129 8.258,11.347 z m 0,0"
       fill="#cccccc"
       id="path345-2-4-2-9" />
    <path
       stroke-width="0.482987"
       stroke-linecap="butt"
       stroke-linejoin="round"
       fill="none"
       stroke="#000000"
       stroke-opacity="0.78"
       d="m 74.19049,62.588491 -8.257,-11.347 -22.692,4.129 8.258,11.347 z m 0,0"
       id="path346-4-31-46-3" />
    <path
       d="m 51.49949,66.717491 -8.258,-11.347 v 20.914 l 8.258,11.347 z m 0,0"
       fill="#cccccc"
       id="path347-5-23-1-0" />
    <path
       stroke-width="0.482987"
       stroke-linecap="butt"
       stroke-linejoin="round"
       fill="none"
       stroke="#000000"
       stroke-opacity="0.78"
       d="m 51.49949,66.717491 -8.258,-11.347 v 20.914 l 8.258,11.347 z m 0,0"
       id="path348-5-3-8-7" />
  </g>
  <g
     id="g348-4-10"
     transform="translate(-42.999988,-26.225965)">
    <path
       d="m 74.19049,62.588491 -22.691,4.129 v 20.914 l 22.691,-4.128 z m 0,0"
       fill="#cccccc"
       id="path343-8-11-9" />
    <path
       stroke-width="0.482987"
       stroke-linecap="butt"
       stroke-linejoin="round"
       fill="none"
       stroke="#000000"
       stroke-opacity="0.78"
       d="m 74.19049,62.588491 -22.691,4.129 v 20.914 l 22.691,-4.128 z m 0,0"
       id="path344-8-3-96" />
    <path
       d="m 74.19049,62.588491 -8.257,-11.347 -22.692,4.129 8.258,11.347 z m 0,0"
       fill="#cccccc"
       id="path345-2-8-83" />
    <path
       stroke-width="0.482987"
       stroke-linecap="butt"
       stroke-linejoin="round"
       fill="none"
       stroke="#000000"
       stroke-opacity="0.78"
       d="m 74.19049,62.588491 -8.257,-11.347 -22.692,4.129 8.258,11.347 z m 0,0"
       id="path346-4-7-4" />
    <path
       d="m 51.49949,66.717491 -8.258,-11.347 v 20.914 l 8.258,11.347 z m 0,0"
       fill="#cccccc"
       id="path347-5-4-8" />
    <path
       stroke-width="0.482987"
       stroke-linecap="butt"
       stroke-linejoin="round"
       fill="none"
       stroke="#000000"
       stroke-opacity="0.78"
       d="m 51.49949,66.717491 -8.258,-11.347 v 20.914 l 8.258,11.347 z m 0,0"
       id="path348-5-2-4" />
  </g>
  <g
     id="g348-7-7-5-34"
     transform="translate(13.493555,0.97383554)">
    <path
       d="m 131.15345,56.572641 -22.691,4.129 v 20.914 l 22.691,-4.128 z m 0,0"
       fill="#cccccc"
       id="path343-8-793-7-0-2" />
    <path
       stroke-width="0.482987"
       stroke-linecap="butt"
       stroke-linejoin="round"
       fill="none"
       stroke="#000000"
       stroke-opacity="0.78"
       d="m 131.15345,56.572641 -22.691,4.129 v 20.914 l 22.691,-4.128 z m 0,0"
       id="path344-8-19-8-36-8" />
    <path
       d="m 131.15345,56.572641 -8.257,-11.347 -22.692,4.129 8.258,11.347 z m 0,0"
       fill="#cccccc"
       id="path345-2-86-3-4-8" />
    <path
       stroke-width="0.482987"
       stroke-linecap="butt"
       stroke-linejoin="round"
       fill="none"
       stroke="#000000"
       stroke-opacity="0.78"
       d="m 131.15345,56.572641 -8.257,-11.347 -22.692,4.129 8.258,11.347 z m 0,0"
       id="path346-4-50-8-9-7" />
    <path
       d="m 108.46245,60.701641 -8.258,-11.347 v 20.914 l 8.258,11.347 z m 0,0"
       fill="#cccccc"
       id="path347-5-28-3-2-5" />
    <path
       stroke-width="0.482987"
       stroke-linecap="butt"
       stroke-linejoin="round"
       fill="none"
       stroke="#000000"
       stroke-opacity="0.78"
       d="m 108.46245,60.701641 -8.258,-11.347 v 20.914 l 8.258,11.347 z m 0,0"
       id="path348-5-6-7-9-8" />
  </g>
  <g
     id="g348-7-7-5-34-2"
     transform="translate(-9.1984452,26.017335)">
    <path
       d="m 131.15345,56.572641 -22.691,4.129 v 20.914 l 22.691,-4.128 z m 0,0"
       fill="#cccccc"
       id="path343-8-793-7-0-2-5" />
    <path
       stroke-width="0.482987"
       stroke-linecap="butt"
       stroke-linejoin="round"
       fill="none"
       stroke="#000000"
       stroke-opacity="0.78"
       d="m 131.15345,56.572641 -22.691,4.129 v 20.914 l 22.691,-4.128 z m 0,0"
       id="path344-8-19-8-36-8-2" />
    <path
       d="m 131.15345,56.572641 -8.257,-11.347 -22.692,4.129 8.258,11.347 z m 0,0"
       fill="#cccccc"
       id="path345-2-86-3-4-8-0" />
    <path
       stroke-width="0.482987"
       stroke-linecap="butt"
       stroke-linejoin="round"
       fill="none"
       stroke="#000000"
       stroke-opacity="0.78"
       d="m 131.15345,56.572641 -8.257,-11.347 -22.692,4.129 8.258,11.347 z m 0,0"
       id="path346-4-50-8-9-7-3" />
    <path
       d="m 108.46245,60.701641 -8.258,-11.347 v 20.914 l 8.258,11.347 z m 0,0"
       fill="#cccccc"
       id="path347-5-28-3-2-5-7" />
    <path
       stroke-width="0.482987"
       stroke-linecap="butt"
       stroke-linejoin="round"
       fill="none"
       stroke="#000000"
       stroke-opacity="0.78"
       d="m 108.46245,60.701641 -8.258,-11.347 v 20.914 l 8.258,11.347 z m 0,0"
       id="path348-5-6-7-9-8-2" />
  </g>
  <g
     id="g348-7-7-5-34-7"
     transform="translate(-9.1984452,5.1028356)">
    <path
       d="m 131.15345,56.572641 -22.691,4.129 v 20.914 l 22.691,-4.128 z m 0,0"
       fill="#cccccc"
       id="path343-8-793-7-0-2-8" />
    <path
       stroke-width="0.482987"
       stroke-linecap="butt"
       stroke-linejoin="round"
       fill="none"
       stroke="#000000"
       stroke-opacity="0.78"
       d="m 131.15345,56.572641 -22.691,4.129 v 20.914 l 22.691,-4.128 z m 0,0"
       id="path344-8-19-8-36-8-7" />
    <path
       d="m 131.15345,56.572641 -8.257,-11.347 -22.692,4.129 8.258,11.347 z m 0,0"
       fill="#cccccc"
       id="path345-2-86-3-4-8-3" />
    <path
       stroke-width="0.482987"
       stroke-linecap="butt"
       stroke-linejoin="round"
       fill="none"
       stroke="#000000"
       stroke-opacity="0.78"
       d="m 131.15345,56.572641 -8.257,-11.347 -22.692,4.129 8.258,11.347 z m 0,0"
       id="path346-4-50-8-9-7-0" />
    <path
       d="m 108.46245,60.701641 -8.258,-11.347 v 20.914 l 8.258,11.347 z m 0,0"
       fill="#cccccc"
       id="path347-5-28-3-2-5-3" />
    <path
       stroke-width="0.482987"
       stroke-linecap="butt"
       stroke-linejoin="round"
       fill="none"
       stroke="#000000"
       stroke-opacity="0.78"
       d="m 108.46245,60.701641 -8.258,-11.347 v 20.914 l 8.258,11.347 z m 0,0"
       id="path348-5-6-7-9-8-8" />
  </g>
  <g
     id="g348-7-7-5-34-9"
     transform="translate(-31.889445,30.145835)">
    <path
       d="m 131.15345,56.572641 -22.691,4.129 v 20.914 l 22.691,-4.128 z m 0,0"
       fill="#cccccc"
       id="path343-8-793-7-0-2-7" />
    <path
       stroke-width="0.482987"
       stroke-linecap="butt"
       stroke-linejoin="round"
       fill="none"
       stroke="#000000"
       stroke-opacity="0.78"
       d="m 131.15345,56.572641 -22.691,4.129 v 20.914 l 22.691,-4.128 z m 0,0"
       id="path344-8-19-8-36-8-5" />
    <path
       d="m 131.15345,56.572641 -8.257,-11.347 -22.692,4.129 8.258,11.347 z m 0,0"
       fill="#cccccc"
       id="path345-2-86-3-4-8-34" />
    <path
       stroke-width="0.482987"
       stroke-linecap="butt"
       stroke-linejoin="round"
       fill="none"
       stroke="#000000"
       stroke-opacity="0.78"
       d="m 131.15345,56.572641 -8.257,-11.347 -22.692,4.129 8.258,11.347 z m 0,0"
       id="path346-4-50-8-9-7-32" />
    <path
       d="m 108.46245,60.701641 -8.258,-11.347 v 20.914 l 8.258,11.347 z m 0,0"
       fill="#cccccc"
       id="path347-5-28-3-2-5-1" />
    <path
       stroke-width="0.482987"
       stroke-linecap="butt"
       stroke-linejoin="round"
       fill="none"
       stroke="#000000"
       stroke-opacity="0.78"
       d="m 108.46245,60.701641 -8.258,-11.347 v 20.914 l 8.258,11.347 z m 0,0"
       id="path348-5-6-7-9-8-1" />
  </g>
</svg>
