<?xml version="1.0" encoding="UTF-8" standalone="no"?>
<!-- Created with Inkscape (http://www.inkscape.org/) -->

<svg
   version="1.1"
   id="svg1"
   width="685.29742"
   height="696.51459"
   viewBox="0 0 685.29745 696.51461"
   xml:space="preserve"
   xmlns="http://www.w3.org/2000/svg"
   xmlns:svg="http://www.w3.org/2000/svg"><defs
     id="defs1" /><g
     id="g1-8"
     transform="translate(770.91751,-929.19425)"><path
       id="path1-0"
       d="m -88.130789,1285.1569 c 0,186.692 -152.286661,338.0413 -340.141331,338.0413 -187.84799,0 -340.13465,-151.3493 -340.13465,-338.0413 0,-186.6987 152.28666,-338.04665 340.13465,-338.04665 187.85467,0 340.141331,151.34795 340.141331,338.04665 z"
       style="fill:#ffffff;fill-opacity:1;fill-rule:nonzero;stroke:#000000;stroke-width:5.02144;stroke-linecap:butt;stroke-linejoin:round;stroke-miterlimit:4;stroke-dasharray:none;stroke-opacity:1" /><path
       style="fill:none;fill-opacity:0.686957;stroke:#000000;stroke-width:3.78;stroke-dasharray:none;stroke-opacity:1"
       d="m -342.0674,1319.3468 c 0,0 142.25391,-33.6226 98.55308,-85.3439 -43.70082,-51.7214 -252.02805,-13.9069 -164.02775,-84.81 88.00029,-70.9032 80.03188,-187.00375 80.03188,-187.00375"
       id="path145-6" /><g
       id="g145-2-4"
       transform="matrix(0.51544124,0,0,0.51544124,-247.44404,1117.5634)"><path
         id="path142-4-4-5"
         d="m -184.41252,362.07918 -78.48,14.28133 v 72.328 l 78.48,-14.28133 z"
         style="fill:#e4e4e4;fill-opacity:1;fill-rule:nonzero;stroke:#000000;stroke-width:1.67039;stroke-linecap:butt;stroke-linejoin:round;stroke-miterlimit:4;stroke-dasharray:none;stroke-opacity:0.78" /><path
         id="path143-2-1-3"
         d="m -184.41252,362.07918 -28.56266,-39.244 -78.48534,14.28667 28.568,39.23866 z"
         style="fill:#e4e4e4;fill-opacity:1;fill-rule:nonzero;stroke:#000000;stroke-width:1.67039;stroke-linecap:butt;stroke-linejoin:round;stroke-miterlimit:4;stroke-dasharray:none;stroke-opacity:0.78" /><path
         id="path144-7-1-0"
         d="m -262.89252,376.36051 -28.568,-39.23866 v 72.328 l 28.568,39.23866 z"
         style="fill:#e4e4e4;fill-opacity:1;fill-rule:nonzero;stroke:#000000;stroke-width:1.67039;stroke-linecap:butt;stroke-linejoin:round;stroke-miterlimit:4;stroke-dasharray:none;stroke-opacity:0.78" /></g><g
       id="g145-8"
       transform="matrix(0.51544124,0,0,0.51544124,-287.89587,1124.9246)"><path
         id="path142-4-9"
         d="m -184.41252,362.07918 -78.48,14.28133 v 72.328 l 78.48,-14.28133 z"
         style="fill:#e4e4e4;fill-opacity:1;fill-rule:nonzero;stroke:#000000;stroke-width:1.67039;stroke-linecap:butt;stroke-linejoin:round;stroke-miterlimit:4;stroke-dasharray:none;stroke-opacity:0.78" /><path
         id="path143-2-13"
         d="m -184.41252,362.07918 -28.56266,-39.244 -78.48534,14.28667 28.568,39.23866 z"
         style="fill:#e4e4e4;fill-opacity:1;fill-rule:nonzero;stroke:#000000;stroke-width:1.67039;stroke-linecap:butt;stroke-linejoin:round;stroke-miterlimit:4;stroke-dasharray:none;stroke-opacity:0.78" /><path
         id="path144-7-4"
         d="m -262.89252,376.36051 -28.568,-39.23866 v 72.328 l 28.568,39.23866 z"
         style="fill:#e4e4e4;fill-opacity:1;fill-rule:nonzero;stroke:#000000;stroke-width:1.67039;stroke-linecap:butt;stroke-linejoin:round;stroke-miterlimit:4;stroke-dasharray:none;stroke-opacity:0.78" /></g><g
       id="g145-8-5"
       transform="matrix(0.51544124,0,0,0.51544124,-201.96758,763.22218)"><path
         id="path142-4-9-2"
         d="m -184.41252,362.07918 -78.48,14.28133 v 72.328 l 78.48,-14.28133 z"
         style="fill:#e4e4e4;fill-opacity:1;fill-rule:nonzero;stroke:#000000;stroke-width:1.67039;stroke-linecap:butt;stroke-linejoin:round;stroke-miterlimit:4;stroke-dasharray:none;stroke-opacity:0.78" /><path
         id="path143-2-13-8"
         d="m -184.41252,362.07918 -28.56266,-39.244 -78.48534,14.28667 28.568,39.23866 z"
         style="fill:#e4e4e4;fill-opacity:1;fill-rule:nonzero;stroke:#000000;stroke-width:1.67039;stroke-linecap:butt;stroke-linejoin:round;stroke-miterlimit:4;stroke-dasharray:none;stroke-opacity:0.78" /><path
         id="path144-7-4-1"
         d="m -262.89252,376.36051 -28.568,-39.23866 v 72.328 l 28.568,39.23866 z"
         style="fill:#e4e4e4;fill-opacity:1;fill-rule:nonzero;stroke:#000000;stroke-width:1.67039;stroke-linecap:butt;stroke-linejoin:round;stroke-miterlimit:4;stroke-dasharray:none;stroke-opacity:0.78" /></g></g></svg>
