<?xml version="1.0" encoding="UTF-8" standalone="no"?>
<!-- Created with Inkscape (http://www.inkscape.org/) -->

<svg
   version="1.1"
   id="svg1"
   width="685.29742"
   height="681.10944"
   viewBox="0 0 685.29745 681.10946"
   xml:space="preserve"
   xmlns="http://www.w3.org/2000/svg"
   xmlns:svg="http://www.w3.org/2000/svg"><defs
     id="defs1" /><g
     id="g1"
     transform="translate(1.821268e-4,-20.72928)"><path
       id="path1"
       d="m 512.09,270.965 c 0,140.019 -114.215,253.531 -255.106,253.531 C 116.098,524.496 1.883,410.984 1.883,270.965 1.883,130.941 116.098,17.43 256.984,17.43 c 140.891,0 255.106,113.511 255.106,253.535 z"
       style="fill:#ffffff;fill-opacity:1;fill-rule:nonzero;stroke:#000000;stroke-width:3.76608;stroke-linecap:butt;stroke-linejoin:round;stroke-miterlimit:4;stroke-dasharray:none;stroke-opacity:1"
       transform="scale(1.3333333)" /><path
       style="fill:none;fill-opacity:0.686957;stroke:#000000;stroke-width:3.78;stroke-dasharray:none;stroke-opacity:1"
       d="m 428.85004,393.87569 c 0,0 142.25391,-32.0217 98.55308,-83.74303 -43.70082,-51.72133 -252.02805,-13.90682 -164.02775,-84.81 88.00029,-70.90317 80.03188,-187.003758 80.03188,-187.003758"
       id="path145" /></g><g
     id="g1-8"
     transform="translate(695.29581,-20.72928)"><g
       id="g145-2"
       transform="matrix(0.51544124,0,0,0.51544124,-171.82231,193.69318)"><path
         id="path142-4-4"
         d="m -184.41252,362.07918 -78.48,14.28133 v 72.328 l 78.48,-14.28133 z"
         style="fill:#e4e4e4;fill-opacity:1;fill-rule:nonzero;stroke:#000000;stroke-width:1.67039;stroke-linecap:butt;stroke-linejoin:round;stroke-miterlimit:4;stroke-dasharray:none;stroke-opacity:0.78" /><path
         id="path143-2-1"
         d="m -184.41252,362.07918 -28.56266,-39.244 -78.48534,14.28667 28.568,39.23866 z"
         style="fill:#e4e4e4;fill-opacity:1;fill-rule:nonzero;stroke:#000000;stroke-width:1.67039;stroke-linecap:butt;stroke-linejoin:round;stroke-miterlimit:4;stroke-dasharray:none;stroke-opacity:0.78" /><path
         id="path144-7-1"
         d="m -262.89252,376.36051 -28.568,-39.23866 v 72.328 l 28.568,39.23866 z"
         style="fill:#e4e4e4;fill-opacity:1;fill-rule:nonzero;stroke:#000000;stroke-width:1.67039;stroke-linecap:butt;stroke-linejoin:round;stroke-miterlimit:4;stroke-dasharray:none;stroke-opacity:0.78" /></g><g
       id="g145"
       transform="matrix(0.51544124,0,0,0.51544124,-212.27414,201.05437)"><path
         id="path142-4"
         d="m -184.41252,362.07918 -78.48,14.28133 v 72.328 l 78.48,-14.28133 z"
         style="fill:#e4e4e4;fill-opacity:1;fill-rule:nonzero;stroke:#000000;stroke-width:1.67039;stroke-linecap:butt;stroke-linejoin:round;stroke-miterlimit:4;stroke-dasharray:none;stroke-opacity:0.78" /><path
         id="path143-2"
         d="m -184.41252,362.07918 -28.56266,-39.244 -78.48534,14.28667 28.568,39.23866 z"
         style="fill:#e4e4e4;fill-opacity:1;fill-rule:nonzero;stroke:#000000;stroke-width:1.67039;stroke-linecap:butt;stroke-linejoin:round;stroke-miterlimit:4;stroke-dasharray:none;stroke-opacity:0.78" /><path
         id="path144-7"
         d="m -262.89252,376.36051 -28.568,-39.23866 v 72.328 l 28.568,39.23866 z"
         style="fill:#e4e4e4;fill-opacity:1;fill-rule:nonzero;stroke:#000000;stroke-width:1.67039;stroke-linecap:butt;stroke-linejoin:round;stroke-miterlimit:4;stroke-dasharray:none;stroke-opacity:0.78" /></g></g></svg>
