<?xml version="1.0" encoding="UTF-8" standalone="no"?>
<svg
   version="1.1"
   width="76.814484"
   height="86.959984"
   viewBox="0 0 76.814484 86.959987"
   id="svg348"
   xmlns="http://www.w3.org/2000/svg"
   xmlns:svg="http://www.w3.org/2000/svg">
  <defs
     id="defs348" />
  <g
     id="g348-0"
     transform="translate(2.382504,-9.1709996)">
    <path
       d="m 74.19049,62.588491 -22.691,4.129 v 20.914 l 22.691,-4.128 z m 0,0"
       fill="#cccccc"
       id="path343-8-2" />
    <path
       stroke-width="0.482987"
       stroke-linecap="butt"
       stroke-linejoin="round"
       fill="none"
       stroke="#000000"
       stroke-opacity="0.78"
       d="m 74.19049,62.588491 -22.691,4.129 v 20.914 l 22.691,-4.128 z m 0,0"
       id="path344-8-48" />
    <path
       d="m 74.19049,62.588491 -8.257,-11.347 -22.692,4.129 8.258,11.347 z m 0,0"
       fill="#cccccc"
       id="path345-2-65" />
    <path
       stroke-width="0.482987"
       stroke-linecap="butt"
       stroke-linejoin="round"
       fill="none"
       stroke="#000000"
       stroke-opacity="0.78"
       d="m 74.19049,62.588491 -8.257,-11.347 -22.692,4.129 8.258,11.347 z m 0,0"
       id="path346-4-0" />
    <path
       d="m 51.49949,66.717491 -8.258,-11.347 v 20.914 l 8.258,11.347 z m 0,0"
       fill="#cccccc"
       id="path347-5-9" />
    <path
       stroke-width="0.482987"
       stroke-linecap="butt"
       stroke-linejoin="round"
       fill="none"
       stroke="#000000"
       stroke-opacity="0.78"
       d="m 51.49949,66.717491 -8.258,-11.347 v 20.914 l 8.258,11.347 z m 0,0"
       id="path348-5-0" />
  </g>
  <g
     id="g348-1-0"
     transform="translate(2.382504,-30.0855)">
    <path
       d="m 74.19049,62.588491 -22.691,4.129 v 20.914 l 22.691,-4.128 z m 0,0"
       fill="#cccccc"
       id="path343-8-7-6" />
    <path
       stroke-width="0.482987"
       stroke-linecap="butt"
       stroke-linejoin="round"
       fill="none"
       stroke="#000000"
       stroke-opacity="0.78"
       d="m 74.19049,62.588491 -22.691,4.129 v 20.914 l 22.691,-4.128 z m 0,0"
       id="path344-8-1-1" />
    <path
       d="m 74.19049,62.588491 -8.257,-11.347 -22.692,4.129 8.258,11.347 z m 0,0"
       fill="#cccccc"
       id="path345-2-1-3" />
    <path
       stroke-width="0.482987"
       stroke-linecap="butt"
       stroke-linejoin="round"
       fill="none"
       stroke="#000000"
       stroke-opacity="0.78"
       d="m 74.19049,62.588491 -8.257,-11.347 -22.692,4.129 8.258,11.347 z m 0,0"
       id="path346-4-5-8" />
    <path
       d="m 51.49949,66.717491 -8.258,-11.347 v 20.914 l 8.258,11.347 z m 0,0"
       fill="#cccccc"
       id="path347-5-2-9" />
    <path
       stroke-width="0.482987"
       stroke-linecap="butt"
       stroke-linejoin="round"
       fill="none"
       stroke="#000000"
       stroke-opacity="0.78"
       d="m 51.49949,66.717491 -8.258,-11.347 v 20.914 l 8.258,11.347 z m 0,0"
       id="path348-5-7-3" />
  </g>
  <g
     id="g348-6-4"
     transform="translate(2.382504,-51)">
    <path
       d="m 74.19049,62.588491 -22.691,4.129 v 20.914 l 22.691,-4.128 z m 0,0"
       fill="#cccccc"
       id="path343-8-1-4" />
    <path
       stroke-width="0.482987"
       stroke-linecap="butt"
       stroke-linejoin="round"
       fill="none"
       stroke="#000000"
       stroke-opacity="0.78"
       d="m 74.19049,62.588491 -22.691,4.129 v 20.914 l 22.691,-4.128 z m 0,0"
       id="path344-8-4-6" />
    <path
       d="m 74.19049,62.588491 -8.257,-11.347 -22.692,4.129 8.258,11.347 z m 0,0"
       fill="#cccccc"
       id="path345-2-2-0" />
    <path
       stroke-width="0.482987"
       stroke-linecap="butt"
       stroke-linejoin="round"
       fill="none"
       stroke="#000000"
       stroke-opacity="0.78"
       d="m 74.19049,62.588491 -8.257,-11.347 -22.692,4.129 8.258,11.347 z m 0,0"
       id="path346-4-3-6" />
    <path
       d="m 51.49949,66.717491 -8.258,-11.347 v 20.914 l 8.258,11.347 z m 0,0"
       fill="#cccccc"
       id="path347-5-22-6" />
    <path
       stroke-width="0.482987"
       stroke-linecap="butt"
       stroke-linejoin="round"
       fill="none"
       stroke="#000000"
       stroke-opacity="0.78"
       d="m 51.49949,66.717491 -8.258,-11.347 v 20.914 l 8.258,11.347 z m 0,0"
       id="path348-5-1-1" />
  </g>
  <g
     id="g348-68-8"
     transform="translate(-20.308496,-25.9565)"
     style="fill:#00ff00">
    <path
       d="m 74.19049,62.588491 -22.691,4.129 v 20.914 l 22.691,-4.128 z m 0,0"
       fill="#cccccc"
       id="path343-8-5-4"
       style="fill:#00ff00" />
    <path
       stroke-width="0.482987"
       stroke-linecap="butt"
       stroke-linejoin="round"
       fill="none"
       stroke="#000000"
       stroke-opacity="0.78"
       d="m 74.19049,62.588491 -22.691,4.129 v 20.914 l 22.691,-4.128 z m 0,0"
       id="path344-8-7-9"
       style="fill:#00ff00" />
    <path
       d="m 74.19049,62.588491 -8.257,-11.347 -22.692,4.129 8.258,11.347 z m 0,0"
       fill="#cccccc"
       id="path345-2-6-6"
       style="fill:#00ff00" />
    <path
       stroke-width="0.482987"
       stroke-linecap="butt"
       stroke-linejoin="round"
       fill="none"
       stroke="#000000"
       stroke-opacity="0.78"
       d="m 74.19049,62.588491 -8.257,-11.347 -22.692,4.129 8.258,11.347 z m 0,0"
       id="path346-4-1-3"
       style="fill:#00ff00" />
    <path
       d="m 51.49949,66.717491 -8.258,-11.347 v 20.914 l 8.258,11.347 z m 0,0"
       fill="#cccccc"
       id="path347-5-8-7"
       style="fill:#00ff00" />
    <path
       stroke-width="0.482987"
       stroke-linecap="butt"
       stroke-linejoin="round"
       fill="none"
       stroke="#000000"
       stroke-opacity="0.78"
       d="m 51.49949,66.717491 -8.258,-11.347 v 20.914 l 8.258,11.347 z m 0,0"
       id="path348-5-9-8"
       style="fill:#00ff00" />
  </g>
  <g
     id="g348-7-8"
     transform="translate(-42.999996,-0.91299967)">
    <path
       d="m 74.19049,62.588491 -22.691,4.129 v 20.914 l 22.691,-4.128 z m 0,0"
       fill="#cccccc"
       id="path343-8-793-2" />
    <path
       stroke-width="0.482987"
       stroke-linecap="butt"
       stroke-linejoin="round"
       fill="none"
       stroke="#000000"
       stroke-opacity="0.78"
       d="m 74.19049,62.588491 -22.691,4.129 v 20.914 l 22.691,-4.128 z m 0,0"
       id="path344-8-19-9" />
    <path
       d="m 74.19049,62.588491 -8.257,-11.347 -22.692,4.129 8.258,11.347 z m 0,0"
       fill="#cccccc"
       id="path345-2-86-1" />
    <path
       stroke-width="0.482987"
       stroke-linecap="butt"
       stroke-linejoin="round"
       fill="none"
       stroke="#000000"
       stroke-opacity="0.78"
       d="m 74.19049,62.588491 -8.257,-11.347 -22.692,4.129 8.258,11.347 z m 0,0"
       id="path346-4-50-3" />
    <path
       d="m 51.49949,66.717491 -8.258,-11.347 v 20.914 l 8.258,11.347 z m 0,0"
       fill="#cccccc"
       id="path347-5-28-5" />
    <path
       stroke-width="0.482987"
       stroke-linecap="butt"
       stroke-linejoin="round"
       fill="none"
       stroke="#000000"
       stroke-opacity="0.78"
       d="m 51.49949,66.717491 -8.258,-11.347 v 20.914 l 8.258,11.347 z m 0,0"
       id="path348-5-6-9" />
  </g>
  <g
     id="g348-2-8"
     transform="translate(-42.999996,-21.8275)">
    <path
       d="m 74.19049,62.588491 -22.691,4.129 v 20.914 l 22.691,-4.128 z m 0,0"
       fill="#cccccc"
       id="path343-8-79-4" />
    <path
       stroke-width="0.482987"
       stroke-linecap="butt"
       stroke-linejoin="round"
       fill="none"
       stroke="#000000"
       stroke-opacity="0.78"
       d="m 74.19049,62.588491 -22.691,4.129 v 20.914 l 22.691,-4.128 z m 0,0"
       id="path344-8-5-0" />
    <path
       d="m 74.19049,62.588491 -8.257,-11.347 -22.692,4.129 8.258,11.347 z m 0,0"
       fill="#cccccc"
       id="path345-2-4-7" />
    <path
       stroke-width="0.482987"
       stroke-linecap="butt"
       stroke-linejoin="round"
       fill="none"
       stroke="#000000"
       stroke-opacity="0.78"
       d="m 74.19049,62.588491 -8.257,-11.347 -22.692,4.129 8.258,11.347 z m 0,0"
       id="path346-4-31-6" />
    <path
       d="m 51.49949,66.717491 -8.258,-11.347 v 20.914 l 8.258,11.347 z m 0,0"
       fill="#cccccc"
       id="path347-5-23-3" />
    <path
       stroke-width="0.482987"
       stroke-linecap="butt"
       stroke-linejoin="round"
       fill="none"
       stroke="#000000"
       stroke-opacity="0.78"
       d="m 51.49949,66.717491 -8.258,-11.347 v 20.914 l 8.258,11.347 z m 0,0"
       id="path348-5-3-6" />
  </g>
  <g
     id="g348-4-1"
     transform="translate(-42.999996,-42.742)">
    <path
       d="m 74.19049,62.588491 -22.691,4.129 v 20.914 l 22.691,-4.128 z m 0,0"
       fill="#cccccc"
       id="path343-8-11-5" />
    <path
       stroke-width="0.482987"
       stroke-linecap="butt"
       stroke-linejoin="round"
       fill="none"
       stroke="#000000"
       stroke-opacity="0.78"
       d="m 74.19049,62.588491 -22.691,4.129 v 20.914 l 22.691,-4.128 z m 0,0"
       id="path344-8-3-4" />
    <path
       d="m 74.19049,62.588491 -8.257,-11.347 -22.692,4.129 8.258,11.347 z m 0,0"
       fill="#cccccc"
       id="path345-2-8-2" />
    <path
       stroke-width="0.482987"
       stroke-linecap="butt"
       stroke-linejoin="round"
       fill="none"
       stroke="#000000"
       stroke-opacity="0.78"
       d="m 74.19049,62.588491 -8.257,-11.347 -22.692,4.129 8.258,11.347 z m 0,0"
       id="path346-4-7-0" />
    <path
       d="m 51.49949,66.717491 -8.258,-11.347 v 20.914 l 8.258,11.347 z m 0,0"
       fill="#cccccc"
       id="path347-5-4-9" />
    <path
       stroke-width="0.482987"
       stroke-linecap="butt"
       stroke-linejoin="round"
       fill="none"
       stroke="#000000"
       stroke-opacity="0.78"
       d="m 51.49949,66.717491 -8.258,-11.347 v 20.914 l 8.258,11.347 z m 0,0"
       id="path348-5-2-7" />
  </g>
</svg>
