<?xml version="1.0" encoding="UTF-8" standalone="no"?>
<svg
   version="1.1"
   width="76.814514"
   height="86.959984"
   viewBox="0 0 76.814515 86.959987"
   id="svg348"
   xmlns="http://www.w3.org/2000/svg"
   xmlns:svg="http://www.w3.org/2000/svg">
  <defs
     id="defs348" />
  <g
     id="g348-0-3"
     transform="translate(2.3825201,-9.1709986)">
    <path
       d="m 74.19049,62.588491 -22.691,4.129 v 20.914 l 22.691,-4.128 z m 0,0"
       fill="#cccccc"
       id="path343-8-2-7" />
    <path
       stroke-width="0.482987"
       stroke-linecap="butt"
       stroke-linejoin="round"
       fill="none"
       stroke="#000000"
       stroke-opacity="0.78"
       d="m 74.19049,62.588491 -22.691,4.129 v 20.914 l 22.691,-4.128 z m 0,0"
       id="path344-8-48-2" />
    <path
       d="m 74.19049,62.588491 -8.257,-11.347 -22.692,4.129 8.258,11.347 z m 0,0"
       fill="#cccccc"
       id="path345-2-65-6" />
    <path
       stroke-width="0.482987"
       stroke-linecap="butt"
       stroke-linejoin="round"
       fill="none"
       stroke="#000000"
       stroke-opacity="0.78"
       d="m 74.19049,62.588491 -8.257,-11.347 -22.692,4.129 8.258,11.347 z m 0,0"
       id="path346-4-0-0" />
    <path
       d="m 51.49949,66.717491 -8.258,-11.347 v 20.914 l 8.258,11.347 z m 0,0"
       fill="#cccccc"
       id="path347-5-9-1" />
    <path
       stroke-width="0.482987"
       stroke-linecap="butt"
       stroke-linejoin="round"
       fill="none"
       stroke="#000000"
       stroke-opacity="0.78"
       d="m 51.49949,66.717491 -8.258,-11.347 v 20.914 l 8.258,11.347 z m 0,0"
       id="path348-5-0-6" />
  </g>
  <g
     id="g348-1-0-5"
     transform="translate(2.3825201,-30.085499)"
     style="fill:#ff0000">
    <path
       d="m 74.19049,62.588491 -22.691,4.129 v 20.914 l 22.691,-4.128 z m 0,0"
       fill="#cccccc"
       id="path343-8-7-6-7"
       style="fill:#ff0000" />
    <path
       stroke-width="0.482987"
       stroke-linecap="butt"
       stroke-linejoin="round"
       fill="none"
       stroke="#000000"
       stroke-opacity="0.78"
       d="m 74.19049,62.588491 -22.691,4.129 v 20.914 l 22.691,-4.128 z m 0,0"
       id="path344-8-1-1-5"
       style="fill:#ff0000" />
    <path
       d="m 74.19049,62.588491 -8.257,-11.347 -22.692,4.129 8.258,11.347 z m 0,0"
       fill="#cccccc"
       id="path345-2-1-3-4"
       style="fill:#ff0000" />
    <path
       stroke-width="0.482987"
       stroke-linecap="butt"
       stroke-linejoin="round"
       fill="none"
       stroke="#000000"
       stroke-opacity="0.78"
       d="m 74.19049,62.588491 -8.257,-11.347 -22.692,4.129 8.258,11.347 z m 0,0"
       id="path346-4-5-8-1"
       style="fill:#ff0000" />
    <path
       d="m 51.49949,66.717491 -8.258,-11.347 v 20.914 l 8.258,11.347 z m 0,0"
       fill="#cccccc"
       id="path347-5-2-9-2"
       style="fill:#ff0000" />
    <path
       stroke-width="0.482987"
       stroke-linecap="butt"
       stroke-linejoin="round"
       fill="none"
       stroke="#000000"
       stroke-opacity="0.78"
       d="m 51.49949,66.717491 -8.258,-11.347 v 20.914 l 8.258,11.347 z m 0,0"
       id="path348-5-7-3-0"
       style="fill:#ff0000" />
  </g>
  <g
     id="g348-6-4-0"
     transform="translate(2.3825201,-50.999999)">
    <path
       d="m 74.19049,62.588491 -22.691,4.129 v 20.914 l 22.691,-4.128 z m 0,0"
       fill="#cccccc"
       id="path343-8-1-4-1" />
    <path
       stroke-width="0.482987"
       stroke-linecap="butt"
       stroke-linejoin="round"
       fill="none"
       stroke="#000000"
       stroke-opacity="0.78"
       d="m 74.19049,62.588491 -22.691,4.129 v 20.914 l 22.691,-4.128 z m 0,0"
       id="path344-8-4-6-4" />
    <path
       d="m 74.19049,62.588491 -8.257,-11.347 -22.692,4.129 8.258,11.347 z m 0,0"
       fill="#cccccc"
       id="path345-2-2-0-6" />
    <path
       stroke-width="0.482987"
       stroke-linecap="butt"
       stroke-linejoin="round"
       fill="none"
       stroke="#000000"
       stroke-opacity="0.78"
       d="m 74.19049,62.588491 -8.257,-11.347 -22.692,4.129 8.258,11.347 z m 0,0"
       id="path346-4-3-6-0" />
    <path
       d="m 51.49949,66.717491 -8.258,-11.347 v 20.914 l 8.258,11.347 z m 0,0"
       fill="#cccccc"
       id="path347-5-22-6-7" />
    <path
       stroke-width="0.482987"
       stroke-linecap="butt"
       stroke-linejoin="round"
       fill="none"
       stroke="#000000"
       stroke-opacity="0.78"
       d="m 51.49949,66.717491 -8.258,-11.347 v 20.914 l 8.258,11.347 z m 0,0"
       id="path348-5-1-1-1" />
  </g>
  <g
     id="g348-68-8-7"
     transform="translate(-20.30848,-25.956499)"
     style="fill:#cccccc;fill-opacity:1">
    <path
       d="m 74.19049,62.588491 -22.691,4.129 v 20.914 l 22.691,-4.128 z m 0,0"
       fill="#cccccc"
       id="path343-8-5-4-7"
       style="fill:#cccccc;fill-opacity:1" />
    <path
       stroke-width="0.482987"
       stroke-linecap="butt"
       stroke-linejoin="round"
       fill="none"
       stroke="#000000"
       stroke-opacity="0.78"
       d="m 74.19049,62.588491 -22.691,4.129 v 20.914 l 22.691,-4.128 z m 0,0"
       id="path344-8-7-9-7"
       style="fill:#cccccc;fill-opacity:1" />
    <path
       d="m 74.19049,62.588491 -8.257,-11.347 -22.692,4.129 8.258,11.347 z m 0,0"
       fill="#cccccc"
       id="path345-2-6-6-7"
       style="fill:#cccccc;fill-opacity:1" />
    <path
       stroke-width="0.482987"
       stroke-linecap="butt"
       stroke-linejoin="round"
       fill="none"
       stroke="#000000"
       stroke-opacity="0.78"
       d="m 74.19049,62.588491 -8.257,-11.347 -22.692,4.129 8.258,11.347 z m 0,0"
       id="path346-4-1-3-3"
       style="fill:#cccccc;fill-opacity:1" />
    <path
       d="m 51.49949,66.717491 -8.258,-11.347 v 20.914 l 8.258,11.347 z m 0,0"
       fill="#cccccc"
       id="path347-5-8-7-3"
       style="fill:#cccccc;fill-opacity:1" />
    <path
       stroke-width="0.482987"
       stroke-linecap="butt"
       stroke-linejoin="round"
       fill="none"
       stroke="#000000"
       stroke-opacity="0.78"
       d="m 51.49949,66.717491 -8.258,-11.347 v 20.914 l 8.258,11.347 z m 0,0"
       id="path348-5-9-8-5"
       style="fill:#cccccc;fill-opacity:1" />
  </g>
  <g
     id="g348-7-8-9"
     transform="translate(-42.99998,-0.91299863)">
    <path
       d="m 74.19049,62.588491 -22.691,4.129 v 20.914 l 22.691,-4.128 z m 0,0"
       fill="#cccccc"
       id="path343-8-793-2-9" />
    <path
       stroke-width="0.482987"
       stroke-linecap="butt"
       stroke-linejoin="round"
       fill="none"
       stroke="#000000"
       stroke-opacity="0.78"
       d="m 74.19049,62.588491 -22.691,4.129 v 20.914 l 22.691,-4.128 z m 0,0"
       id="path344-8-19-9-8" />
    <path
       d="m 74.19049,62.588491 -8.257,-11.347 -22.692,4.129 8.258,11.347 z m 0,0"
       fill="#cccccc"
       id="path345-2-86-1-1" />
    <path
       stroke-width="0.482987"
       stroke-linecap="butt"
       stroke-linejoin="round"
       fill="none"
       stroke="#000000"
       stroke-opacity="0.78"
       d="m 74.19049,62.588491 -8.257,-11.347 -22.692,4.129 8.258,11.347 z m 0,0"
       id="path346-4-50-3-8" />
    <path
       d="m 51.49949,66.717491 -8.258,-11.347 v 20.914 l 8.258,11.347 z m 0,0"
       fill="#cccccc"
       id="path347-5-28-5-2" />
    <path
       stroke-width="0.482987"
       stroke-linecap="butt"
       stroke-linejoin="round"
       fill="none"
       stroke="#000000"
       stroke-opacity="0.78"
       d="m 51.49949,66.717491 -8.258,-11.347 v 20.914 l 8.258,11.347 z m 0,0"
       id="path348-5-6-9-6" />
  </g>
  <g
     id="g348-2-8-6"
     transform="translate(-42.99998,-21.827499)">
    <path
       d="m 74.19049,62.588491 -22.691,4.129 v 20.914 l 22.691,-4.128 z m 0,0"
       fill="#cccccc"
       id="path343-8-79-4-0" />
    <path
       stroke-width="0.482987"
       stroke-linecap="butt"
       stroke-linejoin="round"
       fill="none"
       stroke="#000000"
       stroke-opacity="0.78"
       d="m 74.19049,62.588491 -22.691,4.129 v 20.914 l 22.691,-4.128 z m 0,0"
       id="path344-8-5-0-3" />
    <path
       d="m 74.19049,62.588491 -8.257,-11.347 -22.692,4.129 8.258,11.347 z m 0,0"
       fill="#cccccc"
       id="path345-2-4-7-8" />
    <path
       stroke-width="0.482987"
       stroke-linecap="butt"
       stroke-linejoin="round"
       fill="none"
       stroke="#000000"
       stroke-opacity="0.78"
       d="m 74.19049,62.588491 -8.257,-11.347 -22.692,4.129 8.258,11.347 z m 0,0"
       id="path346-4-31-6-0" />
    <path
       d="m 51.49949,66.717491 -8.258,-11.347 v 20.914 l 8.258,11.347 z m 0,0"
       fill="#cccccc"
       id="path347-5-23-3-1" />
    <path
       stroke-width="0.482987"
       stroke-linecap="butt"
       stroke-linejoin="round"
       fill="none"
       stroke="#000000"
       stroke-opacity="0.78"
       d="m 51.49949,66.717491 -8.258,-11.347 v 20.914 l 8.258,11.347 z m 0,0"
       id="path348-5-3-6-2" />
  </g>
  <g
     id="g348-4-1-5"
     transform="translate(-42.99998,-42.741999)">
    <path
       d="m 74.19049,62.588491 -22.691,4.129 v 20.914 l 22.691,-4.128 z m 0,0"
       fill="#cccccc"
       id="path343-8-11-5-0" />
    <path
       stroke-width="0.482987"
       stroke-linecap="butt"
       stroke-linejoin="round"
       fill="none"
       stroke="#000000"
       stroke-opacity="0.78"
       d="m 74.19049,62.588491 -22.691,4.129 v 20.914 l 22.691,-4.128 z m 0,0"
       id="path344-8-3-4-9" />
    <path
       d="m 74.19049,62.588491 -8.257,-11.347 -22.692,4.129 8.258,11.347 z m 0,0"
       fill="#cccccc"
       id="path345-2-8-2-4" />
    <path
       stroke-width="0.482987"
       stroke-linecap="butt"
       stroke-linejoin="round"
       fill="none"
       stroke="#000000"
       stroke-opacity="0.78"
       d="m 74.19049,62.588491 -8.257,-11.347 -22.692,4.129 8.258,11.347 z m 0,0"
       id="path346-4-7-0-7" />
    <path
       d="m 51.49949,66.717491 -8.258,-11.347 v 20.914 l 8.258,11.347 z m 0,0"
       fill="#cccccc"
       id="path347-5-4-9-8" />
    <path
       stroke-width="0.482987"
       stroke-linecap="butt"
       stroke-linejoin="round"
       fill="none"
       stroke="#000000"
       stroke-opacity="0.78"
       d="m 51.49949,66.717491 -8.258,-11.347 v 20.914 l 8.258,11.347 z m 0,0"
       id="path348-5-2-7-3" />
  </g>
</svg>
