<?xml version="1.0" encoding="UTF-8"?>
<svg xmlns="http://www.w3.org/2000/svg" xmlns:xlink="http://www.w3.org/1999/xlink" width="50" height="42" viewBox="0 0 50 42">
<path fill-rule="evenodd" fill="rgb(0%, 0%, 0%)" fill-opacity="0.33" d="M 1 13 L 1 29 L 2 30 L 6 30 L 6 26 L 9 26 L 9 29 L 10 30 L 13 30 L 13 37 L 14 38 L 17 38 L 17 41 L 18 42 L 50 42 L 50 34 L 49 33 L 42 33 L 42 30 L 46 30 L 46 18 L 45 17 L 38 17 L 38 6 L 42 6 L 42 2 L 41 1 L 33 1 L 33 9 L 30 9 L 30 2 L 29 1 L 25 1 L 25 5 L 22 5 L 22 2 L 21 1 L 17 1 L 17 9 L 5 9 L 5 13 Z M 14 14 L 14 21 L 17 21 L 18 22 L 18 25 L 25 25 L 26 26 L 26 29 L 29 29 L 29 25 L 33 25 L 33 22 L 30 22 L 29 21 L 29 18 L 22 18 L 21 17 L 21 14 Z M 26 10 L 26 13 L 29 13 L 29 10 Z M 18 30 L 18 33 L 21 33 L 21 30 Z M 34 30 L 34 33 L 37 33 L 37 30 Z M 22 34 L 22 37 L 33 37 L 33 34 Z M 42 38 L 42 41 L 45 41 L 45 38 Z M 42 38 "/>
<path fill-rule="evenodd" fill="rgb(75%, 75%, 75%)" fill-opacity="1" stroke-width="0.4" stroke-linecap="butt" stroke-linejoin="round" stroke="rgb(0%, 0%, 0%)" stroke-opacity="1" stroke-miterlimit="10" d="M 76 608 L 76 604 L 80 604 L 80 608 Z M 76 608 " transform="matrix(1, 0, 0, -1, -75, 621)"/>
<path fill-rule="evenodd" fill="rgb(75%, 75%, 75%)" fill-opacity="1" stroke-width="0.4" stroke-linecap="butt" stroke-linejoin="round" stroke="rgb(0%, 0%, 0%)" stroke-opacity="1" stroke-miterlimit="10" d="M 76 604 L 76 600 L 80 600 L 80 604 Z M 76 604 " transform="matrix(1, 0, 0, -1, -75, 621)"/>
<path fill-rule="evenodd" fill="rgb(75%, 75%, 75%)" fill-opacity="1" stroke-width="0.4" stroke-linecap="butt" stroke-linejoin="round" stroke="rgb(0%, 0%, 0%)" stroke-opacity="1" stroke-miterlimit="10" d="M 76 600 L 76 596 L 80 596 L 80 600 Z M 76 600 " transform="matrix(1, 0, 0, -1, -75, 621)"/>
<path fill-rule="evenodd" fill="rgb(75%, 75%, 75%)" fill-opacity="1" stroke-width="0.4" stroke-linecap="butt" stroke-linejoin="round" stroke="rgb(0%, 0%, 0%)" stroke-opacity="1" stroke-miterlimit="10" d="M 76 596 L 76 592 L 80 592 L 80 596 Z M 76 596 " transform="matrix(1, 0, 0, -1, -75, 621)"/>
<path fill-rule="evenodd" fill="rgb(75%, 75%, 75%)" fill-opacity="1" stroke-width="0.4" stroke-linecap="butt" stroke-linejoin="round" stroke="rgb(0%, 0%, 0%)" stroke-opacity="1" stroke-miterlimit="10" d="M 80 612 L 80 608 L 84 608 L 84 612 Z M 80 612 " transform="matrix(1, 0, 0, -1, -75, 621)"/>
<path fill-rule="evenodd" fill="rgb(75%, 75%, 75%)" fill-opacity="1" stroke-width="0.4" stroke-linecap="butt" stroke-linejoin="round" stroke="rgb(0%, 0%, 0%)" stroke-opacity="1" stroke-miterlimit="10" d="M 80 608 L 80 604 L 84 604 L 84 608 Z M 80 608 " transform="matrix(1, 0, 0, -1, -75, 621)"/>
<path fill-rule="evenodd" fill="rgb(75%, 75%, 75%)" fill-opacity="1" stroke-width="0.4" stroke-linecap="butt" stroke-linejoin="round" stroke="rgb(0%, 0%, 0%)" stroke-opacity="1" stroke-miterlimit="10" d="M 80 604 L 80 600 L 84 600 L 84 604 Z M 80 604 " transform="matrix(1, 0, 0, -1, -75, 621)"/>
<path fill-rule="evenodd" fill="rgb(75%, 75%, 75%)" fill-opacity="1" stroke-width="0.4" stroke-linecap="butt" stroke-linejoin="round" stroke="rgb(0%, 0%, 0%)" stroke-opacity="1" stroke-miterlimit="10" d="M 80 600 L 80 596 L 84 596 L 84 600 Z M 80 600 " transform="matrix(1, 0, 0, -1, -75, 621)"/>
<path fill-rule="evenodd" fill="rgb(75%, 75%, 75%)" fill-opacity="1" stroke-width="0.4" stroke-linecap="butt" stroke-linejoin="round" stroke="rgb(0%, 0%, 0%)" stroke-opacity="1" stroke-miterlimit="10" d="M 84 612 L 84 608 L 88 608 L 88 612 Z M 84 612 " transform="matrix(1, 0, 0, -1, -75, 621)"/>
<path fill-rule="evenodd" fill="rgb(75%, 75%, 75%)" fill-opacity="1" stroke-width="0.4" stroke-linecap="butt" stroke-linejoin="round" stroke="rgb(0%, 0%, 0%)" stroke-opacity="1" stroke-miterlimit="10" d="M 84 608 L 84 604 L 88 604 L 88 608 Z M 84 608 " transform="matrix(1, 0, 0, -1, -75, 621)"/>
<path fill-rule="evenodd" fill="rgb(75%, 75%, 75%)" fill-opacity="1" stroke-width="0.4" stroke-linecap="butt" stroke-linejoin="round" stroke="rgb(0%, 0%, 0%)" stroke-opacity="1" stroke-miterlimit="10" d="M 84 604 L 84 600 L 88 600 L 88 604 Z M 84 604 " transform="matrix(1, 0, 0, -1, -75, 621)"/>
<path fill-rule="evenodd" fill="rgb(75%, 75%, 75%)" fill-opacity="1" stroke-width="0.4" stroke-linecap="butt" stroke-linejoin="round" stroke="rgb(0%, 0%, 0%)" stroke-opacity="1" stroke-miterlimit="10" d="M 84 600 L 84 596 L 88 596 L 88 600 Z M 84 600 " transform="matrix(1, 0, 0, -1, -75, 621)"/>
<path fill-rule="evenodd" fill="rgb(75%, 75%, 75%)" fill-opacity="1" stroke-width="0.4" stroke-linecap="butt" stroke-linejoin="round" stroke="rgb(0%, 0%, 0%)" stroke-opacity="1" stroke-miterlimit="10" d="M 84 596 L 84 592 L 88 592 L 88 596 Z M 84 596 " transform="matrix(1, 0, 0, -1, -75, 621)"/>
<path fill-rule="evenodd" fill="rgb(75%, 75%, 75%)" fill-opacity="1" stroke-width="0.4" stroke-linecap="butt" stroke-linejoin="round" stroke="rgb(0%, 0%, 0%)" stroke-opacity="1" stroke-miterlimit="10" d="M 88 612 L 88 608 L 92 608 L 92 612 Z M 88 612 " transform="matrix(1, 0, 0, -1, -75, 621)"/>
<path fill-rule="evenodd" fill="rgb(75%, 75%, 75%)" fill-opacity="1" stroke-width="0.4" stroke-linecap="butt" stroke-linejoin="round" stroke="rgb(0%, 0%, 0%)" stroke-opacity="1" stroke-miterlimit="10" d="M 92 612 L 92 608 L 96 608 L 96 612 Z M 92 612 " transform="matrix(1, 0, 0, -1, -75, 621)"/>
<path fill-rule="evenodd" fill="rgb(75%, 75%, 75%)" fill-opacity="1" stroke-width="0.4" stroke-linecap="butt" stroke-linejoin="round" stroke="rgb(0%, 0%, 0%)" stroke-opacity="1" stroke-miterlimit="10" d="M 92 616 L 92 612 L 96 612 L 96 616 Z M 92 616 " transform="matrix(1, 0, 0, -1, -75, 621)"/>
<path fill-rule="evenodd" fill="rgb(75%, 75%, 75%)" fill-opacity="1" stroke-width="0.4" stroke-linecap="butt" stroke-linejoin="round" stroke="rgb(0%, 0%, 0%)" stroke-opacity="1" stroke-miterlimit="10" d="M 92 620 L 92 616 L 96 616 L 96 620 Z M 92 620 " transform="matrix(1, 0, 0, -1, -75, 621)"/>
<path fill-rule="evenodd" fill="rgb(75%, 75%, 75%)" fill-opacity="1" stroke-width="0.4" stroke-linecap="butt" stroke-linejoin="round" stroke="rgb(0%, 0%, 0%)" stroke-opacity="1" stroke-miterlimit="10" d="M 96 616 L 96 612 L 100 612 L 100 616 Z M 96 616 " transform="matrix(1, 0, 0, -1, -75, 621)"/>
<path fill-rule="evenodd" fill="rgb(75%, 75%, 75%)" fill-opacity="1" stroke-width="0.4" stroke-linecap="butt" stroke-linejoin="round" stroke="rgb(0%, 0%, 0%)" stroke-opacity="1" stroke-miterlimit="10" d="M 96 612 L 96 608 L 100 608 L 100 612 Z M 96 612 " transform="matrix(1, 0, 0, -1, -75, 621)"/>
<path fill-rule="evenodd" fill="rgb(75%, 75%, 75%)" fill-opacity="1" stroke-width="0.4" stroke-linecap="butt" stroke-linejoin="round" stroke="rgb(0%, 0%, 0%)" stroke-opacity="1" stroke-miterlimit="10" d="M 96 608 L 96 604 L 100 604 L 100 608 Z M 96 608 " transform="matrix(1, 0, 0, -1, -75, 621)"/>
<path fill-rule="evenodd" fill="rgb(75%, 75%, 75%)" fill-opacity="1" stroke-width="0.4" stroke-linecap="butt" stroke-linejoin="round" stroke="rgb(0%, 0%, 0%)" stroke-opacity="1" stroke-miterlimit="10" d="M 100 616 L 100 612 L 104 612 L 104 616 Z M 100 616 " transform="matrix(1, 0, 0, -1, -75, 621)"/>
<path fill-rule="evenodd" fill="rgb(75%, 75%, 75%)" fill-opacity="1" stroke-width="0.4" stroke-linecap="butt" stroke-linejoin="round" stroke="rgb(0%, 0%, 0%)" stroke-opacity="1" stroke-miterlimit="10" d="M 100 620 L 100 616 L 104 616 L 104 620 Z M 100 620 " transform="matrix(1, 0, 0, -1, -75, 621)"/>
<path fill-rule="evenodd" fill="rgb(75%, 75%, 75%)" fill-opacity="1" stroke-width="0.4" stroke-linecap="butt" stroke-linejoin="round" stroke="rgb(0%, 0%, 0%)" stroke-opacity="1" stroke-miterlimit="10" d="M 100 608 L 100 604 L 104 604 L 104 608 Z M 100 608 " transform="matrix(1, 0, 0, -1, -75, 621)"/>
<path fill-rule="evenodd" fill="rgb(75%, 75%, 75%)" fill-opacity="1" stroke-width="0.4" stroke-linecap="butt" stroke-linejoin="round" stroke="rgb(0%, 0%, 0%)" stroke-opacity="1" stroke-miterlimit="10" d="M 104 608 L 104 604 L 108 604 L 108 608 Z M 104 608 " transform="matrix(1, 0, 0, -1, -75, 621)"/>
<path fill-rule="evenodd" fill="rgb(75%, 75%, 75%)" fill-opacity="1" stroke-width="0.4" stroke-linecap="butt" stroke-linejoin="round" stroke="rgb(0%, 0%, 0%)" stroke-opacity="1" stroke-miterlimit="10" d="M 104 612 L 104 608 L 108 608 L 108 612 Z M 104 612 " transform="matrix(1, 0, 0, -1, -75, 621)"/>
<path fill-rule="evenodd" fill="rgb(75%, 75%, 75%)" fill-opacity="1" stroke-width="0.4" stroke-linecap="butt" stroke-linejoin="round" stroke="rgb(0%, 0%, 0%)" stroke-opacity="1" stroke-miterlimit="10" d="M 104 604 L 104 600 L 108 600 L 108 604 Z M 104 604 " transform="matrix(1, 0, 0, -1, -75, 621)"/>
<path fill-rule="evenodd" fill="rgb(75%, 75%, 75%)" fill-opacity="1" stroke-width="0.4" stroke-linecap="butt" stroke-linejoin="round" stroke="rgb(0%, 0%, 0%)" stroke-opacity="1" stroke-miterlimit="10" d="M 108 612 L 108 608 L 112 608 L 112 612 Z M 108 612 " transform="matrix(1, 0, 0, -1, -75, 621)"/>
<path fill-rule="evenodd" fill="rgb(75%, 75%, 75%)" fill-opacity="1" stroke-width="0.4" stroke-linecap="butt" stroke-linejoin="round" stroke="rgb(0%, 0%, 0%)" stroke-opacity="1" stroke-miterlimit="10" d="M 108 616 L 108 612 L 112 612 L 112 616 Z M 108 616 " transform="matrix(1, 0, 0, -1, -75, 621)"/>
<path fill-rule="evenodd" fill="rgb(75%, 75%, 75%)" fill-opacity="1" stroke-width="0.4" stroke-linecap="butt" stroke-linejoin="round" stroke="rgb(0%, 0%, 0%)" stroke-opacity="1" stroke-miterlimit="10" d="M 108 620 L 108 616 L 112 616 L 112 620 Z M 108 620 " transform="matrix(1, 0, 0, -1, -75, 621)"/>
<path fill-rule="evenodd" fill="rgb(75%, 75%, 75%)" fill-opacity="1" stroke-width="0.4" stroke-linecap="butt" stroke-linejoin="round" stroke="rgb(0%, 0%, 0%)" stroke-opacity="1" stroke-miterlimit="10" d="M 112 620 L 112 616 L 116 616 L 116 620 Z M 112 620 " transform="matrix(1, 0, 0, -1, -75, 621)"/>
<path fill-rule="evenodd" fill="rgb(75%, 75%, 75%)" fill-opacity="1" stroke-width="0.4" stroke-linecap="butt" stroke-linejoin="round" stroke="rgb(0%, 0%, 0%)" stroke-opacity="1" stroke-miterlimit="10" d="M 108 608 L 108 604 L 112 604 L 112 608 Z M 108 608 " transform="matrix(1, 0, 0, -1, -75, 621)"/>
<path fill-rule="evenodd" fill="rgb(75%, 75%, 75%)" fill-opacity="1" stroke-width="0.4" stroke-linecap="butt" stroke-linejoin="round" stroke="rgb(0%, 0%, 0%)" stroke-opacity="1" stroke-miterlimit="10" d="M 108 604 L 108 600 L 112 600 L 112 604 Z M 108 604 " transform="matrix(1, 0, 0, -1, -75, 621)"/>
<path fill-rule="evenodd" fill="rgb(75%, 75%, 75%)" fill-opacity="1" stroke-width="0.4" stroke-linecap="butt" stroke-linejoin="round" stroke="rgb(0%, 0%, 0%)" stroke-opacity="1" stroke-miterlimit="10" d="M 112 604 L 112 600 L 116 600 L 116 604 Z M 112 604 " transform="matrix(1, 0, 0, -1, -75, 621)"/>
<path fill-rule="evenodd" fill="rgb(75%, 75%, 75%)" fill-opacity="1" stroke-width="0.4" stroke-linecap="butt" stroke-linejoin="round" stroke="rgb(0%, 0%, 0%)" stroke-opacity="1" stroke-miterlimit="10" d="M 116 604 L 116 600 L 120 600 L 120 604 Z M 116 604 " transform="matrix(1, 0, 0, -1, -75, 621)"/>
<path fill-rule="evenodd" fill="rgb(75%, 75%, 75%)" fill-opacity="1" stroke-width="0.4" stroke-linecap="butt" stroke-linejoin="round" stroke="rgb(0%, 0%, 0%)" stroke-opacity="1" stroke-miterlimit="10" d="M 108 600 L 108 596 L 112 596 L 112 600 Z M 108 600 " transform="matrix(1, 0, 0, -1, -75, 621)"/>
<path fill-rule="evenodd" fill="rgb(75%, 75%, 75%)" fill-opacity="1" stroke-width="0.4" stroke-linecap="butt" stroke-linejoin="round" stroke="rgb(0%, 0%, 0%)" stroke-opacity="1" stroke-miterlimit="10" d="M 112 600 L 112 596 L 116 596 L 116 600 Z M 112 600 " transform="matrix(1, 0, 0, -1, -75, 621)"/>
<path fill-rule="evenodd" fill="rgb(75%, 75%, 75%)" fill-opacity="1" stroke-width="0.4" stroke-linecap="butt" stroke-linejoin="round" stroke="rgb(0%, 0%, 0%)" stroke-opacity="1" stroke-miterlimit="10" d="M 116 600 L 116 596 L 120 596 L 120 600 Z M 116 600 " transform="matrix(1, 0, 0, -1, -75, 621)"/>
<path fill-rule="evenodd" fill="rgb(75%, 75%, 75%)" fill-opacity="1" stroke-width="0.4" stroke-linecap="butt" stroke-linejoin="round" stroke="rgb(0%, 0%, 0%)" stroke-opacity="1" stroke-miterlimit="10" d="M 104 596 L 104 592 L 108 592 L 108 596 Z M 104 596 " transform="matrix(1, 0, 0, -1, -75, 621)"/>
<path fill-rule="evenodd" fill="rgb(75%, 75%, 75%)" fill-opacity="1" stroke-width="0.4" stroke-linecap="butt" stroke-linejoin="round" stroke="rgb(0%, 0%, 0%)" stroke-opacity="1" stroke-miterlimit="10" d="M 108 596 L 108 592 L 112 592 L 112 596 Z M 108 596 " transform="matrix(1, 0, 0, -1, -75, 621)"/>
<path fill-rule="evenodd" fill="rgb(75%, 75%, 75%)" fill-opacity="1" stroke-width="0.4" stroke-linecap="butt" stroke-linejoin="round" stroke="rgb(0%, 0%, 0%)" stroke-opacity="1" stroke-miterlimit="10" d="M 112 596 L 112 592 L 116 592 L 116 596 Z M 112 596 " transform="matrix(1, 0, 0, -1, -75, 621)"/>
<path fill-rule="evenodd" fill="rgb(75%, 75%, 75%)" fill-opacity="1" stroke-width="0.4" stroke-linecap="butt" stroke-linejoin="round" stroke="rgb(0%, 0%, 0%)" stroke-opacity="1" stroke-miterlimit="10" d="M 116 596 L 116 592 L 120 592 L 120 596 Z M 116 596 " transform="matrix(1, 0, 0, -1, -75, 621)"/>
<path fill-rule="evenodd" fill="rgb(75%, 75%, 75%)" fill-opacity="1" stroke-width="0.4" stroke-linecap="butt" stroke-linejoin="round" stroke="rgb(0%, 0%, 0%)" stroke-opacity="1" stroke-miterlimit="10" d="M 88 600 L 88 596 L 92 596 L 92 600 Z M 88 600 " transform="matrix(1, 0, 0, -1, -75, 621)"/>
<path fill-rule="evenodd" fill="rgb(75%, 75%, 75%)" fill-opacity="1" stroke-width="0.4" stroke-linecap="butt" stroke-linejoin="round" stroke="rgb(0%, 0%, 0%)" stroke-opacity="1" stroke-miterlimit="10" d="M 88 596 L 88 592 L 92 592 L 92 596 Z M 88 596 " transform="matrix(1, 0, 0, -1, -75, 621)"/>
<path fill-rule="evenodd" fill="rgb(75%, 75%, 75%)" fill-opacity="1" stroke-width="0.4" stroke-linecap="butt" stroke-linejoin="round" stroke="rgb(0%, 0%, 0%)" stroke-opacity="1" stroke-miterlimit="10" d="M 92 596 L 92 592 L 96 592 L 96 596 Z M 92 596 " transform="matrix(1, 0, 0, -1, -75, 621)"/>
<path fill-rule="evenodd" fill="rgb(75%, 75%, 75%)" fill-opacity="1" stroke-width="0.4" stroke-linecap="butt" stroke-linejoin="round" stroke="rgb(0%, 0%, 0%)" stroke-opacity="1" stroke-miterlimit="10" d="M 96 596 L 96 592 L 100 592 L 100 596 Z M 96 596 " transform="matrix(1, 0, 0, -1, -75, 621)"/>
<path fill-rule="evenodd" fill="rgb(75%, 75%, 75%)" fill-opacity="1" stroke-width="0.4" stroke-linecap="butt" stroke-linejoin="round" stroke="rgb(0%, 0%, 0%)" stroke-opacity="1" stroke-miterlimit="10" d="M 96 592 L 96 588 L 100 588 L 100 592 Z M 96 592 " transform="matrix(1, 0, 0, -1, -75, 621)"/>
<path fill-rule="evenodd" fill="rgb(75%, 75%, 75%)" fill-opacity="1" stroke-width="0.4" stroke-linecap="butt" stroke-linejoin="round" stroke="rgb(0%, 0%, 0%)" stroke-opacity="1" stroke-miterlimit="10" d="M 100 592 L 100 588 L 104 588 L 104 592 Z M 100 592 " transform="matrix(1, 0, 0, -1, -75, 621)"/>
<path fill-rule="evenodd" fill="rgb(75%, 75%, 75%)" fill-opacity="1" stroke-width="0.4" stroke-linecap="butt" stroke-linejoin="round" stroke="rgb(0%, 0%, 0%)" stroke-opacity="1" stroke-miterlimit="10" d="M 104 592 L 104 588 L 108 588 L 108 592 Z M 104 592 " transform="matrix(1, 0, 0, -1, -75, 621)"/>
<path fill-rule="evenodd" fill="rgb(75%, 75%, 75%)" fill-opacity="1" stroke-width="0.4" stroke-linecap="butt" stroke-linejoin="round" stroke="rgb(0%, 0%, 0%)" stroke-opacity="1" stroke-miterlimit="10" d="M 92 588 L 92 584 L 96 584 L 96 588 Z M 92 588 " transform="matrix(1, 0, 0, -1, -75, 621)"/>
<path fill-rule="evenodd" fill="rgb(75%, 75%, 75%)" fill-opacity="1" stroke-width="0.4" stroke-linecap="butt" stroke-linejoin="round" stroke="rgb(0%, 0%, 0%)" stroke-opacity="1" stroke-miterlimit="10" d="M 88 592 L 88 588 L 92 588 L 92 592 Z M 88 592 " transform="matrix(1, 0, 0, -1, -75, 621)"/>
<path fill-rule="evenodd" fill="rgb(75%, 75%, 75%)" fill-opacity="1" stroke-width="0.4" stroke-linecap="butt" stroke-linejoin="round" stroke="rgb(0%, 0%, 0%)" stroke-opacity="1" stroke-miterlimit="10" d="M 88 588 L 88 584 L 92 584 L 92 588 Z M 88 588 " transform="matrix(1, 0, 0, -1, -75, 621)"/>
<path fill-rule="evenodd" fill="rgb(75%, 75%, 75%)" fill-opacity="1" stroke-width="0.4" stroke-linecap="butt" stroke-linejoin="round" stroke="rgb(0%, 0%, 0%)" stroke-opacity="1" stroke-miterlimit="10" d="M 92 584 L 92 580 L 96 580 L 96 584 Z M 92 584 " transform="matrix(1, 0, 0, -1, -75, 621)"/>
<path fill-rule="evenodd" fill="rgb(75%, 75%, 75%)" fill-opacity="1" stroke-width="0.4" stroke-linecap="butt" stroke-linejoin="round" stroke="rgb(0%, 0%, 0%)" stroke-opacity="1" stroke-miterlimit="10" d="M 96 584 L 96 580 L 100 580 L 100 584 Z M 96 584 " transform="matrix(1, 0, 0, -1, -75, 621)"/>
<path fill-rule="evenodd" fill="rgb(75%, 75%, 75%)" fill-opacity="1" stroke-width="0.4" stroke-linecap="butt" stroke-linejoin="round" stroke="rgb(0%, 0%, 0%)" stroke-opacity="1" stroke-miterlimit="10" d="M 100 584 L 100 580 L 104 580 L 104 584 Z M 100 584 " transform="matrix(1, 0, 0, -1, -75, 621)"/>
<path fill-rule="evenodd" fill="rgb(75%, 75%, 75%)" fill-opacity="1" stroke-width="0.4" stroke-linecap="butt" stroke-linejoin="round" stroke="rgb(0%, 0%, 0%)" stroke-opacity="1" stroke-miterlimit="10" d="M 104 584 L 104 580 L 108 580 L 108 584 Z M 104 584 " transform="matrix(1, 0, 0, -1, -75, 621)"/>
<path fill-rule="evenodd" fill="rgb(75%, 75%, 75%)" fill-opacity="1" stroke-width="0.4" stroke-linecap="butt" stroke-linejoin="round" stroke="rgb(0%, 0%, 0%)" stroke-opacity="1" stroke-miterlimit="10" d="M 108 584 L 108 580 L 112 580 L 112 584 Z M 108 584 " transform="matrix(1, 0, 0, -1, -75, 621)"/>
<path fill-rule="evenodd" fill="rgb(75%, 75%, 75%)" fill-opacity="1" stroke-width="0.4" stroke-linecap="butt" stroke-linejoin="round" stroke="rgb(0%, 0%, 0%)" stroke-opacity="1" stroke-miterlimit="10" d="M 108 588 L 108 584 L 112 584 L 112 588 Z M 108 588 " transform="matrix(1, 0, 0, -1, -75, 621)"/>
<path fill-rule="evenodd" fill="rgb(75%, 75%, 75%)" fill-opacity="1" stroke-width="0.4" stroke-linecap="butt" stroke-linejoin="round" stroke="rgb(0%, 0%, 0%)" stroke-opacity="1" stroke-miterlimit="10" d="M 112 588 L 112 584 L 116 584 L 116 588 Z M 112 588 " transform="matrix(1, 0, 0, -1, -75, 621)"/>
<path fill-rule="evenodd" fill="rgb(75%, 75%, 75%)" fill-opacity="1" stroke-width="0.4" stroke-linecap="butt" stroke-linejoin="round" stroke="rgb(0%, 0%, 0%)" stroke-opacity="1" stroke-miterlimit="10" d="M 112 584 L 112 580 L 116 580 L 116 584 Z M 112 584 " transform="matrix(1, 0, 0, -1, -75, 621)"/>
<path fill-rule="evenodd" fill="rgb(75%, 75%, 75%)" fill-opacity="1" stroke-width="0.4" stroke-linecap="butt" stroke-linejoin="round" stroke="rgb(0%, 0%, 0%)" stroke-opacity="1" stroke-miterlimit="10" d="M 116 588 L 116 584 L 120 584 L 120 588 Z M 116 588 " transform="matrix(1, 0, 0, -1, -75, 621)"/>
<path fill-rule="evenodd" fill="rgb(75%, 75%, 75%)" fill-opacity="1" stroke-width="0.4" stroke-linecap="butt" stroke-linejoin="round" stroke="rgb(0%, 0%, 0%)" stroke-opacity="1" stroke-miterlimit="10" d="M 120 588 L 120 584 L 124 584 L 124 588 Z M 120 588 " transform="matrix(1, 0, 0, -1, -75, 621)"/>
<path fill-rule="evenodd" fill="rgb(75%, 75%, 75%)" fill-opacity="1" stroke-width="0.4" stroke-linecap="butt" stroke-linejoin="round" stroke="rgb(0%, 0%, 0%)" stroke-opacity="1" stroke-miterlimit="10" d="M 120 584 L 120 580 L 124 580 L 124 584 Z M 120 584 " transform="matrix(1, 0, 0, -1, -75, 621)"/>
<path fill-rule="evenodd" fill="rgb(75%, 75%, 75%)" fill-opacity="1" stroke-width="0.4" stroke-linecap="butt" stroke-linejoin="round" stroke="rgb(0%, 0%, 0%)" stroke-opacity="1" stroke-miterlimit="10" d="M 112 592 L 112 588 L 116 588 L 116 592 Z M 112 592 " transform="matrix(1, 0, 0, -1, -75, 621)"/>
</svg>
