<?xml version="1.0" encoding="UTF-8"?>
<svg xmlns="http://www.w3.org/2000/svg" xmlns:xlink="http://www.w3.org/1999/xlink" width="66" height="50" viewBox="0 0 66 50">
<path fill-rule="evenodd" fill="rgb(0%, 0%, 0%)" fill-opacity="0.33" d="M 1 1 L 1 49 L 2 50 L 26 50 L 26 14 L 25 13 L 14 13 L 14 2 L 13 1 Z M 1 1 "/>
<path fill-rule="evenodd" fill="rgb(75%, 75%, 75%)" fill-opacity="1" stroke-width="0.4" stroke-linecap="butt" stroke-linejoin="round" stroke="rgb(0%, 0%, 0%)" stroke-opacity="1" stroke-miterlimit="10" d="M 72 624 L 72 612 L 84 612 L 84 624 Z M 72 624 " transform="matrix(1, 0, 0, -1, -71, 625)"/>
<path fill-rule="evenodd" fill="rgb(75%, 75%, 75%)" fill-opacity="1" stroke-width="0.4" stroke-linecap="butt" stroke-linejoin="round" stroke="rgb(0%, 0%, 0%)" stroke-opacity="0.3" stroke-miterlimit="10" d="M 80 624 L 80 611.996094 M 76 623.996094 L 76 612 M 84 615.996094 L 72 616 M 84 620 L 72 619.996094 " transform="matrix(1, 0, 0, -1, -71, 625)"/>
<path fill-rule="evenodd" fill="rgb(75%, 75%, 75%)" fill-opacity="1" stroke-width="0.4" stroke-linecap="butt" stroke-linejoin="round" stroke="rgb(0%, 0%, 0%)" stroke-opacity="1" stroke-miterlimit="10" d="M 72 612 L 72 600 L 84 600 L 84 612 Z M 72 612 " transform="matrix(1, 0, 0, -1, -71, 625)"/>
<path fill-rule="evenodd" fill="rgb(75%, 75%, 75%)" fill-opacity="1" stroke-width="0.4" stroke-linecap="butt" stroke-linejoin="round" stroke="rgb(0%, 0%, 0%)" stroke-opacity="0.3" stroke-miterlimit="10" d="M 80 612 L 80 599.996094 M 76 611.996094 L 76 600 M 84 603.996094 L 72 604 M 84 608 L 72 607.996094 " transform="matrix(1, 0, 0, -1, -71, 625)"/>
<path fill-rule="evenodd" fill="rgb(75%, 75%, 75%)" fill-opacity="1" stroke-width="0.4" stroke-linecap="butt" stroke-linejoin="round" stroke="rgb(0%, 0%, 0%)" stroke-opacity="1" stroke-miterlimit="10" d="M 72 600 L 72 588 L 84 588 L 84 600 Z M 72 600 " transform="matrix(1, 0, 0, -1, -71, 625)"/>
<path fill-rule="evenodd" fill="rgb(75%, 75%, 75%)" fill-opacity="1" stroke-width="0.4" stroke-linecap="butt" stroke-linejoin="round" stroke="rgb(0%, 0%, 0%)" stroke-opacity="0.3" stroke-miterlimit="10" d="M 80 600 L 80 587.996094 M 76 599.996094 L 76 588 M 84 591.996094 L 72 592 M 84 596 L 72 595.996094 " transform="matrix(1, 0, 0, -1, -71, 625)"/>
<path fill-rule="evenodd" fill="rgb(75%, 75%, 75%)" fill-opacity="1" stroke-width="0.4" stroke-linecap="butt" stroke-linejoin="round" stroke="rgb(0%, 0%, 0%)" stroke-opacity="1" stroke-miterlimit="10" d="M 72 588 L 72 576 L 84 576 L 84 588 Z M 72 588 " transform="matrix(1, 0, 0, -1, -71, 625)"/>
<path fill-rule="evenodd" fill="rgb(75%, 75%, 75%)" fill-opacity="1" stroke-width="0.4" stroke-linecap="butt" stroke-linejoin="round" stroke="rgb(0%, 0%, 0%)" stroke-opacity="0.3" stroke-miterlimit="10" d="M 80 588 L 80 575.996094 M 76 587.996094 L 76 576 M 84 579.996094 L 72 580 M 84 584 L 72 583.996094 " transform="matrix(1, 0, 0, -1, -71, 625)"/>
<path fill-rule="evenodd" fill="rgb(75%, 75%, 75%)" fill-opacity="1" stroke-width="0.4" stroke-linecap="butt" stroke-linejoin="round" stroke="rgb(0%, 0%, 0%)" stroke-opacity="1" stroke-miterlimit="10" d="M 84 588 L 84 576 L 96 576 L 96 588 Z M 84 588 " transform="matrix(1, 0, 0, -1, -71, 625)"/>
<path fill-rule="evenodd" fill="rgb(75%, 75%, 75%)" fill-opacity="1" stroke-width="0.4" stroke-linecap="butt" stroke-linejoin="round" stroke="rgb(0%, 0%, 0%)" stroke-opacity="0.3" stroke-miterlimit="10" d="M 92 588 L 92 575.996094 M 88 587.996094 L 88 576 M 96 579.996094 L 84 580 M 96 584 L 84 583.996094 " transform="matrix(1, 0, 0, -1, -71, 625)"/>
<path fill-rule="evenodd" fill="rgb(75%, 75%, 75%)" fill-opacity="1" stroke-width="0.4" stroke-linecap="butt" stroke-linejoin="round" stroke="rgb(0%, 0%, 0%)" stroke-opacity="1" stroke-miterlimit="10" d="M 84 600 L 84 588 L 96 588 L 96 600 Z M 84 600 " transform="matrix(1, 0, 0, -1, -71, 625)"/>
<path fill-rule="evenodd" fill="rgb(75%, 75%, 75%)" fill-opacity="1" stroke-width="0.4" stroke-linecap="butt" stroke-linejoin="round" stroke="rgb(0%, 0%, 0%)" stroke-opacity="0.3" stroke-miterlimit="10" d="M 92 600 L 92 587.996094 M 88 599.996094 L 88 588 M 96 591.996094 L 84 592 M 96 596 L 84 595.996094 " transform="matrix(1, 0, 0, -1, -71, 625)"/>
<path fill-rule="evenodd" fill="rgb(75%, 75%, 75%)" fill-opacity="1" stroke-width="0.4" stroke-linecap="butt" stroke-linejoin="round" stroke="rgb(0%, 0%, 0%)" stroke-opacity="1" stroke-miterlimit="10" d="M 84 612 L 84 600 L 96 600 L 96 612 Z M 84 612 " transform="matrix(1, 0, 0, -1, -71, 625)"/>
<path fill-rule="evenodd" fill="rgb(75%, 75%, 75%)" fill-opacity="1" stroke-width="0.4" stroke-linecap="butt" stroke-linejoin="round" stroke="rgb(0%, 0%, 0%)" stroke-opacity="0.3" stroke-miterlimit="10" d="M 92 612 L 92 599.996094 M 88 611.996094 L 88 600 M 96 603.996094 L 84 604 M 96 608 L 84 607.996094 " transform="matrix(1, 0, 0, -1, -71, 625)"/>
<path fill="none" stroke-width="0.4" stroke-linecap="butt" stroke-linejoin="round" stroke="rgb(0%, 0%, 0%)" stroke-opacity="1" stroke-dasharray="4 2 1 2 1 2" stroke-miterlimit="10" d="M 134 612 L 72 612 M 134 600 L 72 600 M 134 588 L 72 588 M 72 614 L 72 576 M 84 614 L 84 576 M 96 614 L 96 576 M 108 614 L 108 576 M 120 614 L 120 576 M 132 614 L 132 576 " transform="matrix(1, 0, 0, -1, -71, 625)"/>
<path fill="none" stroke-width="0.4" stroke-linecap="butt" stroke-linejoin="round" stroke="rgb(0%, 0%, 0%)" stroke-opacity="1" stroke-dasharray="1 3" stroke-miterlimit="10" d="M 72 622 L 72 614 " transform="matrix(1, 0, 0, -1, -71, 625)"/>
<path fill="none" stroke-width="0.4" stroke-linecap="butt" stroke-linejoin="round" stroke="rgb(0%, 0%, 0%)" stroke-opacity="1" stroke-dasharray="1 3" stroke-miterlimit="10" d="M 96 622 L 96 614 M 108 622 L 108 614 M 120 622 L 120 614 M 132 622 L 132 614 " transform="matrix(1, 0, 0, -1, -71, 625)"/>
</svg>
