<?xml version="1.0" encoding="UTF-8"?>
<svg xmlns="http://www.w3.org/2000/svg" xmlns:xlink="http://www.w3.org/1999/xlink" width="50" height="46" viewBox="0 0 50 46">
<path fill-rule="evenodd" fill="rgb(0%, 0%, 0%)" fill-opacity="0.33" d="M 17 1 L 17 13 L 18 14 L 21 14 L 21 17 L 5 17 L 5 21 L 6 22 L 9 22 L 9 25 L 5 25 L 5 29 L 6 30 L 9 30 L 9 33 L 10 34 L 17 34 L 17 37 L 18 38 L 33 38 L 33 45 L 34 46 L 46 46 L 46 38 L 50 38 L 50 34 L 49 33 L 46 33 L 46 18 L 45 17 L 38 17 L 38 6 L 42 6 L 42 2 L 41 1 L 33 1 L 33 9 L 30 9 L 30 2 L 29 1 L 25 1 L 25 5 L 22 5 L 22 2 L 21 1 Z M 26 10 L 26 13 L 29 13 L 29 10 Z M 22 18 L 22 21 L 29 21 L 29 18 Z M 18 26 L 18 29 L 21 29 L 21 26 Z M 30 30 L 30 33 L 33 33 L 33 30 Z M 38 38 L 38 41 L 41 41 L 41 38 Z M 38 38 "/>
<path fill-rule="evenodd" fill="rgb(75%, 75%, 75%)" fill-opacity="1" stroke-width="0.4" stroke-linecap="butt" stroke-linejoin="round" stroke="rgb(0%, 0%, 0%)" stroke-opacity="1" stroke-miterlimit="10" d="M 92 612 L 92 608 L 96 608 L 96 612 Z M 92 612 " transform="matrix(1, 0, 0, -1, -75, 621)"/>
<path fill-rule="evenodd" fill="rgb(75%, 75%, 75%)" fill-opacity="1" stroke-width="0.4" stroke-linecap="butt" stroke-linejoin="round" stroke="rgb(0%, 0%, 0%)" stroke-opacity="1" stroke-miterlimit="10" d="M 92 616 L 92 612 L 96 612 L 96 616 Z M 92 616 " transform="matrix(1, 0, 0, -1, -75, 621)"/>
<path fill-rule="evenodd" fill="rgb(75%, 75%, 75%)" fill-opacity="1" stroke-width="0.4" stroke-linecap="butt" stroke-linejoin="round" stroke="rgb(0%, 0%, 0%)" stroke-opacity="1" stroke-miterlimit="10" d="M 92 620 L 92 616 L 96 616 L 96 620 Z M 92 620 " transform="matrix(1, 0, 0, -1, -75, 621)"/>
<path fill-rule="evenodd" fill="rgb(75%, 75%, 75%)" fill-opacity="1" stroke-width="0.4" stroke-linecap="butt" stroke-linejoin="round" stroke="rgb(0%, 0%, 0%)" stroke-opacity="1" stroke-miterlimit="10" d="M 96 616 L 96 612 L 100 612 L 100 616 Z M 96 616 " transform="matrix(1, 0, 0, -1, -75, 621)"/>
<path fill-rule="evenodd" fill="rgb(75%, 75%, 75%)" fill-opacity="1" stroke-width="0.4" stroke-linecap="butt" stroke-linejoin="round" stroke="rgb(0%, 0%, 0%)" stroke-opacity="1" stroke-miterlimit="10" d="M 96 612 L 96 608 L 100 608 L 100 612 Z M 96 612 " transform="matrix(1, 0, 0, -1, -75, 621)"/>
<path fill-rule="evenodd" fill="rgb(75%, 75%, 75%)" fill-opacity="1" stroke-width="0.4" stroke-linecap="butt" stroke-linejoin="round" stroke="rgb(0%, 0%, 0%)" stroke-opacity="1" stroke-miterlimit="10" d="M 96 608 L 96 604 L 100 604 L 100 608 Z M 96 608 " transform="matrix(1, 0, 0, -1, -75, 621)"/>
<path fill-rule="evenodd" fill="rgb(75%, 75%, 75%)" fill-opacity="1" stroke-width="0.4" stroke-linecap="butt" stroke-linejoin="round" stroke="rgb(0%, 0%, 0%)" stroke-opacity="1" stroke-miterlimit="10" d="M 100 616 L 100 612 L 104 612 L 104 616 Z M 100 616 " transform="matrix(1, 0, 0, -1, -75, 621)"/>
<path fill-rule="evenodd" fill="rgb(75%, 75%, 75%)" fill-opacity="1" stroke-width="0.4" stroke-linecap="butt" stroke-linejoin="round" stroke="rgb(0%, 0%, 0%)" stroke-opacity="1" stroke-miterlimit="10" d="M 100 620 L 100 616 L 104 616 L 104 620 Z M 100 620 " transform="matrix(1, 0, 0, -1, -75, 621)"/>
<path fill-rule="evenodd" fill="rgb(75%, 75%, 75%)" fill-opacity="1" stroke-width="0.4" stroke-linecap="butt" stroke-linejoin="round" stroke="rgb(0%, 0%, 0%)" stroke-opacity="1" stroke-miterlimit="10" d="M 100 608 L 100 604 L 104 604 L 104 608 Z M 100 608 " transform="matrix(1, 0, 0, -1, -75, 621)"/>
<path fill-rule="evenodd" fill="rgb(75%, 75%, 75%)" fill-opacity="1" stroke-width="0.4" stroke-linecap="butt" stroke-linejoin="round" stroke="rgb(0%, 0%, 0%)" stroke-opacity="1" stroke-miterlimit="10" d="M 104 608 L 104 604 L 108 604 L 108 608 Z M 104 608 " transform="matrix(1, 0, 0, -1, -75, 621)"/>
<path fill-rule="evenodd" fill="rgb(75%, 75%, 75%)" fill-opacity="1" stroke-width="0.4" stroke-linecap="butt" stroke-linejoin="round" stroke="rgb(0%, 0%, 0%)" stroke-opacity="1" stroke-miterlimit="10" d="M 104 612 L 104 608 L 108 608 L 108 612 Z M 104 612 " transform="matrix(1, 0, 0, -1, -75, 621)"/>
<path fill-rule="evenodd" fill="rgb(75%, 75%, 75%)" fill-opacity="1" stroke-width="0.4" stroke-linecap="butt" stroke-linejoin="round" stroke="rgb(0%, 0%, 0%)" stroke-opacity="1" stroke-miterlimit="10" d="M 104 604 L 104 600 L 108 600 L 108 604 Z M 104 604 " transform="matrix(1, 0, 0, -1, -75, 621)"/>
<path fill-rule="evenodd" fill="rgb(75%, 75%, 75%)" fill-opacity="1" stroke-width="0.4" stroke-linecap="butt" stroke-linejoin="round" stroke="rgb(0%, 0%, 0%)" stroke-opacity="1" stroke-miterlimit="10" d="M 108 612 L 108 608 L 112 608 L 112 612 Z M 108 612 " transform="matrix(1, 0, 0, -1, -75, 621)"/>
<path fill-rule="evenodd" fill="rgb(75%, 75%, 75%)" fill-opacity="1" stroke-width="0.4" stroke-linecap="butt" stroke-linejoin="round" stroke="rgb(0%, 0%, 0%)" stroke-opacity="1" stroke-miterlimit="10" d="M 108 616 L 108 612 L 112 612 L 112 616 Z M 108 616 " transform="matrix(1, 0, 0, -1, -75, 621)"/>
<path fill-rule="evenodd" fill="rgb(75%, 75%, 75%)" fill-opacity="1" stroke-width="0.4" stroke-linecap="butt" stroke-linejoin="round" stroke="rgb(0%, 0%, 0%)" stroke-opacity="1" stroke-miterlimit="10" d="M 108 620 L 108 616 L 112 616 L 112 620 Z M 108 620 " transform="matrix(1, 0, 0, -1, -75, 621)"/>
<path fill-rule="evenodd" fill="rgb(75%, 75%, 75%)" fill-opacity="1" stroke-width="0.4" stroke-linecap="butt" stroke-linejoin="round" stroke="rgb(0%, 0%, 0%)" stroke-opacity="1" stroke-miterlimit="10" d="M 112 620 L 112 616 L 116 616 L 116 620 Z M 112 620 " transform="matrix(1, 0, 0, -1, -75, 621)"/>
<path fill-rule="evenodd" fill="rgb(75%, 75%, 75%)" fill-opacity="1" stroke-width="0.4" stroke-linecap="butt" stroke-linejoin="round" stroke="rgb(0%, 0%, 0%)" stroke-opacity="1" stroke-miterlimit="10" d="M 108 608 L 108 604 L 112 604 L 112 608 Z M 108 608 " transform="matrix(1, 0, 0, -1, -75, 621)"/>
<path fill-rule="evenodd" fill="rgb(52.6%, 9.5%, 96.2%)" fill-opacity="1" stroke-width="0.4" stroke-linecap="butt" stroke-linejoin="round" stroke="rgb(0%, 0%, 0%)" stroke-opacity="1" stroke-miterlimit="10" d="M 108 604 L 108 600 L 112 600 L 112 604 Z M 108 604 " transform="matrix(1, 0, 0, -1, -75, 621)"/>
<path fill-rule="evenodd" fill="rgb(52.6%, 9.5%, 96.2%)" fill-opacity="1" stroke-width="0.4" stroke-linecap="butt" stroke-linejoin="round" stroke="rgb(0%, 0%, 0%)" stroke-opacity="1" stroke-miterlimit="10" d="M 112 604 L 112 600 L 116 600 L 116 604 Z M 112 604 " transform="matrix(1, 0, 0, -1, -75, 621)"/>
<path fill-rule="evenodd" fill="rgb(52.6%, 9.5%, 96.2%)" fill-opacity="1" stroke-width="0.4" stroke-linecap="butt" stroke-linejoin="round" stroke="rgb(0%, 0%, 0%)" stroke-opacity="1" stroke-miterlimit="10" d="M 116 604 L 116 600 L 120 600 L 120 604 Z M 116 604 " transform="matrix(1, 0, 0, -1, -75, 621)"/>
<path fill-rule="evenodd" fill="rgb(0%, 0%, 0%)" fill-opacity="1" d="M 38 20 L 40 20 L 40 18 L 38 18 Z M 38.332031 19.667969 L 39.667969 19.667969 L 39.667969 18.332031 L 38.332031 18.332031 Z M 38.332031 19.667969 "/>
<path fill-rule="evenodd" fill="rgb(0%, 0%, 0%)" fill-opacity="1" d="M 34 20 L 36 20 L 36 18 L 34 18 Z M 34.332031 19.667969 L 35.667969 19.667969 L 35.667969 18.332031 L 34.332031 18.332031 Z M 34.332031 19.667969 "/>
<path fill-rule="evenodd" fill="rgb(0%, 0%, 0%)" fill-opacity="1" d="M 30 20 L 32 20 L 32 18 L 30 18 Z M 30.332031 19.667969 L 31.667969 19.667969 L 31.667969 18.332031 L 30.332031 18.332031 Z M 30.332031 19.667969 "/>
<path fill-rule="evenodd" fill="rgb(0%, 0%, 0%)" fill-opacity="1" d="M 30 16 L 32 16 L 32 14 L 30 14 Z M 30.332031 15.667969 L 31.667969 15.667969 L 31.667969 14.332031 L 30.332031 14.332031 Z M 30.332031 15.667969 "/>
<path fill-rule="evenodd" fill="rgb(0%, 0%, 0%)" fill-opacity="1" d="M 26 16 L 28 16 L 28 14 L 26 14 Z M 26.332031 15.667969 L 27.667969 15.667969 L 27.667969 14.332031 L 26.332031 14.332031 Z M 26.332031 15.667969 "/>
<path fill-rule="evenodd" fill="rgb(0%, 0%, 0%)" fill-opacity="1" d="M 22 16 L 24 16 L 24 14 L 22 14 Z M 22.332031 15.667969 L 23.667969 15.667969 L 23.667969 14.332031 L 22.332031 14.332031 Z M 22.332031 15.667969 "/>
<path fill-rule="evenodd" fill="rgb(0%, 0%, 0%)" fill-opacity="1" d="M 22 12 L 24 12 L 24 10 L 22 10 Z M 22.332031 11.667969 L 23.667969 11.667969 L 23.667969 10.332031 L 22.332031 10.332031 Z M 22.332031 11.667969 "/>
<path fill-rule="evenodd" fill="rgb(0%, 0%, 0%)" fill-opacity="1" d="M 18 12 L 20 12 L 20 10 L 18 10 Z M 18.332031 11.667969 L 19.667969 11.667969 L 19.667969 10.332031 L 18.332031 10.332031 Z M 18.332031 11.667969 "/>
<path fill-rule="evenodd" fill="rgb(0%, 0%, 0%)" fill-opacity="1" d="M 18 8 L 20 8 L 20 6 L 18 6 Z M 18.332031 7.667969 L 19.667969 7.667969 L 19.667969 6.332031 L 18.332031 6.332031 Z M 18.332031 7.667969 "/>
<path fill-rule="evenodd" fill="rgb(0%, 0%, 0%)" fill-opacity="1" d="M 22 8 L 24 8 L 24 6 L 22 6 Z M 22.332031 7.667969 L 23.667969 7.667969 L 23.667969 6.332031 L 22.332031 6.332031 Z M 22.332031 7.667969 "/>
<path fill-rule="evenodd" fill="rgb(0%, 0%, 0%)" fill-opacity="1" d="M 26 8 L 28 8 L 28 6 L 26 6 Z M 26.332031 7.667969 L 27.667969 7.667969 L 27.667969 6.332031 L 26.332031 6.332031 Z M 26.332031 7.667969 "/>
<path fill-rule="evenodd" fill="rgb(0%, 0%, 0%)" fill-opacity="1" d="M 26 4 L 28 4 L 28 2 L 26 2 Z M 26.332031 3.667969 L 27.667969 3.667969 L 27.667969 2.332031 L 26.332031 2.332031 Z M 26.332031 3.667969 "/>
<path fill-rule="evenodd" fill="rgb(0%, 0%, 0%)" fill-opacity="1" d="M 18 4 L 20 4 L 20 2 L 18 2 Z M 18.332031 3.667969 L 19.667969 3.667969 L 19.667969 2.332031 L 18.332031 2.332031 Z M 18.332031 3.667969 "/>
<path fill-rule="evenodd" fill="rgb(0%, 0%, 0%)" fill-opacity="1" d="M 38 4 L 40 4 L 40 2 L 38 2 Z M 38.332031 3.667969 L 39.667969 3.667969 L 39.667969 2.332031 L 38.332031 2.332031 Z M 38.332031 3.667969 "/>
<path fill-rule="evenodd" fill="rgb(0%, 0%, 0%)" fill-opacity="1" d="M 34 4 L 36 4 L 36 2 L 34 2 Z M 34.332031 3.667969 L 35.667969 3.667969 L 35.667969 2.332031 L 34.332031 2.332031 Z M 34.332031 3.667969 "/>
<path fill-rule="evenodd" fill="rgb(0%, 0%, 0%)" fill-opacity="1" d="M 34 8 L 36 8 L 36 6 L 34 6 Z M 34.332031 7.667969 L 35.667969 7.667969 L 35.667969 6.332031 L 34.332031 6.332031 Z M 34.332031 7.667969 "/>
<path fill-rule="evenodd" fill="rgb(0%, 0%, 0%)" fill-opacity="1" d="M 34 12 L 36 12 L 36 10 L 34 10 Z M 34.332031 11.667969 L 35.667969 11.667969 L 35.667969 10.332031 L 34.332031 10.332031 Z M 34.332031 11.667969 "/>
<path fill-rule="evenodd" fill="rgb(0%, 0%, 0%)" fill-opacity="1" d="M 30 12 L 32 12 L 32 10 L 30 10 Z M 30.332031 11.667969 L 31.667969 11.667969 L 31.667969 10.332031 L 30.332031 10.332031 Z M 30.332031 11.667969 "/>
<path fill-rule="evenodd" fill="rgb(52.6%, 9.5%, 96.2%)" fill-opacity="1" stroke-width="0.4" stroke-linecap="butt" stroke-linejoin="round" stroke="rgb(0%, 0%, 0%)" stroke-opacity="1" stroke-miterlimit="10" d="M 116 600 L 116 596 L 120 596 L 120 600 Z M 116 600 " transform="matrix(1, 0, 0, -1, -75, 621)"/>
<path fill-rule="evenodd" fill="rgb(52.6%, 9.5%, 96.2%)" fill-opacity="1" stroke-width="0.4" stroke-linecap="butt" stroke-linejoin="round" stroke="rgb(0%, 0%, 0%)" stroke-opacity="1" stroke-miterlimit="10" d="M 116 596 L 116 592 L 120 592 L 120 596 Z M 116 596 " transform="matrix(1, 0, 0, -1, -75, 621)"/>
<path fill-rule="evenodd" fill="rgb(52.6%, 9.5%, 96.2%)" fill-opacity="1" stroke-width="0.4" stroke-linecap="butt" stroke-linejoin="round" stroke="rgb(0%, 0%, 0%)" stroke-opacity="1" stroke-miterlimit="10" d="M 116 592 L 116 588 L 120 588 L 120 592 Z M 116 592 " transform="matrix(1, 0, 0, -1, -75, 621)"/>
<path fill-rule="evenodd" fill="rgb(52.6%, 9.5%, 96.2%)" fill-opacity="1" stroke-width="0.4" stroke-linecap="butt" stroke-linejoin="round" stroke="rgb(0%, 0%, 0%)" stroke-opacity="1" stroke-miterlimit="10" d="M 116 584 L 116 580 L 120 580 L 120 584 Z M 116 584 " transform="matrix(1, 0, 0, -1, -75, 621)"/>
<path fill-rule="evenodd" fill="rgb(52.6%, 9.5%, 96.2%)" fill-opacity="1" stroke-width="0.4" stroke-linecap="butt" stroke-linejoin="round" stroke="rgb(0%, 0%, 0%)" stroke-opacity="1" stroke-miterlimit="10" d="M 116 580 L 116 576 L 120 576 L 120 580 Z M 116 580 " transform="matrix(1, 0, 0, -1, -75, 621)"/>
<path fill-rule="evenodd" fill="rgb(52.6%, 9.5%, 96.2%)" fill-opacity="1" stroke-width="0.4" stroke-linecap="butt" stroke-linejoin="round" stroke="rgb(0%, 0%, 0%)" stroke-opacity="1" stroke-miterlimit="10" d="M 112 580 L 112 576 L 116 576 L 116 580 Z M 112 580 " transform="matrix(1, 0, 0, -1, -75, 621)"/>
<path fill-rule="evenodd" fill="rgb(52.6%, 9.5%, 96.2%)" fill-opacity="1" stroke-width="0.4" stroke-linecap="butt" stroke-linejoin="round" stroke="rgb(0%, 0%, 0%)" stroke-opacity="1" stroke-miterlimit="10" d="M 108 580 L 108 576 L 112 576 L 112 580 Z M 108 580 " transform="matrix(1, 0, 0, -1, -75, 621)"/>
<path fill-rule="evenodd" fill="rgb(52.6%, 9.5%, 96.2%)" fill-opacity="1" stroke-width="0.4" stroke-linecap="butt" stroke-linejoin="round" stroke="rgb(0%, 0%, 0%)" stroke-opacity="1" stroke-miterlimit="10" d="M 108 588 L 108 584 L 112 584 L 112 588 Z M 108 588 " transform="matrix(1, 0, 0, -1, -75, 621)"/>
<path fill-rule="evenodd" fill="rgb(52.6%, 9.5%, 96.2%)" fill-opacity="1" stroke-width="0.4" stroke-linecap="butt" stroke-linejoin="round" stroke="rgb(0%, 0%, 0%)" stroke-opacity="1" stroke-miterlimit="10" d="M 108 592 L 108 588 L 112 588 L 112 592 Z M 108 592 " transform="matrix(1, 0, 0, -1, -75, 621)"/>
<path fill-rule="evenodd" fill="rgb(52.6%, 9.5%, 96.2%)" fill-opacity="1" stroke-width="0.4" stroke-linecap="butt" stroke-linejoin="round" stroke="rgb(0%, 0%, 0%)" stroke-opacity="1" stroke-miterlimit="10" d="M 104 588 L 104 584 L 108 584 L 108 588 Z M 104 588 " transform="matrix(1, 0, 0, -1, -75, 621)"/>
<path fill-rule="evenodd" fill="rgb(52.6%, 9.5%, 96.2%)" fill-opacity="1" stroke-width="0.4" stroke-linecap="butt" stroke-linejoin="round" stroke="rgb(0%, 0%, 0%)" stroke-opacity="1" stroke-miterlimit="10" d="M 100 588 L 100 584 L 104 584 L 104 588 Z M 100 588 " transform="matrix(1, 0, 0, -1, -75, 621)"/>
<path fill-rule="evenodd" fill="rgb(52.6%, 9.5%, 96.2%)" fill-opacity="1" stroke-width="0.4" stroke-linecap="butt" stroke-linejoin="round" stroke="rgb(0%, 0%, 0%)" stroke-opacity="1" stroke-miterlimit="10" d="M 96 588 L 96 584 L 100 584 L 100 588 Z M 96 588 " transform="matrix(1, 0, 0, -1, -75, 621)"/>
<path fill-rule="evenodd" fill="rgb(52.6%, 9.5%, 96.2%)" fill-opacity="1" stroke-width="0.4" stroke-linecap="butt" stroke-linejoin="round" stroke="rgb(0%, 0%, 0%)" stroke-opacity="1" stroke-miterlimit="10" d="M 92 588 L 92 584 L 96 584 L 96 588 Z M 92 588 " transform="matrix(1, 0, 0, -1, -75, 621)"/>
<path fill-rule="evenodd" fill="rgb(52.6%, 9.5%, 96.2%)" fill-opacity="1" stroke-width="0.4" stroke-linecap="butt" stroke-linejoin="round" stroke="rgb(0%, 0%, 0%)" stroke-opacity="1" stroke-miterlimit="10" d="M 92 592 L 92 588 L 96 588 L 96 592 Z M 92 592 " transform="matrix(1, 0, 0, -1, -75, 621)"/>
<path fill-rule="evenodd" fill="rgb(52.6%, 9.5%, 96.2%)" fill-opacity="1" stroke-width="0.4" stroke-linecap="butt" stroke-linejoin="round" stroke="rgb(0%, 0%, 0%)" stroke-opacity="1" stroke-miterlimit="10" d="M 88 592 L 88 588 L 92 588 L 92 592 Z M 88 592 " transform="matrix(1, 0, 0, -1, -75, 621)"/>
<path fill-rule="evenodd" fill="rgb(52.6%, 9.5%, 96.2%)" fill-opacity="1" stroke-width="0.4" stroke-linecap="butt" stroke-linejoin="round" stroke="rgb(0%, 0%, 0%)" stroke-opacity="1" stroke-miterlimit="10" d="M 84 592 L 84 588 L 88 588 L 88 592 Z M 84 592 " transform="matrix(1, 0, 0, -1, -75, 621)"/>
<path fill-rule="evenodd" fill="rgb(52.6%, 9.5%, 96.2%)" fill-opacity="1" stroke-width="0.4" stroke-linecap="butt" stroke-linejoin="round" stroke="rgb(0%, 0%, 0%)" stroke-opacity="1" stroke-miterlimit="10" d="M 84 596 L 84 592 L 88 592 L 88 596 Z M 84 596 " transform="matrix(1, 0, 0, -1, -75, 621)"/>
<path fill-rule="evenodd" fill="rgb(94%, 56.8%, 97.5%)" fill-opacity="1" stroke-width="0.4" stroke-linecap="butt" stroke-linejoin="round" stroke="rgb(0%, 0%, 0%)" stroke-opacity="1" stroke-miterlimit="10" d="M 80 596 L 80 592 L 84 592 L 84 596 Z M 80 596 " transform="matrix(1, 0, 0, -1, -75, 621)"/>
<path fill-rule="evenodd" fill="rgb(94%, 56.8%, 97.5%)" fill-opacity="1" stroke-width="0.4" stroke-linecap="butt" stroke-linejoin="round" stroke="rgb(0%, 0%, 0%)" stroke-opacity="1" stroke-miterlimit="10" d="M 80 604 L 80 600 L 84 600 L 84 604 Z M 80 604 " transform="matrix(1, 0, 0, -1, -75, 621)"/>
<path fill-rule="evenodd" fill="rgb(52.6%, 9.5%, 96.2%)" fill-opacity="1" stroke-width="0.4" stroke-linecap="butt" stroke-linejoin="round" stroke="rgb(0%, 0%, 0%)" stroke-opacity="1" stroke-miterlimit="10" d="M 84 604 L 84 600 L 88 600 L 88 604 Z M 84 604 " transform="matrix(1, 0, 0, -1, -75, 621)"/>
<path fill-rule="evenodd" fill="rgb(52.6%, 9.5%, 96.2%)" fill-opacity="1" stroke-width="0.4" stroke-linecap="butt" stroke-linejoin="round" stroke="rgb(0%, 0%, 0%)" stroke-opacity="1" stroke-miterlimit="10" d="M 88 604 L 88 600 L 92 600 L 92 604 Z M 88 604 " transform="matrix(1, 0, 0, -1, -75, 621)"/>
<path fill-rule="evenodd" fill="rgb(52.6%, 9.5%, 96.2%)" fill-opacity="1" stroke-width="0.4" stroke-linecap="butt" stroke-linejoin="round" stroke="rgb(0%, 0%, 0%)" stroke-opacity="1" stroke-miterlimit="10" d="M 92 604 L 92 600 L 96 600 L 96 604 Z M 92 604 " transform="matrix(1, 0, 0, -1, -75, 621)"/>
<path fill-rule="evenodd" fill="rgb(52.6%, 9.5%, 96.2%)" fill-opacity="1" stroke-width="0.4" stroke-linecap="butt" stroke-linejoin="round" stroke="rgb(0%, 0%, 0%)" stroke-opacity="1" stroke-miterlimit="10" d="M 92 600 L 92 596 L 96 596 L 96 600 Z M 92 600 " transform="matrix(1, 0, 0, -1, -75, 621)"/>
<path fill-rule="evenodd" fill="rgb(52.6%, 9.5%, 96.2%)" fill-opacity="1" stroke-width="0.4" stroke-linecap="butt" stroke-linejoin="round" stroke="rgb(0%, 0%, 0%)" stroke-opacity="1" stroke-miterlimit="10" d="M 96 600 L 96 596 L 100 596 L 100 600 Z M 96 600 " transform="matrix(1, 0, 0, -1, -75, 621)"/>
<path fill-rule="evenodd" fill="rgb(52.6%, 9.5%, 96.2%)" fill-opacity="1" stroke-width="0.4" stroke-linecap="butt" stroke-linejoin="round" stroke="rgb(0%, 0%, 0%)" stroke-opacity="1" stroke-miterlimit="10" d="M 100 600 L 100 596 L 104 596 L 104 600 Z M 100 600 " transform="matrix(1, 0, 0, -1, -75, 621)"/>
<path fill-rule="evenodd" fill="rgb(52.6%, 9.5%, 96.2%)" fill-opacity="1" stroke-width="0.4" stroke-linecap="butt" stroke-linejoin="round" stroke="rgb(0%, 0%, 0%)" stroke-opacity="1" stroke-miterlimit="10" d="M 104 600 L 104 596 L 108 596 L 108 600 Z M 104 600 " transform="matrix(1, 0, 0, -1, -75, 621)"/>
<path fill-rule="evenodd" fill="rgb(52.6%, 9.5%, 96.2%)" fill-opacity="1" stroke-width="0.4" stroke-linecap="butt" stroke-linejoin="round" stroke="rgb(0%, 0%, 0%)" stroke-opacity="1" stroke-miterlimit="10" d="M 100 596 L 100 592 L 104 592 L 104 596 Z M 100 596 " transform="matrix(1, 0, 0, -1, -75, 621)"/>
<path fill-rule="evenodd" fill="rgb(52.6%, 9.5%, 96.2%)" fill-opacity="1" stroke-width="0.4" stroke-linecap="butt" stroke-linejoin="round" stroke="rgb(0%, 0%, 0%)" stroke-opacity="1" stroke-miterlimit="10" d="M 108 600 L 108 596 L 112 596 L 112 600 Z M 108 600 " transform="matrix(1, 0, 0, -1, -75, 621)"/>
<path fill-rule="evenodd" fill="rgb(94%, 56.8%, 97.5%)" fill-opacity="1" stroke-width="0.4" stroke-linecap="butt" stroke-linejoin="round" stroke="rgb(0%, 0%, 0%)" stroke-opacity="1" stroke-miterlimit="10" d="M 120 588 L 120 584 L 124 584 L 124 588 Z M 120 588 " transform="matrix(1, 0, 0, -1, -75, 621)"/>
<path fill-rule="evenodd" fill="rgb(47.1%, 47.1%, 47.1%)" fill-opacity="1" stroke-width="0.4" stroke-linecap="butt" stroke-linejoin="round" stroke="rgb(0%, 0%, 0%)" stroke-opacity="1" stroke-miterlimit="10" d="M 112 600 L 112 596 L 116 596 L 116 600 Z M 112 600 " transform="matrix(1, 0, 0, -1, -75, 621)"/>
<path fill-rule="evenodd" fill="rgb(100%, 0%, 0%)" fill-opacity="1" d="M 40 23 C 40 21.667969 38 21.667969 38 23 C 38 24.332031 40 24.332031 40 23 Z M 39.667969 23 C 39.667969 22.109375 38.332031 22.109375 38.332031 23 C 38.332031 23.890625 39.667969 23.890625 39.667969 23 Z M 39.667969 23 "/>
<path fill-rule="evenodd" fill="rgb(47.1%, 47.1%, 47.1%)" fill-opacity="1" stroke-width="0.4" stroke-linecap="butt" stroke-linejoin="round" stroke="rgb(0%, 0%, 0%)" stroke-opacity="1" stroke-miterlimit="10" d="M 112 596 L 112 592 L 116 592 L 116 596 Z M 112 596 " transform="matrix(1, 0, 0, -1, -75, 621)"/>
<path fill-rule="evenodd" fill="rgb(0%, 0%, 0%)" fill-opacity="1" d="M 40 27 C 40 25.667969 38 25.667969 38 27 C 38 28.332031 40 28.332031 40 27 Z M 39.667969 27 C 39.667969 26.109375 38.332031 26.109375 38.332031 27 C 38.332031 27.890625 39.667969 27.890625 39.667969 27 Z M 39.667969 27 "/>
<path fill-rule="evenodd" fill="rgb(47.1%, 47.1%, 47.1%)" fill-opacity="1" stroke-width="0.4" stroke-linecap="butt" stroke-linejoin="round" stroke="rgb(0%, 0%, 0%)" stroke-opacity="1" stroke-miterlimit="10" d="M 108 596 L 108 592 L 112 592 L 112 596 Z M 108 596 " transform="matrix(1, 0, 0, -1, -75, 621)"/>
<path fill-rule="evenodd" fill="rgb(0%, 0%, 0%)" fill-opacity="1" d="M 36 27 C 36 25.667969 34 25.667969 34 27 C 34 28.332031 36 28.332031 36 27 Z M 35.667969 27 C 35.667969 26.109375 34.332031 26.109375 34.332031 27 C 34.332031 27.890625 35.667969 27.890625 35.667969 27 Z M 35.667969 27 "/>
<path fill-rule="evenodd" fill="rgb(47.1%, 47.1%, 47.1%)" fill-opacity="1" stroke-width="0.4" stroke-linecap="butt" stroke-linejoin="round" stroke="rgb(0%, 0%, 0%)" stroke-opacity="1" stroke-miterlimit="10" d="M 104 596 L 104 592 L 108 592 L 108 596 Z M 104 596 " transform="matrix(1, 0, 0, -1, -75, 621)"/>
<path fill-rule="evenodd" fill="rgb(0%, 0%, 0%)" fill-opacity="1" d="M 32 27 C 32 25.667969 30 25.667969 30 27 C 30 28.332031 32 28.332031 32 27 Z M 31.667969 27 C 31.667969 26.109375 30.332031 26.109375 30.332031 27 C 30.332031 27.890625 31.667969 27.890625 31.667969 27 Z M 31.667969 27 "/>
<path fill-rule="evenodd" fill="rgb(47.1%, 47.1%, 47.1%)" fill-opacity="1" stroke-width="0.4" stroke-linecap="butt" stroke-linejoin="round" stroke="rgb(0%, 0%, 0%)" stroke-opacity="1" stroke-miterlimit="10" d="M 84 600 L 84 596 L 88 596 L 88 600 Z M 84 600 " transform="matrix(1, 0, 0, -1, -75, 621)"/>
<path fill-rule="evenodd" fill="rgb(0%, 0%, 0%)" fill-opacity="1" d="M 12 23 C 12 21.667969 10 21.667969 10 23 C 10 24.332031 12 24.332031 12 23 Z M 11.667969 23 C 11.667969 22.109375 10.332031 22.109375 10.332031 23 C 10.332031 23.890625 11.667969 23.890625 11.667969 23 Z M 11.667969 23 "/>
<path fill-rule="evenodd" fill="rgb(47.1%, 47.1%, 47.1%)" fill-opacity="1" stroke-width="0.4" stroke-linecap="butt" stroke-linejoin="round" stroke="rgb(0%, 0%, 0%)" stroke-opacity="1" stroke-miterlimit="10" d="M 88 600 L 88 596 L 92 596 L 92 600 Z M 88 600 " transform="matrix(1, 0, 0, -1, -75, 621)"/>
<path fill-rule="evenodd" fill="rgb(0%, 0%, 0%)" fill-opacity="1" d="M 16 23 C 16 21.667969 14 21.667969 14 23 C 14 24.332031 16 24.332031 16 23 Z M 15.667969 23 C 15.667969 22.109375 14.332031 22.109375 14.332031 23 C 14.332031 23.890625 15.667969 23.890625 15.667969 23 Z M 15.667969 23 "/>
<path fill-rule="evenodd" fill="rgb(47.1%, 47.1%, 47.1%)" fill-opacity="1" stroke-width="0.4" stroke-linecap="butt" stroke-linejoin="round" stroke="rgb(0%, 0%, 0%)" stroke-opacity="1" stroke-miterlimit="10" d="M 88 596 L 88 592 L 92 592 L 92 596 Z M 88 596 " transform="matrix(1, 0, 0, -1, -75, 621)"/>
<path fill-rule="evenodd" fill="rgb(0%, 0%, 0%)" fill-opacity="1" d="M 16 27 C 16 25.667969 14 25.667969 14 27 C 14 28.332031 16 28.332031 16 27 Z M 15.667969 27 C 15.667969 26.109375 14.332031 26.109375 14.332031 27 C 14.332031 27.890625 15.667969 27.890625 15.667969 27 Z M 15.667969 27 "/>
<path fill-rule="evenodd" fill="rgb(47.1%, 47.1%, 47.1%)" fill-opacity="1" stroke-width="0.4" stroke-linecap="butt" stroke-linejoin="round" stroke="rgb(0%, 0%, 0%)" stroke-opacity="1" stroke-miterlimit="10" d="M 96 596 L 96 592 L 100 592 L 100 596 Z M 96 596 " transform="matrix(1, 0, 0, -1, -75, 621)"/>
<path fill-rule="evenodd" fill="rgb(0%, 0%, 0%)" fill-opacity="1" d="M 24 27 C 24 25.667969 22 25.667969 22 27 C 22 28.332031 24 28.332031 24 27 Z M 23.667969 27 C 23.667969 26.109375 22.332031 26.109375 22.332031 27 C 22.332031 27.890625 23.667969 27.890625 23.667969 27 Z M 23.667969 27 "/>
<path fill-rule="evenodd" fill="rgb(47.1%, 47.1%, 47.1%)" fill-opacity="1" stroke-width="0.4" stroke-linecap="butt" stroke-linejoin="round" stroke="rgb(0%, 0%, 0%)" stroke-opacity="1" stroke-miterlimit="10" d="M 96 592 L 96 588 L 100 588 L 100 592 Z M 96 592 " transform="matrix(1, 0, 0, -1, -75, 621)"/>
<path fill-rule="evenodd" fill="rgb(0%, 0%, 0%)" fill-opacity="1" d="M 24 31 C 24 29.667969 22 29.667969 22 31 C 22 32.332031 24 32.332031 24 31 Z M 23.667969 31 C 23.667969 30.109375 22.332031 30.109375 22.332031 31 C 22.332031 31.890625 23.667969 31.890625 23.667969 31 Z M 23.667969 31 "/>
<path fill-rule="evenodd" fill="rgb(47.1%, 47.1%, 47.1%)" fill-opacity="1" stroke-width="0.4" stroke-linecap="butt" stroke-linejoin="round" stroke="rgb(0%, 0%, 0%)" stroke-opacity="1" stroke-miterlimit="10" d="M 100 592 L 100 588 L 104 588 L 104 592 Z M 100 592 " transform="matrix(1, 0, 0, -1, -75, 621)"/>
<path fill-rule="evenodd" fill="rgb(0%, 0%, 0%)" fill-opacity="1" d="M 28 31 C 28 29.667969 26 29.667969 26 31 C 26 32.332031 28 32.332031 28 31 Z M 27.667969 31 C 27.667969 30.109375 26.332031 30.109375 26.332031 31 C 26.332031 31.890625 27.667969 31.890625 27.667969 31 Z M 27.667969 31 "/>
<path fill-rule="evenodd" fill="rgb(47.1%, 47.1%, 47.1%)" fill-opacity="1" stroke-width="0.4" stroke-linecap="butt" stroke-linejoin="round" stroke="rgb(0%, 0%, 0%)" stroke-opacity="1" stroke-miterlimit="10" d="M 108 584 L 108 580 L 112 580 L 112 584 Z M 108 584 " transform="matrix(1, 0, 0, -1, -75, 621)"/>
<path fill-rule="evenodd" fill="rgb(0%, 0%, 0%)" fill-opacity="1" d="M 36 39 C 36 37.667969 34 37.667969 34 39 C 34 40.332031 36 40.332031 36 39 Z M 35.667969 39 C 35.667969 38.109375 34.332031 38.109375 34.332031 39 C 34.332031 39.890625 35.667969 39.890625 35.667969 39 Z M 35.667969 39 "/>
<path fill-rule="evenodd" fill="rgb(47.1%, 47.1%, 47.1%)" fill-opacity="1" stroke-width="0.4" stroke-linecap="butt" stroke-linejoin="round" stroke="rgb(0%, 0%, 0%)" stroke-opacity="1" stroke-miterlimit="10" d="M 112 588 L 112 584 L 116 584 L 116 588 Z M 112 588 " transform="matrix(1, 0, 0, -1, -75, 621)"/>
<path fill-rule="evenodd" fill="rgb(0%, 0%, 0%)" fill-opacity="1" d="M 40 35 C 40 33.667969 38 33.667969 38 35 C 38 36.332031 40 36.332031 40 35 Z M 39.667969 35 C 39.667969 34.109375 38.332031 34.109375 38.332031 35 C 38.332031 35.890625 39.667969 35.890625 39.667969 35 Z M 39.667969 35 "/>
<path fill-rule="evenodd" fill="rgb(47.1%, 47.1%, 47.1%)" fill-opacity="1" stroke-width="0.4" stroke-linecap="butt" stroke-linejoin="round" stroke="rgb(0%, 0%, 0%)" stroke-opacity="1" stroke-miterlimit="10" d="M 116 588 L 116 584 L 120 584 L 120 588 Z M 116 588 " transform="matrix(1, 0, 0, -1, -75, 621)"/>
<path fill-rule="evenodd" fill="rgb(0%, 0%, 0%)" fill-opacity="1" d="M 44 35 C 44 33.667969 42 33.667969 42 35 C 42 36.332031 44 36.332031 44 35 Z M 43.667969 35 C 43.667969 34.109375 42.332031 34.109375 42.332031 35 C 42.332031 35.890625 43.667969 35.890625 43.667969 35 Z M 43.667969 35 "/>
<path fill-rule="evenodd" fill="rgb(47.1%, 47.1%, 47.1%)" fill-opacity="1" stroke-width="0.4" stroke-linecap="butt" stroke-linejoin="round" stroke="rgb(0%, 0%, 0%)" stroke-opacity="1" stroke-miterlimit="10" d="M 112 592 L 112 588 L 116 588 L 116 592 Z M 112 592 " transform="matrix(1, 0, 0, -1, -75, 621)"/>
<path fill-rule="evenodd" fill="rgb(0%, 0%, 0%)" fill-opacity="1" d="M 40 31 C 40 29.667969 38 29.667969 38 31 C 38 32.332031 40 32.332031 40 31 Z M 39.667969 31 C 39.667969 30.109375 38.332031 30.109375 38.332031 31 C 38.332031 31.890625 39.667969 31.890625 39.667969 31 Z M 39.667969 31 "/>
<path fill="none" stroke-width="0.5" stroke-linecap="butt" stroke-linejoin="round" stroke="rgb(100%, 0%, 0%)" stroke-opacity="1" stroke-miterlimit="10" d="M 96 620 L 92 620 L 92 608 L 96 608 L 96 604 L 104 604 L 104 600 L 112 600 L 112 596 L 104 596 L 104 592 L 100 592 L 100 596 L 92 596 L 92 600 L 84 600 L 84 596 L 88 596 L 88 592 L 96 592 L 96 588 L 108 588 L 108 592 L 112 592 L 112 584 L 108 584 L 108 580 L 116 580 L 116 584 L 120 584 L 120 588 L 116 588 L 116 604 L 108 604 L 108 608 L 112 608 L 112 616 L 116 616 L 116 620 L 108 620 L 108 612 L 104 612 L 104 608 L 100 608 L 100 612 L 104 612 L 104 620 L 100 620 L 100 616 L 96 616 Z M 96 620 " transform="matrix(1, 0, 0, -1, -75, 621)"/>
<path fill-rule="evenodd" fill="rgb(0%, 0%, 0%)" fill-opacity="1" d="M 32 31 C 32 29.667969 30 29.667969 30 31 C 30 32.332031 32 32.332031 32 31 Z M 31.667969 31 C 31.667969 30.109375 30.332031 30.109375 30.332031 31 C 30.332031 31.890625 31.667969 31.890625 31.667969 31 Z M 31.667969 31 "/>
<path fill-rule="evenodd" fill="rgb(0%, 0%, 0%)" fill-opacity="1" d="M 20 27 C 20 25.667969 18 25.667969 18 27 C 18 28.332031 20 28.332031 20 27 Z M 19.667969 27 C 19.667969 26.109375 18.332031 26.109375 18.332031 27 C 18.332031 27.890625 19.667969 27.890625 19.667969 27 Z M 19.667969 27 "/>
<path fill-rule="evenodd" fill="rgb(0%, 0%, 0%)" fill-opacity="1" d="M 40 39 C 40 37.667969 38 37.667969 38 39 C 38 40.332031 40 40.332031 40 39 Z M 39.667969 39 C 39.667969 38.109375 38.332031 38.109375 38.332031 39 C 38.332031 39.890625 39.667969 39.890625 39.667969 39 Z M 39.667969 39 "/>
</svg>
