<?xml version="1.0" encoding="UTF-8"?>
<svg xmlns="http://www.w3.org/2000/svg" xmlns:xlink="http://www.w3.org/1999/xlink" width="66" height="50" viewBox="0 0 66 50">
<path fill-rule="evenodd" fill="rgb(0%, 0%, 0%)" fill-opacity="0.33" d="M 1 1 L 1 49 L 2 50 L 14 50 L 14 38 L 26 38 L 26 26 L 30 26 L 30 18 L 34 18 L 34 14 L 33 13 L 26 13 L 26 2 L 25 1 Z M 6 6 L 6 9 L 9 9 L 9 6 Z M 6 18 L 6 21 L 9 21 L 9 18 Z M 6 30 L 6 33 L 9 33 L 9 30 Z M 6 42 L 6 45 L 9 45 L 9 42 Z M 6 42 "/>
<path fill-rule="evenodd" fill="rgb(75%, 75%, 75%)" fill-opacity="1" stroke-width="0.4" stroke-linecap="butt" stroke-linejoin="round" stroke="rgb(0%, 0%, 0%)" stroke-opacity="1" stroke-miterlimit="10" d="M 104 612 L 104 608 L 100 608 L 100 612 Z M 104 612 " transform="matrix(1, 0, 0, -1, -71, 625)"/>
<path fill-rule="evenodd" fill="rgb(75%, 75%, 75%)" fill-opacity="1" stroke-width="0.4" stroke-linecap="butt" stroke-linejoin="round" stroke="rgb(0%, 0%, 0%)" stroke-opacity="1" stroke-miterlimit="10" d="M 96 616 L 96 612 L 92 612 L 92 616 Z M 96 616 " transform="matrix(1, 0, 0, -1, -71, 625)"/>
<path fill-rule="evenodd" fill="rgb(75%, 75%, 75%)" fill-opacity="1" stroke-width="0.4" stroke-linecap="butt" stroke-linejoin="round" stroke="rgb(0%, 0%, 0%)" stroke-opacity="1" stroke-miterlimit="10" d="M 96 620 L 96 616 L 92 616 L 92 620 Z M 96 620 " transform="matrix(1, 0, 0, -1, -71, 625)"/>
<path fill-rule="evenodd" fill="rgb(75%, 75%, 75%)" fill-opacity="1" stroke-width="0.4" stroke-linecap="butt" stroke-linejoin="round" stroke="rgb(0%, 0%, 0%)" stroke-opacity="1" stroke-miterlimit="10" d="M 92 616 L 92 612 L 88 612 L 88 616 Z M 92 616 " transform="matrix(1, 0, 0, -1, -71, 625)"/>
<path fill-rule="evenodd" fill="rgb(75%, 75%, 75%)" fill-opacity="1" stroke-width="0.4" stroke-linecap="butt" stroke-linejoin="round" stroke="rgb(0%, 0%, 0%)" stroke-opacity="1" stroke-miterlimit="10" d="M 100 612 L 100 608 L 96 608 L 96 612 Z M 100 612 " transform="matrix(1, 0, 0, -1, -71, 625)"/>
<path fill-rule="evenodd" fill="rgb(75%, 75%, 75%)" fill-opacity="1" stroke-width="0.4" stroke-linecap="butt" stroke-linejoin="round" stroke="rgb(0%, 0%, 0%)" stroke-opacity="1" stroke-miterlimit="10" d="M 100 608 L 100 604 L 96 604 L 96 608 Z M 100 608 " transform="matrix(1, 0, 0, -1, -71, 625)"/>
<path fill-rule="evenodd" fill="rgb(75%, 75%, 75%)" fill-opacity="1" stroke-width="0.4" stroke-linecap="butt" stroke-linejoin="round" stroke="rgb(0%, 0%, 0%)" stroke-opacity="1" stroke-miterlimit="10" d="M 88 616 L 88 612 L 84 612 L 84 616 Z M 88 616 " transform="matrix(1, 0, 0, -1, -71, 625)"/>
<path fill-rule="evenodd" fill="rgb(75%, 75%, 75%)" fill-opacity="1" stroke-width="0.4" stroke-linecap="butt" stroke-linejoin="round" stroke="rgb(0%, 0%, 0%)" stroke-opacity="1" stroke-miterlimit="10" d="M 92 620 L 92 616 L 88 616 L 88 620 Z M 92 620 " transform="matrix(1, 0, 0, -1, -71, 625)"/>
<path fill-rule="evenodd" fill="rgb(75%, 75%, 75%)" fill-opacity="1" stroke-width="0.4" stroke-linecap="butt" stroke-linejoin="round" stroke="rgb(0%, 0%, 0%)" stroke-opacity="1" stroke-miterlimit="10" d="M 96 608 L 96 604 L 92 604 L 92 608 Z M 96 608 " transform="matrix(1, 0, 0, -1, -71, 625)"/>
<path fill-rule="evenodd" fill="rgb(75%, 75%, 75%)" fill-opacity="1" stroke-width="0.4" stroke-linecap="butt" stroke-linejoin="round" stroke="rgb(0%, 0%, 0%)" stroke-opacity="1" stroke-miterlimit="10" d="M 92 608 L 92 604 L 88 604 L 88 608 Z M 92 608 " transform="matrix(1, 0, 0, -1, -71, 625)"/>
<path fill-rule="evenodd" fill="rgb(75%, 75%, 75%)" fill-opacity="1" stroke-width="0.4" stroke-linecap="butt" stroke-linejoin="round" stroke="rgb(0%, 0%, 0%)" stroke-opacity="1" stroke-miterlimit="10" d="M 96 612 L 96 608 L 92 608 L 92 612 Z M 96 612 " transform="matrix(1, 0, 0, -1, -71, 625)"/>
<path fill-rule="evenodd" fill="rgb(75%, 75%, 75%)" fill-opacity="1" stroke-width="0.4" stroke-linecap="butt" stroke-linejoin="round" stroke="rgb(0%, 0%, 0%)" stroke-opacity="1" stroke-miterlimit="10" d="M 100 604 L 100 600 L 96 600 L 96 604 Z M 100 604 " transform="matrix(1, 0, 0, -1, -71, 625)"/>
<path fill-rule="evenodd" fill="rgb(75%, 75%, 75%)" fill-opacity="1" stroke-width="0.4" stroke-linecap="butt" stroke-linejoin="round" stroke="rgb(0%, 0%, 0%)" stroke-opacity="1" stroke-miterlimit="10" d="M 92 612 L 92 608 L 88 608 L 88 612 Z M 92 612 " transform="matrix(1, 0, 0, -1, -71, 625)"/>
<path fill-rule="evenodd" fill="rgb(74.9%, 23.1%, 16.5%)" fill-opacity="1" stroke-width="0.4" stroke-linecap="butt" stroke-linejoin="round" stroke="rgb(0%, 0%, 0%)" stroke-opacity="1" stroke-miterlimit="10" d="M 80 616 L 80 612 L 76 612 L 76 616 Z M 80 616 " transform="matrix(1, 0, 0, -1, -71, 625)"/>
<path fill-rule="evenodd" fill="rgb(74.9%, 23.1%, 16.5%)" fill-opacity="1" stroke-width="0.4" stroke-linecap="butt" stroke-linejoin="round" stroke="rgb(0%, 0%, 0%)" stroke-opacity="1" stroke-miterlimit="10" d="M 84 616 L 84 612 L 80 612 L 80 616 Z M 84 616 " transform="matrix(1, 0, 0, -1, -71, 625)"/>
<path fill-rule="evenodd" fill="rgb(75%, 75%, 75%)" fill-opacity="1" stroke-width="0.4" stroke-linecap="butt" stroke-linejoin="round" stroke="rgb(0%, 0%, 0%)" stroke-opacity="1" stroke-miterlimit="10" d="M 88 620 L 88 616 L 84 616 L 84 620 Z M 88 620 " transform="matrix(1, 0, 0, -1, -71, 625)"/>
<path fill-rule="evenodd" fill="rgb(75%, 75%, 75%)" fill-opacity="1" stroke-width="0.4" stroke-linecap="butt" stroke-linejoin="round" stroke="rgb(0%, 0%, 0%)" stroke-opacity="1" stroke-miterlimit="10" d="M 88 608 L 88 604 L 84 604 L 84 608 Z M 88 608 " transform="matrix(1, 0, 0, -1, -71, 625)"/>
<path fill-rule="evenodd" fill="rgb(75%, 75%, 75%)" fill-opacity="1" stroke-width="0.4" stroke-linecap="butt" stroke-linejoin="round" stroke="rgb(0%, 0%, 0%)" stroke-opacity="1" stroke-miterlimit="10" d="M 96 604 L 96 600 L 92 600 L 92 604 Z M 96 604 " transform="matrix(1, 0, 0, -1, -71, 625)"/>
<path fill-rule="evenodd" fill="rgb(75%, 75%, 75%)" fill-opacity="1" stroke-width="0.4" stroke-linecap="butt" stroke-linejoin="round" stroke="rgb(0%, 0%, 0%)" stroke-opacity="1" stroke-miterlimit="10" d="M 92 604 L 92 600 L 88 600 L 88 604 Z M 92 604 " transform="matrix(1, 0, 0, -1, -71, 625)"/>
<path fill-rule="evenodd" fill="rgb(75%, 75%, 75%)" fill-opacity="1" stroke-width="0.4" stroke-linecap="butt" stroke-linejoin="round" stroke="rgb(0%, 0%, 0%)" stroke-opacity="1" stroke-miterlimit="10" d="M 88 604 L 88 600 L 84 600 L 84 604 Z M 88 604 " transform="matrix(1, 0, 0, -1, -71, 625)"/>
<path fill-rule="evenodd" fill="rgb(75%, 75%, 75%)" fill-opacity="1" stroke-width="0.4" stroke-linecap="butt" stroke-linejoin="round" stroke="rgb(0%, 0%, 0%)" stroke-opacity="1" stroke-miterlimit="10" d="M 88 592 L 88 588 L 92 588 L 92 592 Z M 88 592 " transform="matrix(1, 0, 0, -1, -71, 625)"/>
<path fill-rule="evenodd" fill="rgb(74.9%, 23.1%, 16.5%)" fill-opacity="1" stroke-width="0.4" stroke-linecap="butt" stroke-linejoin="round" stroke="rgb(0%, 0%, 0%)" stroke-opacity="1" stroke-miterlimit="10" d="M 76 592 L 76 588 L 80 588 L 80 592 Z M 76 592 " transform="matrix(1, 0, 0, -1, -71, 625)"/>
<path fill-rule="evenodd" fill="rgb(75%, 75%, 75%)" fill-opacity="1" stroke-width="0.4" stroke-linecap="butt" stroke-linejoin="round" stroke="rgb(0%, 0%, 0%)" stroke-opacity="1" stroke-miterlimit="10" d="M 92 600 L 92 596 L 96 596 L 96 600 Z M 92 600 " transform="matrix(1, 0, 0, -1, -71, 625)"/>
<path fill-rule="evenodd" fill="rgb(74.9%, 23.1%, 16.5%)" fill-opacity="1" stroke-width="0.4" stroke-linecap="butt" stroke-linejoin="round" stroke="rgb(0%, 0%, 0%)" stroke-opacity="1" stroke-miterlimit="10" d="M 72 600 L 72 596 L 76 596 L 76 600 Z M 72 600 " transform="matrix(1, 0, 0, -1, -71, 625)"/>
<path fill-rule="evenodd" fill="rgb(75%, 75%, 75%)" fill-opacity="1" stroke-width="0.4" stroke-linecap="butt" stroke-linejoin="round" stroke="rgb(0%, 0%, 0%)" stroke-opacity="1" stroke-miterlimit="10" d="M 88 600 L 88 596 L 92 596 L 92 600 Z M 88 600 " transform="matrix(1, 0, 0, -1, -71, 625)"/>
<path fill-rule="evenodd" fill="rgb(74.9%, 23.1%, 16.5%)" fill-opacity="1" stroke-width="0.4" stroke-linecap="butt" stroke-linejoin="round" stroke="rgb(0%, 0%, 0%)" stroke-opacity="1" stroke-miterlimit="10" d="M 84 604 L 84 600 L 80 600 L 80 604 Z M 84 604 " transform="matrix(1, 0, 0, -1, -71, 625)"/>
<path fill-rule="evenodd" fill="rgb(74.9%, 23.1%, 16.5%)" fill-opacity="1" stroke-width="0.4" stroke-linecap="butt" stroke-linejoin="round" stroke="rgb(0%, 0%, 0%)" stroke-opacity="1" stroke-miterlimit="10" d="M 80 604 L 80 600 L 76 600 L 76 604 Z M 80 604 " transform="matrix(1, 0, 0, -1, -71, 625)"/>
<path fill-rule="evenodd" fill="rgb(75%, 75%, 75%)" fill-opacity="1" stroke-width="0.4" stroke-linecap="butt" stroke-linejoin="round" stroke="rgb(0%, 0%, 0%)" stroke-opacity="1" stroke-miterlimit="10" d="M 88 612 L 88 608 L 84 608 L 84 612 Z M 88 612 " transform="matrix(1, 0, 0, -1, -71, 625)"/>
<path fill-rule="evenodd" fill="rgb(75%, 75%, 75%)" fill-opacity="1" stroke-width="0.4" stroke-linecap="butt" stroke-linejoin="round" stroke="rgb(0%, 0%, 0%)" stroke-opacity="1" stroke-miterlimit="10" d="M 96 624 L 96 620 L 92 620 L 92 624 Z M 96 624 " transform="matrix(1, 0, 0, -1, -71, 625)"/>
<path fill-rule="evenodd" fill="rgb(74.9%, 23.1%, 16.5%)" fill-opacity="1" stroke-width="0.4" stroke-linecap="butt" stroke-linejoin="round" stroke="rgb(0%, 0%, 0%)" stroke-opacity="1" stroke-miterlimit="10" d="M 76 624 L 76 620 L 72 620 L 72 624 Z M 76 624 " transform="matrix(1, 0, 0, -1, -71, 625)"/>
<path fill-rule="evenodd" fill="rgb(75%, 75%, 75%)" fill-opacity="1" stroke-width="0.4" stroke-linecap="butt" stroke-linejoin="round" stroke="rgb(0%, 0%, 0%)" stroke-opacity="1" stroke-miterlimit="10" d="M 92 624 L 92 620 L 88 620 L 88 624 Z M 92 624 " transform="matrix(1, 0, 0, -1, -71, 625)"/>
<path fill-rule="evenodd" fill="rgb(74.9%, 23.1%, 16.5%)" fill-opacity="1" stroke-width="0.4" stroke-linecap="butt" stroke-linejoin="round" stroke="rgb(0%, 0%, 0%)" stroke-opacity="1" stroke-miterlimit="10" d="M 80 624 L 80 620 L 76 620 L 76 624 Z M 80 624 " transform="matrix(1, 0, 0, -1, -71, 625)"/>
<path fill-rule="evenodd" fill="rgb(75%, 75%, 75%)" fill-opacity="1" stroke-width="0.4" stroke-linecap="butt" stroke-linejoin="round" stroke="rgb(0%, 0%, 0%)" stroke-opacity="1" stroke-miterlimit="10" d="M 88 624 L 88 620 L 84 620 L 84 624 Z M 88 624 " transform="matrix(1, 0, 0, -1, -71, 625)"/>
<path fill-rule="evenodd" fill="rgb(74.9%, 23.1%, 16.5%)" fill-opacity="1" stroke-width="0.4" stroke-linecap="butt" stroke-linejoin="round" stroke="rgb(0%, 0%, 0%)" stroke-opacity="1" stroke-miterlimit="10" d="M 84 624 L 84 620 L 80 620 L 80 624 Z M 84 624 " transform="matrix(1, 0, 0, -1, -71, 625)"/>
<path fill-rule="evenodd" fill="rgb(74.9%, 23.1%, 16.5%)" fill-opacity="1" stroke-width="0.4" stroke-linecap="butt" stroke-linejoin="round" stroke="rgb(0%, 0%, 0%)" stroke-opacity="1" stroke-miterlimit="10" d="M 84 620 L 84 616 L 80 616 L 80 620 Z M 84 620 " transform="matrix(1, 0, 0, -1, -71, 625)"/>
<path fill-rule="evenodd" fill="rgb(74.9%, 23.1%, 16.5%)" fill-opacity="1" stroke-width="0.4" stroke-linecap="butt" stroke-linejoin="round" stroke="rgb(0%, 0%, 0%)" stroke-opacity="1" stroke-miterlimit="10" d="M 76 612 L 76 608 L 72 608 L 72 612 Z M 76 612 " transform="matrix(1, 0, 0, -1, -71, 625)"/>
<path fill-rule="evenodd" fill="rgb(74.9%, 23.1%, 16.5%)" fill-opacity="1" stroke-width="0.4" stroke-linecap="butt" stroke-linejoin="round" stroke="rgb(0%, 0%, 0%)" stroke-opacity="1" stroke-miterlimit="10" d="M 80 612 L 80 608 L 76 608 L 76 612 Z M 80 612 " transform="matrix(1, 0, 0, -1, -71, 625)"/>
<path fill-rule="evenodd" fill="rgb(74.9%, 23.1%, 16.5%)" fill-opacity="1" stroke-width="0.4" stroke-linecap="butt" stroke-linejoin="round" stroke="rgb(0%, 0%, 0%)" stroke-opacity="1" stroke-miterlimit="10" d="M 76 608 L 76 604 L 72 604 L 72 608 Z M 76 608 " transform="matrix(1, 0, 0, -1, -71, 625)"/>
<path fill-rule="evenodd" fill="rgb(75%, 75%, 75%)" fill-opacity="1" stroke-width="0.4" stroke-linecap="butt" stroke-linejoin="round" stroke="rgb(0%, 0%, 0%)" stroke-opacity="1" stroke-miterlimit="10" d="M 88 596 L 88 592 L 92 592 L 92 596 Z M 88 596 " transform="matrix(1, 0, 0, -1, -71, 625)"/>
<path fill-rule="evenodd" fill="rgb(75%, 75%, 75%)" fill-opacity="1" stroke-width="0.4" stroke-linecap="butt" stroke-linejoin="round" stroke="rgb(0%, 0%, 0%)" stroke-opacity="1" stroke-miterlimit="10" d="M 92 596 L 92 592 L 96 592 L 96 596 Z M 92 596 " transform="matrix(1, 0, 0, -1, -71, 625)"/>
<path fill-rule="evenodd" fill="rgb(75%, 75%, 75%)" fill-opacity="1" stroke-width="0.4" stroke-linecap="butt" stroke-linejoin="round" stroke="rgb(0%, 0%, 0%)" stroke-opacity="1" stroke-miterlimit="10" d="M 84 592 L 84 588 L 88 588 L 88 592 Z M 84 592 " transform="matrix(1, 0, 0, -1, -71, 625)"/>
<path fill-rule="evenodd" fill="rgb(74.9%, 23.1%, 16.5%)" fill-opacity="1" stroke-width="0.4" stroke-linecap="butt" stroke-linejoin="round" stroke="rgb(0%, 0%, 0%)" stroke-opacity="1" stroke-miterlimit="10" d="M 80 588 L 80 584 L 84 584 L 84 588 Z M 80 588 " transform="matrix(1, 0, 0, -1, -71, 625)"/>
<path fill-rule="evenodd" fill="rgb(74.9%, 23.1%, 16.5%)" fill-opacity="1" stroke-width="0.4" stroke-linecap="butt" stroke-linejoin="round" stroke="rgb(0%, 0%, 0%)" stroke-opacity="1" stroke-miterlimit="10" d="M 80 584 L 80 580 L 84 580 L 84 584 Z M 80 584 " transform="matrix(1, 0, 0, -1, -71, 625)"/>
<path fill-rule="evenodd" fill="rgb(74.9%, 23.1%, 16.5%)" fill-opacity="1" stroke-width="0.4" stroke-linecap="butt" stroke-linejoin="round" stroke="rgb(0%, 0%, 0%)" stroke-opacity="1" stroke-miterlimit="10" d="M 80 580 L 80 576 L 84 576 L 84 580 Z M 80 580 " transform="matrix(1, 0, 0, -1, -71, 625)"/>
<path fill-rule="evenodd" fill="rgb(74.9%, 23.1%, 16.5%)" fill-opacity="1" stroke-width="0.4" stroke-linecap="butt" stroke-linejoin="round" stroke="rgb(0%, 0%, 0%)" stroke-opacity="1" stroke-miterlimit="10" d="M 76 580 L 76 576 L 80 576 L 80 580 Z M 76 580 " transform="matrix(1, 0, 0, -1, -71, 625)"/>
<path fill-rule="evenodd" fill="rgb(74.9%, 23.1%, 16.5%)" fill-opacity="1" stroke-width="0.4" stroke-linecap="butt" stroke-linejoin="round" stroke="rgb(0%, 0%, 0%)" stroke-opacity="1" stroke-miterlimit="10" d="M 72 580 L 72 576 L 76 576 L 76 580 Z M 72 580 " transform="matrix(1, 0, 0, -1, -71, 625)"/>
<path fill-rule="evenodd" fill="rgb(74.9%, 23.1%, 16.5%)" fill-opacity="1" stroke-width="0.4" stroke-linecap="butt" stroke-linejoin="round" stroke="rgb(0%, 0%, 0%)" stroke-opacity="1" stroke-miterlimit="10" d="M 72 584 L 72 580 L 76 580 L 76 584 Z M 72 584 " transform="matrix(1, 0, 0, -1, -71, 625)"/>
<path fill-rule="evenodd" fill="rgb(74.9%, 23.1%, 16.5%)" fill-opacity="1" stroke-width="0.4" stroke-linecap="butt" stroke-linejoin="round" stroke="rgb(0%, 0%, 0%)" stroke-opacity="1" stroke-miterlimit="10" d="M 72 588 L 72 584 L 76 584 L 76 588 Z M 72 588 " transform="matrix(1, 0, 0, -1, -71, 625)"/>
<path fill-rule="evenodd" fill="rgb(74.9%, 23.1%, 16.5%)" fill-opacity="1" stroke-width="0.4" stroke-linecap="butt" stroke-linejoin="round" stroke="rgb(0%, 0%, 0%)" stroke-opacity="1" stroke-miterlimit="10" d="M 80 592 L 80 588 L 84 588 L 84 592 Z M 80 592 " transform="matrix(1, 0, 0, -1, -71, 625)"/>
<path fill-rule="evenodd" fill="rgb(74.9%, 23.1%, 16.5%)" fill-opacity="1" stroke-width="0.4" stroke-linecap="butt" stroke-linejoin="round" stroke="rgb(0%, 0%, 0%)" stroke-opacity="1" stroke-miterlimit="10" d="M 80 596 L 80 592 L 84 592 L 84 596 Z M 80 596 " transform="matrix(1, 0, 0, -1, -71, 625)"/>
<path fill-rule="evenodd" fill="rgb(74.9%, 23.1%, 16.5%)" fill-opacity="1" stroke-width="0.4" stroke-linecap="butt" stroke-linejoin="round" stroke="rgb(0%, 0%, 0%)" stroke-opacity="1" stroke-miterlimit="10" d="M 80 600 L 80 596 L 84 596 L 84 600 Z M 80 600 " transform="matrix(1, 0, 0, -1, -71, 625)"/>
<path fill-rule="evenodd" fill="rgb(75%, 75%, 75%)" fill-opacity="1" stroke-width="0.4" stroke-linecap="butt" stroke-linejoin="round" stroke="rgb(0%, 0%, 0%)" stroke-opacity="1" stroke-miterlimit="10" d="M 84 600 L 84 596 L 88 596 L 88 600 Z M 84 600 " transform="matrix(1, 0, 0, -1, -71, 625)"/>
<path fill-rule="evenodd" fill="rgb(74.9%, 23.1%, 16.5%)" fill-opacity="1" stroke-width="0.4" stroke-linecap="butt" stroke-linejoin="round" stroke="rgb(0%, 0%, 0%)" stroke-opacity="1" stroke-miterlimit="10" d="M 76 588 L 76 584 L 80 584 L 80 588 Z M 76 588 " transform="matrix(1, 0, 0, -1, -71, 625)"/>
<path fill-rule="evenodd" fill="rgb(74.9%, 23.1%, 16.5%)" fill-opacity="1" stroke-width="0.4" stroke-linecap="butt" stroke-linejoin="round" stroke="rgb(0%, 0%, 0%)" stroke-opacity="1" stroke-miterlimit="10" d="M 72 596 L 72 592 L 76 592 L 76 596 Z M 72 596 " transform="matrix(1, 0, 0, -1, -71, 625)"/>
<path fill-rule="evenodd" fill="rgb(75%, 75%, 75%)" fill-opacity="1" stroke-width="0.4" stroke-linecap="butt" stroke-linejoin="round" stroke="rgb(0%, 0%, 0%)" stroke-opacity="1" stroke-miterlimit="10" d="M 84 596 L 84 592 L 88 592 L 88 596 Z M 84 596 " transform="matrix(1, 0, 0, -1, -71, 625)"/>
<path fill-rule="evenodd" fill="rgb(74.9%, 23.1%, 16.5%)" fill-opacity="1" stroke-width="0.4" stroke-linecap="butt" stroke-linejoin="round" stroke="rgb(0%, 0%, 0%)" stroke-opacity="1" stroke-miterlimit="10" d="M 76 604 L 76 600 L 72 600 L 72 604 Z M 76 604 " transform="matrix(1, 0, 0, -1, -71, 625)"/>
<path fill-rule="evenodd" fill="rgb(74.9%, 23.1%, 16.5%)" fill-opacity="1" stroke-width="0.4" stroke-linecap="butt" stroke-linejoin="round" stroke="rgb(0%, 0%, 0%)" stroke-opacity="1" stroke-miterlimit="10" d="M 76 616 L 76 612 L 72 612 L 72 616 Z M 76 616 " transform="matrix(1, 0, 0, -1, -71, 625)"/>
<path fill-rule="evenodd" fill="rgb(74.9%, 23.1%, 16.5%)" fill-opacity="1" stroke-width="0.4" stroke-linecap="butt" stroke-linejoin="round" stroke="rgb(0%, 0%, 0%)" stroke-opacity="1" stroke-miterlimit="10" d="M 84 608 L 84 604 L 80 604 L 80 608 Z M 84 608 " transform="matrix(1, 0, 0, -1, -71, 625)"/>
<path fill-rule="evenodd" fill="rgb(74.9%, 23.1%, 16.5%)" fill-opacity="1" stroke-width="0.4" stroke-linecap="butt" stroke-linejoin="round" stroke="rgb(0%, 0%, 0%)" stroke-opacity="1" stroke-miterlimit="10" d="M 84 612 L 84 608 L 80 608 L 80 612 Z M 84 612 " transform="matrix(1, 0, 0, -1, -71, 625)"/>
<path fill-rule="evenodd" fill="rgb(74.9%, 23.1%, 16.5%)" fill-opacity="1" stroke-width="0.4" stroke-linecap="butt" stroke-linejoin="round" stroke="rgb(0%, 0%, 0%)" stroke-opacity="1" stroke-miterlimit="10" d="M 76 620 L 76 616 L 72 616 L 72 620 Z M 76 620 " transform="matrix(1, 0, 0, -1, -71, 625)"/>
<path fill-rule="evenodd" fill="rgb(74.9%, 23.1%, 16.5%)" fill-opacity="1" stroke-width="0.4" stroke-linecap="butt" stroke-linejoin="round" stroke="rgb(0%, 0%, 0%)" stroke-opacity="1" stroke-miterlimit="10" d="M 76 600 L 76 596 L 80 596 L 80 600 Z M 76 600 " transform="matrix(1, 0, 0, -1, -71, 625)"/>
<path fill-rule="evenodd" fill="rgb(74.9%, 23.1%, 16.5%)" fill-opacity="1" stroke-width="0.4" stroke-linecap="butt" stroke-linejoin="round" stroke="rgb(0%, 0%, 0%)" stroke-opacity="1" stroke-miterlimit="10" d="M 72 592 L 72 588 L 76 588 L 76 592 Z M 72 592 " transform="matrix(1, 0, 0, -1, -71, 625)"/>
<path fill-rule="evenodd" fill="rgb(75%, 75%, 75%)" fill-opacity="1" stroke-width="0.4" stroke-linecap="butt" stroke-linejoin="round" stroke="rgb(0%, 0%, 0%)" stroke-opacity="1" stroke-miterlimit="10" d="M 92 592 L 92 588 L 96 588 L 96 592 Z M 92 592 " transform="matrix(1, 0, 0, -1, -71, 625)"/>
<path fill="none" stroke-width="0.4" stroke-linecap="butt" stroke-linejoin="round" stroke="rgb(0%, 0%, 0%)" stroke-opacity="1" stroke-dasharray="1 3" stroke-miterlimit="10" d="M 135 612 L 72 612 " transform="matrix(1, 0, 0, -1, -71, 625)"/>
<path fill="none" stroke-width="0.4" stroke-linecap="butt" stroke-linejoin="round" stroke="rgb(0%, 0%, 0%)" stroke-opacity="1" stroke-dasharray="1 3" stroke-miterlimit="10" d="M 135 600 L 72 600 " transform="matrix(1, 0, 0, -1, -71, 625)"/>
<path fill="none" stroke-width="0.4" stroke-linecap="butt" stroke-linejoin="round" stroke="rgb(0%, 0%, 0%)" stroke-opacity="1" stroke-dasharray="1 3" stroke-miterlimit="10" d="M 135 588 L 72 588 " transform="matrix(1, 0, 0, -1, -71, 625)"/>
</svg>
