<?xml version="1.0" encoding="UTF-8"?>
<svg xmlns="http://www.w3.org/2000/svg" xmlns:xlink="http://www.w3.org/1999/xlink" width="50" height="46" viewBox="0 0 50 46">
<path fill-rule="evenodd" fill="rgb(0%, 0%, 0%)" fill-opacity="0.33" d="M 1 13 L 1 29 L 2 30 L 6 30 L 6 26 L 9 26 L 9 29 L 10 30 L 13 30 L 13 37 L 14 38 L 17 38 L 17 41 L 18 42 L 50 42 L 50 34 L 49 33 L 42 33 L 42 30 L 46 30 L 46 18 L 45 17 L 38 17 L 38 6 L 42 6 L 42 2 L 41 1 L 33 1 L 33 9 L 30 9 L 30 2 L 29 1 L 25 1 L 25 5 L 22 5 L 22 2 L 21 1 L 17 1 L 17 9 L 5 9 L 5 13 Z M 14 14 L 14 21 L 17 21 L 18 22 L 18 25 L 25 25 L 26 26 L 26 29 L 29 29 L 29 25 L 33 25 L 33 22 L 30 22 L 29 21 L 29 18 L 22 18 L 21 17 L 21 14 Z M 26 10 L 26 13 L 29 13 L 29 10 Z M 18 30 L 18 33 L 21 33 L 21 30 Z M 34 30 L 34 33 L 37 33 L 37 30 Z M 22 34 L 22 37 L 33 37 L 33 34 Z M 42 38 L 42 41 L 45 41 L 45 38 Z M 42 38 "/>
<path fill-rule="evenodd" fill="rgb(75%, 75%, 75%)" fill-opacity="1" stroke-width="0.4" stroke-linecap="butt" stroke-linejoin="round" stroke="rgb(0%, 0%, 0%)" stroke-opacity="1" stroke-miterlimit="10" d="M 76 608 L 76 604 L 80 604 L 80 608 Z M 76 608 " transform="matrix(1, 0, 0, -1, -75, 621)"/>
<path fill-rule="evenodd" fill="rgb(75%, 75%, 75%)" fill-opacity="1" stroke-width="0.4" stroke-linecap="butt" stroke-linejoin="round" stroke="rgb(0%, 0%, 0%)" stroke-opacity="1" stroke-miterlimit="10" d="M 76 604 L 76 600 L 80 600 L 80 604 Z M 76 604 " transform="matrix(1, 0, 0, -1, -75, 621)"/>
<path fill-rule="evenodd" fill="rgb(75%, 75%, 75%)" fill-opacity="1" stroke-width="0.4" stroke-linecap="butt" stroke-linejoin="round" stroke="rgb(0%, 0%, 0%)" stroke-opacity="1" stroke-miterlimit="10" d="M 76 600 L 76 596 L 80 596 L 80 600 Z M 76 600 " transform="matrix(1, 0, 0, -1, -75, 621)"/>
<path fill-rule="evenodd" fill="rgb(75%, 75%, 75%)" fill-opacity="1" stroke-width="0.4" stroke-linecap="butt" stroke-linejoin="round" stroke="rgb(0%, 0%, 0%)" stroke-opacity="1" stroke-miterlimit="10" d="M 76 596 L 76 592 L 80 592 L 80 596 Z M 76 596 " transform="matrix(1, 0, 0, -1, -75, 621)"/>
<path fill-rule="evenodd" fill="rgb(75%, 75%, 75%)" fill-opacity="1" stroke-width="0.4" stroke-linecap="butt" stroke-linejoin="round" stroke="rgb(0%, 0%, 0%)" stroke-opacity="1" stroke-miterlimit="10" d="M 80 612 L 80 608 L 84 608 L 84 612 Z M 80 612 " transform="matrix(1, 0, 0, -1, -75, 621)"/>
<path fill-rule="evenodd" fill="rgb(75%, 75%, 75%)" fill-opacity="1" stroke-width="0.4" stroke-linecap="butt" stroke-linejoin="round" stroke="rgb(0%, 0%, 0%)" stroke-opacity="1" stroke-miterlimit="10" d="M 80 608 L 80 604 L 84 604 L 84 608 Z M 80 608 " transform="matrix(1, 0, 0, -1, -75, 621)"/>
<path fill-rule="evenodd" fill="rgb(75%, 75%, 75%)" fill-opacity="1" stroke-width="0.4" stroke-linecap="butt" stroke-linejoin="round" stroke="rgb(0%, 0%, 0%)" stroke-opacity="1" stroke-miterlimit="10" d="M 80 604 L 80 600 L 84 600 L 84 604 Z M 80 604 " transform="matrix(1, 0, 0, -1, -75, 621)"/>
<path fill-rule="evenodd" fill="rgb(75%, 75%, 75%)" fill-opacity="1" stroke-width="0.4" stroke-linecap="butt" stroke-linejoin="round" stroke="rgb(0%, 0%, 0%)" stroke-opacity="1" stroke-miterlimit="10" d="M 80 600 L 80 596 L 84 596 L 84 600 Z M 80 600 " transform="matrix(1, 0, 0, -1, -75, 621)"/>
<path fill-rule="evenodd" fill="rgb(75%, 75%, 75%)" fill-opacity="1" stroke-width="0.4" stroke-linecap="butt" stroke-linejoin="round" stroke="rgb(0%, 0%, 0%)" stroke-opacity="1" stroke-miterlimit="10" d="M 84 612 L 84 608 L 88 608 L 88 612 Z M 84 612 " transform="matrix(1, 0, 0, -1, -75, 621)"/>
<path fill-rule="evenodd" fill="rgb(75%, 75%, 75%)" fill-opacity="1" stroke-width="0.4" stroke-linecap="butt" stroke-linejoin="round" stroke="rgb(0%, 0%, 0%)" stroke-opacity="1" stroke-miterlimit="10" d="M 84 608 L 84 604 L 88 604 L 88 608 Z M 84 608 " transform="matrix(1, 0, 0, -1, -75, 621)"/>
<path fill-rule="evenodd" fill="rgb(75%, 75%, 75%)" fill-opacity="1" stroke-width="0.4" stroke-linecap="butt" stroke-linejoin="round" stroke="rgb(0%, 0%, 0%)" stroke-opacity="1" stroke-miterlimit="10" d="M 84 604 L 84 600 L 88 600 L 88 604 Z M 84 604 " transform="matrix(1, 0, 0, -1, -75, 621)"/>
<path fill-rule="evenodd" fill="rgb(75%, 75%, 75%)" fill-opacity="1" stroke-width="0.4" stroke-linecap="butt" stroke-linejoin="round" stroke="rgb(0%, 0%, 0%)" stroke-opacity="1" stroke-miterlimit="10" d="M 84 600 L 84 596 L 88 596 L 88 600 Z M 84 600 " transform="matrix(1, 0, 0, -1, -75, 621)"/>
<path fill-rule="evenodd" fill="rgb(75%, 75%, 75%)" fill-opacity="1" stroke-width="0.4" stroke-linecap="butt" stroke-linejoin="round" stroke="rgb(0%, 0%, 0%)" stroke-opacity="1" stroke-miterlimit="10" d="M 84 596 L 84 592 L 88 592 L 88 596 Z M 84 596 " transform="matrix(1, 0, 0, -1, -75, 621)"/>
<path fill-rule="evenodd" fill="rgb(75%, 75%, 75%)" fill-opacity="1" stroke-width="0.4" stroke-linecap="butt" stroke-linejoin="round" stroke="rgb(0%, 0%, 0%)" stroke-opacity="1" stroke-miterlimit="10" d="M 88 612 L 88 608 L 92 608 L 92 612 Z M 88 612 " transform="matrix(1, 0, 0, -1, -75, 621)"/>
<path fill-rule="evenodd" fill="rgb(75%, 75%, 75%)" fill-opacity="1" stroke-width="0.4" stroke-linecap="butt" stroke-linejoin="round" stroke="rgb(0%, 0%, 0%)" stroke-opacity="1" stroke-miterlimit="10" d="M 92 612 L 92 608 L 96 608 L 96 612 Z M 92 612 " transform="matrix(1, 0, 0, -1, -75, 621)"/>
<path fill-rule="evenodd" fill="rgb(75%, 75%, 75%)" fill-opacity="1" stroke-width="0.4" stroke-linecap="butt" stroke-linejoin="round" stroke="rgb(0%, 0%, 0%)" stroke-opacity="1" stroke-miterlimit="10" d="M 92 616 L 92 612 L 96 612 L 96 616 Z M 92 616 " transform="matrix(1, 0, 0, -1, -75, 621)"/>
<path fill-rule="evenodd" fill="rgb(75%, 75%, 75%)" fill-opacity="1" stroke-width="0.4" stroke-linecap="butt" stroke-linejoin="round" stroke="rgb(0%, 0%, 0%)" stroke-opacity="1" stroke-miterlimit="10" d="M 92 620 L 92 616 L 96 616 L 96 620 Z M 92 620 " transform="matrix(1, 0, 0, -1, -75, 621)"/>
<path fill-rule="evenodd" fill="rgb(75%, 75%, 75%)" fill-opacity="1" stroke-width="0.4" stroke-linecap="butt" stroke-linejoin="round" stroke="rgb(0%, 0%, 0%)" stroke-opacity="1" stroke-miterlimit="10" d="M 96 616 L 96 612 L 100 612 L 100 616 Z M 96 616 " transform="matrix(1, 0, 0, -1, -75, 621)"/>
<path fill-rule="evenodd" fill="rgb(75%, 75%, 75%)" fill-opacity="1" stroke-width="0.4" stroke-linecap="butt" stroke-linejoin="round" stroke="rgb(0%, 0%, 0%)" stroke-opacity="1" stroke-miterlimit="10" d="M 96 612 L 96 608 L 100 608 L 100 612 Z M 96 612 " transform="matrix(1, 0, 0, -1, -75, 621)"/>
<path fill-rule="evenodd" fill="rgb(75%, 75%, 75%)" fill-opacity="1" stroke-width="0.4" stroke-linecap="butt" stroke-linejoin="round" stroke="rgb(0%, 0%, 0%)" stroke-opacity="1" stroke-miterlimit="10" d="M 96 608 L 96 604 L 100 604 L 100 608 Z M 96 608 " transform="matrix(1, 0, 0, -1, -75, 621)"/>
<path fill-rule="evenodd" fill="rgb(75%, 75%, 75%)" fill-opacity="1" stroke-width="0.4" stroke-linecap="butt" stroke-linejoin="round" stroke="rgb(0%, 0%, 0%)" stroke-opacity="1" stroke-miterlimit="10" d="M 100 616 L 100 612 L 104 612 L 104 616 Z M 100 616 " transform="matrix(1, 0, 0, -1, -75, 621)"/>
<path fill-rule="evenodd" fill="rgb(75%, 75%, 75%)" fill-opacity="1" stroke-width="0.4" stroke-linecap="butt" stroke-linejoin="round" stroke="rgb(0%, 0%, 0%)" stroke-opacity="1" stroke-miterlimit="10" d="M 100 620 L 100 616 L 104 616 L 104 620 Z M 100 620 " transform="matrix(1, 0, 0, -1, -75, 621)"/>
<path fill-rule="evenodd" fill="rgb(75%, 75%, 75%)" fill-opacity="1" stroke-width="0.4" stroke-linecap="butt" stroke-linejoin="round" stroke="rgb(0%, 0%, 0%)" stroke-opacity="1" stroke-miterlimit="10" d="M 100 608 L 100 604 L 104 604 L 104 608 Z M 100 608 " transform="matrix(1, 0, 0, -1, -75, 621)"/>
<path fill-rule="evenodd" fill="rgb(75%, 75%, 75%)" fill-opacity="1" stroke-width="0.4" stroke-linecap="butt" stroke-linejoin="round" stroke="rgb(0%, 0%, 0%)" stroke-opacity="1" stroke-miterlimit="10" d="M 104 608 L 104 604 L 108 604 L 108 608 Z M 104 608 " transform="matrix(1, 0, 0, -1, -75, 621)"/>
<path fill-rule="evenodd" fill="rgb(75%, 75%, 75%)" fill-opacity="1" stroke-width="0.4" stroke-linecap="butt" stroke-linejoin="round" stroke="rgb(0%, 0%, 0%)" stroke-opacity="1" stroke-miterlimit="10" d="M 104 612 L 104 608 L 108 608 L 108 612 Z M 104 612 " transform="matrix(1, 0, 0, -1, -75, 621)"/>
<path fill-rule="evenodd" fill="rgb(75%, 75%, 75%)" fill-opacity="1" stroke-width="0.4" stroke-linecap="butt" stroke-linejoin="round" stroke="rgb(0%, 0%, 0%)" stroke-opacity="1" stroke-miterlimit="10" d="M 104 604 L 104 600 L 108 600 L 108 604 Z M 104 604 " transform="matrix(1, 0, 0, -1, -75, 621)"/>
<path fill-rule="evenodd" fill="rgb(75%, 75%, 75%)" fill-opacity="1" stroke-width="0.4" stroke-linecap="butt" stroke-linejoin="round" stroke="rgb(0%, 0%, 0%)" stroke-opacity="1" stroke-miterlimit="10" d="M 108 612 L 108 608 L 112 608 L 112 612 Z M 108 612 " transform="matrix(1, 0, 0, -1, -75, 621)"/>
<path fill-rule="evenodd" fill="rgb(75%, 75%, 75%)" fill-opacity="1" stroke-width="0.4" stroke-linecap="butt" stroke-linejoin="round" stroke="rgb(0%, 0%, 0%)" stroke-opacity="1" stroke-miterlimit="10" d="M 108 616 L 108 612 L 112 612 L 112 616 Z M 108 616 " transform="matrix(1, 0, 0, -1, -75, 621)"/>
<path fill-rule="evenodd" fill="rgb(75%, 75%, 75%)" fill-opacity="1" stroke-width="0.4" stroke-linecap="butt" stroke-linejoin="round" stroke="rgb(0%, 0%, 0%)" stroke-opacity="1" stroke-miterlimit="10" d="M 108 620 L 108 616 L 112 616 L 112 620 Z M 108 620 " transform="matrix(1, 0, 0, -1, -75, 621)"/>
<path fill-rule="evenodd" fill="rgb(75%, 75%, 75%)" fill-opacity="1" stroke-width="0.4" stroke-linecap="butt" stroke-linejoin="round" stroke="rgb(0%, 0%, 0%)" stroke-opacity="1" stroke-miterlimit="10" d="M 112 620 L 112 616 L 116 616 L 116 620 Z M 112 620 " transform="matrix(1, 0, 0, -1, -75, 621)"/>
<path fill-rule="evenodd" fill="rgb(75%, 75%, 75%)" fill-opacity="1" stroke-width="0.4" stroke-linecap="butt" stroke-linejoin="round" stroke="rgb(0%, 0%, 0%)" stroke-opacity="1" stroke-miterlimit="10" d="M 108 608 L 108 604 L 112 604 L 112 608 Z M 108 608 " transform="matrix(1, 0, 0, -1, -75, 621)"/>
<path fill-rule="evenodd" fill="rgb(75%, 75%, 75%)" fill-opacity="1" stroke-width="0.4" stroke-linecap="butt" stroke-linejoin="round" stroke="rgb(0%, 0%, 0%)" stroke-opacity="1" stroke-miterlimit="10" d="M 108 604 L 108 600 L 112 600 L 112 604 Z M 108 604 " transform="matrix(1, 0, 0, -1, -75, 621)"/>
<path fill-rule="evenodd" fill="rgb(75%, 75%, 75%)" fill-opacity="1" stroke-width="0.4" stroke-linecap="butt" stroke-linejoin="round" stroke="rgb(0%, 0%, 0%)" stroke-opacity="1" stroke-miterlimit="10" d="M 112 604 L 112 600 L 116 600 L 116 604 Z M 112 604 " transform="matrix(1, 0, 0, -1, -75, 621)"/>
<path fill-rule="evenodd" fill="rgb(75%, 75%, 75%)" fill-opacity="1" stroke-width="0.4" stroke-linecap="butt" stroke-linejoin="round" stroke="rgb(0%, 0%, 0%)" stroke-opacity="1" stroke-miterlimit="10" d="M 116 604 L 116 600 L 120 600 L 120 604 Z M 116 604 " transform="matrix(1, 0, 0, -1, -75, 621)"/>
<path fill-rule="evenodd" fill="rgb(75%, 75%, 75%)" fill-opacity="1" stroke-width="0.4" stroke-linecap="butt" stroke-linejoin="round" stroke="rgb(0%, 0%, 0%)" stroke-opacity="1" stroke-miterlimit="10" d="M 108 600 L 108 596 L 112 596 L 112 600 Z M 108 600 " transform="matrix(1, 0, 0, -1, -75, 621)"/>
<path fill-rule="evenodd" fill="rgb(75%, 75%, 75%)" fill-opacity="1" stroke-width="0.4" stroke-linecap="butt" stroke-linejoin="round" stroke="rgb(0%, 0%, 0%)" stroke-opacity="1" stroke-miterlimit="10" d="M 112 600 L 112 596 L 116 596 L 116 600 Z M 112 600 " transform="matrix(1, 0, 0, -1, -75, 621)"/>
<path fill-rule="evenodd" fill="rgb(75%, 75%, 75%)" fill-opacity="1" stroke-width="0.4" stroke-linecap="butt" stroke-linejoin="round" stroke="rgb(0%, 0%, 0%)" stroke-opacity="1" stroke-miterlimit="10" d="M 116 600 L 116 596 L 120 596 L 120 600 Z M 116 600 " transform="matrix(1, 0, 0, -1, -75, 621)"/>
<path fill-rule="evenodd" fill="rgb(75%, 75%, 75%)" fill-opacity="1" stroke-width="0.4" stroke-linecap="butt" stroke-linejoin="round" stroke="rgb(0%, 0%, 0%)" stroke-opacity="1" stroke-miterlimit="10" d="M 104 596 L 104 592 L 108 592 L 108 596 Z M 104 596 " transform="matrix(1, 0, 0, -1, -75, 621)"/>
<path fill-rule="evenodd" fill="rgb(75%, 75%, 75%)" fill-opacity="1" stroke-width="0.4" stroke-linecap="butt" stroke-linejoin="round" stroke="rgb(0%, 0%, 0%)" stroke-opacity="1" stroke-miterlimit="10" d="M 108 596 L 108 592 L 112 592 L 112 596 Z M 108 596 " transform="matrix(1, 0, 0, -1, -75, 621)"/>
<path fill-rule="evenodd" fill="rgb(75%, 75%, 75%)" fill-opacity="1" stroke-width="0.4" stroke-linecap="butt" stroke-linejoin="round" stroke="rgb(0%, 0%, 0%)" stroke-opacity="1" stroke-miterlimit="10" d="M 112 596 L 112 592 L 116 592 L 116 596 Z M 112 596 " transform="matrix(1, 0, 0, -1, -75, 621)"/>
<path fill-rule="evenodd" fill="rgb(75%, 75%, 75%)" fill-opacity="1" stroke-width="0.4" stroke-linecap="butt" stroke-linejoin="round" stroke="rgb(0%, 0%, 0%)" stroke-opacity="1" stroke-miterlimit="10" d="M 116 596 L 116 592 L 120 592 L 120 596 Z M 116 596 " transform="matrix(1, 0, 0, -1, -75, 621)"/>
<path fill-rule="evenodd" fill="rgb(75%, 75%, 75%)" fill-opacity="1" stroke-width="0.4" stroke-linecap="butt" stroke-linejoin="round" stroke="rgb(0%, 0%, 0%)" stroke-opacity="1" stroke-miterlimit="10" d="M 88 600 L 88 596 L 92 596 L 92 600 Z M 88 600 " transform="matrix(1, 0, 0, -1, -75, 621)"/>
<path fill-rule="evenodd" fill="rgb(75%, 75%, 75%)" fill-opacity="1" stroke-width="0.4" stroke-linecap="butt" stroke-linejoin="round" stroke="rgb(0%, 0%, 0%)" stroke-opacity="1" stroke-miterlimit="10" d="M 88 596 L 88 592 L 92 592 L 92 596 Z M 88 596 " transform="matrix(1, 0, 0, -1, -75, 621)"/>
<path fill-rule="evenodd" fill="rgb(75%, 75%, 75%)" fill-opacity="1" stroke-width="0.4" stroke-linecap="butt" stroke-linejoin="round" stroke="rgb(0%, 0%, 0%)" stroke-opacity="1" stroke-miterlimit="10" d="M 92 596 L 92 592 L 96 592 L 96 596 Z M 92 596 " transform="matrix(1, 0, 0, -1, -75, 621)"/>
<path fill-rule="evenodd" fill="rgb(75%, 75%, 75%)" fill-opacity="1" stroke-width="0.4" stroke-linecap="butt" stroke-linejoin="round" stroke="rgb(0%, 0%, 0%)" stroke-opacity="1" stroke-miterlimit="10" d="M 96 596 L 96 592 L 100 592 L 100 596 Z M 96 596 " transform="matrix(1, 0, 0, -1, -75, 621)"/>
<path fill-rule="evenodd" fill="rgb(75%, 75%, 75%)" fill-opacity="1" stroke-width="0.4" stroke-linecap="butt" stroke-linejoin="round" stroke="rgb(0%, 0%, 0%)" stroke-opacity="1" stroke-miterlimit="10" d="M 96 592 L 96 588 L 100 588 L 100 592 Z M 96 592 " transform="matrix(1, 0, 0, -1, -75, 621)"/>
<path fill-rule="evenodd" fill="rgb(75%, 75%, 75%)" fill-opacity="1" stroke-width="0.4" stroke-linecap="butt" stroke-linejoin="round" stroke="rgb(0%, 0%, 0%)" stroke-opacity="1" stroke-miterlimit="10" d="M 100 592 L 100 588 L 104 588 L 104 592 Z M 100 592 " transform="matrix(1, 0, 0, -1, -75, 621)"/>
<path fill-rule="evenodd" fill="rgb(75%, 75%, 75%)" fill-opacity="1" stroke-width="0.4" stroke-linecap="butt" stroke-linejoin="round" stroke="rgb(0%, 0%, 0%)" stroke-opacity="1" stroke-miterlimit="10" d="M 104 592 L 104 588 L 108 588 L 108 592 Z M 104 592 " transform="matrix(1, 0, 0, -1, -75, 621)"/>
<path fill-rule="evenodd" fill="rgb(75%, 75%, 75%)" fill-opacity="1" stroke-width="0.4" stroke-linecap="butt" stroke-linejoin="round" stroke="rgb(0%, 0%, 0%)" stroke-opacity="1" stroke-miterlimit="10" d="M 92 588 L 92 584 L 96 584 L 96 588 Z M 92 588 " transform="matrix(1, 0, 0, -1, -75, 621)"/>
<path fill-rule="evenodd" fill="rgb(75%, 75%, 75%)" fill-opacity="1" stroke-width="0.4" stroke-linecap="butt" stroke-linejoin="round" stroke="rgb(0%, 0%, 0%)" stroke-opacity="1" stroke-miterlimit="10" d="M 88 592 L 88 588 L 92 588 L 92 592 Z M 88 592 " transform="matrix(1, 0, 0, -1, -75, 621)"/>
<path fill-rule="evenodd" fill="rgb(75%, 75%, 75%)" fill-opacity="1" stroke-width="0.4" stroke-linecap="butt" stroke-linejoin="round" stroke="rgb(0%, 0%, 0%)" stroke-opacity="1" stroke-miterlimit="10" d="M 88 588 L 88 584 L 92 584 L 92 588 Z M 88 588 " transform="matrix(1, 0, 0, -1, -75, 621)"/>
<path fill-rule="evenodd" fill="rgb(75%, 75%, 75%)" fill-opacity="1" stroke-width="0.4" stroke-linecap="butt" stroke-linejoin="round" stroke="rgb(0%, 0%, 0%)" stroke-opacity="1" stroke-miterlimit="10" d="M 92 584 L 92 580 L 96 580 L 96 584 Z M 92 584 " transform="matrix(1, 0, 0, -1, -75, 621)"/>
<path fill-rule="evenodd" fill="rgb(75%, 75%, 75%)" fill-opacity="1" stroke-width="0.4" stroke-linecap="butt" stroke-linejoin="round" stroke="rgb(0%, 0%, 0%)" stroke-opacity="1" stroke-miterlimit="10" d="M 96 584 L 96 580 L 100 580 L 100 584 Z M 96 584 " transform="matrix(1, 0, 0, -1, -75, 621)"/>
<path fill-rule="evenodd" fill="rgb(75%, 75%, 75%)" fill-opacity="1" stroke-width="0.4" stroke-linecap="butt" stroke-linejoin="round" stroke="rgb(0%, 0%, 0%)" stroke-opacity="1" stroke-miterlimit="10" d="M 100 584 L 100 580 L 104 580 L 104 584 Z M 100 584 " transform="matrix(1, 0, 0, -1, -75, 621)"/>
<path fill-rule="evenodd" fill="rgb(75%, 75%, 75%)" fill-opacity="1" stroke-width="0.4" stroke-linecap="butt" stroke-linejoin="round" stroke="rgb(0%, 0%, 0%)" stroke-opacity="1" stroke-miterlimit="10" d="M 104 584 L 104 580 L 108 580 L 108 584 Z M 104 584 " transform="matrix(1, 0, 0, -1, -75, 621)"/>
<path fill-rule="evenodd" fill="rgb(75%, 75%, 75%)" fill-opacity="1" stroke-width="0.4" stroke-linecap="butt" stroke-linejoin="round" stroke="rgb(0%, 0%, 0%)" stroke-opacity="1" stroke-miterlimit="10" d="M 108 584 L 108 580 L 112 580 L 112 584 Z M 108 584 " transform="matrix(1, 0, 0, -1, -75, 621)"/>
<path fill-rule="evenodd" fill="rgb(75%, 75%, 75%)" fill-opacity="1" stroke-width="0.4" stroke-linecap="butt" stroke-linejoin="round" stroke="rgb(0%, 0%, 0%)" stroke-opacity="1" stroke-miterlimit="10" d="M 108 588 L 108 584 L 112 584 L 112 588 Z M 108 588 " transform="matrix(1, 0, 0, -1, -75, 621)"/>
<path fill-rule="evenodd" fill="rgb(75%, 75%, 75%)" fill-opacity="1" stroke-width="0.4" stroke-linecap="butt" stroke-linejoin="round" stroke="rgb(0%, 0%, 0%)" stroke-opacity="1" stroke-miterlimit="10" d="M 112 588 L 112 584 L 116 584 L 116 588 Z M 112 588 " transform="matrix(1, 0, 0, -1, -75, 621)"/>
<path fill-rule="evenodd" fill="rgb(75%, 75%, 75%)" fill-opacity="1" stroke-width="0.4" stroke-linecap="butt" stroke-linejoin="round" stroke="rgb(0%, 0%, 0%)" stroke-opacity="1" stroke-miterlimit="10" d="M 112 584 L 112 580 L 116 580 L 116 584 Z M 112 584 " transform="matrix(1, 0, 0, -1, -75, 621)"/>
<path fill-rule="evenodd" fill="rgb(75%, 75%, 75%)" fill-opacity="1" stroke-width="0.4" stroke-linecap="butt" stroke-linejoin="round" stroke="rgb(0%, 0%, 0%)" stroke-opacity="1" stroke-miterlimit="10" d="M 116 588 L 116 584 L 120 584 L 120 588 Z M 116 588 " transform="matrix(1, 0, 0, -1, -75, 621)"/>
<path fill-rule="evenodd" fill="rgb(75%, 75%, 75%)" fill-opacity="1" stroke-width="0.4" stroke-linecap="butt" stroke-linejoin="round" stroke="rgb(0%, 0%, 0%)" stroke-opacity="1" stroke-miterlimit="10" d="M 120 588 L 120 584 L 124 584 L 124 588 Z M 120 588 " transform="matrix(1, 0, 0, -1, -75, 621)"/>
<path fill-rule="evenodd" fill="rgb(75%, 75%, 75%)" fill-opacity="1" stroke-width="0.4" stroke-linecap="butt" stroke-linejoin="round" stroke="rgb(0%, 0%, 0%)" stroke-opacity="1" stroke-miterlimit="10" d="M 120 584 L 120 580 L 124 580 L 124 584 Z M 120 584 " transform="matrix(1, 0, 0, -1, -75, 621)"/>
<path fill-rule="evenodd" fill="rgb(75%, 75%, 75%)" fill-opacity="1" stroke-width="0.4" stroke-linecap="butt" stroke-linejoin="round" stroke="rgb(0%, 0%, 0%)" stroke-opacity="1" stroke-miterlimit="10" d="M 112 592 L 112 588 L 116 588 L 116 592 Z M 112 592 " transform="matrix(1, 0, 0, -1, -75, 621)"/>
<path fill="none" stroke-width="0.5" stroke-linecap="butt" stroke-linejoin="round" stroke="rgb(100%, 0%, 0%)" stroke-opacity="1" stroke-miterlimit="10" d="M 92 620 L 92 608 L 96 608 L 96 604 L 104 604 L 104 600 L 112 600 L 112 596 L 104 596 L 104 592 L 100 592 L 100 596 L 92 596 L 92 600 L 84 600 L 84 608 L 88 608 L 88 612 L 80 612 L 80 600 L 76 600 L 76 592 L 80 592 L 80 596 L 88 596 L 88 584 L 92 584 L 92 592 L 96 592 L 96 588 L 108 588 L 108 592 L 112 592 L 112 584 L 96 584 L 96 580 L 116 580 L 116 584 L 120 584 L 120 580 L 124 580 L 124 588 L 116 588 L 116 604 L 108 604 L 108 608 L 112 608 L 112 616 L 116 616 L 116 620 L 108 620 L 108 612 L 104 612 L 104 608 L 100 608 L 100 612 L 104 612 L 104 620 L 100 620 L 100 616 L 96 616 L 96 620 Z M 92 620 " transform="matrix(1, 0, 0, -1, -75, 621)"/>
<path fill-rule="evenodd" fill="rgb(0%, 0%, 0%)" fill-opacity="1" d="M 6 12 L 8 12 L 8 10 L 6 10 Z M 6.332031 11.667969 L 7.667969 11.667969 L 7.667969 10.332031 L 6.332031 10.332031 Z M 6.332031 11.667969 "/>
<path fill-rule="evenodd" fill="rgb(75%, 75%, 75%)" fill-opacity="1" d="M 10.167969 11.832031 L 11.832031 11.832031 L 11.832031 10.167969 L 10.167969 10.167969 Z M 10.167969 11.832031 "/>
<path fill-rule="evenodd" fill="rgb(0%, 0%, 0%)" fill-opacity="1" d="M 10 12 L 12 12 L 12 10 L 10 10 Z M 10.332031 11.667969 L 11.667969 11.667969 L 11.667969 10.332031 L 10.332031 10.332031 Z M 10.332031 11.667969 "/>
<path fill-rule="evenodd" fill="rgb(0%, 0%, 0%)" fill-opacity="1" d="M 6 16 L 8 16 L 8 14 L 6 14 Z M 6.332031 15.667969 L 7.667969 15.667969 L 7.667969 14.332031 L 6.332031 14.332031 Z M 6.332031 15.667969 "/>
<path fill-rule="evenodd" fill="rgb(0%, 0%, 0%)" fill-opacity="1" d="M 6 20 L 8 20 L 8 18 L 6 18 Z M 6.332031 19.667969 L 7.667969 19.667969 L 7.667969 18.332031 L 6.332031 18.332031 Z M 6.332031 19.667969 "/>
<path fill-rule="evenodd" fill="rgb(0%, 0%, 0%)" fill-opacity="1" d="M 6 24 L 8 24 L 8 22 L 6 22 Z M 6.332031 23.667969 L 7.667969 23.667969 L 7.667969 22.332031 L 6.332031 22.332031 Z M 6.332031 23.667969 "/>
<path fill-rule="evenodd" fill="rgb(75%, 75%, 75%)" fill-opacity="1" d="M 2.167969 23.832031 L 3.832031 23.832031 L 3.832031 22.167969 L 2.167969 22.167969 Z M 2.167969 23.832031 "/>
<path fill-rule="evenodd" fill="rgb(0%, 0%, 0%)" fill-opacity="1" d="M 2 24 L 4 24 L 4 22 L 2 22 Z M 2.332031 23.667969 L 3.667969 23.667969 L 3.667969 22.332031 L 2.332031 22.332031 Z M 2.332031 23.667969 "/>
<path fill-rule="evenodd" fill="rgb(0%, 0%, 0%)" fill-opacity="1" d="M 2 28 L 4 28 L 4 26 L 2 26 Z M 2.332031 27.667969 L 3.667969 27.667969 L 3.667969 26.332031 L 2.332031 26.332031 Z M 2.332031 27.667969 "/>
<path fill-rule="evenodd" fill="rgb(75%, 75%, 75%)" fill-opacity="1" d="M 10.167969 23.832031 L 11.832031 23.832031 L 11.832031 22.167969 L 10.167969 22.167969 Z M 10.167969 23.832031 "/>
<path fill-rule="evenodd" fill="rgb(0%, 0%, 0%)" fill-opacity="1" d="M 10 24 L 12 24 L 12 22 L 10 22 Z M 10.332031 23.667969 L 11.667969 23.667969 L 11.667969 22.332031 L 10.332031 22.332031 Z M 10.332031 23.667969 "/>
<path fill-rule="evenodd" fill="rgb(0%, 0%, 0%)" fill-opacity="1" d="M 14 24 L 16 24 L 16 22 L 14 22 Z M 14.332031 23.667969 L 15.667969 23.667969 L 15.667969 22.332031 L 14.332031 22.332031 Z M 14.332031 23.667969 "/>
<path fill-rule="evenodd" fill="rgb(0%, 0%, 0%)" fill-opacity="1" d="M 14 28 L 16 28 L 16 26 L 14 26 Z M 14.332031 27.667969 L 15.667969 27.667969 L 15.667969 26.332031 L 14.332031 26.332031 Z M 14.332031 27.667969 "/>
<path fill-rule="evenodd" fill="rgb(0%, 0%, 0%)" fill-opacity="1" d="M 14 32 L 16 32 L 16 30 L 14 30 Z M 14.332031 31.667969 L 15.667969 31.667969 L 15.667969 30.332031 L 14.332031 30.332031 Z M 14.332031 31.667969 "/>
<path fill-rule="evenodd" fill="rgb(0%, 0%, 0%)" fill-opacity="1" d="M 14 36 L 16 36 L 16 34 L 14 34 Z M 14.332031 35.667969 L 15.667969 35.667969 L 15.667969 34.332031 L 14.332031 34.332031 Z M 14.332031 35.667969 "/>
<path fill-rule="evenodd" fill="rgb(75%, 75%, 75%)" fill-opacity="1" d="M 18.167969 27.832031 L 19.832031 27.832031 L 19.832031 26.167969 L 18.167969 26.167969 Z M 18.167969 27.832031 "/>
<path fill-rule="evenodd" fill="rgb(0%, 0%, 0%)" fill-opacity="1" d="M 18 28 L 20 28 L 20 26 L 18 26 Z M 18.332031 27.667969 L 19.667969 27.667969 L 19.667969 26.332031 L 18.332031 26.332031 Z M 18.332031 27.667969 "/>
<path fill-rule="evenodd" fill="rgb(0%, 0%, 0%)" fill-opacity="1" d="M 22 28 L 24 28 L 24 26 L 22 26 Z M 22.332031 27.667969 L 23.667969 27.667969 L 23.667969 26.332031 L 22.332031 26.332031 Z M 22.332031 27.667969 "/>
<path fill-rule="evenodd" fill="rgb(0%, 0%, 0%)" fill-opacity="1" d="M 22 32 L 24 32 L 24 30 L 22 30 Z M 22.332031 31.667969 L 23.667969 31.667969 L 23.667969 30.332031 L 22.332031 30.332031 Z M 22.332031 31.667969 "/>
<path fill-rule="evenodd" fill="rgb(75%, 75%, 75%)" fill-opacity="1" d="M 26.167969 31.832031 L 27.832031 31.832031 L 27.832031 30.167969 L 26.167969 30.167969 Z M 26.167969 31.832031 "/>
<path fill-rule="evenodd" fill="rgb(0%, 0%, 0%)" fill-opacity="1" d="M 26 32 L 28 32 L 28 30 L 26 30 Z M 26.332031 31.667969 L 27.667969 31.667969 L 27.667969 30.332031 L 26.332031 30.332031 Z M 26.332031 31.667969 "/>
<path fill-rule="evenodd" fill="rgb(0%, 0%, 0%)" fill-opacity="1" d="M 30 32 L 32 32 L 32 30 L 30 30 Z M 30.332031 31.667969 L 31.667969 31.667969 L 31.667969 30.332031 L 30.332031 30.332031 Z M 30.332031 31.667969 "/>
<path fill-rule="evenodd" fill="rgb(0%, 0%, 0%)" fill-opacity="1" d="M 30 28 L 32 28 L 32 26 L 30 26 Z M 30.332031 27.667969 L 31.667969 27.667969 L 31.667969 26.332031 L 30.332031 26.332031 Z M 30.332031 27.667969 "/>
<path fill-rule="evenodd" fill="rgb(75%, 75%, 75%)" fill-opacity="1" d="M 34.167969 27.832031 L 35.832031 27.832031 L 35.832031 26.167969 L 34.167969 26.167969 Z M 34.167969 27.832031 "/>
<path fill-rule="evenodd" fill="rgb(0%, 0%, 0%)" fill-opacity="1" d="M 34 28 L 36 28 L 36 26 L 34 26 Z M 34.332031 27.667969 L 35.667969 27.667969 L 35.667969 26.332031 L 34.332031 26.332031 Z M 34.332031 27.667969 "/>
<path fill-rule="evenodd" fill="rgb(0%, 0%, 0%)" fill-opacity="1" d="M 38 28 L 40 28 L 40 26 L 38 26 Z M 38.332031 27.667969 L 39.667969 27.667969 L 39.667969 26.332031 L 38.332031 26.332031 Z M 38.332031 27.667969 "/>
<path fill-rule="evenodd" fill="rgb(0%, 0%, 0%)" fill-opacity="1" d="M 38 32 L 40 32 L 40 30 L 38 30 Z M 38.332031 31.667969 L 39.667969 31.667969 L 39.667969 30.332031 L 38.332031 30.332031 Z M 38.332031 31.667969 "/>
<path fill-rule="evenodd" fill="rgb(0%, 0%, 0%)" fill-opacity="1" d="M 38 36 L 40 36 L 40 34 L 38 34 Z M 38.332031 35.667969 L 39.667969 35.667969 L 39.667969 34.332031 L 38.332031 34.332031 Z M 38.332031 35.667969 "/>
<path fill-rule="evenodd" fill="rgb(0%, 0%, 0%)" fill-opacity="1" d="M 38 40 L 40 40 L 40 38 L 38 38 Z M 38.332031 39.667969 L 39.667969 39.667969 L 39.667969 38.332031 L 38.332031 38.332031 Z M 38.332031 39.667969 "/>
<path fill-rule="evenodd" fill="rgb(75%, 75%, 75%)" fill-opacity="1" d="M 34.167969 39.832031 L 35.832031 39.832031 L 35.832031 38.167969 L 34.167969 38.167969 Z M 34.167969 39.832031 "/>
<path fill-rule="evenodd" fill="rgb(0%, 0%, 0%)" fill-opacity="1" d="M 34 40 L 36 40 L 36 38 L 34 38 Z M 34.332031 39.667969 L 35.667969 39.667969 L 35.667969 38.332031 L 34.332031 38.332031 Z M 34.332031 39.667969 "/>
<path fill-rule="evenodd" fill="rgb(0%, 0%, 0%)" fill-opacity="1" d="M 30 40 L 32 40 L 32 38 L 30 38 Z M 30.332031 39.667969 L 31.667969 39.667969 L 31.667969 38.332031 L 30.332031 38.332031 Z M 30.332031 39.667969 "/>
<path fill-rule="evenodd" fill="rgb(75%, 75%, 75%)" fill-opacity="1" d="M 26.167969 39.832031 L 27.832031 39.832031 L 27.832031 38.167969 L 26.167969 38.167969 Z M 26.167969 39.832031 "/>
<path fill-rule="evenodd" fill="rgb(0%, 0%, 0%)" fill-opacity="1" d="M 26 40 L 28 40 L 28 38 L 26 38 Z M 26.332031 39.667969 L 27.667969 39.667969 L 27.667969 38.332031 L 26.332031 38.332031 Z M 26.332031 39.667969 "/>
<path fill-rule="evenodd" fill="rgb(0%, 0%, 0%)" fill-opacity="1" d="M 22 40 L 24 40 L 24 38 L 22 38 Z M 22.332031 39.667969 L 23.667969 39.667969 L 23.667969 38.332031 L 22.332031 38.332031 Z M 22.332031 39.667969 "/>
<path fill-rule="evenodd" fill="rgb(75%, 75%, 75%)" fill-opacity="1" d="M 42.167969 35.832031 L 43.832031 35.832031 L 43.832031 34.167969 L 42.167969 34.167969 Z M 42.167969 35.832031 "/>
<path fill-rule="evenodd" fill="rgb(0%, 0%, 0%)" fill-opacity="1" d="M 42 36 L 44 36 L 44 34 L 42 34 Z M 42.332031 35.667969 L 43.667969 35.667969 L 43.667969 34.332031 L 42.332031 34.332031 Z M 42.332031 35.667969 "/>
<path fill-rule="evenodd" fill="rgb(0%, 0%, 0%)" fill-opacity="1" d="M 46 36 L 48 36 L 48 34 L 46 34 Z M 46.332031 35.667969 L 47.667969 35.667969 L 47.667969 34.332031 L 46.332031 34.332031 Z M 46.332031 35.667969 "/>
<path fill-rule="evenodd" fill="rgb(0%, 0%, 0%)" fill-opacity="1" d="M 46 40 L 48 40 L 48 38 L 46 38 Z M 46.332031 39.667969 L 47.667969 39.667969 L 47.667969 38.332031 L 46.332031 38.332031 Z M 46.332031 39.667969 "/>
<path fill-rule="evenodd" fill="rgb(100%, 0%, 0%)" fill-opacity="1" d="M 38 24 L 40 24 L 40 22 L 38 22 Z M 38.332031 23.667969 L 39.667969 23.667969 L 39.667969 22.332031 L 38.332031 22.332031 Z M 38.332031 23.667969 "/>
<path fill-rule="evenodd" fill="rgb(0%, 0%, 0%)" fill-opacity="1" d="M 38 20 L 40 20 L 40 18 L 38 18 Z M 38.332031 19.667969 L 39.667969 19.667969 L 39.667969 18.332031 L 38.332031 18.332031 Z M 38.332031 19.667969 "/>
<path fill-rule="evenodd" fill="rgb(75%, 75%, 75%)" fill-opacity="1" d="M 34.167969 19.832031 L 35.832031 19.832031 L 35.832031 18.167969 L 34.167969 18.167969 Z M 34.167969 19.832031 "/>
<path fill-rule="evenodd" fill="rgb(0%, 0%, 0%)" fill-opacity="1" d="M 34 20 L 36 20 L 36 18 L 34 18 Z M 34.332031 19.667969 L 35.667969 19.667969 L 35.667969 18.332031 L 34.332031 18.332031 Z M 34.332031 19.667969 "/>
<path fill-rule="evenodd" fill="rgb(0%, 0%, 0%)" fill-opacity="1" d="M 30 20 L 32 20 L 32 18 L 30 18 Z M 30.332031 19.667969 L 31.667969 19.667969 L 31.667969 18.332031 L 30.332031 18.332031 Z M 30.332031 19.667969 "/>
<path fill-rule="evenodd" fill="rgb(0%, 0%, 0%)" fill-opacity="1" d="M 30 16 L 32 16 L 32 14 L 30 14 Z M 30.332031 15.667969 L 31.667969 15.667969 L 31.667969 14.332031 L 30.332031 14.332031 Z M 30.332031 15.667969 "/>
<path fill-rule="evenodd" fill="rgb(75%, 75%, 75%)" fill-opacity="1" d="M 26.167969 15.832031 L 27.832031 15.832031 L 27.832031 14.167969 L 26.167969 14.167969 Z M 26.167969 15.832031 "/>
<path fill-rule="evenodd" fill="rgb(0%, 0%, 0%)" fill-opacity="1" d="M 26 16 L 28 16 L 28 14 L 26 14 Z M 26.332031 15.667969 L 27.667969 15.667969 L 27.667969 14.332031 L 26.332031 14.332031 Z M 26.332031 15.667969 "/>
<path fill-rule="evenodd" fill="rgb(0%, 0%, 0%)" fill-opacity="1" d="M 22 16 L 24 16 L 24 14 L 22 14 Z M 22.332031 15.667969 L 23.667969 15.667969 L 23.667969 14.332031 L 22.332031 14.332031 Z M 22.332031 15.667969 "/>
<path fill-rule="evenodd" fill="rgb(0%, 0%, 0%)" fill-opacity="1" d="M 22 12 L 24 12 L 24 10 L 22 10 Z M 22.332031 11.667969 L 23.667969 11.667969 L 23.667969 10.332031 L 22.332031 10.332031 Z M 22.332031 11.667969 "/>
<path fill-rule="evenodd" fill="rgb(75%, 75%, 75%)" fill-opacity="1" d="M 18.167969 11.832031 L 19.832031 11.832031 L 19.832031 10.167969 L 18.167969 10.167969 Z M 18.167969 11.832031 "/>
<path fill-rule="evenodd" fill="rgb(0%, 0%, 0%)" fill-opacity="1" d="M 18 12 L 20 12 L 20 10 L 18 10 Z M 18.332031 11.667969 L 19.667969 11.667969 L 19.667969 10.332031 L 18.332031 10.332031 Z M 18.332031 11.667969 "/>
<path fill-rule="evenodd" fill="rgb(75%, 75%, 75%)" fill-opacity="1" d="M 18.167969 7.832031 L 19.832031 7.832031 L 19.832031 6.167969 L 18.167969 6.167969 Z M 18.167969 7.832031 "/>
<path fill-rule="evenodd" fill="rgb(0%, 0%, 0%)" fill-opacity="1" d="M 18 8 L 20 8 L 20 6 L 18 6 Z M 18.332031 7.667969 L 19.667969 7.667969 L 19.667969 6.332031 L 18.332031 6.332031 Z M 18.332031 7.667969 "/>
<path fill-rule="evenodd" fill="rgb(0%, 0%, 0%)" fill-opacity="1" d="M 22 8 L 24 8 L 24 6 L 22 6 Z M 22.332031 7.667969 L 23.667969 7.667969 L 23.667969 6.332031 L 22.332031 6.332031 Z M 22.332031 7.667969 "/>
<path fill-rule="evenodd" fill="rgb(75%, 75%, 75%)" fill-opacity="1" d="M 26.167969 7.832031 L 27.832031 7.832031 L 27.832031 6.167969 L 26.167969 6.167969 Z M 26.167969 7.832031 "/>
<path fill-rule="evenodd" fill="rgb(0%, 0%, 0%)" fill-opacity="1" d="M 26 8 L 28 8 L 28 6 L 26 6 Z M 26.332031 7.667969 L 27.667969 7.667969 L 27.667969 6.332031 L 26.332031 6.332031 Z M 26.332031 7.667969 "/>
<path fill-rule="evenodd" fill="rgb(0%, 0%, 0%)" fill-opacity="1" d="M 26 4 L 28 4 L 28 2 L 26 2 Z M 26.332031 3.667969 L 27.667969 3.667969 L 27.667969 2.332031 L 26.332031 2.332031 Z M 26.332031 3.667969 "/>
<path fill-rule="evenodd" fill="rgb(0%, 0%, 0%)" fill-opacity="1" d="M 18 4 L 20 4 L 20 2 L 18 2 Z M 18.332031 3.667969 L 19.667969 3.667969 L 19.667969 2.332031 L 18.332031 2.332031 Z M 18.332031 3.667969 "/>
<path fill-rule="evenodd" fill="rgb(0%, 0%, 0%)" fill-opacity="1" d="M 38 4 L 40 4 L 40 2 L 38 2 Z M 38.332031 3.667969 L 39.667969 3.667969 L 39.667969 2.332031 L 38.332031 2.332031 Z M 38.332031 3.667969 "/>
<path fill-rule="evenodd" fill="rgb(75%, 75%, 75%)" fill-opacity="1" d="M 34.167969 3.832031 L 35.832031 3.832031 L 35.832031 2.167969 L 34.167969 2.167969 Z M 34.167969 3.832031 "/>
<path fill-rule="evenodd" fill="rgb(0%, 0%, 0%)" fill-opacity="1" d="M 34 4 L 36 4 L 36 2 L 34 2 Z M 34.332031 3.667969 L 35.667969 3.667969 L 35.667969 2.332031 L 34.332031 2.332031 Z M 34.332031 3.667969 "/>
<path fill-rule="evenodd" fill="rgb(0%, 0%, 0%)" fill-opacity="1" d="M 34 8 L 36 8 L 36 6 L 34 6 Z M 34.332031 7.667969 L 35.667969 7.667969 L 35.667969 6.332031 L 34.332031 6.332031 Z M 34.332031 7.667969 "/>
<path fill-rule="evenodd" fill="rgb(75%, 75%, 75%)" fill-opacity="1" d="M 34.167969 11.832031 L 35.832031 11.832031 L 35.832031 10.167969 L 34.167969 10.167969 Z M 34.167969 11.832031 "/>
<path fill-rule="evenodd" fill="rgb(0%, 0%, 0%)" fill-opacity="1" d="M 34 12 L 36 12 L 36 10 L 34 10 Z M 34.332031 11.667969 L 35.667969 11.667969 L 35.667969 10.332031 L 34.332031 10.332031 Z M 34.332031 11.667969 "/>
<path fill-rule="evenodd" fill="rgb(0%, 0%, 0%)" fill-opacity="1" d="M 30 12 L 32 12 L 32 10 L 30 10 Z M 30.332031 11.667969 L 31.667969 11.667969 L 31.667969 10.332031 L 30.332031 10.332031 Z M 30.332031 11.667969 "/>
</svg>
