<?xml version="1.0" encoding="UTF-8"?>
<svg xmlns="http://www.w3.org/2000/svg" xmlns:xlink="http://www.w3.org/1999/xlink" width="66" height="50" viewBox="0 0 66 50">
<path fill-rule="evenodd" fill="rgb(0%, 0%, 0%)" fill-opacity="0.33" d="M 21 5 L 21 17 L 22 18 L 25 18 L 25 21 L 26 22 L 33 22 L 33 25 L 34 26 L 37 26 L 37 29 L 38 30 L 41 30 L 41 33 L 37 33 L 37 37 L 38 38 L 50 38 L 50 34 L 53 34 L 53 49 L 54 50 L 66 50 L 66 2 L 65 1 L 53 1 L 53 21 L 42 21 L 42 10 L 46 10 L 46 6 L 45 5 L 37 5 L 37 13 L 34 13 L 34 6 L 33 5 L 29 5 L 29 9 L 26 9 L 26 6 L 25 5 Z M 30 14 L 30 17 L 33 17 L 33 14 Z M 46 26 L 46 29 L 49 29 L 49 26 Z M 58 26 L 58 29 L 61 29 L 61 26 Z M 58 10 L 58 13 L 61 13 L 61 10 Z M 58 42 L 58 45 L 61 45 L 61 42 Z M 58 42 "/>
<path fill-rule="evenodd" fill="rgb(75%, 75%, 75%)" fill-opacity="1" stroke-width="0.4" stroke-linecap="butt" stroke-linejoin="round" stroke="rgb(0%, 0%, 0%)" stroke-opacity="1" stroke-miterlimit="10" d="M 92 612 L 92 608 L 96 608 L 96 612 Z M 92 612 " transform="matrix(1, 0, 0, -1, -71, 625)"/>
<path fill-rule="evenodd" fill="rgb(75%, 75%, 75%)" fill-opacity="1" stroke-width="0.4" stroke-linecap="butt" stroke-linejoin="round" stroke="rgb(0%, 0%, 0%)" stroke-opacity="1" stroke-miterlimit="10" d="M 92 616 L 92 612 L 96 612 L 96 616 Z M 92 616 " transform="matrix(1, 0, 0, -1, -71, 625)"/>
<path fill-rule="evenodd" fill="rgb(75%, 75%, 75%)" fill-opacity="1" stroke-width="0.4" stroke-linecap="butt" stroke-linejoin="round" stroke="rgb(0%, 0%, 0%)" stroke-opacity="1" stroke-miterlimit="10" d="M 92 620 L 92 616 L 96 616 L 96 620 Z M 92 620 " transform="matrix(1, 0, 0, -1, -71, 625)"/>
<path fill-rule="evenodd" fill="rgb(75%, 75%, 75%)" fill-opacity="1" stroke-width="0.4" stroke-linecap="butt" stroke-linejoin="round" stroke="rgb(0%, 0%, 0%)" stroke-opacity="1" stroke-miterlimit="10" d="M 96 616 L 96 612 L 100 612 L 100 616 Z M 96 616 " transform="matrix(1, 0, 0, -1, -71, 625)"/>
<path fill-rule="evenodd" fill="rgb(75%, 75%, 75%)" fill-opacity="1" stroke-width="0.4" stroke-linecap="butt" stroke-linejoin="round" stroke="rgb(0%, 0%, 0%)" stroke-opacity="1" stroke-miterlimit="10" d="M 96 612 L 96 608 L 100 608 L 100 612 Z M 96 612 " transform="matrix(1, 0, 0, -1, -71, 625)"/>
<path fill-rule="evenodd" fill="rgb(75%, 75%, 75%)" fill-opacity="1" stroke-width="0.4" stroke-linecap="butt" stroke-linejoin="round" stroke="rgb(0%, 0%, 0%)" stroke-opacity="1" stroke-miterlimit="10" d="M 96 608 L 96 604 L 100 604 L 100 608 Z M 96 608 " transform="matrix(1, 0, 0, -1, -71, 625)"/>
<path fill-rule="evenodd" fill="rgb(75%, 75%, 75%)" fill-opacity="1" stroke-width="0.4" stroke-linecap="butt" stroke-linejoin="round" stroke="rgb(0%, 0%, 0%)" stroke-opacity="1" stroke-miterlimit="10" d="M 100 616 L 100 612 L 104 612 L 104 616 Z M 100 616 " transform="matrix(1, 0, 0, -1, -71, 625)"/>
<path fill-rule="evenodd" fill="rgb(75%, 75%, 75%)" fill-opacity="1" stroke-width="0.4" stroke-linecap="butt" stroke-linejoin="round" stroke="rgb(0%, 0%, 0%)" stroke-opacity="1" stroke-miterlimit="10" d="M 100 620 L 100 616 L 104 616 L 104 620 Z M 100 620 " transform="matrix(1, 0, 0, -1, -71, 625)"/>
<path fill-rule="evenodd" fill="rgb(75%, 75%, 75%)" fill-opacity="1" stroke-width="0.4" stroke-linecap="butt" stroke-linejoin="round" stroke="rgb(0%, 0%, 0%)" stroke-opacity="1" stroke-miterlimit="10" d="M 100 608 L 100 604 L 104 604 L 104 608 Z M 100 608 " transform="matrix(1, 0, 0, -1, -71, 625)"/>
<path fill-rule="evenodd" fill="rgb(75%, 75%, 75%)" fill-opacity="1" stroke-width="0.4" stroke-linecap="butt" stroke-linejoin="round" stroke="rgb(0%, 0%, 0%)" stroke-opacity="1" stroke-miterlimit="10" d="M 104 608 L 104 604 L 108 604 L 108 608 Z M 104 608 " transform="matrix(1, 0, 0, -1, -71, 625)"/>
<path fill-rule="evenodd" fill="rgb(75%, 75%, 75%)" fill-opacity="1" stroke-width="0.4" stroke-linecap="butt" stroke-linejoin="round" stroke="rgb(0%, 0%, 0%)" stroke-opacity="1" stroke-miterlimit="10" d="M 104 612 L 104 608 L 108 608 L 108 612 Z M 104 612 " transform="matrix(1, 0, 0, -1, -71, 625)"/>
<path fill-rule="evenodd" fill="rgb(75%, 75%, 75%)" fill-opacity="1" stroke-width="0.4" stroke-linecap="butt" stroke-linejoin="round" stroke="rgb(0%, 0%, 0%)" stroke-opacity="1" stroke-miterlimit="10" d="M 104 604 L 104 600 L 108 600 L 108 604 Z M 104 604 " transform="matrix(1, 0, 0, -1, -71, 625)"/>
<path fill-rule="evenodd" fill="rgb(75%, 75%, 75%)" fill-opacity="1" stroke-width="0.4" stroke-linecap="butt" stroke-linejoin="round" stroke="rgb(0%, 0%, 0%)" stroke-opacity="1" stroke-miterlimit="10" d="M 108 612 L 108 608 L 112 608 L 112 612 Z M 108 612 " transform="matrix(1, 0, 0, -1, -71, 625)"/>
<path fill-rule="evenodd" fill="rgb(75%, 75%, 75%)" fill-opacity="1" stroke-width="0.4" stroke-linecap="butt" stroke-linejoin="round" stroke="rgb(0%, 0%, 0%)" stroke-opacity="1" stroke-miterlimit="10" d="M 108 616 L 108 612 L 112 612 L 112 616 Z M 108 616 " transform="matrix(1, 0, 0, -1, -71, 625)"/>
<path fill-rule="evenodd" fill="rgb(75%, 75%, 75%)" fill-opacity="1" stroke-width="0.4" stroke-linecap="butt" stroke-linejoin="round" stroke="rgb(0%, 0%, 0%)" stroke-opacity="1" stroke-miterlimit="10" d="M 108 620 L 108 616 L 112 616 L 112 620 Z M 108 620 " transform="matrix(1, 0, 0, -1, -71, 625)"/>
<path fill-rule="evenodd" fill="rgb(75%, 75%, 75%)" fill-opacity="1" stroke-width="0.4" stroke-linecap="butt" stroke-linejoin="round" stroke="rgb(0%, 0%, 0%)" stroke-opacity="1" stroke-miterlimit="10" d="M 112 620 L 112 616 L 116 616 L 116 620 Z M 112 620 " transform="matrix(1, 0, 0, -1, -71, 625)"/>
<path fill-rule="evenodd" fill="rgb(75%, 75%, 75%)" fill-opacity="1" stroke-width="0.4" stroke-linecap="butt" stroke-linejoin="round" stroke="rgb(0%, 0%, 0%)" stroke-opacity="1" stroke-miterlimit="10" d="M 108 608 L 108 604 L 112 604 L 112 608 Z M 108 608 " transform="matrix(1, 0, 0, -1, -71, 625)"/>
<path fill-rule="evenodd" fill="rgb(52.6%, 9.5%, 96.2%)" fill-opacity="1" stroke-width="0.4" stroke-linecap="butt" stroke-linejoin="round" stroke="rgb(0%, 0%, 0%)" stroke-opacity="1" stroke-miterlimit="10" d="M 108 604 L 108 600 L 112 600 L 112 604 Z M 108 604 " transform="matrix(1, 0, 0, -1, -71, 625)"/>
<path fill-rule="evenodd" fill="rgb(52.6%, 9.5%, 96.2%)" fill-opacity="1" stroke-width="0.4" stroke-linecap="butt" stroke-linejoin="round" stroke="rgb(0%, 0%, 0%)" stroke-opacity="1" stroke-miterlimit="10" d="M 112 604 L 112 600 L 116 600 L 116 604 Z M 112 604 " transform="matrix(1, 0, 0, -1, -71, 625)"/>
<path fill-rule="evenodd" fill="rgb(52.6%, 9.5%, 96.2%)" fill-opacity="1" stroke-width="0.4" stroke-linecap="butt" stroke-linejoin="round" stroke="rgb(0%, 0%, 0%)" stroke-opacity="1" stroke-miterlimit="10" d="M 116 604 L 116 600 L 120 600 L 120 604 Z M 116 604 " transform="matrix(1, 0, 0, -1, -71, 625)"/>
<path fill-rule="evenodd" fill="rgb(0%, 0%, 0%)" fill-opacity="1" d="M 42 24 L 44 24 L 44 22 L 42 22 Z M 42.332031 23.667969 L 43.667969 23.667969 L 43.667969 22.332031 L 42.332031 22.332031 Z M 42.332031 23.667969 "/>
<path fill-rule="evenodd" fill="rgb(0%, 0%, 0%)" fill-opacity="1" d="M 38 24 L 40 24 L 40 22 L 38 22 Z M 38.332031 23.667969 L 39.667969 23.667969 L 39.667969 22.332031 L 38.332031 22.332031 Z M 38.332031 23.667969 "/>
<path fill-rule="evenodd" fill="rgb(0%, 0%, 0%)" fill-opacity="1" d="M 34 24 L 36 24 L 36 22 L 34 22 Z M 34.332031 23.667969 L 35.667969 23.667969 L 35.667969 22.332031 L 34.332031 22.332031 Z M 34.332031 23.667969 "/>
<path fill-rule="evenodd" fill="rgb(0%, 0%, 0%)" fill-opacity="1" d="M 34 20 L 36 20 L 36 18 L 34 18 Z M 34.332031 19.667969 L 35.667969 19.667969 L 35.667969 18.332031 L 34.332031 18.332031 Z M 34.332031 19.667969 "/>
<path fill-rule="evenodd" fill="rgb(0%, 0%, 0%)" fill-opacity="1" d="M 30 20 L 32 20 L 32 18 L 30 18 Z M 30.332031 19.667969 L 31.667969 19.667969 L 31.667969 18.332031 L 30.332031 18.332031 Z M 30.332031 19.667969 "/>
<path fill-rule="evenodd" fill="rgb(0%, 0%, 0%)" fill-opacity="1" d="M 26 20 L 28 20 L 28 18 L 26 18 Z M 26.332031 19.667969 L 27.667969 19.667969 L 27.667969 18.332031 L 26.332031 18.332031 Z M 26.332031 19.667969 "/>
<path fill-rule="evenodd" fill="rgb(0%, 0%, 0%)" fill-opacity="1" d="M 26 16 L 28 16 L 28 14 L 26 14 Z M 26.332031 15.667969 L 27.667969 15.667969 L 27.667969 14.332031 L 26.332031 14.332031 Z M 26.332031 15.667969 "/>
<path fill-rule="evenodd" fill="rgb(0%, 0%, 0%)" fill-opacity="1" d="M 22 16 L 24 16 L 24 14 L 22 14 Z M 22.332031 15.667969 L 23.667969 15.667969 L 23.667969 14.332031 L 22.332031 14.332031 Z M 22.332031 15.667969 "/>
<path fill-rule="evenodd" fill="rgb(0%, 0%, 0%)" fill-opacity="1" d="M 22 12 L 24 12 L 24 10 L 22 10 Z M 22.332031 11.667969 L 23.667969 11.667969 L 23.667969 10.332031 L 22.332031 10.332031 Z M 22.332031 11.667969 "/>
<path fill-rule="evenodd" fill="rgb(0%, 0%, 0%)" fill-opacity="1" d="M 26 12 L 28 12 L 28 10 L 26 10 Z M 26.332031 11.667969 L 27.667969 11.667969 L 27.667969 10.332031 L 26.332031 10.332031 Z M 26.332031 11.667969 "/>
<path fill-rule="evenodd" fill="rgb(0%, 0%, 0%)" fill-opacity="1" d="M 30 12 L 32 12 L 32 10 L 30 10 Z M 30.332031 11.667969 L 31.667969 11.667969 L 31.667969 10.332031 L 30.332031 10.332031 Z M 30.332031 11.667969 "/>
<path fill-rule="evenodd" fill="rgb(0%, 0%, 0%)" fill-opacity="1" d="M 30 8 L 32 8 L 32 6 L 30 6 Z M 30.332031 7.667969 L 31.667969 7.667969 L 31.667969 6.332031 L 30.332031 6.332031 Z M 30.332031 7.667969 "/>
<path fill-rule="evenodd" fill="rgb(0%, 0%, 0%)" fill-opacity="1" d="M 22 8 L 24 8 L 24 6 L 22 6 Z M 22.332031 7.667969 L 23.667969 7.667969 L 23.667969 6.332031 L 22.332031 6.332031 Z M 22.332031 7.667969 "/>
<path fill-rule="evenodd" fill="rgb(0%, 0%, 0%)" fill-opacity="1" d="M 42 8 L 44 8 L 44 6 L 42 6 Z M 42.332031 7.667969 L 43.667969 7.667969 L 43.667969 6.332031 L 42.332031 6.332031 Z M 42.332031 7.667969 "/>
<path fill-rule="evenodd" fill="rgb(0%, 0%, 0%)" fill-opacity="1" d="M 38 8 L 40 8 L 40 6 L 38 6 Z M 38.332031 7.667969 L 39.667969 7.667969 L 39.667969 6.332031 L 38.332031 6.332031 Z M 38.332031 7.667969 "/>
<path fill-rule="evenodd" fill="rgb(0%, 0%, 0%)" fill-opacity="1" d="M 38 12 L 40 12 L 40 10 L 38 10 Z M 38.332031 11.667969 L 39.667969 11.667969 L 39.667969 10.332031 L 38.332031 10.332031 Z M 38.332031 11.667969 "/>
<path fill-rule="evenodd" fill="rgb(0%, 0%, 0%)" fill-opacity="1" d="M 38 16 L 40 16 L 40 14 L 38 14 Z M 38.332031 15.667969 L 39.667969 15.667969 L 39.667969 14.332031 L 38.332031 14.332031 Z M 38.332031 15.667969 "/>
<path fill-rule="evenodd" fill="rgb(0%, 0%, 0%)" fill-opacity="1" d="M 34 16 L 36 16 L 36 14 L 34 14 Z M 34.332031 15.667969 L 35.667969 15.667969 L 35.667969 14.332031 L 34.332031 14.332031 Z M 34.332031 15.667969 "/>
<path fill-rule="evenodd" fill="rgb(52.6%, 9.5%, 96.2%)" fill-opacity="1" stroke-width="0.4" stroke-linecap="butt" stroke-linejoin="round" stroke="rgb(0%, 0%, 0%)" stroke-opacity="1" stroke-miterlimit="10" d="M 116 596 L 116 592 L 120 592 L 120 596 Z M 116 596 " transform="matrix(1, 0, 0, -1, -71, 625)"/>
<path fill-rule="evenodd" fill="rgb(52.6%, 9.5%, 96.2%)" fill-opacity="1" stroke-width="0.4" stroke-linecap="butt" stroke-linejoin="round" stroke="rgb(0%, 0%, 0%)" stroke-opacity="1" stroke-miterlimit="10" d="M 116 592 L 116 588 L 120 588 L 120 592 Z M 116 592 " transform="matrix(1, 0, 0, -1, -71, 625)"/>
<path fill-rule="evenodd" fill="rgb(52.6%, 9.5%, 96.2%)" fill-opacity="1" stroke-width="0.4" stroke-linecap="butt" stroke-linejoin="round" stroke="rgb(0%, 0%, 0%)" stroke-opacity="1" stroke-miterlimit="10" d="M 108 600 L 108 596 L 112 596 L 112 600 Z M 108 600 " transform="matrix(1, 0, 0, -1, -71, 625)"/>
<path fill-rule="evenodd" fill="rgb(47.1%, 47.1%, 47.1%)" fill-opacity="1" stroke-width="0.4" stroke-linecap="butt" stroke-linejoin="round" stroke="rgb(0%, 0%, 0%)" stroke-opacity="1" stroke-miterlimit="10" d="M 112 600 L 112 596 L 116 596 L 116 600 Z M 112 600 " transform="matrix(1, 0, 0, -1, -71, 625)"/>
<path fill-rule="evenodd" fill="rgb(0%, 0%, 0%)" fill-opacity="1" d="M 44 27 C 44 25.667969 42 25.667969 42 27 C 42 28.332031 44 28.332031 44 27 Z M 43.667969 27 C 43.667969 26.109375 42.332031 26.109375 42.332031 27 C 42.332031 27.890625 43.667969 27.890625 43.667969 27 Z M 43.667969 27 "/>
<path fill-rule="evenodd" fill="rgb(47.1%, 47.1%, 47.1%)" fill-opacity="1" stroke-width="0.4" stroke-linecap="butt" stroke-linejoin="round" stroke="rgb(0%, 0%, 0%)" stroke-opacity="1" stroke-miterlimit="10" d="M 112 596 L 112 592 L 116 592 L 116 596 Z M 112 596 " transform="matrix(1, 0, 0, -1, -71, 625)"/>
<path fill-rule="evenodd" fill="rgb(0%, 0%, 0%)" fill-opacity="1" d="M 44 31 C 44 29.667969 42 29.667969 42 31 C 42 32.332031 44 32.332031 44 31 Z M 43.667969 31 C 43.667969 30.109375 42.332031 30.109375 42.332031 31 C 42.332031 31.890625 43.667969 31.890625 43.667969 31 Z M 43.667969 31 "/>
<path fill-rule="evenodd" fill="rgb(52.6%, 9.5%, 96.2%)" fill-opacity="1" stroke-width="0.4" stroke-linecap="butt" stroke-linejoin="round" stroke="rgb(0%, 0%, 0%)" stroke-opacity="1" stroke-miterlimit="10" d="M 120 604 L 120 600 L 124 600 L 124 604 Z M 120 604 " transform="matrix(1, 0, 0, -1, -71, 625)"/>
<path fill-rule="evenodd" fill="rgb(52.6%, 9.5%, 96.2%)" fill-opacity="1" stroke-width="0.4" stroke-linecap="butt" stroke-linejoin="round" stroke="rgb(0%, 0%, 0%)" stroke-opacity="1" stroke-miterlimit="10" d="M 124 608 L 124 604 L 128 604 L 128 608 Z M 124 608 " transform="matrix(1, 0, 0, -1, -71, 625)"/>
<path fill-rule="evenodd" fill="rgb(52.6%, 9.5%, 96.2%)" fill-opacity="1" stroke-width="0.4" stroke-linecap="butt" stroke-linejoin="round" stroke="rgb(0%, 0%, 0%)" stroke-opacity="1" stroke-miterlimit="10" d="M 124 612 L 124 608 L 128 608 L 128 612 Z M 124 612 " transform="matrix(1, 0, 0, -1, -71, 625)"/>
<path fill-rule="evenodd" fill="rgb(52.6%, 9.5%, 96.2%)" fill-opacity="1" stroke-width="0.4" stroke-linecap="butt" stroke-linejoin="round" stroke="rgb(0%, 0%, 0%)" stroke-opacity="1" stroke-miterlimit="10" d="M 124 616 L 124 612 L 128 612 L 128 616 Z M 124 616 " transform="matrix(1, 0, 0, -1, -71, 625)"/>
<path fill-rule="evenodd" fill="rgb(52.6%, 9.5%, 96.2%)" fill-opacity="1" stroke-width="0.4" stroke-linecap="butt" stroke-linejoin="round" stroke="rgb(0%, 0%, 0%)" stroke-opacity="1" stroke-miterlimit="10" d="M 124 620 L 124 616 L 128 616 L 128 620 Z M 124 620 " transform="matrix(1, 0, 0, -1, -71, 625)"/>
<path fill-rule="evenodd" fill="rgb(52.6%, 9.5%, 96.2%)" fill-opacity="1" stroke-width="0.4" stroke-linecap="butt" stroke-linejoin="round" stroke="rgb(0%, 0%, 0%)" stroke-opacity="1" stroke-miterlimit="10" d="M 124 624 L 124 620 L 128 620 L 128 624 Z M 124 624 " transform="matrix(1, 0, 0, -1, -71, 625)"/>
<path fill-rule="evenodd" fill="rgb(52.6%, 9.5%, 96.2%)" fill-opacity="1" stroke-width="0.4" stroke-linecap="butt" stroke-linejoin="round" stroke="rgb(0%, 0%, 0%)" stroke-opacity="1" stroke-miterlimit="10" d="M 132 624 L 132 620 L 136 620 L 136 624 Z M 132 624 " transform="matrix(1, 0, 0, -1, -71, 625)"/>
<path fill-rule="evenodd" fill="rgb(52.6%, 9.5%, 96.2%)" fill-opacity="1" stroke-width="0.4" stroke-linecap="butt" stroke-linejoin="round" stroke="rgb(0%, 0%, 0%)" stroke-opacity="1" stroke-miterlimit="10" d="M 128 624 L 128 620 L 132 620 L 132 624 Z M 128 624 " transform="matrix(1, 0, 0, -1, -71, 625)"/>
<path fill-rule="evenodd" fill="rgb(52.6%, 9.5%, 96.2%)" fill-opacity="1" stroke-width="0.4" stroke-linecap="butt" stroke-linejoin="round" stroke="rgb(0%, 0%, 0%)" stroke-opacity="1" stroke-miterlimit="10" d="M 132 620 L 132 616 L 136 616 L 136 620 Z M 132 620 " transform="matrix(1, 0, 0, -1, -71, 625)"/>
<path fill-rule="evenodd" fill="rgb(52.6%, 9.5%, 96.2%)" fill-opacity="1" stroke-width="0.4" stroke-linecap="butt" stroke-linejoin="round" stroke="rgb(0%, 0%, 0%)" stroke-opacity="1" stroke-miterlimit="10" d="M 132 616 L 132 612 L 136 612 L 136 616 Z M 132 616 " transform="matrix(1, 0, 0, -1, -71, 625)"/>
<path fill-rule="evenodd" fill="rgb(52.6%, 9.5%, 96.2%)" fill-opacity="1" stroke-width="0.4" stroke-linecap="butt" stroke-linejoin="round" stroke="rgb(0%, 0%, 0%)" stroke-opacity="1" stroke-miterlimit="10" d="M 132 612 L 132 608 L 136 608 L 136 612 Z M 132 612 " transform="matrix(1, 0, 0, -1, -71, 625)"/>
<path fill-rule="evenodd" fill="rgb(52.6%, 9.5%, 96.2%)" fill-opacity="1" stroke-width="0.4" stroke-linecap="butt" stroke-linejoin="round" stroke="rgb(0%, 0%, 0%)" stroke-opacity="1" stroke-miterlimit="10" d="M 132 608 L 132 604 L 136 604 L 136 608 Z M 132 608 " transform="matrix(1, 0, 0, -1, -71, 625)"/>
<path fill-rule="evenodd" fill="rgb(52.6%, 9.5%, 96.2%)" fill-opacity="1" stroke-width="0.4" stroke-linecap="butt" stroke-linejoin="round" stroke="rgb(0%, 0%, 0%)" stroke-opacity="1" stroke-miterlimit="10" d="M 132 604 L 132 600 L 136 600 L 136 604 Z M 132 604 " transform="matrix(1, 0, 0, -1, -71, 625)"/>
<path fill-rule="evenodd" fill="rgb(52.6%, 9.5%, 96.2%)" fill-opacity="1" stroke-width="0.4" stroke-linecap="butt" stroke-linejoin="round" stroke="rgb(0%, 0%, 0%)" stroke-opacity="1" stroke-miterlimit="10" d="M 132 600 L 132 596 L 136 596 L 136 600 Z M 132 600 " transform="matrix(1, 0, 0, -1, -71, 625)"/>
<path fill-rule="evenodd" fill="rgb(52.6%, 9.5%, 96.2%)" fill-opacity="1" stroke-width="0.4" stroke-linecap="butt" stroke-linejoin="round" stroke="rgb(0%, 0%, 0%)" stroke-opacity="1" stroke-miterlimit="10" d="M 132 596 L 132 592 L 136 592 L 136 596 Z M 132 596 " transform="matrix(1, 0, 0, -1, -71, 625)"/>
<path fill-rule="evenodd" fill="rgb(52.6%, 9.5%, 96.2%)" fill-opacity="1" stroke-width="0.4" stroke-linecap="butt" stroke-linejoin="round" stroke="rgb(0%, 0%, 0%)" stroke-opacity="1" stroke-miterlimit="10" d="M 132 592 L 132 588 L 136 588 L 136 592 Z M 132 592 " transform="matrix(1, 0, 0, -1, -71, 625)"/>
<path fill-rule="evenodd" fill="rgb(52.6%, 9.5%, 96.2%)" fill-opacity="1" stroke-width="0.4" stroke-linecap="butt" stroke-linejoin="round" stroke="rgb(0%, 0%, 0%)" stroke-opacity="1" stroke-miterlimit="10" d="M 132 588 L 132 584 L 136 584 L 136 588 Z M 132 588 " transform="matrix(1, 0, 0, -1, -71, 625)"/>
<path fill-rule="evenodd" fill="rgb(52.6%, 9.5%, 96.2%)" fill-opacity="1" stroke-width="0.4" stroke-linecap="butt" stroke-linejoin="round" stroke="rgb(0%, 0%, 0%)" stroke-opacity="1" stroke-miterlimit="10" d="M 132 584 L 132 580 L 136 580 L 136 584 Z M 132 584 " transform="matrix(1, 0, 0, -1, -71, 625)"/>
<path fill-rule="evenodd" fill="rgb(52.6%, 9.5%, 96.2%)" fill-opacity="1" stroke-width="0.4" stroke-linecap="butt" stroke-linejoin="round" stroke="rgb(0%, 0%, 0%)" stroke-opacity="1" stroke-miterlimit="10" d="M 132 580 L 132 576 L 136 576 L 136 580 Z M 132 580 " transform="matrix(1, 0, 0, -1, -71, 625)"/>
<path fill-rule="evenodd" fill="rgb(52.6%, 9.5%, 96.2%)" fill-opacity="1" stroke-width="0.4" stroke-linecap="butt" stroke-linejoin="round" stroke="rgb(0%, 0%, 0%)" stroke-opacity="1" stroke-miterlimit="10" d="M 128 580 L 128 576 L 132 576 L 132 580 Z M 128 580 " transform="matrix(1, 0, 0, -1, -71, 625)"/>
<path fill-rule="evenodd" fill="rgb(52.6%, 9.5%, 96.2%)" fill-opacity="1" stroke-width="0.4" stroke-linecap="butt" stroke-linejoin="round" stroke="rgb(0%, 0%, 0%)" stroke-opacity="1" stroke-miterlimit="10" d="M 124 580 L 124 576 L 128 576 L 128 580 Z M 124 580 " transform="matrix(1, 0, 0, -1, -71, 625)"/>
<path fill-rule="evenodd" fill="rgb(52.6%, 9.5%, 96.2%)" fill-opacity="1" stroke-width="0.4" stroke-linecap="butt" stroke-linejoin="round" stroke="rgb(0%, 0%, 0%)" stroke-opacity="1" stroke-miterlimit="10" d="M 124 584 L 124 580 L 128 580 L 128 584 Z M 124 584 " transform="matrix(1, 0, 0, -1, -71, 625)"/>
<path fill-rule="evenodd" fill="rgb(52.6%, 9.5%, 96.2%)" fill-opacity="1" stroke-width="0.4" stroke-linecap="butt" stroke-linejoin="round" stroke="rgb(0%, 0%, 0%)" stroke-opacity="1" stroke-miterlimit="10" d="M 124 588 L 124 584 L 128 584 L 128 588 Z M 124 588 " transform="matrix(1, 0, 0, -1, -71, 625)"/>
<path fill-rule="evenodd" fill="rgb(52.6%, 9.5%, 96.2%)" fill-opacity="1" stroke-width="0.4" stroke-linecap="butt" stroke-linejoin="round" stroke="rgb(0%, 0%, 0%)" stroke-opacity="1" stroke-miterlimit="10" d="M 124 592 L 124 588 L 128 588 L 128 592 Z M 124 592 " transform="matrix(1, 0, 0, -1, -71, 625)"/>
<path fill-rule="evenodd" fill="rgb(52.6%, 9.5%, 96.2%)" fill-opacity="1" stroke-width="0.4" stroke-linecap="butt" stroke-linejoin="round" stroke="rgb(0%, 0%, 0%)" stroke-opacity="1" stroke-miterlimit="10" d="M 124 596 L 124 592 L 128 592 L 128 596 Z M 124 596 " transform="matrix(1, 0, 0, -1, -71, 625)"/>
<path fill-rule="evenodd" fill="rgb(47.1%, 47.1%, 47.1%)" fill-opacity="1" stroke-width="0.4" stroke-linecap="butt" stroke-linejoin="round" stroke="rgb(0%, 0%, 0%)" stroke-opacity="1" stroke-miterlimit="10" d="M 124 600 L 124 596 L 128 596 L 128 600 Z M 124 600 " transform="matrix(1, 0, 0, -1, -71, 625)"/>
<path fill-rule="evenodd" fill="rgb(52.6%, 9.5%, 96.2%)" fill-opacity="1" stroke-width="0.4" stroke-linecap="butt" stroke-linejoin="round" stroke="rgb(0%, 0%, 0%)" stroke-opacity="1" stroke-miterlimit="10" d="M 120 596 L 120 592 L 124 592 L 124 596 Z M 120 596 " transform="matrix(1, 0, 0, -1, -71, 625)"/>
<path fill-rule="evenodd" fill="rgb(47.1%, 47.1%, 47.1%)" fill-opacity="1" stroke-width="0.4" stroke-linecap="butt" stroke-linejoin="round" stroke="rgb(0%, 0%, 0%)" stroke-opacity="1" stroke-miterlimit="10" d="M 128 588 L 128 584 L 132 584 L 132 588 Z M 128 588 " transform="matrix(1, 0, 0, -1, -71, 625)"/>
<path fill-rule="evenodd" fill="rgb(0%, 0%, 0%)" fill-opacity="1" d="M 60 39 C 60 37.667969 58 37.667969 58 39 C 58 40.332031 60 40.332031 60 39 Z M 59.667969 39 C 59.667969 38.109375 58.332031 38.109375 58.332031 39 C 58.332031 39.890625 59.667969 39.890625 59.667969 39 Z M 59.667969 39 "/>
<path fill-rule="evenodd" fill="rgb(47.1%, 47.1%, 47.1%)" fill-opacity="1" stroke-width="0.4" stroke-linecap="butt" stroke-linejoin="round" stroke="rgb(0%, 0%, 0%)" stroke-opacity="1" stroke-miterlimit="10" d="M 128 592 L 128 588 L 132 588 L 132 592 Z M 128 592 " transform="matrix(1, 0, 0, -1, -71, 625)"/>
<path fill-rule="evenodd" fill="rgb(0%, 0%, 0%)" fill-opacity="1" d="M 60 35 C 60 33.667969 58 33.667969 58 35 C 58 36.332031 60 36.332031 60 35 Z M 59.667969 35 C 59.667969 34.109375 58.332031 34.109375 58.332031 35 C 58.332031 35.890625 59.667969 35.890625 59.667969 35 Z M 59.667969 35 "/>
<path fill-rule="evenodd" fill="rgb(47.1%, 47.1%, 47.1%)" fill-opacity="1" stroke-width="0.4" stroke-linecap="butt" stroke-linejoin="round" stroke="rgb(0%, 0%, 0%)" stroke-opacity="1" stroke-miterlimit="10" d="M 128 596 L 128 592 L 132 592 L 132 596 Z M 128 596 " transform="matrix(1, 0, 0, -1, -71, 625)"/>
<path fill-rule="evenodd" fill="rgb(0%, 0%, 0%)" fill-opacity="1" d="M 60 31 C 60 29.667969 58 29.667969 58 31 C 58 32.332031 60 32.332031 60 31 Z M 59.667969 31 C 59.667969 30.109375 58.332031 30.109375 58.332031 31 C 58.332031 31.890625 59.667969 31.890625 59.667969 31 Z M 59.667969 31 "/>
<path fill-rule="evenodd" fill="rgb(52.6%, 9.5%, 96.2%)" fill-opacity="1" stroke-width="0.4" stroke-linecap="butt" stroke-linejoin="round" stroke="rgb(0%, 0%, 0%)" stroke-opacity="1" stroke-miterlimit="10" d="M 124 604 L 124 600 L 128 600 L 128 604 Z M 124 604 " transform="matrix(1, 0, 0, -1, -71, 625)"/>
<path fill-rule="evenodd" fill="rgb(0%, 0%, 0%)" fill-opacity="1" d="M 56 27 C 56 25.667969 54 25.667969 54 27 C 54 28.332031 56 28.332031 56 27 Z M 55.667969 27 C 55.667969 26.109375 54.332031 26.109375 54.332031 27 C 54.332031 27.890625 55.667969 27.890625 55.667969 27 Z M 55.667969 27 "/>
<path fill-rule="evenodd" fill="rgb(47.1%, 47.1%, 47.1%)" fill-opacity="1" stroke-width="0.4" stroke-linecap="butt" stroke-linejoin="round" stroke="rgb(0%, 0%, 0%)" stroke-opacity="1" stroke-miterlimit="10" d="M 128 604 L 128 600 L 132 600 L 132 604 Z M 128 604 " transform="matrix(1, 0, 0, -1, -71, 625)"/>
<path fill-rule="evenodd" fill="rgb(0%, 0%, 0%)" fill-opacity="1" d="M 60 23 C 60 21.667969 58 21.667969 58 23 C 58 24.332031 60 24.332031 60 23 Z M 59.667969 23 C 59.667969 22.109375 58.332031 22.109375 58.332031 23 C 58.332031 23.890625 59.667969 23.890625 59.667969 23 Z M 59.667969 23 "/>
<path fill-rule="evenodd" fill="rgb(47.1%, 47.1%, 47.1%)" fill-opacity="1" stroke-width="0.4" stroke-linecap="butt" stroke-linejoin="round" stroke="rgb(0%, 0%, 0%)" stroke-opacity="1" stroke-miterlimit="10" d="M 128 608 L 128 604 L 132 604 L 132 608 Z M 128 608 " transform="matrix(1, 0, 0, -1, -71, 625)"/>
<path fill-rule="evenodd" fill="rgb(0%, 0%, 0%)" fill-opacity="1" d="M 60 19 C 60 17.667969 58 17.667969 58 19 C 58 20.332031 60 20.332031 60 19 Z M 59.667969 19 C 59.667969 18.109375 58.332031 18.109375 58.332031 19 C 58.332031 19.890625 59.667969 19.890625 59.667969 19 Z M 59.667969 19 "/>
<path fill-rule="evenodd" fill="rgb(47.1%, 47.1%, 47.1%)" fill-opacity="1" stroke-width="0.4" stroke-linecap="butt" stroke-linejoin="round" stroke="rgb(0%, 0%, 0%)" stroke-opacity="1" stroke-miterlimit="10" d="M 128 612 L 128 608 L 132 608 L 132 612 Z M 128 612 " transform="matrix(1, 0, 0, -1, -71, 625)"/>
<path fill-rule="evenodd" fill="rgb(0%, 0%, 0%)" fill-opacity="1" d="M 60 15 C 60 13.667969 58 13.667969 58 15 C 58 16.332031 60 16.332031 60 15 Z M 59.667969 15 C 59.667969 14.109375 58.332031 14.109375 58.332031 15 C 58.332031 15.890625 59.667969 15.890625 59.667969 15 Z M 59.667969 15 "/>
<path fill-rule="evenodd" fill="rgb(47.1%, 47.1%, 47.1%)" fill-opacity="1" stroke-width="0.4" stroke-linecap="butt" stroke-linejoin="round" stroke="rgb(0%, 0%, 0%)" stroke-opacity="1" stroke-miterlimit="10" d="M 128 620 L 128 616 L 132 616 L 132 620 Z M 128 620 " transform="matrix(1, 0, 0, -1, -71, 625)"/>
<path fill-rule="evenodd" fill="rgb(0%, 0%, 0%)" fill-opacity="1" d="M 60 7 C 60 5.667969 58 5.667969 58 7 C 58 8.332031 60 8.332031 60 7 Z M 59.667969 7 C 59.667969 6.109375 58.332031 6.109375 58.332031 7 C 58.332031 7.890625 59.667969 7.890625 59.667969 7 Z M 59.667969 7 "/>
<path fill-rule="evenodd" fill="rgb(47.1%, 47.1%, 47.1%)" fill-opacity="1" stroke-width="0.4" stroke-linecap="butt" stroke-linejoin="round" stroke="rgb(0%, 0%, 0%)" stroke-opacity="1" stroke-miterlimit="10" d="M 120 600 L 120 596 L 124 596 L 124 600 Z M 120 600 " transform="matrix(1, 0, 0, -1, -71, 625)"/>
<path fill-rule="evenodd" fill="rgb(0%, 0%, 0%)" fill-opacity="1" d="M 52 27 C 52 25.667969 50 25.667969 50 27 C 50 28.332031 52 28.332031 52 27 Z M 51.667969 27 C 51.667969 26.109375 50.332031 26.109375 50.332031 27 C 50.332031 27.890625 51.667969 27.890625 51.667969 27 Z M 51.667969 27 "/>
<path fill-rule="evenodd" fill="rgb(0%, 0%, 0%)" fill-opacity="1" d="M 48 27 C 48 25.667969 46 25.667969 46 27 C 46 28.332031 48 28.332031 48 27 Z M 47.667969 27 C 47.667969 26.109375 46.332031 26.109375 46.332031 27 C 46.332031 27.890625 47.667969 27.890625 47.667969 27 Z M 47.667969 27 "/>
<path fill-rule="evenodd" fill="rgb(0%, 0%, 0%)" fill-opacity="1" d="M 60 27 C 60 25.667969 58 25.667969 58 27 C 58 28.332031 60 28.332031 60 27 Z M 59.667969 27 C 59.667969 26.109375 58.332031 26.109375 58.332031 27 C 58.332031 27.890625 59.667969 27.890625 59.667969 27 Z M 59.667969 27 "/>
<path fill-rule="evenodd" fill="rgb(0%, 0%, 0%)" fill-opacity="1" d="M 60 11 C 60 9.667969 58 9.667969 58 11 C 58 12.332031 60 12.332031 60 11 Z M 59.667969 11 C 59.667969 10.109375 58.332031 10.109375 58.332031 11 C 58.332031 11.890625 59.667969 11.890625 59.667969 11 Z M 59.667969 11 "/>
<path fill-rule="evenodd" fill="rgb(0%, 0%, 0%)" fill-opacity="1" d="M 60 43 C 60 41.667969 58 41.667969 58 43 C 58 44.332031 60 44.332031 60 43 Z M 59.667969 43 C 59.667969 42.109375 58.332031 42.109375 58.332031 43 C 58.332031 43.890625 59.667969 43.890625 59.667969 43 Z M 59.667969 43 "/>
<path fill-rule="evenodd" fill="rgb(52.6%, 9.5%, 96.2%)" fill-opacity="1" stroke-width="0.4" stroke-linecap="butt" stroke-linejoin="round" stroke="rgb(0%, 0%, 0%)" stroke-opacity="1" stroke-miterlimit="10" d="M 112 592 L 112 588 L 116 588 L 116 592 Z M 112 592 " transform="matrix(1, 0, 0, -1, -71, 625)"/>
<path fill-rule="evenodd" fill="rgb(94%, 56.8%, 97.5%)" fill-opacity="1" stroke-width="0.4" stroke-linecap="butt" stroke-linejoin="round" stroke="rgb(0%, 0%, 0%)" stroke-opacity="1" stroke-miterlimit="10" d="M 108 592 L 108 588 L 112 588 L 112 592 Z M 108 592 " transform="matrix(1, 0, 0, -1, -71, 625)"/>
<path fill="none" stroke-width="0.5" stroke-linecap="butt" stroke-linejoin="round" stroke="rgb(100%, 0%, 0%)" stroke-opacity="1" stroke-miterlimit="10" d="M 96 620 L 92 620 L 92 608 L 96 608 L 96 604 L 104 604 L 104 600 L 112 600 L 112 592 L 116 592 L 116 596 L 128 596 L 128 580 L 132 580 L 132 620 L 128 620 L 128 600 L 116 600 L 116 604 L 108 604 L 108 608 L 112 608 L 112 616 L 116 616 L 116 620 L 108 620 L 108 612 L 104 612 L 104 608 L 100 608 L 100 612 L 104 612 L 104 620 L 100 620 L 100 616 L 96 616 Z M 96 620 " transform="matrix(1, 0, 0, -1, -71, 625)"/>
<path fill="none" stroke-width="0.4" stroke-linecap="butt" stroke-linejoin="round" stroke="rgb(0%, 0%, 0%)" stroke-opacity="1" stroke-dasharray="1 3" stroke-miterlimit="10" d="M 135 612 L 72 612 " transform="matrix(1, 0, 0, -1, -71, 625)"/>
<path fill="none" stroke-width="0.4" stroke-linecap="butt" stroke-linejoin="round" stroke="rgb(0%, 0%, 0%)" stroke-opacity="1" stroke-dasharray="1 3" stroke-miterlimit="10" d="M 135 600 L 72 600 " transform="matrix(1, 0, 0, -1, -71, 625)"/>
<path fill="none" stroke-width="0.4" stroke-linecap="butt" stroke-linejoin="round" stroke="rgb(0%, 0%, 0%)" stroke-opacity="1" stroke-dasharray="1 3" stroke-miterlimit="10" d="M 135 588 L 72 588 " transform="matrix(1, 0, 0, -1, -71, 625)"/>
</svg>
