<?xml version="1.0" encoding="UTF-8" standalone="no"?>
<!-- Created with Inkscape (http://www.inkscape.org/) -->

<svg
   version="1.1"
   id="svg1"
   width="76.533333"
   height="76.533333"
   viewBox="0 0 76.533333 76.533333"
   xmlns="http://www.w3.org/2000/svg"
   xmlns:svg="http://www.w3.org/2000/svg">
  <defs
     id="defs1">
    <clipPath
       clipPathUnits="userSpaceOnUse"
       id="clipPath20">
      <path
         d="M 96.8,0 H 627.46667 V 841.33333 H 96.8 Z"
         id="path20" />
    </clipPath>
  </defs>
  <g
     id="g19"
     clip-path="url(#clipPath20)"
     transform="translate(-96.799995,-2.3072053e-5)">
    <path
       id="path21"
       d="m 56,592 v -56 h 56 v 56 z"
       style="fill:none;stroke:#fca10f;stroke-width:0.8;stroke-linecap:butt;stroke-linejoin:round;stroke-miterlimit:10;stroke-dasharray:none;stroke-opacity:1"
       transform="matrix(1.3333333,0,0,-1.3333333,22.666667,789.86667)" />
    <path
       id="path22"
       d="m 56,576 v -8 l 1,-1 h 7 v -7 h -8 v -24 l 1,-1 h 24 v 8 h 24 v 8 h 8 v 8 l -1,1 h -7 v 15 l -1,1 h -7 v 15 l -1,1 H 80 v -8 l 1,-1 h 7 v -7 z m 17,-9 v -16 h -8 v -7 h 15 v 8 h 16 v 15 h -7 v -8 h -8 l -1,1 v 7 z"
       style="fill:#000000;fill-opacity:0.33;fill-rule:evenodd;stroke:none"
       transform="matrix(1.3333333,0,0,-1.3333333,22.666667,789.86667)" />
    <path
       id="path23"
       d="m 64,544 h 8 v -8 h -8 z"
       style="fill:#bfbfbf;fill-opacity:1;fill-rule:evenodd;stroke:#000000;stroke-width:0.8;stroke-linecap:butt;stroke-linejoin:round;stroke-miterlimit:10;stroke-dasharray:none;stroke-opacity:1"
       transform="matrix(1.3333333,0,0,-1.3333333,22.666667,789.86667)" />
    <path
       id="path24"
       d="m 72,544 h 8 v -8 h -8 z"
       style="fill:#bfbfbf;fill-opacity:1;fill-rule:evenodd;stroke:#000000;stroke-width:0.8;stroke-linecap:butt;stroke-linejoin:round;stroke-miterlimit:10;stroke-dasharray:none;stroke-opacity:1"
       transform="matrix(1.3333333,0,0,-1.3333333,22.666667,789.86667)" />
    <path
       id="path25"
       d="m 80,552 h 8 v -8 h -8 z"
       style="fill:#bfbfbf;fill-opacity:1;fill-rule:evenodd;stroke:#000000;stroke-width:0.8;stroke-linecap:butt;stroke-linejoin:round;stroke-miterlimit:10;stroke-dasharray:none;stroke-opacity:1"
       transform="matrix(1.3333333,0,0,-1.3333333,22.666667,789.86667)" />
    <path
       id="path26"
       d="m 72,576 h 8 v -8 h -8 z"
       style="fill:#bfbfbf;fill-opacity:1;fill-rule:evenodd;stroke:#000000;stroke-width:0.8;stroke-linecap:butt;stroke-linejoin:round;stroke-miterlimit:10;stroke-dasharray:none;stroke-opacity:1"
       transform="matrix(1.3333333,0,0,-1.3333333,22.666667,789.86667)" />
    <path
       id="path27"
       d="m 80,576 h 8 v -16 h -8 z"
       style="fill:#bfbfbf;fill-opacity:1;fill-rule:evenodd;stroke:#000000;stroke-width:0.8;stroke-linecap:butt;stroke-linejoin:round;stroke-miterlimit:10;stroke-dasharray:none;stroke-opacity:1"
       transform="matrix(1.3333333,0,0,-1.3333333,22.666667,789.86667)" />
    <path
       id="path28"
       d="m 56,576 h 8 v -8 h -8 z"
       style="fill:#bfbfbf;fill-opacity:1;fill-rule:evenodd;stroke:#000000;stroke-width:0.8;stroke-linecap:butt;stroke-linejoin:round;stroke-miterlimit:10;stroke-dasharray:none;stroke-opacity:1"
       transform="matrix(1.3333333,0,0,-1.3333333,22.666667,789.86667)" />
    <path
       id="path29"
       d="m 88,552 h 8 v -8 h -8 z"
       style="fill:#bfbfbf;fill-opacity:1;fill-rule:evenodd;stroke:#000000;stroke-width:0.8;stroke-linecap:butt;stroke-linejoin:round;stroke-miterlimit:10;stroke-dasharray:none;stroke-opacity:1"
       transform="matrix(1.3333333,0,0,-1.3333333,22.666667,789.86667)" />
    <path
       id="path30"
       d="m 104,560 h 8 v -8 h -8 z"
       style="fill:#bfbfbf;fill-opacity:1;fill-rule:evenodd;stroke:#000000;stroke-width:0.8;stroke-linecap:butt;stroke-linejoin:round;stroke-miterlimit:10;stroke-dasharray:none;stroke-opacity:1"
       transform="matrix(1.3333333,0,0,-1.3333333,22.666667,789.86667)" />
    <path
       id="path31"
       d="m 80,592 h 8 v -8 h -8 z"
       style="fill:#bfbfbf;fill-opacity:1;fill-rule:evenodd;stroke:#000000;stroke-width:0.8;stroke-linecap:butt;stroke-linejoin:round;stroke-miterlimit:10;stroke-dasharray:none;stroke-opacity:1"
       transform="matrix(1.3333333,0,0,-1.3333333,22.666667,789.86667)" />
    <path
       id="path32"
       d="m 56,560 v -24 h 8 v 24 z"
       style="fill:#bfbfbf;fill-opacity:1;fill-rule:evenodd;stroke:#000000;stroke-width:0.8;stroke-linecap:butt;stroke-linejoin:round;stroke-miterlimit:10;stroke-dasharray:none;stroke-opacity:1"
       transform="matrix(1.3333333,0,0,-1.3333333,22.666667,789.86667)" />
    <path
       id="path33"
       d="m 64,576 v -24 h 8 v 24 z"
       style="fill:#bfbfbf;fill-opacity:1;fill-rule:evenodd;stroke:#000000;stroke-width:0.8;stroke-linecap:butt;stroke-linejoin:round;stroke-miterlimit:10;stroke-dasharray:none;stroke-opacity:1"
       transform="matrix(1.3333333,0,0,-1.3333333,22.666667,789.86667)" />
    <path
       id="path34"
       d="m 88,592 v -24 h 8 v 24 z"
       style="fill:#bfbfbf;fill-opacity:1;fill-rule:evenodd;stroke:#000000;stroke-width:0.8;stroke-linecap:butt;stroke-linejoin:round;stroke-miterlimit:10;stroke-dasharray:none;stroke-opacity:1"
       transform="matrix(1.3333333,0,0,-1.3333333,22.666667,789.86667)" />
    <path
       id="path35"
       d="m 96,576 v -32 h 8 v 32 z"
       style="fill:#bfbfbf;fill-opacity:1;fill-rule:evenodd;stroke:#000000;stroke-width:0.8;stroke-linecap:butt;stroke-linejoin:round;stroke-miterlimit:10;stroke-dasharray:none;stroke-opacity:1"
       transform="matrix(1.3333333,0,0,-1.3333333,22.666667,789.86667)" />
    <path
       id="path36"
       d="m 56,552 h 8 m -8,-8 h 8 m 0,16 h 8 m -8,8 h 8 m 8,0 h 8 m 0,8 h 8 m -8,8 h 8 m 0,-16 h 8 m -8,-8 h 8 m -8,-8 h 8"
       style="fill:none;stroke:#000000;stroke-width:0.8;stroke-linecap:butt;stroke-linejoin:round;stroke-miterlimit:10;stroke-dasharray:none;stroke-opacity:0.1"
       transform="matrix(1.3333333,0,0,-1.3333333,22.666667,789.86667)" />
  </g>
</svg>
