<?xml version="1.0" encoding="UTF-8" standalone="no"?>
<!-- Created with Inkscape (http://www.inkscape.org/) -->

<svg
   version="1.1"
   id="svg1"
   width="65.599998"
   height="43.200001"
   viewBox="0 0 65.599998 43.200001"
   xmlns="http://www.w3.org/2000/svg"
   xmlns:svg="http://www.w3.org/2000/svg">
  <defs
     id="defs1">
    <clipPath
       clipPathUnits="userSpaceOnUse"
       id="clipPath1">
      <path
         d="M 0,0 H 530.66667 V 841.33333 H 0 Z"
         id="path1" />
    </clipPath>
  </defs>
  <g
     id="g1"
     clip-path="url(#clipPath1)"
     transform="translate(-0.26666661,-16.266689)">
    <path
       id="path2"
       d="m 96,568 v -8 l 1,-1 h 8 v 8 l -1,1 z"
       style="fill:#000000;fill-opacity:0.33;fill-rule:evenodd;stroke:none"
       transform="matrix(1.3333333,0,0,-1.3333333,-74.133333,789.86667)" />
    <path
       id="path3"
       d="m 56,580 v -32 h 32 v 32 z"
       style="fill:none;stroke:#ffffff;stroke-width:0.4;stroke-linecap:butt;stroke-linejoin:round;stroke-miterlimit:10;stroke-dasharray:none;stroke-opacity:1"
       transform="matrix(1.3333333,0,0,-1.3333333,-74.133333,789.86667)" />
    <path
       id="path4"
       d="m 58,576 h 4 m -2,2 v -4 m 3,2 h 1 m 2,0 h 4 m 2,0 h 1 m 1,0 h 4 m 1,0 h 1 m 2,0 h 4 m -2,2 v -4 m 3,2 h 1 m -32,0 h 1 m 3,-6 v -4 m 24,4 v -4 m -24,6 v -1 m 24,2 v -1 M 60,562 v -4 m 24,4 v -4 m -26,-6 h 4 m -2,2 v -4 m 3,2 h 1 m 2,0 h 4 m 2,0 h 1 m 1,0 h 4 m 1,0 h 1 m 2,0 h 4 m -2,2 v -4 m 3,2 h 1 m -32,0 h 1 m 3,4 v -1 m 24,2 v -1 m -24,8 v -1 m 24,2 v -1 m -24,16 v -1 m 24,1 v -1 M 60,549 v -1 m 24,1 v -1"
       style="fill:#ffffff;stroke:#ffffff;stroke-width:0.4;stroke-linecap:butt;stroke-linejoin:round;stroke-miterlimit:10;stroke-dasharray:none;stroke-opacity:1"
       transform="matrix(1.3333333,0,0,-1.3333333,-74.133333,789.86667)" />
    <path
       id="path5"
       d="m 60,576 v -24 l 2,-2 h 24 v 24 l -2,2 z"
       style="fill:#000000;fill-opacity:0.33;fill-rule:evenodd;stroke:none"
       transform="matrix(1.3333333,0,0,-1.3333333,-74.133333,789.86667)" />
    <path
       id="path6"
       d="m 76,576 h 8 v -8 h -8 z"
       style="fill:#bfbfbf;fill-opacity:1;fill-rule:evenodd;stroke:#ffffff;stroke-width:0.8;stroke-linecap:butt;stroke-linejoin:round;stroke-miterlimit:10;stroke-dasharray:none;stroke-opacity:1"
       transform="matrix(1.3333333,0,0,-1.3333333,-74.133333,789.86667)" />
    <path
       id="path7"
       d="m 76,568 h 8 v -8 h -8 z"
       style="fill:#bfbfbf;fill-opacity:1;fill-rule:evenodd;stroke:#ffffff;stroke-width:0.8;stroke-linecap:butt;stroke-linejoin:round;stroke-miterlimit:10;stroke-dasharray:none;stroke-opacity:1"
       transform="matrix(1.3333333,0,0,-1.3333333,-74.133333,789.86667)" />
    <path
       id="path8"
       d="m 68,560 h 8 v -8 h -8 z"
       style="fill:#bfbfbf;fill-opacity:1;fill-rule:evenodd;stroke:#ffffff;stroke-width:0.8;stroke-linecap:butt;stroke-linejoin:round;stroke-miterlimit:10;stroke-dasharray:none;stroke-opacity:1"
       transform="matrix(1.3333333,0,0,-1.3333333,-74.133333,789.86667)" />
    <path
       id="path9"
       d="m 60,568 h 8 v -8 h -8 z"
       style="fill:#bfbfbf;fill-opacity:1;fill-rule:evenodd;stroke:#ffffff;stroke-width:0.8;stroke-linecap:butt;stroke-linejoin:round;stroke-miterlimit:10;stroke-dasharray:none;stroke-opacity:1"
       transform="matrix(1.3333333,0,0,-1.3333333,-74.133333,789.86667)" />
    <path
       id="path10"
       d="m 60,576 h 8 v -8 h -8 z"
       style="fill:#bfbfbf;fill-opacity:1;fill-rule:evenodd;stroke:#ffffff;stroke-width:0.8;stroke-linecap:butt;stroke-linejoin:round;stroke-miterlimit:10;stroke-dasharray:none;stroke-opacity:1"
       transform="matrix(1.3333333,0,0,-1.3333333,-74.133333,789.86667)" />
    <path
       id="path11"
       d="m 68,576 h 8 v -8 h -8 z"
       style="fill:#bfbfbf;fill-opacity:1;fill-rule:evenodd;stroke:#ffffff;stroke-width:0.8;stroke-linecap:butt;stroke-linejoin:round;stroke-miterlimit:10;stroke-dasharray:none;stroke-opacity:1"
       transform="matrix(1.3333333,0,0,-1.3333333,-74.133333,789.86667)" />
    <path
       id="path12"
       d="m 76,560 h 8 v -8 h -8 z"
       style="fill:#bfbfbf;fill-opacity:1;fill-rule:evenodd;stroke:#ffffff;stroke-width:0.8;stroke-linecap:butt;stroke-linejoin:round;stroke-miterlimit:10;stroke-dasharray:none;stroke-opacity:1"
       transform="matrix(1.3333333,0,0,-1.3333333,-74.133333,789.86667)" />
    <path
       id="path13"
       d="m 60,560 h 8 v -8 h -8 z"
       style="fill:#bfbfbf;fill-opacity:1;fill-rule:evenodd;stroke:#ffffff;stroke-width:0.8;stroke-linecap:butt;stroke-linejoin:round;stroke-miterlimit:10;stroke-dasharray:none;stroke-opacity:1"
       transform="matrix(1.3333333,0,0,-1.3333333,-74.133333,789.86667)" />
    <path
       id="path14"
       d="m 68,568 h 8 v -8 h -8 z"
       style="fill:#bfbfbf;fill-opacity:1;fill-rule:evenodd;stroke:#ffffff;stroke-width:0.8;stroke-linecap:butt;stroke-linejoin:round;stroke-miterlimit:10;stroke-dasharray:none;stroke-opacity:1"
       transform="matrix(1.3333333,0,0,-1.3333333,-74.133333,789.86667)" />
    <path
       id="path15"
       d="m 96,568 h 8 v -8 h -8 z"
       style="fill:#bfbfbf;fill-opacity:1;fill-rule:evenodd;stroke:#ffffff;stroke-width:0.8;stroke-linecap:butt;stroke-linejoin:round;stroke-miterlimit:10;stroke-dasharray:none;stroke-opacity:1"
       transform="matrix(1.3333333,0,0,-1.3333333,-74.133333,789.86667)" />
    <path
       id="path16"
       d="m 88,580 16,-12"
       style="fill:#ffffff;stroke:#ffffff;stroke-width:0.4;stroke-linecap:butt;stroke-linejoin:round;stroke-miterlimit:10;stroke-dasharray:none;stroke-opacity:1"
       transform="matrix(1.3333333,0,0,-1.3333333,-74.133333,789.86667)" />
    <path
       id="path17"
       d="m 88,548 16,12"
       style="fill:#ffffff;stroke:#ffffff;stroke-width:0.4;stroke-linecap:butt;stroke-linejoin:round;stroke-miterlimit:10;stroke-dasharray:none;stroke-opacity:1"
       transform="matrix(1.3333333,0,0,-1.3333333,-74.133333,789.86667)" />
    <path
       id="path18"
       d="m 96,560 -8,-2.4"
       style="fill:#ffffff;stroke:#ffffff;stroke-width:0.4;stroke-linecap:butt;stroke-linejoin:round;stroke-miterlimit:10;stroke-dasharray:none;stroke-opacity:1"
       transform="matrix(1.3333333,0,0,-1.3333333,-74.133333,789.86667)" />
    <path
       id="path19"
       d="m 96,568 -8,2.4"
       style="fill:#ffffff;stroke:#ffffff;stroke-width:0.4;stroke-linecap:butt;stroke-linejoin:round;stroke-miterlimit:10;stroke-dasharray:none;stroke-opacity:1"
       transform="matrix(1.3333333,0,0,-1.3333333,-74.133333,789.86667)" />
  </g>
</svg>
