<?xml version="1.0" encoding="UTF-8" standalone="no"?>
<!-- Created with Inkscape (http://www.inkscape.org/) -->

<svg
   version="1.1"
   id="svg1"
   width="76.533325"
   height="80"
   viewBox="0 0 76.533325 80"
   xmlns="http://www.w3.org/2000/svg"
   xmlns:svg="http://www.w3.org/2000/svg">
  <defs
     id="defs1">
    <clipPath
       clipPathUnits="userSpaceOnUse"
       id="clipPath68">
      <path
         d="M 290.4,0 H 821.06667 V 841.33333 H 290.4 Z"
         id="path68" />
    </clipPath>
  </defs>
  <g
     id="g67"
     clip-path="url(#clipPath68)"
     transform="translate(-290.4,-2.3072053e-5)">
    <path
       id="path69"
       d="m 56,592 v -56 h 56 v 56 z"
       style="fill:none;stroke:#fca10f;stroke-width:0.8;stroke-linecap:butt;stroke-linejoin:round;stroke-miterlimit:10;stroke-dasharray:none;stroke-opacity:1"
       transform="matrix(1.3333333,0,0,-1.3333333,216.26667,789.86667)" />
    <path
       id="path70"
       d="m 56,573.4 v -8 l 1,-1 h 7 v -7 h -8 v -24 l 1,-1 h 24 v 8 h 24 v 8 h 8 v 8 l -1,1 h -7 v 15 l -1,1 h -7 v 15 l -1,1 H 80 v -8 l 1,-1 h 7 v -7 z m 17,-9 v -16 h -8 v -7 h 15 v 8 h 16 v 15 h -7 v -8 h -8 l -1,1 v 7 z"
       style="fill:#000000;fill-opacity:0.33;fill-rule:evenodd;stroke:none"
       transform="matrix(1.3333333,0,0,-1.3333333,216.26667,789.86667)" />
    <path
       id="path71"
       d="m 64,541.4 h 8 v -8 h -8 z"
       style="fill:#bfbfbf;fill-opacity:1;fill-rule:evenodd;stroke:#000000;stroke-width:0.8;stroke-linecap:butt;stroke-linejoin:round;stroke-miterlimit:10;stroke-dasharray:none;stroke-opacity:1"
       transform="matrix(1.3333333,0,0,-1.3333333,216.26667,789.86667)" />
    <path
       id="path72"
       d="m 72,541.4 h 8 v -8 h -8 z"
       style="fill:#bfbfbf;fill-opacity:1;fill-rule:evenodd;stroke:#000000;stroke-width:0.8;stroke-linecap:butt;stroke-linejoin:round;stroke-miterlimit:10;stroke-dasharray:none;stroke-opacity:1"
       transform="matrix(1.3333333,0,0,-1.3333333,216.26667,789.86667)" />
    <path
       id="path73"
       d="m 80,549.4 h 8 v -8 h -8 z"
       style="fill:#bfbfbf;fill-opacity:1;fill-rule:evenodd;stroke:#000000;stroke-width:0.8;stroke-linecap:butt;stroke-linejoin:round;stroke-miterlimit:10;stroke-dasharray:none;stroke-opacity:1"
       transform="matrix(1.3333333,0,0,-1.3333333,216.26667,789.86667)" />
    <path
       id="path74"
       d="m 72,573.4 h 8 v -8 h -8 z"
       style="fill:#bfbfbf;fill-opacity:1;fill-rule:evenodd;stroke:#000000;stroke-width:0.8;stroke-linecap:butt;stroke-linejoin:round;stroke-miterlimit:10;stroke-dasharray:none;stroke-opacity:1"
       transform="matrix(1.3333333,0,0,-1.3333333,216.26667,789.86667)" />
    <path
       id="path75"
       d="m 80,573.4 h 8 v -16 h -8 z"
       style="fill:#bfbfbf;fill-opacity:1;fill-rule:evenodd;stroke:#000000;stroke-width:0.8;stroke-linecap:butt;stroke-linejoin:round;stroke-miterlimit:10;stroke-dasharray:none;stroke-opacity:1"
       transform="matrix(1.3333333,0,0,-1.3333333,216.26667,789.86667)" />
    <path
       id="path76"
       d="m 56,573.4 h 8 v -8 h -8 z"
       style="fill:#bfbfbf;fill-opacity:1;fill-rule:evenodd;stroke:#000000;stroke-width:0.8;stroke-linecap:butt;stroke-linejoin:round;stroke-miterlimit:10;stroke-dasharray:none;stroke-opacity:1"
       transform="matrix(1.3333333,0,0,-1.3333333,216.26667,789.86667)" />
    <path
       id="path77"
       d="m 88,549.4 h 8 v -8 h -8 z"
       style="fill:#bfbfbf;fill-opacity:1;fill-rule:evenodd;stroke:#000000;stroke-width:0.8;stroke-linecap:butt;stroke-linejoin:round;stroke-miterlimit:10;stroke-dasharray:none;stroke-opacity:1"
       transform="matrix(1.3333333,0,0,-1.3333333,216.26667,789.86667)" />
    <path
       id="path78"
       d="m 104,557.4 h 8 v -8 h -8 z"
       style="fill:#bfbfbf;fill-opacity:1;fill-rule:evenodd;stroke:#000000;stroke-width:0.8;stroke-linecap:butt;stroke-linejoin:round;stroke-miterlimit:10;stroke-dasharray:none;stroke-opacity:1"
       transform="matrix(1.3333333,0,0,-1.3333333,216.26667,789.86667)" />
    <path
       id="path79"
       d="m 80,589.4 h 8 v -8 h -8 z"
       style="fill:#bfbfbf;fill-opacity:1;fill-rule:evenodd;stroke:#000000;stroke-width:0.8;stroke-linecap:butt;stroke-linejoin:round;stroke-miterlimit:10;stroke-dasharray:none;stroke-opacity:1"
       transform="matrix(1.3333333,0,0,-1.3333333,216.26667,789.86667)" />
    <path
       id="path80"
       d="m 56,557.4 v -24 h 8 v 24 z"
       style="fill:#bfbfbf;fill-opacity:1;fill-rule:evenodd;stroke:#000000;stroke-width:0.8;stroke-linecap:butt;stroke-linejoin:round;stroke-miterlimit:10;stroke-dasharray:none;stroke-opacity:1"
       transform="matrix(1.3333333,0,0,-1.3333333,216.26667,789.86667)" />
    <path
       id="path81"
       d="m 64,573.4 v -24 h 8 v 24 z"
       style="fill:#bfbfbf;fill-opacity:1;fill-rule:evenodd;stroke:#000000;stroke-width:0.8;stroke-linecap:butt;stroke-linejoin:round;stroke-miterlimit:10;stroke-dasharray:none;stroke-opacity:1"
       transform="matrix(1.3333333,0,0,-1.3333333,216.26667,789.86667)" />
    <path
       id="path82"
       d="m 88,589.4 v -24 h 8 v 24 z"
       style="fill:#bfbfbf;fill-opacity:1;fill-rule:evenodd;stroke:#000000;stroke-width:0.8;stroke-linecap:butt;stroke-linejoin:round;stroke-miterlimit:10;stroke-dasharray:none;stroke-opacity:1"
       transform="matrix(1.3333333,0,0,-1.3333333,216.26667,789.86667)" />
    <path
       id="path83"
       d="m 96,573.4 v -32 h 8 v 32 z"
       style="fill:#bfbfbf;fill-opacity:1;fill-rule:evenodd;stroke:#000000;stroke-width:0.8;stroke-linecap:butt;stroke-linejoin:round;stroke-miterlimit:10;stroke-dasharray:none;stroke-opacity:1"
       transform="matrix(1.3333333,0,0,-1.3333333,216.26667,789.86667)" />
    <path
       id="path84"
       d="m 56,549.4 h 8 m -8,-8 h 8 m 0,16 h 8 m -8,8 h 8 m 8,0 h 8 m 0,8 h 8 m -8,8 h 8 m 0,-16 h 8 m -8,-8 h 8 m -8,-8 h 8"
       style="fill:none;stroke:#000000;stroke-width:0.8;stroke-linecap:butt;stroke-linejoin:round;stroke-miterlimit:10;stroke-dasharray:none;stroke-opacity:0.1"
       transform="matrix(1.3333333,0,0,-1.3333333,216.26667,789.86667)" />
  </g>
</svg>
