<?xml version="1.0" encoding="UTF-8" standalone="no"?>
<!DOCTYPE svg PUBLIC "-//W3C//DTD SVG 1.1//EN" "http://www.w3.org/Graphics/SVG/1.1/DTD/svg11.dtd">
<svg xmlns:xlink="http://www.w3.org/1999/xlink" version="1.1" xmlns="http://www.w3.org/2000/svg" viewBox="0 0 400 400" preserveAspectRatio="xMinYMin meet">
<defs id="SvgjsDefs1071"><g id="SvgjsG1072"><rect x="0" y="0" width="50" height="50" fill="white" stroke="gray"></rect></g><g id="SvgjsG1073"><g><rect x="0" y="0" width="50" height="50" fill="white" stroke="gray"></rect><circle cx="25" cy="25" r="15" fill="red"></circle></g></g><g id="SvgjsG1074"><rect x="0" y="0" width="50" height="50" fill="#bbbbbb" stroke="black"></rect></g><g id="SvgjsG1075"><g><rect x="0" y="0" width="50" height="50" fill="#bbbbbb" stroke="black"></rect><circle cx="25" cy="25" r="14" fill="#ff0000"></circle></g></g><g id="SvgjsG1076"><rect x="0" y="0" width="50" height="50" fill="#989898" stroke="black"></rect></g><g id="SvgjsG1077"><g><rect x="0" y="0" width="50" height="50" fill="#989898" stroke="black"></rect><circle cx="25" cy="25" r="14" fill="#ff0000"></circle></g></g><g id="SvgjsG1078"><rect x="0" y="0" width="50" height="50" fill="#666666" stroke="black"></rect></g><g id="SvgjsG1079"><g><rect x="0" y="0" width="50" height="50" fill="#666666" stroke="black"></rect><circle cx="25" cy="25" r="14" fill="#ff0000"></circle></g></g><g id="SvgjsG1080"><rect x="0" y="0" width="50" height="50" fill="black" stroke="black"></rect></g><g id="SvgjsG1081"><g><rect x="0" y="0" width="50" height="50" fill="black" stroke="black"></rect><circle cx="25" cy="25" r="14" fill="#ff0000"></circle></g></g><g id="SvgjsG1082"><rect x="0" y="0" width="50" height="50" fill="#333399" stroke="black"></rect></g><g id="SvgjsG1083"><g><rect x="0" y="0" width="50" height="50" fill="#333399" stroke="black"></rect><circle cx="25" cy="25" r="14" fill="#ff0000"></circle></g></g><g id="SvgjsG1084"><rect x="0" y="0" width="50" height="50" fill="#3366ff" stroke="black"></rect></g><g id="SvgjsG1085"><g><rect x="0" y="0" width="50" height="50" fill="#3366ff" stroke="black"></rect><circle cx="25" cy="25" r="14" fill="#ff0000"></circle></g></g><g id="SvgjsG1086"><rect x="0" y="0" width="50" height="50" fill="#00c7c7" stroke="black"></rect></g><g id="SvgjsG1087"><g><rect x="0" y="0" width="50" height="50" fill="#00c7c7" stroke="black"></rect><circle cx="25" cy="25" r="14" fill="#ff0000"></circle></g></g><g id="SvgjsG1088"><rect x="0" y="0" width="50" height="50" fill="#008000" stroke="black"></rect></g><g id="SvgjsG1089"><g><rect x="0" y="0" width="50" height="50" fill="#008000" stroke="black"></rect><circle cx="25" cy="25" r="14" fill="#ff0000"></circle></g></g><g id="SvgjsG1090"><rect x="0" y="0" width="50" height="50" fill="#00c000" stroke="black"></rect></g><g id="SvgjsG1091"><g><rect x="0" y="0" width="50" height="50" fill="#00c000" stroke="black"></rect><circle cx="25" cy="25" r="14" fill="#ff0000"></circle></g></g><g id="SvgjsG1092"><rect x="0" y="0" width="50" height="50" fill="#800080" stroke="black"></rect></g><g id="SvgjsG1093"><g><rect x="0" y="0" width="50" height="50" fill="#800080" stroke="black"></rect><circle cx="25" cy="25" r="14" fill="#ff0000"></circle></g></g><g id="SvgjsG1094"><rect x="0" y="0" width="50" height="50" fill="#d000d0" stroke="black"></rect></g><g id="SvgjsG1095"><g><rect x="0" y="0" width="50" height="50" fill="#d000d0" stroke="black"></rect><circle cx="25" cy="25" r="14" fill="#ff0000"></circle></g></g><g id="SvgjsG1096"><rect x="0" y="0" width="50" height="50" fill="#a00000" stroke="black"></rect></g><g id="SvgjsG1097"><g><rect x="0" y="0" width="50" height="50" fill="#a00000" stroke="black"></rect><circle cx="25" cy="25" r="14" fill="#ff0000"></circle></g></g><g id="SvgjsG1098"><rect x="0" y="0" width="50" height="50" fill="#ff0000" stroke="black"></rect></g><g id="SvgjsG1099"><g><rect x="0" y="0" width="50" height="50" fill="#ff0000" stroke="black"></rect><circle cx="25" cy="25" r="14" fill="#a00000"></circle></g></g><g id="SvgjsG1100"><rect x="0" y="0" width="50" height="50" fill="#ed8e00" stroke="black"></rect></g><g id="SvgjsG1101"><g><rect x="0" y="0" width="50" height="50" fill="#ed8e00" stroke="black"></rect><circle cx="25" cy="25" r="14" fill="#ff0000"></circle></g></g><g id="SvgjsG1102"><rect x="0" y="0" width="50" height="50" fill="#eced00" stroke="black"></rect></g><g id="SvgjsG1103"><g><rect x="0" y="0" width="50" height="50" fill="#eced00" stroke="black"></rect><circle cx="25" cy="25" r="14" fill="#ff0000"></circle></g></g></defs>
<g id="SvgjsG1116" ><g id="SvgjsG2441" transform="matrix(1,0,0,1,0,0)"><use id="SvgjsUse2597" xlink:href="#SvgjsG1072"></use></g><g id="SvgjsG2442" transform="matrix(1,0,0,1,0,50)"><use id="SvgjsUse2598" xlink:href="#SvgjsG1072"></use></g><g id="SvgjsG2443" transform="matrix(1,0,0,1,0,100)"><use id="SvgjsUse2599" xlink:href="#SvgjsG1072"></use></g><g id="SvgjsG2444" transform="matrix(1,0,0,1,0,150)"><use id="SvgjsUse2600" xlink:href="#SvgjsG1072"></use></g><g id="SvgjsG2445" transform="matrix(1,0,0,1,0,200)"><use id="SvgjsUse2601" xlink:href="#SvgjsG1072"></use></g><g id="SvgjsG2446" transform="matrix(1,0,0,1,0,250)"><use id="SvgjsUse2602" xlink:href="#SvgjsG1072"></use></g><g id="SvgjsG2447" transform="matrix(1,0,0,1,0,300)"><use id="SvgjsUse2603" xlink:href="#SvgjsG1072"></use></g><g id="SvgjsG2448" transform="matrix(1,0,0,1,0,350)"><use id="SvgjsUse2604" xlink:href="#SvgjsG1072"></use></g><g id="SvgjsG2449" transform="matrix(1,0,0,1,50,0)"><use id="SvgjsUse2605" xlink:href="#SvgjsG1072"></use></g><g id="SvgjsG2450" transform="matrix(1,0,0,1,50,50)"><use id="SvgjsUse2606" xlink:href="#SvgjsG1084"></use></g><g id="SvgjsG2451" transform="matrix(1,0,0,1,50,100)"><use id="SvgjsUse2835" xlink:href="#SvgjsG1084"></use></g><g id="SvgjsG2452" transform="matrix(1,0,0,1,50,150)"><use id="SvgjsUse2922" xlink:href="#SvgjsG1094"></use></g><g id="SvgjsG2453" transform="matrix(1,0,0,1,50,200)"><use id="SvgjsUse3165" xlink:href="#SvgjsG1094"></use></g><g id="SvgjsG2454" transform="matrix(1,0,0,1,50,250)"><use id="SvgjsUse2946" xlink:href="#SvgjsG1086"></use></g><g id="SvgjsG2455" transform="matrix(1,0,0,1,50,300)"><use id="SvgjsUse2964" xlink:href="#SvgjsG1086"></use></g><g id="SvgjsG2456" transform="matrix(1,0,0,1,50,350)"><use id="SvgjsUse2612" xlink:href="#SvgjsG1072"></use></g><g id="SvgjsG2457" transform="matrix(1,0,0,1,100,0)"><use id="SvgjsUse2613" xlink:href="#SvgjsG1072"></use></g><g id="SvgjsG2458" transform="matrix(1,0,0,1,100,50)"><use id="SvgjsUse2662" xlink:href="#SvgjsG1084"></use></g><g id="SvgjsG2459" transform="matrix(1,0,0,1,100,100)"><use id="SvgjsUse2846" xlink:href="#SvgjsG1076"></use></g><g id="SvgjsG2460" transform="matrix(1,0,0,1,100,150)"><use id="SvgjsUse2896" xlink:href="#SvgjsG1094"></use></g><g id="SvgjsG2461" transform="matrix(1,0,0,1,100,200)"><use id="SvgjsUse3155" xlink:href="#SvgjsG1082"></use></g><g id="SvgjsG2462" transform="matrix(1,0,0,1,100,250)"><use id="SvgjsUse3163" xlink:href="#SvgjsG1082"></use></g><g id="SvgjsG2463" transform="matrix(1,0,0,1,100,300)"><use id="SvgjsUse2976" xlink:href="#SvgjsG1086"></use></g><g id="SvgjsG2464" transform="matrix(1,0,0,1,100,350)"><use id="SvgjsUse2620" xlink:href="#SvgjsG1072"></use></g><g id="SvgjsG2465" transform="matrix(1,0,0,1,150,0)"><use id="SvgjsUse2621" xlink:href="#SvgjsG1072"></use></g><g id="SvgjsG2466" transform="matrix(1,0,0,1,150,50)"><use id="SvgjsUse2744" xlink:href="#SvgjsG1098"></use></g><g id="SvgjsG2467" transform="matrix(1,0,0,1,150,100)"><use id="SvgjsUse2872" xlink:href="#SvgjsG1076"></use></g><g id="SvgjsG2468" transform="matrix(1,0,0,1,150,150)"><use id="SvgjsUse2882" xlink:href="#SvgjsG1076"></use></g><g id="SvgjsG2469" transform="matrix(1,0,0,1,150,200)"><use id="SvgjsUse3123" xlink:href="#SvgjsG1082"></use></g><g id="SvgjsG2470" transform="matrix(1,0,0,1,150,250)"><use id="SvgjsUse2988" xlink:href="#SvgjsG1088"></use></g><g id="SvgjsG2471" transform="matrix(1,0,0,1,150,300)"><use id="SvgjsUse3012" xlink:href="#SvgjsG1088"></use></g><g id="SvgjsG2472" transform="matrix(1,0,0,1,150,350)"><use id="SvgjsUse2628" xlink:href="#SvgjsG1072"></use></g><g id="SvgjsG2473" transform="matrix(1,0,0,1,200,0)"><use id="SvgjsUse2629" xlink:href="#SvgjsG1072"></use></g><g id="SvgjsG2474" transform="matrix(1,0,0,1,200,50)"><use id="SvgjsUse2757" xlink:href="#SvgjsG1098"></use></g><g id="SvgjsG2475" transform="matrix(1,0,0,1,200,100)"><use id="SvgjsUse2823" xlink:href="#SvgjsG1098"></use></g><g id="SvgjsG2476" transform="matrix(1,0,0,1,200,150)"><use id="SvgjsUse2830" xlink:href="#SvgjsG1072"></use></g><g id="SvgjsG2477" transform="matrix(1,0,0,1,200,200)"><use id="SvgjsUse3117" xlink:href="#SvgjsG1080"></use></g><g id="SvgjsG2478" transform="matrix(1,0,0,1,200,250)"><use id="SvgjsUse3093" xlink:href="#SvgjsG1080"></use></g><g id="SvgjsG2479" transform="matrix(1,0,0,1,200,300)"><use id="SvgjsUse3030" xlink:href="#SvgjsG1088"></use></g><g id="SvgjsG2480" transform="matrix(1,0,0,1,200,350)"><use id="SvgjsUse2636" xlink:href="#SvgjsG1072"></use></g><g id="SvgjsG2481" transform="matrix(1,0,0,1,250,0)"><use id="SvgjsUse2637" xlink:href="#SvgjsG1072"></use></g><g id="SvgjsG2482" transform="matrix(1,0,0,1,250,50)"><use id="SvgjsUse2813" xlink:href="#SvgjsG1102"></use></g><g id="SvgjsG2483" transform="matrix(1,0,0,1,250,100)"><use id="SvgjsUse2639" xlink:href="#SvgjsG1072"></use></g><g id="SvgjsG2484" transform="matrix(1,0,0,1,250,150)"><use id="SvgjsUse2640" xlink:href="#SvgjsG1072"></use></g><g id="SvgjsG2485" transform="matrix(1,0,0,1,250,200)"><use id="SvgjsUse3227" xlink:href="#SvgjsG1096"></use></g><g id="SvgjsG2486" transform="matrix(1,0,0,1,250,250)"><use id="SvgjsUse3089" xlink:href="#SvgjsG1080"></use></g><g id="SvgjsG2487" transform="matrix(1,0,0,1,250,300)"><use id="SvgjsUse3035" xlink:href="#SvgjsG1092"></use></g><g id="SvgjsG2488" transform="matrix(1,0,0,1,250,350)"><use id="SvgjsUse2644" xlink:href="#SvgjsG1072"></use></g><g id="SvgjsG2489" transform="matrix(1,0,0,1,300,0)"><use id="SvgjsUse2645" xlink:href="#SvgjsG1072"></use></g><g id="SvgjsG2490" transform="matrix(1,0,0,1,300,50)"><use id="SvgjsUse2819" xlink:href="#SvgjsG1102"></use></g><g id="SvgjsG2491" transform="matrix(1,0,0,1,300,100)"><use id="SvgjsUse2821" xlink:href="#SvgjsG1102"></use></g><g id="SvgjsG2492" transform="matrix(1,0,0,1,300,150)"><use id="SvgjsUse3269" xlink:href="#SvgjsG1096"></use></g><g id="SvgjsG2493" transform="matrix(1,0,0,1,300,200)"><use id="SvgjsUse3259" xlink:href="#SvgjsG1096"></use></g><g id="SvgjsG2494" transform="matrix(1,0,0,1,300,250)"><use id="SvgjsUse3079" xlink:href="#SvgjsG1092"></use></g><g id="SvgjsG2495" transform="matrix(1,0,0,1,300,300)"><use id="SvgjsUse3059" xlink:href="#SvgjsG1092"></use></g><g id="SvgjsG2496" transform="matrix(1,0,0,1,300,350)"><use id="SvgjsUse2652" xlink:href="#SvgjsG1072"></use></g><g id="SvgjsG2497" transform="matrix(1,0,0,1,350,0)"><use id="SvgjsUse2653" xlink:href="#SvgjsG1072"></use></g><g id="SvgjsG2498" transform="matrix(1,0,0,1,350,50)"><use id="SvgjsUse2654" xlink:href="#SvgjsG1072"></use></g><g id="SvgjsG2499" transform="matrix(1,0,0,1,350,100)"><use id="SvgjsUse2655" xlink:href="#SvgjsG1072"></use></g><g id="SvgjsG2500" transform="matrix(1,0,0,1,350,150)"><use id="SvgjsUse2656" xlink:href="#SvgjsG1072"></use></g><g id="SvgjsG2501" transform="matrix(1,0,0,1,350,200)"><use id="SvgjsUse2657" xlink:href="#SvgjsG1072"></use></g><g id="SvgjsG2502" transform="matrix(1,0,0,1,350,250)"><use id="SvgjsUse2658" xlink:href="#SvgjsG1072"></use></g><g id="SvgjsG2503" transform="matrix(1,0,0,1,350,300)"><use id="SvgjsUse2659" xlink:href="#SvgjsG1072"></use></g><g id="SvgjsG2504" transform="matrix(1,0,0,1,350,350)"><use id="SvgjsUse2660" xlink:href="#SvgjsG1072"></use></g></g>
</svg>